<?xml version="1.0" encoding="utf-8"?>
<!-- Generator: Adobe Illustrator 19.0.0, SVG Export Plug-In . SVG Version: 6.00 Build 0)  -->
<svg version="1.1" id="Illustration" xmlns="http://www.w3.org/2000/svg" xmlns:xlink="http://www.w3.org/1999/xlink" x="0px"
	 y="0px" viewBox="0 0 3710 3710" style="enable-background:new 0 0 3710 3710;" xml:space="preserve">
<style type="text/css">
	.st0{opacity:0.3;fill:url(#SVGID_1_);}
	.st1{fill:url(#SVGID_2_);}
	.st2{fill:url(#SVGID_3_);}
	.st3{fill:url(#SVGID_4_);}
	.st4{fill:url(#SVGID_5_);}
	.st5{fill:url(#SVGID_6_);}
	.st6{fill:url(#SVGID_7_);}
	.st7{fill:url(#SVGID_8_);}
	.st8{fill:url(#SVGID_9_);}
	.st9{opacity:0.17;fill:#FFFFFF;}
	.st10{opacity:0.68;}
	.st11{fill:#FFFFFF;}
	.st12{fill:url(#SVGID_10_);}
	.st13{fill:url(#SVGID_11_);}
	.st14{clip-path:url(#SVGID_13_);}
	.st15{fill:url(#SVGID_14_);}
	.st16{fill:url(#SVGID_15_);}
	.st17{opacity:0.6;fill:url(#SVGID_16_);}
	.st18{fill:url(#SVGID_17_);}
	.st19{fill:url(#SVGID_18_);}
	.st20{fill:url(#SVGID_19_);}
	.st21{fill:url(#SVGID_20_);}
	.st22{fill:url(#SVGID_21_);}
	.st23{opacity:0.3;fill:url(#SVGID_22_);}
	.st24{fill:url(#SVGID_23_);}
	.st25{fill:url(#SVGID_24_);}
	.st26{fill:url(#SVGID_25_);}
	.st27{fill:url(#SVGID_26_);}
	.st28{fill:url(#SVGID_27_);}
	.st29{fill:url(#SVGID_28_);}
	.st30{fill:url(#SVGID_29_);}
	.st31{fill:url(#SVGID_30_);}
	.st32{fill:url(#SVGID_31_);}
	.st33{fill:url(#SVGID_32_);}
	.st34{fill:url(#SVGID_33_);}
	.st35{fill:url(#SVGID_34_);}
	.st36{fill:url(#SVGID_35_);}
	.st37{fill:url(#SVGID_36_);}
	.st38{fill:url(#SVGID_37_);}
	.st39{fill:url(#SVGID_38_);}
	.st40{fill:url(#SVGID_39_);}
	.st41{fill:url(#SVGID_40_);}
	.st42{fill:url(#SVGID_41_);}
	.st43{fill:url(#SVGID_42_);}
	.st44{fill:url(#SVGID_43_);}
	.st45{fill:url(#SVGID_44_);}
	.st46{fill:url(#SVGID_45_);}
	.st47{fill:url(#SVGID_46_);}
	.st48{fill:url(#SVGID_47_);}
	.st49{fill:url(#SVGID_48_);}
	.st50{fill:url(#SVGID_49_);}
	.st51{fill:url(#SVGID_50_);}
	.st52{fill:url(#SVGID_51_);}
	.st53{fill:url(#SVGID_52_);}
	.st54{fill:url(#SVGID_53_);}
	.st55{fill:url(#SVGID_54_);}
	.st56{fill:url(#SVGID_55_);}
	.st57{fill:url(#SVGID_56_);}
	.st58{fill:url(#SVGID_57_);}
	.st59{fill:url(#SVGID_58_);}
	.st60{fill:url(#SVGID_59_);}
	.st61{fill:url(#SVGID_60_);}
	.st62{fill:url(#SVGID_61_);}
	.st63{fill:url(#SVGID_62_);}
	.st64{fill:url(#SVGID_63_);}
	.st65{fill:url(#SVGID_64_);}
	.st66{fill:url(#SVGID_65_);}
	.st67{fill:url(#SVGID_66_);}
	.st68{fill:url(#SVGID_67_);}
	.st69{fill:url(#SVGID_68_);}
	.st70{fill:url(#SVGID_69_);}
	.st71{fill:url(#SVGID_70_);}
	.st72{fill:url(#SVGID_71_);}
	.st73{fill:url(#SVGID_72_);}
	.st74{fill:url(#SVGID_73_);}
	.st75{fill:url(#SVGID_74_);}
	.st76{fill:url(#SVGID_75_);}
	.st77{fill:url(#SVGID_76_);}
	.st78{fill:url(#SVGID_77_);}
	.st79{fill:url(#SVGID_78_);}
	.st80{fill:url(#SVGID_79_);}
	.st81{fill:url(#SVGID_80_);}
	.st82{fill:url(#SVGID_81_);}
	.st83{fill:url(#SVGID_82_);}
	.st84{fill:url(#SVGID_83_);}
	.st85{fill:url(#SVGID_84_);}
	.st86{fill:url(#SVGID_85_);}
	.st87{fill:url(#SVGID_86_);}
	.st88{fill:url(#SVGID_87_);}
	.st89{fill:url(#SVGID_88_);}
	.st90{fill:url(#SVGID_89_);}
</style>
<g>
	<linearGradient id="SVGID_1_" gradientUnits="userSpaceOnUse" x1="3477.8191" y1="3288.7578" x2="1391.1561" y2="1462.9288">
		<stop  offset="0" style="stop-color:#B37CFF"/>
		<stop  offset="1" style="stop-color:#F895E7"/>
	</linearGradient>
	<path class="st0" d="M3129.8,2337c-271.1,630.5-993.3,983.6-1619.6,888.4c-101.9-15.5-381.3-61.7-628.6-279.5
		c-476.2-419.4-578-1249.9-193.9-1835.1c279.6-426,780.7-667.4,1256.9-655.3c102.6,2.6,495.7,18.6,841.1,300
		c50.7,41.3,162.7,139.5,263.5,295.3C3286.2,1416.5,3306.5,1926.2,3129.8,2337z"/>
	<g>
		<g>
			
				<linearGradient id="SVGID_2_" gradientUnits="userSpaceOnUse" x1="-2082.0154" y1="145.9014" x2="-2921.531" y2="1095.7194" gradientTransform="matrix(-1 0 0 1 -1858.0919 0)">
				<stop  offset="0" style="stop-color:#A737D5"/>
				<stop  offset="1" style="stop-color:#EF497A"/>
			</linearGradient>
			<path class="st1" d="M1201.2,1821.3c0,0,7-296-129.3-375.3c-136.3-79.2-395.6-128.8-405.3-553.8c-5.7-248.9-11.8-357.7-16-405.1
				c-1.6-18.5,14.8-33.4,33.1-30c129.1,24.3,548.6,124.5,636.6,410.8C1424.6,1207.3,1201.2,1821.3,1201.2,1821.3z"/>
			
				<linearGradient id="SVGID_3_" gradientUnits="userSpaceOnUse" x1="-2389.731" y1="819.8583" x2="-5055.3506" y2="2725.624" gradientTransform="matrix(-1 0 0 1 -1858.0919 0)">
				<stop  offset="0" style="stop-color:#CB236D"/>
				<stop  offset="1" style="stop-color:#4C246D"/>
			</linearGradient>
			<path class="st2" d="M783.6,575.4c141.7,126.4,305.7,350.2,393,573.9c11.2,36.9,44,115.3,58.3,254.6c12.7,116.2,6.4,239-9,320.3
				c-1,5.1-5.9,8.5-11.1,7.5c-8.8-1.7-7.7-11.2-7.6-10.9c17.6-138.9,10.3-311.7-30.1-467.7c-51.6-191.5-166.6-377.2-285.6-534.6
				L879.3,703c-92.2-118.4-111.6-119.3-103-127.5C778.3,573.6,781.5,573.5,783.6,575.4z"/>
		</g>
		<g>
			
				<linearGradient id="SVGID_4_" gradientUnits="userSpaceOnUse" x1="-2318.6448" y1="857.1025" x2="-2961.4963" y2="1657.3862" gradientTransform="matrix(-1 0 0 1 -1858.0919 0)">
				<stop  offset="0" style="stop-color:#A737D5"/>
				<stop  offset="1" style="stop-color:#EF497A"/>
			</linearGradient>
			<path class="st3" d="M1364.7,2329.3c19.7,9.7-186.9-250.2-251.7-658.5c-30.5-192.4-30.9-433.4-140.5-526.3
				c-91.2-77.3-401.5-28.5-503.1-10c-12.7,2.3-17,18.3-7.1,26.6c48.7,40.9,152.9,137.4,180,234.6
				c35.8,128.1,157.6,209.6,266.7,231.7c109.1,22.1,169.7,43.5,222.9,217.9C1185,2019.9,1308.6,2301.8,1364.7,2329.3z"/>
			
				<linearGradient id="SVGID_5_" gradientUnits="userSpaceOnUse" x1="-2521.3782" y1="1250.0619" x2="-4141.626" y2="2509.5249" gradientTransform="matrix(-1 0 0 1 -1858.0919 0)">
				<stop  offset="0" style="stop-color:#CB236D"/>
				<stop  offset="1" style="stop-color:#4C246D"/>
			</linearGradient>
			<path class="st4" d="M612.2,1188.8c129.6,5.4,268.6,64.5,339.2,175.4l6.7,10.6c15.4,24.8,102.6,201.1,151,347.3
				c0.6,1.8-0.4,3.8-2.2,4.4c-3.1,1-4.6-2.4-4.3-2.1c-33.7-82.6-82.2-187.3-120.8-265.5c-41.4-85.4-70.4-143.3-164.8-198.7
				c-105.1-59.7-205.5-65.8-205.2-65.8c-1.5-0.2-2.6-1.5-2.5-3.1C609.5,1189.8,610.8,1188.7,612.2,1188.8z"/>
		</g>
	</g>
	<g>
		<linearGradient id="SVGID_6_" gradientUnits="userSpaceOnUse" x1="1916.7522" y1="2684.4387" x2="1926.7404" y2="-662.2113">
			<stop  offset="0" style="stop-color:#53D8FF"/>
			<stop  offset="1" style="stop-color:#3840F7"/>
		</linearGradient>
		<path class="st5" d="M3185.4,1959.3c-28.4,647.9-618.4,1148.2-1317.8,1117.5S624.4,2496,652.8,1848.1
			c28.4-647.9,618.4-1148.2,1317.8-1117.5C2669.9,761.3,3213.8,1311.4,3185.4,1959.3z"/>
		<linearGradient id="SVGID_7_" gradientUnits="userSpaceOnUse" x1="1895.0831" y1="2789.9192" x2="1172.1714" y2="967.4543">
			<stop  offset="0" style="stop-color:#53D8FF"/>
			<stop  offset="1" style="stop-color:#3840F7"/>
		</linearGradient>
		<path class="st6" d="M962.9,1125.7c-27.8,44.7-49.3,94.9-45.2,147.4c4.7,60.8,35.4,117.6,37,178.5
			c2.7,103.3-77.1,189.8-101.9,290.1c-27.8,112.1,77,239.8,118.8,302.4c41.8,62.6,23.8-50.8,49.1-95c25.3-44.2,79.9,186,165.2,236.5
			c45.8,27.1,99.5,45.1,132.4,86.9c48,60.9,34.7,147.7,27.5,224.9c-7.2,77.2,3.6,171.4,73.2,205.7c41,20.2,93,13.4,130,40.2
			c64.9,47.1,33.9,149.9,59.6,225.9c28,82.6,83.4,83.7,169.3,101.2c85.8,17.5-10.8-171,29.4-236.9c21.1-34.6,53.4-62.2,70.1-99.2
			c23.1-51.3,16.6-119.8,61.4-153.8c33.6-25.5,80.4-18.6,122.5-19c42.2-0.4,93.5-18.7,98.3-60.6c4.2-37.2-33-66.8-69.4-75.4
			c-36.4-8.6-75.2-4.5-111-15.5c-102.3-31.5-150-174.6-256.8-181.3c-91.3-5.7-167.8,96.8-257.5,78.9c-50-10-84.3-54.3-121.4-89.3
			c-47.7-44.9-106.9-78.6-144.8-132.1c-37.9-53.5-44.3-138.9,9.6-176.2c40-27.7,96.9-16.5,136.4,11.9
			c39.5,28.4,66.5,70.5,95.5,109.6c9,12.1,19.1,24.6,33.5,29.1c38.6,12.1,66.8-42.2,57.5-81.6c-9.2-39.4-37.1-74-38.4-114.5
			c-2.3-71.3,74.4-116.5,141.7-140c67.3-23.5,146.7-51.5,166.5-120c7-24.2,5.2-50.8,15.8-73.6c35.4-75.6,221.9-113.3,177.3-157.2
			c-44.6-43.8-186.2-53.4-213.7-141.6c-9.9-31.6-20-73.4-53-76.4c-53.7-5-84.3,61.5-129.4,72.9c-21.4,5.4-23.4,41.7-22.6,86.4
			c0.6,32.4-25.2,59.2-57.6,59.8c-32.4,0.6-59.2-25.2-59.8-57.6c-0.2-12,1.9-24.2,6.8-36.3c8.7-21.3,25.1-38.3,41.7-54.1
			c69.3-66.2,276-138.8,232.7-167c-43.3-28.2-251.1-105.9-282.1-63c-31,42.9,20.3,6.6,32.8,57.4c12.5,50.9-153.7,44-230.6,66.1
			c-12.7,3.6-26.8,7.2-38.6,1.4c-13.3-6.4-18.9-21.9-26.1-34.8c-38.6-69-167-24.2-167-24.2S987.8,1085.8,962.9,1125.7z"/>
		<linearGradient id="SVGID_8_" gradientUnits="userSpaceOnUse" x1="2558.0305" y1="2518.563" x2="1841.4951" y2="712.173">
			<stop  offset="0" style="stop-color:#53D8FF"/>
			<stop  offset="1" style="stop-color:#3840F7"/>
		</linearGradient>
		<path class="st7" d="M1543.5,812.8c-18.7,34.8,36.8,34.2,42.4,73.3c50,5.4,70.5-73.3,119.9-82.5c27.9-5.2,54.9,14.8,70.1,38.8
			c15.2,24,22.2,52.1,35.1,77.4c28.8,56.7,88.2,96.5,151.5,101.7c13.8,1.1,29,0.2,39.3-8.9c30.1-26.5-13-76.4-1.8-114.9
			c12.8-44,76.3-37.4,119.2-53.5c11.8-4.5,102.9-28.7,104.3-41.3c2.6-22.3-39.6-36.5-86.9-48.6c-80.1-20.6-220.9-19.7-289.8-13.5
			C1755.2,749,1602.6,742.3,1543.5,812.8L1543.5,812.8z"/>
		<g>
			<linearGradient id="SVGID_9_" gradientUnits="userSpaceOnUse" x1="2429.0845" y1="3014.6943" x2="3328.2136" y2="544.1161">
				<stop  offset="0" style="stop-color:#53D8FF"/>
				<stop  offset="1" style="stop-color:#3840F7"/>
			</linearGradient>
			<path class="st8" d="M3071.1,2308.8c20.8-129.9,19-263.4-5.1-392.8c-6.4-34.5-21.5-75.6-56.2-80.6c-40.2-5.7-89.4,40.4-114.6,8.6
				c-11.1-14.1-6.7-34.5-0.4-51.3c16.6-44.3,42.6-85,75.7-118.7c20.6-20.9,44.1-39.5,60-64.2c33.9-52.9,10.1-130.1-37.9-170.6
				c-48-40.5-109.9,32.1-160.4,3.3c-50.5-28.8-52-98.8-61.5-156.1c-7-42.5-38.3-157.5-72.9-101.5c-34.6,56,46.1,279.1,136.9,386
				c11,12.9,23,27.3,22.1,44.2c-2.2,40.3-61,38.5-100.5,46.8c-49,10.2-124-16-82.6,69.3c21.8,45,126.2,106.6,98.1,136.7
				c-28,30.1-114.2,117.3-154.6,187.8c-40.4,70.5-60,158.4-29.5,233.7c30.5,75.4,122.2,127.4,197,95.7c35-14.9,73.2-45.8,105.8-26.1
				c29.5,17.8,25.1,60.6,23.7,95c-1.5,34.4,18.4,80.1,51.9,72c11-2.7,19.7-11,27.1-19.6C3040.4,2452.4,3059.8,2379.7,3071.1,2308.8z
				"/>
		</g>
		<ellipse class="st9" cx="1850.5" cy="1819" rx="994.6" ry="939.6"/>
		<g class="st10">
			<path class="st11" d="M2273,1923.9c-0.3,207-14.5,414.5-50.8,618.6c-9.2,51-19.9,101.7-32.6,152c-12.8,50.2-27.5,100-45.6,148.7
				c-18.2,48.6-39.3,96.4-68,140.1c-14.4,21.7-30.8,42.5-51,59.5c-10.1,8.5-21.1,16-33.3,21.5c-12.1,5.5-25.4,8.9-38.8,9.2
				c-13.4,0.4-26.9-2.2-39.2-7.2c-12.4-4.9-23.7-12.1-34.1-20.3c-20.6-16.5-37.4-37.1-52.1-58.6c-14.7-21.6-27.2-44.5-38.5-67.9
				c-11.3-23.4-21.3-47.4-30.5-71.7c-18.3-48.6-33.2-98.4-46-148.6c-12.9-50.2-23.6-100.9-32.9-151.9
				c-18.5-102-31.1-204.9-39.6-308.1c-8.4-103.2-12.6-206.8-13.1-310.4c-0.2-51.8,1.1-103.6,2.9-155.3c1.9-51.7,4.7-103.5,8.5-155.1
				c7.6-103.3,18.9-206.3,35.8-308.5c8.5-51.1,18.4-102,30.3-152.4c12-50.4,25.8-100.4,43.1-149.3c8.7-24.4,18.1-48.6,29-72.2
				c10.8-23.6,22.9-46.7,37.1-68.5c14.2-21.7,30.6-42.4,51-59c10.2-8.2,21.4-15.4,33.7-20.2c12.2-4.9,25.5-7.4,38.7-6.9
				c13.2,0.4,26.2,3.7,38.2,9c12,5.3,23.1,12.6,33.3,20.8c20.3,16.5,37.1,36.8,52.1,58c14.9,21.3,27.9,43.9,39.6,67.1
				c11.7,23.2,22.2,46.9,31.9,71c19.2,48.2,35.1,97.6,48.9,147.5c13.8,50,25.4,100.5,35.5,151.3
				C2256.2,1509.3,2272.4,1716.8,2273,1923.9z M2260.2,1923.9c0.2-103.2-3.8-206.5-12.4-309.4c-8.5-102.9-21.4-205.4-40.6-306.9
				c-9.6-50.7-20.7-101.1-34-151c-13.3-49.8-28.7-99.2-47.3-147.2c-9.4-24-19.6-47.7-31-70.8c-11.4-23.1-24.1-45.6-38.6-66.8
				c-14.5-21.1-31-41.2-50.7-57.5c-9.8-8.1-20.5-15.3-32.1-20.5c-11.6-5.2-24-8.6-36.7-8.9c-12.7-0.4-25.3,2.1-37,6.9
				c-11.8,4.8-22.5,11.8-32.4,19.9c-19.7,16.3-35.6,36.8-49.4,58.4c-13.8,21.7-25.6,44.6-36.1,68.1c-10.5,23.5-19.7,47.6-28.1,72
				c-16.7,48.8-30.1,98.7-41.5,149c-11.4,50.3-20.8,101.1-28.8,152.1c-15.9,102-26.3,204.8-32.9,307.9c-6.7,103-9.1,206.3-8.9,309.6
				c-0.2,103.2,3.3,206.5,11,309.4c7.8,102.9,19.7,205.6,37.5,307.2c8.9,50.8,19.3,101.4,31.8,151.4c12.5,50,27,99.6,44.8,147.9
				c8.9,24.2,18.7,48,29.7,71.2c11,23.2,23.3,45.9,37.5,67.1c14.3,21.2,30.5,41.3,50.2,57.3c9.8,7.9,20.6,14.8,32.2,19.5
				c11.6,4.7,24,7.3,36.4,6.9c12.4-0.3,24.7-3.6,36.1-8.8c11.4-5.2,21.9-12.4,31.5-20.7c19.3-16.5,35.1-36.9,49.2-58.3
				c27.8-43.1,48.5-90.6,66.2-138.9c17.6-48.4,31.9-98,44.3-148.1c12.3-50.1,22.6-100.7,31.4-151.5
				c17.7-101.7,29.4-204.4,37.2-307.3C2256.6,2130.4,2260.2,2027.1,2260.2,1923.9z"/>
			<path class="st11" d="M2795.2,1923.9c-0.7,133.2-17.8,266.6-53.4,395.1c-36.2,128.2-90.8,251.6-165,362.4
				c-37.1,55.3-79.1,107.4-126.1,154.7c-47,47.2-98.9,89.7-155.3,125.2c-56.5,35.4-117.4,63.7-181.3,82.9
				c-63.8,19.3-130.4,29.3-197.1,29.4c-66.7,0-133.3-10-197.1-29.3c-63.9-19.2-124.9-47.5-181.4-82.8
				c-56.5-35.5-108.5-77.9-155.5-125.1c-47-47.2-89.2-99.3-126.3-154.7c-74.3-110.8-129-234.2-165.4-362.5
				c-35.9-128.5-52.9-262-53.5-395.3c0.3-66.7,4.8-133.3,13.6-199.4c8.9-66.1,22.2-131.6,40.1-195.8
				c36.4-128.2,91.2-251.6,165.6-362.3c37.2-55.3,79.3-107.3,126.3-154.5c47-47.2,99-89.5,155.4-124.9
				c56.5-35.3,117.5-63.4,181.3-82.6c63.7-19.2,130.3-29.3,196.9-29.4c66.6,0.1,133.1,10.2,196.8,29.5
				c63.7,19.2,124.7,47.4,181.2,82.7c56.4,35.4,108.3,77.8,155.3,125c47,47.2,89,99.3,126.1,154.5c74.2,110.7,128.9,234,165.2,362.2
				C2777.3,1657.3,2794.5,1790.6,2795.2,1923.9z M2780.6,1923.9c-0.2-132-16.7-264.1-51.6-391.5c-35.1-127.2-88-249.9-160.6-360.3
				c-36.3-55.1-77.6-107.1-123.7-154.3c-46.2-47.2-97.2-89.8-153-125.2c-55.8-35.3-116.1-63.6-179.4-82.8
				c-63.2-19.2-129.1-29.3-195.2-29.5c-66.1,0.3-132,10.4-195.2,29.7c-63.2,19.2-123.4,47.6-179.2,82.9
				c-55.7,35.5-106.7,78.1-152.8,125.3c-46.1,47.2-87.3,99.2-123.5,154.3c-72.5,110.4-125.3,233.1-160.3,360.2
				c-17.4,63.6-30,128.5-38.6,193.9c-8.6,65.4-12.8,131.3-12.9,197.3c0.2,66,4.5,131.9,13,197.3c8.6,65.4,21.2,130.3,38.7,193.9
				c35,127.1,87.9,249.7,160.5,360c36.3,55.1,77.4,107,123.5,154.2c46.1,47.1,97.1,89.7,152.8,125.1c55.8,35.2,116,63.4,179.1,82.7
				c63.1,19.3,128.9,29.5,194.9,29.8c66-0.3,131.9-10.4,195-29.6c63.1-19.2,123.4-47.4,179.2-82.6c55.8-35.4,106.8-78,153-125
				c46.2-47.2,87.4-99.1,123.8-154.2c72.7-110.3,125.6-233,160.8-360.1C2763.7,2187.9,2780.3,2055.9,2780.6,1923.9z"/>
			<path class="st11" d="M890.6,1468.9l264.2-1.8l264.2-1l528.3-0.8l528.3,0.9l264.2,1.1l264.2,1.9c0.4,0,0.6,0.3,0.6,0.7
				c0,0.4-0.3,0.6-0.6,0.6l-264.2,1.9l-264.2,1.1l-528.3,0.9l-528.3-0.8l-264.2-1l-264.2-1.8c-0.5,0-1-0.4-1-1
				C889.6,1469.3,890,1468.9,890.6,1468.9z"/>
			<path class="st11" d="M1197,1026.4l187.6-1.8l187.6-1c62.5-0.4,125-0.4,187.6-0.5l187.6-0.3l375.1,0.9l187.6,1.1
				c62.5,0.7,125,1,187.6,1.9c0.4,0,0.6,0.3,0.6,0.7c0,0.4-0.3,0.6-0.6,0.6c-62.5,0.9-125,1.3-187.6,1.9l-187.6,1.1l-375.1,0.9
				l-187.6-0.3c-62.5-0.1-125-0.1-187.6-0.5l-187.6-1l-187.6-1.8c-0.5,0-1-0.4-1-1C1196.1,1026.8,1196.5,1026.4,1197,1026.4z"/>
			<path class="st11" d="M798.8,1911.3l287.1-1.8l287.1-1l574.2-0.8l574.2,0.9l287.1,1.1l287.1,1.9c0.4,0,0.6,0.3,0.6,0.6
				c0,0.4-0.3,0.6-0.6,0.6l-287.1,1.9l-287.1,1.1l-574.2,0.9L1373,1916l-287.1-1l-287.1-1.8c-0.5,0-1-0.4-1-1
				C797.8,1911.8,798.2,1911.3,798.8,1911.3z"/>
			<path class="st11" d="M890.6,2353.8l264.2-1.8l264.2-1l528.3-0.8l528.3,0.9l264.2,1.1l264.2,1.9c0.4,0,0.6,0.3,0.6,0.7
				c0,0.4-0.3,0.6-0.6,0.6l-264.2,1.9l-264.2,1.1l-528.3,0.9l-528.3-0.8l-264.2-1l-264.2-1.8c-0.5,0-1-0.4-1-1
				C889.6,2354.2,890,2353.8,890.6,2353.8z"/>
			<path class="st11" d="M2735.3,2800.6H1234.8c-1.9,0-3.4-1.5-3.4-3.4s1.5-3.4,3.4-3.4h1500.4c1.9,0,3.4,1.5,3.4,3.4
				S2737.1,2800.6,2735.3,2800.6z"/>
		</g>
	</g>
	<g>
		<circle class="st11" cx="2612.6" cy="1080.5" r="494.1"/>
		<linearGradient id="SVGID_10_" gradientUnits="userSpaceOnUse" x1="2813.8088" y1="336.5649" x2="2430.6157" y2="1753.3002">
			<stop  offset="0" style="stop-color:#233894"/>
			<stop  offset="0.9964" style="stop-color:#DD397A"/>
		</linearGradient>
		<circle class="st12" cx="2612.6" cy="1080.5" r="477.7"/>
		<linearGradient id="SVGID_11_" gradientUnits="userSpaceOnUse" x1="2132.6841" y1="1950.0784" x2="2895.5906" y2="554.0108">
			<stop  offset="0" style="stop-color:#A737D5"/>
			<stop  offset="1" style="stop-color:#EF497A"/>
		</linearGradient>
		<circle class="st13" cx="2602.2" cy="1090.9" r="404.3"/>
		<path class="st11" d="M3006.5,887.1c0.8,0,1.5-0.2,2.3-0.5c2.5-1.3,3.5-4.3,2.2-6.8c-76.4-151.3-229-245.3-398.4-245.3
			c-27,0-54.1,2.4-80.5,7.2c-2.7,0.5-4.6,3.1-4.1,5.9c0.5,2.7,3.1,4.6,5.9,4.1c25.8-4.7,52.2-7.1,78.6-7.1
			c165.5,0,314.7,91.9,389.4,239.8C3002.9,886.1,3004.6,887.1,3006.5,887.1z"/>
		<g>
			<defs>
				<path id="SVGID_12_" d="M2905.2,850c-155.5-159.7-417.5-175.3-585.6-26.5c-173.4,153.4-173.4,414.9,0,575.1
					c168.1,155.3,430.2,149.8,585.6-3.8C3056.2,1245.5,3056.2,1005.1,2905.2,850z"/>
			</defs>
			<clipPath id="SVGID_13_">
				<use xlink:href="#SVGID_12_"  style="overflow:visible;"/>
			</clipPath>
			<g class="st14">
				
					<linearGradient id="SVGID_14_" gradientUnits="userSpaceOnUse" x1="6816.4268" y1="-28.8649" x2="6882.8276" y2="1362.5472" gradientTransform="matrix(-1 0 0 1 9484.0088 0)">
					<stop  offset="0" style="stop-color:#F9B776"/>
					<stop  offset="1" style="stop-color:#F47960"/>
				</linearGradient>
				<path class="st15" d="M2395.2,963.6v182.7c0,44.6,15.8,85.4,41.2,117l4,4.5c0,0,0.2,0.4,0.2,0.4c33.1,38.6,81.8,62.9,136,62
					l82.8-1.4c98.4-1.6,177.1-85.9,177.1-187.5v-138.5L2395.2,963.6z"/>
				
					<linearGradient id="SVGID_15_" gradientUnits="userSpaceOnUse" x1="6835.2437" y1="606.9484" x2="6868.9868" y2="1314.0288" gradientTransform="matrix(-1 0 0 1 9484.0088 0)">
					<stop  offset="0" style="stop-color:#F9B776"/>
					<stop  offset="1" style="stop-color:#F47960"/>
				</linearGradient>
				<path class="st16" d="M2470,1471.1c35.5,11,91.5,25.9,160.2,21.3c51.7-3.5,94.1-15.5,124.3-26.7c0-63.7,0-127.5,0-191.2
					l-284.5,4.3V1471.1z"/>
				
					<linearGradient id="SVGID_16_" gradientUnits="userSpaceOnUse" x1="7170.3071" y1="487.9413" x2="6649.0898" y2="1413.9875" gradientTransform="matrix(-1 0 0 1 9484.0088 0)">
					<stop  offset="0" style="stop-color:#F9B776"/>
					<stop  offset="1" style="stop-color:#F47960"/>
				</linearGradient>
				<path class="st17" d="M2839,1077.6c0,0-225.6,114.6-239.8,184.3c-82.6,1.9-118.6-75.4-118.6-75.4l-74.1-174l5.2-66.3l427,72
					L2839,1077.6z"/>
				
					<linearGradient id="SVGID_17_" gradientUnits="userSpaceOnUse" x1="5448.0718" y1="2089.5784" x2="5555.9473" y2="2089.5784" gradientTransform="matrix(-0.769 -0.6394 -0.5152 0.7145 8110.3008 3112.1921)">
					<stop  offset="0" style="stop-color:#F9B776"/>
					<stop  offset="1" style="stop-color:#F47960"/>
				</linearGradient>
				<path class="st18" d="M2866.9,990.3l5.9,4.9c20.8,17.4,26.9,45.7,14.2,63.7l-85.9,122.4c-13.4,19.1-41.6,20.2-63.6,2l-2.2-1.8
					c-22-18.2-29.5-48.9-16.1-68l86.4-122.5C2818.5,973,2846.1,972.9,2866.9,990.3z"/>
				
					<linearGradient id="SVGID_18_" gradientUnits="userSpaceOnUse" x1="5551.8579" y1="2086.2429" x2="5663.6455" y2="2086.2429" gradientTransform="matrix(-0.7644 -0.6335 -0.5163 0.713 8085.9136 3080.2444)">
					<stop  offset="0" style="stop-color:#F9B776"/>
					<stop  offset="1" style="stop-color:#F47960"/>
				</linearGradient>
				<path class="st19" d="M2798.9,903.9l4,3.3c22,18.4,27.3,49.8,12.5,70.7l-100.7,142.2c-15.7,22.1-47.3,24.5-70.6,5.3
					c-23.4-19.3-29.5-52.9-13.8-75.1L2731.5,908C2746.4,887,2776.9,885.4,2798.9,903.9z"/>
				
					<linearGradient id="SVGID_19_" gradientUnits="userSpaceOnUse" x1="5662.1597" y1="2086.1284" x2="5777.1123" y2="2086.1284" gradientTransform="matrix(-0.7644 -0.6335 -0.5163 0.713 8085.9136 3080.2444)">
					<stop  offset="0" style="stop-color:#F9B776"/>
					<stop  offset="1" style="stop-color:#F47960"/>
				</linearGradient>
				<path class="st20" d="M2712.7,831.8l6.3,5.2c22.1,18.5,27.4,50,12.5,70.9l-101.2,142.3c-15.8,22.2-47,24.9-70.5,5.6l-2.3-1.9
					c-23.5-19.4-30.2-53.5-14.3-75.7L2645,835.8C2660,814.9,2690.6,813.3,2712.7,831.8z"/>
				
					<linearGradient id="SVGID_20_" gradientUnits="userSpaceOnUse" x1="5773.1021" y1="2107.5144" x2="5879.7695" y2="2107.5144" gradientTransform="matrix(-0.7644 -0.6335 -0.5163 0.713 8085.9136 3080.2444)">
					<stop  offset="0" style="stop-color:#F9B776"/>
					<stop  offset="1" style="stop-color:#F47960"/>
				</linearGradient>
				<path class="st21" d="M2613.9,800.9c20.6,17.2,27,45.5,14.3,63.3l-86.2,120.6c-13.4,18.8-41.5,19.8-63.4,1.8l-2.1-1.8
					c-21.9-18.1-29.2-48.3-15.7-67.1l83.1-115.7C2558.7,781.4,2590,780.9,2613.9,800.9z"/>
				<linearGradient id="SVGID_21_" gradientUnits="userSpaceOnUse" x1="2403.105" y1="23.0664" x2="2469.6045" y2="1416.5381">
					<stop  offset="0" style="stop-color:#F9B776"/>
					<stop  offset="1" style="stop-color:#F47960"/>
				</linearGradient>
				<path class="st22" d="M2595.7,1330l-10.4,0.2c-57.5,0.9-109.2-25.4-144.4-67.2c0,0,0-0.2-0.1-0.3l-3.9-4.9L2341,1140
					c-28.2-34.7-42.5-79.6-39.8-125.3c3-51.9,42.1-93.8,91.5-98.4l0.9-0.1l146.7-13.6c28.5-2.7,53.8,18.9,57.1,48.8
					c1.2,11,0.2,21.7-2.6,31.8c-7.2,25.6-26.3,46.6-52.1,54.5l-47.9,14.6c0,0,87.2,6.2,102.6,155.9
					C2601,1241.2,2600.9,1281.8,2595.7,1330z"/>
				<linearGradient id="SVGID_22_" gradientUnits="userSpaceOnUse" x1="2547.2605" y1="1487.3411" x2="2487.062" y2="802.0097">
					<stop  offset="0" style="stop-color:#F9B776"/>
					<stop  offset="1" style="stop-color:#F47960"/>
				</linearGradient>
				<path class="st23" d="M2597.5,1207.9c-26-135.8-207.4-154.6-176.8-154.2c34,0.5,34-77.4,34-77.4s30.9,39,39.2,48.8
					c8.3,9.8,97.7-43,97.7-43c1.1,0.2,2.2,0.5,3.3,1c-7.2,25.6-26.3,46.6-52.1,54.5l-47.9,14.6
					C2495,1052.3,2582.1,1058.2,2597.5,1207.9z"/>
			</g>
		</g>
	</g>
	<g>
		<g>
			
				<linearGradient id="SVGID_23_" gradientUnits="userSpaceOnUse" x1="2829.4351" y1="3204.2866" x2="2933.7495" y2="3204.2866" gradientTransform="matrix(1 0 0 1 -1193.7806 0)">
				<stop  offset="0" style="stop-color:#2B3582"/>
				<stop  offset="1" style="stop-color:#150E42"/>
			</linearGradient>
			<path class="st24" d="M1740,3239.2c0-0.8,0-1.6-0.2-2.4c-11.9-47.1-60.4-71.2-60.4-71.2l-23.4,1.8
				c-13.4,41.5-22.1,61.8-19.9,73.1c0.1,0.3,0.2,0.6,0.2,0.9C1655.5,3243.2,1695.2,3244.3,1740,3239.2z"/>
			
				<linearGradient id="SVGID_24_" gradientUnits="userSpaceOnUse" x1="2512.4761" y1="4483.0088" x2="2689.0549" y2="3889.2944" gradientTransform="matrix(1 0 0 1 -1193.7806 0)">
				<stop  offset="0" style="stop-color:#2B3582"/>
				<stop  offset="1" style="stop-color:#150E42"/>
			</linearGradient>
			<path class="st25" d="M1636.2,3241.5c1,3.8,3.8,6.7,7.4,7.5c27.4,5.8,71,1.1,89.3-1.3c4-0.5,7-4.3,7.1-8.5
				C1695.2,3244.3,1655.5,3243.2,1636.2,3241.5z"/>
			
				<linearGradient id="SVGID_25_" gradientUnits="userSpaceOnUse" x1="1809.8325" y1="3081.8823" x2="1789.0072" y2="3263.6318" gradientTransform="matrix(-1 0 0 1 3479.7163 0)">
				<stop  offset="0" style="stop-color:#F9B776"/>
				<stop  offset="1" style="stop-color:#F47960"/>
			</linearGradient>
			<path class="st26" d="M1698.5,3129.3l-10.2,49.2c-0.7,3.6-3.5,6.3-6.9,6.6c-4.1,0.4-10,0.6-15.8-0.3c-5.3-0.8-9-6.1-8-11.9
				l7.1-43.7H1698.5z"/>
			
				<linearGradient id="SVGID_26_" gradientUnits="userSpaceOnUse" x1="100.3353" y1="9864.5703" x2="276.9148" y2="9270.8535" gradientTransform="matrix(-1 0 0 1 3479.7163 0)">
				<stop  offset="0" style="stop-color:#2B3582"/>
				<stop  offset="1" style="stop-color:#150E42"/>
			</linearGradient>
			<path class="st27" d="M1437.7,3241.1c25-0.7,37.9-3.6,44.5-6.4c0,2.5,0,5-0.1,7.6c-0.1,2.8-2.2,5-4.7,5l-137-0.9
				c-4.4,0-6.9-5.1-5-9.1C1353.4,3238.8,1399.2,3242.2,1437.7,3241.1z"/>
			
				<linearGradient id="SVGID_27_" gradientUnits="userSpaceOnUse" x1="1997.4615" y1="3205.769" x2="2144.2656" y2="3205.769" gradientTransform="matrix(-1 0 0 1 3479.7163 0)">
				<stop  offset="0" style="stop-color:#2B3582"/>
				<stop  offset="1" style="stop-color:#150E42"/>
			</linearGradient>
			<path class="st28" d="M1335.5,3237.4c0.2-0.3,0.3-0.7,0.5-1c12.1-16.9,42.9-50.6,103.8-65.2l29.2-0.9c0,0,13,22.6,13.3,64.5
				c-6.7,2.7-19.6,5.7-44.5,6.4C1399.2,3242.2,1353.4,3238.8,1335.5,3237.4z"/>
			
				<linearGradient id="SVGID_28_" gradientUnits="userSpaceOnUse" x1="2029.2123" y1="3105.1345" x2="2009.7314" y2="3275.1494" gradientTransform="matrix(-1 0 0 1 3479.7163 0)">
				<stop  offset="0" style="stop-color:#F9B776"/>
				<stop  offset="1" style="stop-color:#F47960"/>
			</linearGradient>
			<path class="st29" d="M1474.4,3126c-0.3,2.2-4.3,35.3-5.9,48.1c-0.4,3-2.6,5.4-5.4,5.7c-5,0.6-13,1.1-20.1-0.3
				c-3.8-0.8-6.5-4.4-6.5-8.7v-51.9L1474.4,3126z"/>
			
				<linearGradient id="SVGID_29_" gradientUnits="userSpaceOnUse" x1="97.1158" y1="3099.6985" x2="120.4856" y2="2367.4575" gradientTransform="matrix(-1 0 0 1 1667.881 0)">
				<stop  offset="0" style="stop-color:#2B3582"/>
				<stop  offset="1" style="stop-color:#150E42"/>
			</linearGradient>
			<path class="st30" d="M1679,2482.7c0,0,46.7,415.5,20.8,675.1c0,0-31.2,0-46.7-5.2c0,0-48.6-406.2-64.3-522.5
				c-0.6-4.4-6.8-4.6-7.7-0.2c-19.4,97.8-95.5,481.3-104.6,517.5c0,0-26,10.4-46.7,0c0,0,41.5-555.7,72.7-654.4L1679,2482.7z"/>
			
				<linearGradient id="SVGID_30_" gradientUnits="userSpaceOnUse" x1="2287.3687" y1="1958.1511" x2="2380.3582" y2="3494.4915" gradientTransform="matrix(1 0 0 1 -694.2488 0)">
				<stop  offset="0" style="stop-color:#CB236D"/>
				<stop  offset="1" style="stop-color:#4C246D"/>
			</linearGradient>
			<path class="st31" d="M1772.5,1999.7c0,0-197.4-31.2-353.2,10.4l10.4,161c0,0,41.5,223.3,72.7,322c0,0,119.4,20.8,176.6-10.4
				c0,0,46.7-280.4,72.7-322C1751.7,2160.7,1777.7,2051.6,1772.5,1999.7z"/>
			
				<linearGradient id="SVGID_31_" gradientUnits="userSpaceOnUse" x1="12.8388" y1="1929.7131" x2="106.2264" y2="1929.7131" gradientTransform="matrix(-1 0 0 1 1667.881 0)">
				<stop  offset="0" style="stop-color:#F9B776"/>
				<stop  offset="1" style="stop-color:#F47960"/>
			</linearGradient>
			<path class="st32" d="M1635.4,1857.8l19.7,133c0,0-54.9,25.2-93.4-1.1l8.3-93.8L1635.4,1857.8z"/>
			<g>
				
					<linearGradient id="SVGID_32_" gradientUnits="userSpaceOnUse" x1="9830.8711" y1="-1860.7863" x2="9994.4688" y2="-1900.6036" gradientTransform="matrix(-0.8757 -0.4828 -0.4828 0.8757 1534.2062 1095.1436)">
					<stop  offset="0" style="stop-color:#F9B776"/>
					<stop  offset="1" style="stop-color:#F47960"/>
				</linearGradient>
				<path class="st33" d="M1550.7,1771.2c-0.6,1.1-12.5,68.2-19.8,109.7c-3,17.1,9.6,33.1,27,34.1l15.9,0.9
					c29.2,1.7,55-19.1,59.4-48l11.5-75.2C1644.8,1792.7,1565.8,1743.9,1550.7,1771.2z"/>
				
					<linearGradient id="SVGID_33_" gradientUnits="userSpaceOnUse" x1="-476.3164" y1="571.3942" x2="-307.8093" y2="571.3942" gradientTransform="matrix(-0.8757 -0.4828 -0.4828 0.8757 1534.2062 1095.1436)">
					<stop  offset="0" style="stop-color:#2B3582"/>
					<stop  offset="1" style="stop-color:#150E42"/>
				</linearGradient>
				<path class="st34" d="M1661.9,1792.9c6.1-7.6,11.4-19.9-1.6-32.8c-13.2-13.1-28.1-9.8-37.5-5.4c-4.2,1.9-9.4,1.1-12.3-2.4
					c-1.3-1.6-3.3-2.6-6.2-2.3c-5.5,0.6-10.4-3-11.1-8.5c-1.1-9.4-6.1-20.5-22.8-23.7c-30.6-5.9-45.8,24.7-45.3,46.2
					c0.5,21.5,34.1,26,53.1,22.5c14-2.6,26,9.7,31.5,16.3c2,2.4,2.7,5.6,2,8.7l-4.8,20.8c3.3,6.5,6.6,13.1,11.3,18.6
					c3.4,4,7.1,6.2,11,7.1c5.7-10.6,21.6-12.4,29.1-12.6c2.8-0.1,5.5-1.3,7.3-3.5c5.6-6.4,14.3-20.7-2.4-34.8
					C1659,1803.4,1658.5,1797.1,1661.9,1792.9z"/>
				
					<linearGradient id="SVGID_34_" gradientUnits="userSpaceOnUse" x1="9825.1279" y1="-1884.4901" x2="9988.7275" y2="-1924.3077" gradientTransform="matrix(-0.8757 -0.4828 -0.4828 0.8757 1534.2062 1095.1436)">
					<stop  offset="0" style="stop-color:#F9B776"/>
					<stop  offset="1" style="stop-color:#F47960"/>
				</linearGradient>
				<path class="st35" d="M1623.7,1880c0,0,0.7-37.5,15.8-41c15.2-3.5,31.6,7.5,18.6,29.9C1641.9,1896.8,1623.7,1880,1623.7,1880z"
					/>
			</g>
			
				<linearGradient id="SVGID_35_" gradientUnits="userSpaceOnUse" x1="2065.5525" y1="1964.5173" x2="2161.3755" y2="3547.6704" gradientTransform="matrix(1 0 0 1 -694.2488 0)">
				<stop  offset="0" style="stop-color:#CB236D"/>
				<stop  offset="1" style="stop-color:#4C246D"/>
			</linearGradient>
			<path class="st36" d="M1522.8,2194.1c0,0-452.6-134.6-231.2-446.8l18.6,24.5c0,0-63.6,221.4,157.4,241.5
				C1467.5,2013.3,1524.8,2160.9,1522.8,2194.1z"/>
			<g>
				
					<linearGradient id="SVGID_36_" gradientUnits="userSpaceOnUse" x1="2515.1174" y1="1944.3666" x2="2608.1072" y2="3480.7083" gradientTransform="matrix(1 0 0 1 -694.2488 0)">
					<stop  offset="0" style="stop-color:#CB236D"/>
					<stop  offset="1" style="stop-color:#4C246D"/>
				</linearGradient>
				<path class="st37" d="M1683.6,2179c0,0,445.9-121.4,224.5-433.5l-15,21.2c0,0,66.7,211.4-154.3,231.5
					C1738.9,1998.2,1681.7,2145.8,1683.6,2179z"/>
				<linearGradient id="SVGID_37_" gradientUnits="userSpaceOnUse" x1="2260.4912" y1="999.3332" x2="2048.8362" y2="1402.4849">
					<stop  offset="0" style="stop-color:#F9B776"/>
					<stop  offset="1" style="stop-color:#F47960"/>
				</linearGradient>
				<path class="st38" d="M1909.7,1747.1c0,0,3.5-50.4-26.6-55.4c-30.1-5-38.7,15.3-43.7,30.3c-5,15.1,45.2,45.2,55.2,45.2
					C1904.6,1767.2,1909.7,1747.1,1909.7,1747.1z"/>
			</g>
		</g>
		
			<linearGradient id="SVGID_38_" gradientUnits="userSpaceOnUse" x1="1868.5092" y1="1197.2427" x2="1655.473" y2="1559.9796" gradientTransform="matrix(1 0 0 1 -229.1484 0)">
			<stop  offset="0" style="stop-color:#F9B776"/>
			<stop  offset="1" style="stop-color:#F47960"/>
		</linearGradient>
		<path class="st39" d="M1293.4,1755.4c0,0-5-60.3,25.1-65.3c30.1-5,40.2,25.1,45.2,40.2c5,15.1-45.2,45.2-55.2,45.2
			C1298.4,1775.5,1293.4,1755.4,1293.4,1755.4z"/>
		<g>
			
				<linearGradient id="SVGID_39_" gradientUnits="userSpaceOnUse" x1="3914.4431" y1="2390.2964" x2="3575.2703" y2="1915.4547" gradientTransform="matrix(-1 0 0 1 4550.6987 0)">
				<stop  offset="0" style="stop-color:#2B3582"/>
				<stop  offset="1" style="stop-color:#150E42"/>
			</linearGradient>
			<path class="st40" d="M874.2,1733.2c2.1,0.6-31.6,50.2-32.7,51.6c-38.4,48.7-82.3,99.5-134.5,133.7
				c-59.2,38.8-163,41.7-185.5,120.2c-18,62.9,5.5,127.5,55.2,168.9c25.3,21.1,58.7,30.1,83.2,52.1c34.7,31.1,23.6,67.7,24.3,109.6
				c1,61.5,31,102.8,89.6,123.8c119.4,42.8,403.2-161.4,258.6-411.9c-144.6-250.5-58-319.1-58-319.1S874.2,1733.3,874.2,1733.2z"/>
			
				<linearGradient id="SVGID_40_" gradientUnits="userSpaceOnUse" x1="-995.0926" y1="1763.3734" x2="-813.788" y2="2175.8823" gradientTransform="matrix(-0.9776 -0.2106 -0.2106 0.9776 560.7617 -113.5247)">
				<stop  offset="0" style="stop-color:#C4421B"/>
				<stop  offset="1" style="stop-color:#5C0E16"/>
			</linearGradient>
			<path class="st41" d="M1271.3,1710.9c0,0-146,231-319.7,275.6c0,0,33.8,96.4,60,107.4c0,0,213.7-178.3,268.6-350.2L1271.3,1710.9
				z"/>
			
				<linearGradient id="SVGID_41_" gradientUnits="userSpaceOnUse" x1="-262.3371" y1="3208.3748" x2="-179.1186" y2="3208.3748" gradientTransform="matrix(-1 0 0 1 310.3417 0)">
				<stop  offset="0" style="stop-color:#2B3582"/>
				<stop  offset="1" style="stop-color:#150E42"/>
			</linearGradient>
			<path class="st42" d="M572.6,3188.4l-4.7,38.9c-0.9,7.4-6.7,13.2-14.1,14.1c-12.5,1.4-32.5,2.9-52.1,0.8
				c-8.6-0.9-14.2-9.6-11.6-17.9c4.8-15,13.5-37.6,26.1-50.8h43.2C567.4,3173.5,573.5,3180.5,572.6,3188.4z"/>
			
				<linearGradient id="SVGID_42_" gradientUnits="userSpaceOnUse" x1="-613.9785" y1="3536.542" x2="-494.221" y2="2136.8765" gradientTransform="matrix(-1 0 0 1 310.3417 0)">
				<stop  offset="0" style="stop-color:#C4421B"/>
				<stop  offset="1" style="stop-color:#5C0E16"/>
			</linearGradient>
			<path class="st43" d="M910.7,2732.6l7.3,42.9c0,0-24.4,247.1-28.7,346c-0.7,15.5,3.3,30.8,11.5,44l42.4,68.9l-107.8-63.6
				l-2.1-13.2l17.7-24.3l-23.1-276.9c-1.4-16.3,2-32.6,9.7-47l22.3-41.9L910.7,2732.6z"/>
			
				<linearGradient id="SVGID_43_" gradientUnits="userSpaceOnUse" x1="-648.9636" y1="3193.1807" x2="-514.3094" y2="3193.1807" gradientTransform="matrix(-1 0 0 1 310.3417 0)">
				<stop  offset="0" style="stop-color:#2B3582"/>
				<stop  offset="1" style="stop-color:#150E42"/>
			</linearGradient>
			<path class="st44" d="M950.2,3244.3h-34.4c-6.4,0-12.5-3-16.4-8.1c-10.7-13.9-33-41.1-43.6-41.8c-14.3-1-12.5,49.9-12.5,49.9h-8
				l-10.2-63.2c-2.6-15.9,5.4-31.7,19.6-39.1l0,0c0,0,3.3,24.2,21,34.9c17.7,10.7,72.2,49,72.2,49s6.7-1,14,0.4
				C962.8,3228.3,961.2,3244.3,950.2,3244.3z"/>
			
				<linearGradient id="SVGID_44_" gradientUnits="userSpaceOnUse" x1="-373.0791" y1="3557.3691" x2="-253.29" y2="2157.333" gradientTransform="matrix(-1 0 0 1 310.3417 0)">
				<stop  offset="0" style="stop-color:#C4421B"/>
				<stop  offset="1" style="stop-color:#5C0E16"/>
			</linearGradient>
			<path class="st45" d="M763,2752.9c0,0-142.9,271.1-165.7,333c-22.7,61.9-30.7,113.5-31,118.4c-0.5,7.6-10,15-36.2,15
				c-13.5,0-20.1-5.4-23.4-10.7c-2.8-4.5-2.9-10.1-0.6-14.8c8.3-16.7,34.5-70.2,44.2-94.5c11.6-29,36.6-160.2,50.2-205.8
				c13.7-45.6,29.2-95.1,88.8-140.7C689.4,2752.9,730.4,2712.9,763,2752.9z"/>
			
				<linearGradient id="SVGID_45_" gradientUnits="userSpaceOnUse" x1="-611.0204" y1="2125.0649" x2="-551.1389" y2="2680.6353" gradientTransform="matrix(-1 0 0 1 310.3417 0)">
				<stop  offset="0" style="stop-color:#FDF53F"/>
				<stop  offset="1" style="stop-color:#D93C65"/>
			</linearGradient>
			<path class="st46" d="M853.3,2308.7c36.9-156.2-56.5-244.6-56.5-244.6c58.9-56.6,166.3-82.3,166.3-82.3s102.5,74.9,90.3,133.5
				c-7.1,34.4-72,205.8-72,205.8S921.3,2349.6,853.3,2308.7z"/>
			<linearGradient id="SVGID_46_" gradientUnits="userSpaceOnUse" x1="813.4623" y1="2343.3052" x2="874.2039" y2="2915.2874">
				<stop  offset="0" style="stop-color:#CB236D"/>
				<stop  offset="1" style="stop-color:#4C246D"/>
			</linearGradient>
			<path class="st47" d="M771.5,2386c15-45.2,81.7-77.3,81.7-77.3c68.1,40.9,128.1,12.5,128.1,12.5s13.5,51.4,4.2,99.2
				c-9.3,47.8-67.6,355-67.6,355c-91.8,18.6-233.1-18.7-233.1-18.7C743.4,2652.9,756.5,2431.2,771.5,2386z"/>
			<linearGradient id="SVGID_47_" gradientUnits="userSpaceOnUse" x1="765.9716" y1="2291.3882" x2="1003.8759" y2="1734.5909">
				<stop  offset="0" style="stop-color:#C4421B"/>
				<stop  offset="1" style="stop-color:#5C0E16"/>
			</linearGradient>
			<path class="st48" d="M896.1,1878.5l-30,134.6c-2.9,11.9,7.9,9.9,19.9,7.7c19.6-3.7,44.9-11.3,53.4-26.6c0.9-1.6,1.3-3.3,1.5-5.1
				l12.9-93.4c1-7.4-3-14.6-9.8-17.6l-24.9-11C909.6,1862.9,898.5,1868.3,896.1,1878.5z"/>
			
				<linearGradient id="SVGID_48_" gradientUnits="userSpaceOnUse" x1="-829.6364" y1="1933.668" x2="-633.3486" y2="1584.3417" gradientTransform="matrix(-0.9809 -0.1943 -0.1943 0.9809 539.4318 -99.2406)">
				<stop  offset="0" style="stop-color:#C4421B"/>
				<stop  offset="1" style="stop-color:#5C0E16"/>
			</linearGradient>
			<path class="st49" d="M953.5,1755.8c0,0,31.9,21.6,45.6,76.6c13.7,55-8.6,74.7-31.4,73.5c-22.8-1.2-56-8.3-84.7-47.7
				C854.3,1818.7,911.7,1729.4,953.5,1755.8z"/>
			
				<linearGradient id="SVGID_49_" gradientUnits="userSpaceOnUse" x1="9980.5117" y1="16757.1523" x2="9641.3398" y2="16282.3115" gradientTransform="matrix(-0.9809 -0.1943 -0.1943 0.9809 539.4318 -99.2406)">
				<stop  offset="0" style="stop-color:#2B3582"/>
				<stop  offset="1" style="stop-color:#150E42"/>
			</linearGradient>
			<path class="st50" d="M912,1836c0,0-11.7-78.8,53.8-66.8L979,1783c0,0,32-36.1-3.4-63.3c-35.5-27.3-84.6-20.3-111.9,29.4
				c-27.2,49.6-37.1,84.5-14.3,115.4c22.8,30.9,40,4.4,40,4.4s-10.5-26.7-1.8-38.2c8.7-11.5,19.9,6.7,19.9,6.7L912,1836z"/>
			
				<linearGradient id="SVGID_50_" gradientUnits="userSpaceOnUse" x1="-793.3608" y1="1961.79" x2="-597.0757" y2="1612.4685" gradientTransform="matrix(-0.9809 -0.1943 -0.1943 0.9809 539.4318 -99.2406)">
				<stop  offset="0" style="stop-color:#C4421B"/>
				<stop  offset="1" style="stop-color:#5C0E16"/>
			</linearGradient>
			<path class="st51" d="M907.5,1848.4c0,0-5.8-40.6-26.5-29c-20.7,11.6,7.5,37.9,18.8,46.8L907.5,1848.4z"/>
			<g>
				
					<linearGradient id="SVGID_51_" gradientUnits="userSpaceOnUse" x1="-1042.5275" y1="1747.9697" x2="-919.6002" y2="2027.657" gradientTransform="matrix(-0.9776 -0.2106 -0.2106 0.9776 560.7617 -113.5247)">
					<stop  offset="0" style="stop-color:#C4421B"/>
					<stop  offset="1" style="stop-color:#5C0E16"/>
				</linearGradient>
				<path class="st52" d="M1269,1758.5c0.4,4.8-16.4,8.1-21.7-12.3c1.5-8.8,4.1-47.4,10.5-53.4c34.1-32,62.4-28.1,62.4-28.1
					c3.2,11.1,7.8,20.9,8.3,33.5c0.4,9.6-3,19-9,26.2c-6,7.3-14.2,16.7-21.5,23.8C1284.2,1761.8,1269,1758.5,1269,1758.5z"/>
				
					<linearGradient id="SVGID_52_" gradientUnits="userSpaceOnUse" x1="-210.4349" y1="1709.5031" x2="-163.2841" y2="1709.5031" gradientTransform="matrix(1 0 0 1 1475.775 0)">
					<stop  offset="0" style="stop-color:#C4421B"/>
					<stop  offset="1" style="stop-color:#5C0E16"/>
				</linearGradient>
				<path class="st53" d="M1286,1742.9l-5.6-2.4c1.5-4,15.3-39.2,22.3-46.9c2.5-2.8,3.8-5.3,3.7-7.1c-0.1-0.9-0.4-1.8-1.2-2.7
					l-24.1,13.6l-10.8,17.8l-5.1-3.4l11.6-19.2l29.2-16.5l1.6,1.3c3,2.6,4.6,5.4,4.8,8.6c0.2,3.8-1.5,7.7-5.4,11.9
					C1301.8,1703.8,1290.1,1732.4,1286,1742.9z"/>
			</g>
			<linearGradient id="SVGID_53_" gradientUnits="userSpaceOnUse" x1="580.6682" y1="2429.3601" x2="1157.7133" y2="1584.0394">
				<stop  offset="0" style="stop-color:#C4421B"/>
				<stop  offset="1" style="stop-color:#5C0E16"/>
			</linearGradient>
			<path class="st54" d="M796.8,2064.1c0,0-166,340.7-226,370.5c0,0-61,6.4-98.4,17.7c-9.4,2.8-9.1,16.2,0.4,18.8
				c26,7.1,69.1,13,108.6-8.4c0,0-21.2,31.8-8.8,44.2c0,0,28.3-33.6,38.9-44.2c9.3-9.3,179.3-194.6,250.7-306.3
				c5.8-9,1.8-35.9-2.2-45.8C850.6,2087.6,830.1,2051.1,796.8,2064.1z"/>
			
				<linearGradient id="SVGID_54_" gradientUnits="userSpaceOnUse" x1="3312.2107" y1="1755.9705" x2="3410.8557" y2="1892.3258" gradientTransform="matrix(-1 0 0 1 4550.6987 0)">
				<stop  offset="0" style="stop-color:#C4421B"/>
				<stop  offset="1" style="stop-color:#5C0E16"/>
			</linearGradient>
			<path class="st55" d="M1260.5,1690.9c0,0,19-34.1,25.4-26.4c6.4,7.7,8.2,8.4,4.3,20.2c-3.9,11.8,3.5,37.3-7.3,45.4
				C1272.2,1738.1,1263.7,1732.8,1260.5,1690.9z"/>
			<g>
				<g>
					<path class="st11" d="M607,2193.7c0.4,0,0.9-0.2,1.2-0.6c0.5-0.6,0.4-1.6-0.2-2.1c-22.8-18.2-46.6-46.9-59.3-71.3
						c-8.8-16.9-13.1-44.3-4.4-64.2c5.2-11.9,12.4-23.1,21.3-33.3c0.5-0.6,0.5-1.5-0.1-2.1c-0.6-0.5-1.5-0.5-2.1,0.1
						c-9.1,10.4-16.4,21.9-21.8,34.1c-8.1,18.5-6.3,46,4.5,66.7c12.9,24.8,37,53.8,60.1,72.3C606.4,2193.6,606.7,2193.7,607,2193.7z
						"/>
				</g>
				<g>
					<path class="st11" d="M634.1,1972.3c0.2,0,0.4,0,0.6-0.1c9.9-4.3,20.2-8.4,30.1-12.4c17.6-7,35.8-14.3,53-23.2
						c36.3-18.9,85.5-52.8,114.4-107.4c0.4-0.7,0.1-1.6-0.6-2c-0.7-0.4-1.6-0.1-2,0.6c-28.5,53.9-77.2,87.5-113.1,106.2
						c-17,8.8-35.1,16.1-52.7,23.1c-10,4-20.3,8.1-30.2,12.4c-0.7,0.3-1.1,1.2-0.8,1.9C633,1971.9,633.5,1972.3,634.1,1972.3z"/>
				</g>
				<g>
					<path class="st11" d="M976.7,1768.5c0.7,0,1.3-0.4,1.4-1.1c0.2-0.9,5-21.3-5.4-35.2c-5.7-7.6-14.8-11.7-27-12.3
						c-0.8-0.1-1.5,0.6-1.5,1.4c0,0.8,0.6,1.5,1.4,1.5c11.3,0.5,19.6,4.3,24.8,11.1c9.6,12.9,5,32.6,4.9,32.8
						c-0.2,0.8,0.3,1.6,1.1,1.8C976.4,1768.5,976.6,1768.5,976.7,1768.5z"/>
				</g>
			</g>
		</g>
		<g>
			
				<linearGradient id="SVGID_55_" gradientUnits="userSpaceOnUse" x1="7057.3086" y1="3560.6616" x2="7063.5977" y2="3371.9827" gradientTransform="matrix(1 0 0 1 -4009.6282 0)">
				<stop  offset="0" style="stop-color:#7C27DD"/>
				<stop  offset="1" style="stop-color:#2B41D9"/>
			</linearGradient>
			<path class="st56" d="M3111.2,3241.9c0-0.8,0-1.6-0.2-2.4c-12-47.7-61.2-72.2-61.2-72.2l-23.7,1.9
				c-13.6,42.1-22.4,62.6-20.2,74.1c0.1,0.3,0.2,0.6,0.2,0.9C3025.6,3245.9,3065.8,3247.1,3111.2,3241.9z"/>
			
				<linearGradient id="SVGID_56_" gradientUnits="userSpaceOnUse" x1="7281.4844" y1="3077.7786" x2="6892.7383" y2="3383.0229" gradientTransform="matrix(1 0 0 1 -4009.6282 0)">
				<stop  offset="0" style="stop-color:#53D8FF"/>
				<stop  offset="1" style="stop-color:#3840F7"/>
			</linearGradient>
			<path class="st57" d="M3006.1,3244.2c1.1,3.8,3.9,6.8,7.5,7.6c27.8,5.8,71.9,1.1,90.5-1.3c4.1-0.5,7.1-4.3,7.1-8.6
				C3065.8,3247.1,3025.6,3245.9,3006.1,3244.2z"/>
			
				<linearGradient id="SVGID_57_" gradientUnits="userSpaceOnUse" x1="-2376.3223" y1="3082.4485" x2="-2397.4226" y2="3266.5979" gradientTransform="matrix(-1 0 0 1 663.8687 0)">
				<stop  offset="0" style="stop-color:#C4421B"/>
				<stop  offset="1" style="stop-color:#5C0E16"/>
			</linearGradient>
			<path class="st58" d="M3069.2,3130.5l-10.4,49.9c-0.8,3.7-3.6,6.4-7,6.7c-4.2,0.4-10.1,0.6-16.1-0.3c-5.3-0.8-9.1-6.2-8.1-12
				l7.2-44.3H3069.2z"/>
			
				<linearGradient id="SVGID_58_" gradientUnits="userSpaceOnUse" x1="-2018.0936" y1="3168.3699" x2="-2394.0188" y2="3463.5474" gradientTransform="matrix(-1 0 0 1 663.8687 0)">
				<stop  offset="0" style="stop-color:#53D8FF"/>
				<stop  offset="1" style="stop-color:#3840F7"/>
			</linearGradient>
			<path class="st59" d="M2805,3243.8c25.3-0.7,38.4-3.7,45.1-6.4c0,2.5,0,5.1-0.1,7.7c-0.1,2.8-2.2,5.1-4.8,5.1l-138.8-0.9
				c-4.4,0-7-5.2-5.1-9.2C2719.5,3241.5,2765.9,3244.8,2805,3243.8z"/>
			
				<linearGradient id="SVGID_59_" gradientUnits="userSpaceOnUse" x1="-2126.5032" y1="3677.3362" x2="-2120.2136" y2="3488.657" gradientTransform="matrix(-1 0 0 1 663.8687 0)">
				<stop  offset="0" style="stop-color:#7C27DD"/>
				<stop  offset="1" style="stop-color:#2B41D9"/>
			</linearGradient>
			<path class="st60" d="M2701.3,3240c0.2-0.4,0.3-0.7,0.5-1c12.3-17.1,43.5-51.2,105.2-66l29.6-0.9c0,0,13.2,22.9,13.4,65.3
				c-6.8,2.8-19.8,5.7-45.1,6.4C2765.9,3244.8,2719.5,3241.5,2701.3,3240z"/>
			
				<linearGradient id="SVGID_60_" gradientUnits="userSpaceOnUse" x1="-2154.043" y1="3106.0068" x2="-2173.7815" y2="3278.2715" gradientTransform="matrix(-1 0 0 1 663.8687 0)">
				<stop  offset="0" style="stop-color:#C4421B"/>
				<stop  offset="1" style="stop-color:#5C0E16"/>
			</linearGradient>
			<path class="st61" d="M2842.1,3127.1c-0.3,2.2-4.4,35.7-6,48.7c-0.4,3.1-2.6,5.5-5.4,5.8c-5,0.6-13.2,1.1-20.3-0.3
				c-3.8-0.8-6.6-4.5-6.6-8.8v-52.6L2842.1,3127.1z"/>
			
				<linearGradient id="SVGID_61_" gradientUnits="userSpaceOnUse" x1="-2864.1082" y1="2028.4183" x2="-3745.4973" y2="3424.9036" gradientTransform="matrix(-1 0 0 1 -435.5983 0)">
				<stop  offset="0" style="stop-color:#53D8FF"/>
				<stop  offset="1" style="stop-color:#3840F7"/>
			</linearGradient>
			<path class="st62" d="M3049.4,2475.3c0,0,47.4,421,21,684.1c0,0-31.6,0-47.4-5.3c0,0-49.2-411.6-65.1-529.4
				c-0.6-4.4-6.9-4.6-7.8-0.2c-19.6,99.1-96.8,487.7-106,524.4c0,0-26.3,10.5-47.4,0c0,0,42.1-563,73.7-663L3049.4,2475.3z"/>
			
				<linearGradient id="SVGID_62_" gradientUnits="userSpaceOnUse" x1="-4173.1201" y1="1915.0476" x2="-4078.498" y2="1915.0476" gradientTransform="matrix(-1 0 0 1 -1147.9666 0)">
				<stop  offset="0" style="stop-color:#C4421B"/>
				<stop  offset="1" style="stop-color:#5C0E16"/>
			</linearGradient>
			<path class="st63" d="M3005.2,1842.2l19.9,134.7c0,0-55.7,25.6-94.6-1.1l8.4-95.1L3005.2,1842.2z"/>
			<linearGradient id="SVGID_63_" gradientUnits="userSpaceOnUse" x1="2919.2205" y1="1913.9653" x2="3171.5339" y2="2856.2766">
				<stop  offset="0" style="stop-color:#FDF53F"/>
				<stop  offset="1" style="stop-color:#D93C65"/>
			</linearGradient>
			<path class="st64" d="M3128.6,1983.8c-49.9-6.3-210.7-22.4-342.3,12.7l10.5,163.1c0,0,42.1,226.3,73.7,326.3
				c0,0,121,21,178.9-10.5c0,0,47.4-284.2,73.7-326.3c0,0,21.6-90.5,21.7-146.7C3144.9,1992.9,3137.9,1985,3128.6,1983.8z"/>
			
				<linearGradient id="SVGID_64_" gradientUnits="userSpaceOnUse" x1="3166.0999" y1="2645.3167" x2="3418.4163" y2="3587.6384" gradientTransform="matrix(0.9873 -0.1588 0.1588 0.9873 -847.271 -114.5512)">
				<stop  offset="0" style="stop-color:#FDF53F"/>
				<stop  offset="1" style="stop-color:#D93C65"/>
			</linearGradient>
			<path class="st65" d="M2894.8,2175.1c0,0-470.7-50.2-297.6-401.9l18.6,19c0,0-22,214.2,204.8,198.6
				C2820.6,1990.7,2891.4,2141.2,2894.8,2175.1z"/>
			
				<linearGradient id="SVGID_65_" gradientUnits="userSpaceOnUse" x1="5666.7866" y1="1690.1157" x2="5612.7676" y2="1867.6074" gradientTransform="matrix(1 0 0 1 -3044.9958 0)">
				<stop  offset="0" style="stop-color:#C4421B"/>
				<stop  offset="1" style="stop-color:#5C0E16"/>
			</linearGradient>
			<path class="st66" d="M2564,1787.2c0,0-5.1-61.7,25.7-66.9c30.9-5.1,41.2,25.7,46.3,41.2c5.1,15.4-46.3,46.3-56.6,46.3
				C2569.2,1807.8,2564,1787.2,2564,1787.2z"/>
			<g>
				<linearGradient id="SVGID_66_" gradientUnits="userSpaceOnUse" x1="3047.1772" y1="1883.5294" x2="3295.6414" y2="2811.4646">
					<stop  offset="0" style="stop-color:#FDF53F"/>
					<stop  offset="1" style="stop-color:#D93C65"/>
				</linearGradient>
				<path class="st67" d="M3143.4,1991.2c41,48.5,269.5,340.1-66.2,458.5v-26.4c0,0,137.1-116,31.6-274.3c0,0,14.5-119.7,25.1-155.8
					C3135.2,1989,3140.6,1987.9,3143.4,1991.2z"/>
				<linearGradient id="SVGID_67_" gradientUnits="userSpaceOnUse" x1="3343.0098" y1="1785.0249" x2="3188.157" y2="2110.2166">
					<stop  offset="0" style="stop-color:#C4421B"/>
					<stop  offset="1" style="stop-color:#5C0E16"/>
				</linearGradient>
				<path class="st68" d="M3074.6,2426c0,0-47.5-31.6-68.6-21.1c-21.1,10.5-21.1,26.4-21.1,26.4s10.5,21.1,26.4,15.8
					c15.8-5.3,52.7,5.3,68.6,0C3079.9,2447.1,3085.2,2426,3074.6,2426z"/>
			</g>
			<g>
				
					<linearGradient id="SVGID_68_" gradientUnits="userSpaceOnUse" x1="9564.2217" y1="1804.0789" x2="9418.9336" y2="1915.2462" gradientTransform="matrix(-1 0 0 1 12479.1211 0)">
					<stop  offset="0" style="stop-color:#C4421B"/>
					<stop  offset="1" style="stop-color:#5C0E16"/>
				</linearGradient>
				<path class="st69" d="M2920.2,1752.7c0,0-25.4,58.4-27.1,89c-1.7,30.6-8.3,50.5,27.1,56.7c35.4,6.2,65.3-11.5,81.4-42
					c0,0,25.3-47,19.7-66.3C3015.6,1770.9,2920.2,1752.7,2920.2,1752.7z"/>
				
					<linearGradient id="SVGID_69_" gradientUnits="userSpaceOnUse" x1="9462.1514" y1="1716.3234" x2="9593.7119" y2="1885.7073" gradientTransform="matrix(-1 0 0 1 12479.1211 0)">
					<stop  offset="0" style="stop-color:#2B3582"/>
					<stop  offset="1" style="stop-color:#150E42"/>
				</linearGradient>
				<path class="st70" d="M2989.6,1834.5h-4.5c0,0,18.5-37.9,2.2-44.5c-16.2-6.7-80.4-19.7-94.3-42.5c-13.4-22-1.4-50.4,16.4-58.3
					c1.1-0.5,2.5,0,3,1.1l1.5,2.8c1,1.9,3.8,1.6,4.4-0.5l0,0c0.6-2,3.2-2.4,4.3-0.7c4.2,6.8,15.7,17.9,46.5,23.6
					c43.7,8.1,72.6,25.8,73.3,56c0,1.9,2.1,3,3.7,2c3.2-2,8.4-2.9,15.3,2.9c12,10.1,7.1,36.3-19.2,57.8c-1.3,1-1.2,3,0.1,3.9
					c4.8,3.1,11.9,10.5-6.5,20.3c-18.8,10.1-30,9-34.2,7.9c-1.1-0.3-1.9-1.3-1.8-2.5l1.7-26.8c0.1-1.4-1-2.6-2.4-2.6H2989.6z"/>
				
					<linearGradient id="SVGID_70_" gradientUnits="userSpaceOnUse" x1="9546.2002" y1="1780.5265" x2="9400.9131" y2="1891.6934" gradientTransform="matrix(-1 0 0 1 12479.1211 0)">
					<stop  offset="0" style="stop-color:#C4421B"/>
					<stop  offset="1" style="stop-color:#5C0E16"/>
				</linearGradient>
				<path class="st71" d="M2988.5,1840.1c0,0,9.7-37.3,26.4-26.8c16.7,10.5-8.7,41.8-22.1,43.2L2988.5,1840.1z"/>
			</g>
		</g>
		
			<linearGradient id="SVGID_71_" gradientUnits="userSpaceOnUse" x1="-5920.8716" y1="5437.522" x2="-6101.6504" y2="5584.0483" gradientTransform="matrix(-0.7042 0.71 -0.71 -0.7042 1012.6969 9790.1338)">
			<stop  offset="0" style="stop-color:#C4421B"/>
			<stop  offset="1" style="stop-color:#5C0E16"/>
		</linearGradient>
		<path class="st72" d="M1338.9,1665.3c13.7,22.9,18.2,44.4,8,63.8c-19.5,3.9-34.9-2.9-46-20.7
			C1301.6,1673.5,1310.4,1652.6,1338.9,1665.3z"/>
		<g>
			
				<linearGradient id="SVGID_72_" gradientUnits="userSpaceOnUse" x1="4799.98" y1="3071.1018" x2="4990.1616" y2="3503.8079" gradientTransform="matrix(0.9776 -0.2106 0.2106 0.9776 -3308.1646 -113.5247)">
				<stop  offset="0" style="stop-color:#F9B776"/>
				<stop  offset="1" style="stop-color:#F47960"/>
			</linearGradient>
			<path class="st73" d="M1916.7,1763.6c0,0,153.2,242.3,335.4,289.1c0,0-35.5,101.1-62.9,112.7c0,0-224.1-187-281.7-367.4
				L1916.7,1763.6z"/>
			<g>
				
					<linearGradient id="SVGID_73_" gradientUnits="userSpaceOnUse" x1="4750.2227" y1="3054.9438" x2="4879.1685" y2="3348.325" gradientTransform="matrix(0.9776 -0.2106 0.2106 0.9776 -3308.1646 -113.5247)">
					<stop  offset="0" style="stop-color:#F9B776"/>
					<stop  offset="1" style="stop-color:#F47960"/>
				</linearGradient>
				<path class="st74" d="M1919,1813.4c-0.4,5,17.2,8.5,22.8-12.9c-1.5-9.3-4.3-49.8-11-56.1c-35.8-33.5-65.5-29.5-65.5-29.5
					c-3.3,11.6-8.2,21.9-8.7,35.2c-0.4,10,3.1,19.9,9.4,27.5c6.3,7.6,14.9,17.5,22.6,25C1903.1,1816.9,1919,1813.4,1919,1813.4z"/>
				
					<linearGradient id="SVGID_74_" gradientUnits="userSpaceOnUse" x1="-6146.0552" y1="1762.0898" x2="-6096.5957" y2="1762.0898" gradientTransform="matrix(-1 0 0 1 -4223.1777 0)">
					<stop  offset="0" style="stop-color:#F9B776"/>
					<stop  offset="1" style="stop-color:#F47960"/>
				</linearGradient>
				<path class="st75" d="M1901.2,1797.1l5.8-2.5c-1.6-4.2-16.1-41.1-23.4-49.2c-2.7-2.9-4-5.5-3.9-7.5c0.1-0.9,0.5-1.8,1.2-2.8
					l25.3,14.3l11.3,18.7l5.3-3.6l-12.2-20.2l-30.6-17.3l-1.6,1.4c-3.2,2.7-4.8,5.7-5,9.1c-0.2,4,1.6,8,5.6,12.5
					C1884.6,1756.1,1896.9,1786.1,1901.2,1797.1z"/>
			</g>
			
				<linearGradient id="SVGID_75_" gradientUnits="userSpaceOnUse" x1="9249.1455" y1="1810.8325" x2="9352.6211" y2="1953.8643" gradientTransform="matrix(1 0 0 1 -7298.1016 0)">
				<stop  offset="0" style="stop-color:#F9B776"/>
				<stop  offset="1" style="stop-color:#F47960"/>
			</linearGradient>
			<path class="st76" d="M1927.9,1742.6c0,0-20-35.8-26.7-27.7c-6.7,8.1-8.6,8.8-4.5,21.1c4.1,12.3-3.6,39.2,7.7,47.6
				C1915.7,1792.1,1924.6,1786.5,1927.9,1742.6z"/>
			<linearGradient id="SVGID_76_" gradientUnits="userSpaceOnUse" x1="2440.3242" y1="2382.2971" x2="2300.9546" y2="1911.926">
				<stop  offset="0" style="stop-color:#2B3582"/>
				<stop  offset="1" style="stop-color:#150E42"/>
			</linearGradient>
			<path class="st77" d="M2298.8,1784.4c0,0,21.9,9.7,46.5,53.6c12.1,21.7,28.5,69.4,31.9,113.3c1.8,22.6,12.5,40.8,27,44.2
				c36,8.6,91.4,37.8,100.3,135.3c6.8,74.5-17.5,102.7-43,112.5c-18.7,7.2-31.2,35.6-27.4,65.2c3.6,28.3-1.8,61.1-33.2,87
				c-70.4,58-140.8-137.5-140.8-137.5l-14.4-341.4L2298.8,1784.4z"/>
			<linearGradient id="SVGID_77_" gradientUnits="userSpaceOnUse" x1="2623.5786" y1="2883.925" x2="2626.676" y2="3410.5203">
				<stop  offset="0" style="stop-color:#53D8FF"/>
				<stop  offset="1" style="stop-color:#3840F7"/>
			</linearGradient>
			<path class="st78" d="M2585.6,3201.2l4.6,37.5c0.9,7.1,6.5,12.7,13.6,13.5c12,1.4,31.3,2.8,50.1,0.8c8.3-0.9,13.7-9.3,11.1-17.2
				c-4.6-14.5-13-36.2-25.1-49h-41.6C2590.6,3186.8,2584.7,3193.5,2585.6,3201.2z"/>
			
				<linearGradient id="SVGID_78_" gradientUnits="userSpaceOnUse" x1="1743.5403" y1="3536.3916" x2="1858.863" y2="2188.5559" gradientTransform="matrix(1 0 0 1 503.3257 0)">
				<stop  offset="0" style="stop-color:#F9B776"/>
				<stop  offset="1" style="stop-color:#F47960"/>
			</linearGradient>
			<path class="st79" d="M2260,2762.2l-7,41.3c0,0,23.5,238,27.7,333.2c0.7,14.9-3.2,29.7-11,42.4l-40.9,66.3l103.8-61.3l2.1-12.7
				l-17-23.4l22.3-266.6c1.3-15.7-1.9-31.4-9.3-45.2l-21.5-40.3L2260,2762.2z"/>
			<linearGradient id="SVGID_79_" gradientUnits="userSpaceOnUse" x1="2276.3044" y1="2980.105" x2="2279.4021" y2="3410.6738">
				<stop  offset="0" style="stop-color:#53D8FF"/>
				<stop  offset="1" style="stop-color:#3840F7"/>
			</linearGradient>
			<path class="st80" d="M2221.9,3255h33.1c6.2,0,12.1-2.8,15.8-7.8c10.3-13.4,31.7-39.6,42-40.3c13.8-0.9,12,48.1,12,48.1h7.7
				l9.8-60.9c2.5-15.3-5.2-30.5-18.9-37.7l0,0c0,0-3.1,23.3-20.2,33.6c-17.1,10.3-69.5,47.2-69.5,47.2s-6.4-0.9-13.5,0.4
				C2209.9,3239.5,2211.3,3255,2221.9,3255z"/>
			
				<linearGradient id="SVGID_80_" gradientUnits="userSpaceOnUse" x1="1975.5193" y1="3556.4475" x2="2090.8723" y2="2208.2576" gradientTransform="matrix(1 0 0 1 503.3257 0)">
				<stop  offset="0" style="stop-color:#F9B776"/>
				<stop  offset="1" style="stop-color:#F47960"/>
			</linearGradient>
			<path class="st81" d="M2402.2,2781.8c0,0,137.6,261.1,159.5,320.7c21.9,59.6,29.5,109.3,29.8,114.1c0.5,7.4,9.6,14.4,34.8,14.4
				c13,0,19.4-5.2,22.5-10.3c2.7-4.3,2.8-9.7,0.6-14.2c-8-16.1-33.2-67.6-42.6-91c-11.2-27.9-35.2-154.3-48.4-198.2
				c-13.2-43.9-28.1-91.6-85.5-135.5C2473,2781.8,2433.6,2743.2,2402.2,2781.8z"/>
			<linearGradient id="SVGID_81_" gradientUnits="userSpaceOnUse" x1="2181.6775" y1="2169.0859" x2="2624.7671" y2="2471.1926">
				<stop  offset="0" style="stop-color:#A737D5"/>
				<stop  offset="1" style="stop-color:#EF497A"/>
			</linearGradient>
			<path class="st82" d="M2315.3,2354c-35.5-150.4,57.3-223.9,57.3-223.9c-4-47.9-106.2-77.4-146.7-87.2c-10.4-2.5-21.4,0-29.6,6.8
				c-26.5,22.1-82.7,74.7-73.7,118.1c6.9,33.1,69.4,198.2,69.4,198.2S2249.7,2393.4,2315.3,2354z"/>
			<linearGradient id="SVGID_82_" gradientUnits="userSpaceOnUse" x1="2303.8184" y1="3047.8503" x2="2373.5125" y2="1909.5002">
				<stop  offset="0" style="stop-color:#7C27DD"/>
				<stop  offset="1" style="stop-color:#2B41D9"/>
			</linearGradient>
			<path class="st83" d="M2394,2428.5c-14.4-43.5-78.7-74.5-78.7-74.5c-65.5,39.4-123.3,12-123.3,12s-13,49.5-4,95.6
				c8.9,46,65.1,341.9,65.1,341.9c88.4,17.9,224.4-18,224.4-18C2421.1,2685.4,2408.4,2472,2394,2428.5z"/>
			
				<linearGradient id="SVGID_83_" gradientUnits="userSpaceOnUse" x1="1730.8929" y1="2207.8301" x2="1752.556" y2="2049.3489" gradientTransform="matrix(1 0 0 1 503.3257 0)">
				<stop  offset="0" style="stop-color:#F9B776"/>
				<stop  offset="1" style="stop-color:#F47960"/>
			</linearGradient>
			<path class="st84" d="M2274.1,1939.8l28.9,129.7c2.8,11.4-7.6,9.6-19.2,7.4c-18.9-3.6-43.3-10.9-51.4-25.6
				c-0.8-1.5-1.2-3.2-1.5-4.9l-12.4-89.9c-1-7.1,2.9-14.1,9.5-17l23.9-10.6C2261,1924.7,2271.7,1930,2274.1,1939.8z"/>
			<g>
				
					<linearGradient id="SVGID_84_" gradientUnits="userSpaceOnUse" x1="1676.2142" y1="2003.4999" x2="1865.2255" y2="1667.1234" gradientTransform="matrix(1 0 0 1 503.3257 0)">
					<stop  offset="0" style="stop-color:#F9B776"/>
					<stop  offset="1" style="stop-color:#F47960"/>
				</linearGradient>
				<path class="st85" d="M2240.2,1816.3c0,0-34.2,14.4-57.4,63.8c-23.2,49.4-5.9,72.2,15.9,75.3c21.8,3.1,54.4,2.7,88.9-29.3
					C2322.1,1894.3,2284.6,1799.2,2240.2,1816.3z"/>
				<linearGradient id="SVGID_85_" gradientUnits="userSpaceOnUse" x1="2431.811" y1="2384.8198" x2="2292.4417" y2="1914.449">
					<stop  offset="0" style="stop-color:#2B3582"/>
					<stop  offset="1" style="stop-color:#150E42"/>
				</linearGradient>
				<path class="st86" d="M2264.4,1899.9c0,0,25.8-72.3-38.3-73.1l-15.1,10.5c0,0-23.5-40.1,15.1-59.2
					c38.6-19.1,83.8-3.3,100.2,48.7c16.4,52,19.2,86.8-8.1,111.7c-27.3,24.9-38.6-3.3-38.6-3.3s14.9-23.3,8.8-35.7
					c-6.1-12.4-20,2.6-20,2.6L2264.4,1899.9z"/>
				
					<linearGradient id="SVGID_86_" gradientUnits="userSpaceOnUse" x1="1705.4958" y1="2032.0627" x2="1894.5065" y2="1695.6875" gradientTransform="matrix(1 0 0 1 503.3257 0)">
					<stop  offset="0" style="stop-color:#F9B776"/>
					<stop  offset="1" style="stop-color:#F47960"/>
				</linearGradient>
				<path class="st87" d="M2260.6,1913.9c0,0,13-37.2,30.4-22.4c17.4,14.8-14.1,34.4-26.5,40.7L2260.6,1913.9z"/>
			</g>
			
				<linearGradient id="SVGID_87_" gradientUnits="userSpaceOnUse" x1="3515.6331" y1="2060.7449" x2="2626.7131" y2="4299.106" gradientTransform="matrix(1 0 0 1 -1038.7941 0)">
				<stop  offset="0" style="stop-color:#F9B776"/>
				<stop  offset="1" style="stop-color:#F47960"/>
			</linearGradient>
			<path class="st88" d="M2319.8,2203.2c0,0,420.3-48,253.4-418.4l-26.9,23c0,0,48,261-185.9,297.8
				C2360.4,2105.6,2317.8,2169.9,2319.8,2203.2z"/>
			
				<linearGradient id="SVGID_88_" gradientUnits="userSpaceOnUse" x1="293.5971" y1="367.372" x2="240.7776" y2="540.9219" gradientTransform="matrix(-0.889 -0.458 -0.458 0.889 2999.6111 1500.2714)">
				<stop  offset="0" style="stop-color:#F9B776"/>
				<stop  offset="1" style="stop-color:#F47960"/>
			</linearGradient>
			<path class="st89" d="M2577.1,1802.7c0,0,32.1-51.4,7.6-69.7c-24.5-18.3-47.3,3.9-58.7,15c-11.4,11.1,19.5,61,28.5,65.6
				C2563.4,1818.3,2577.1,1802.7,2577.1,1802.7z"/>
		</g>
		<linearGradient id="SVGID_89_" gradientUnits="userSpaceOnUse" x1="1914.0991" y1="1681.4818" x2="1733.3207" y2="1828.0076">
			<stop  offset="0" style="stop-color:#F9B776"/>
			<stop  offset="1" style="stop-color:#F47960"/>
		</linearGradient>
		<path class="st90" d="M1836.6,1733.8c5.6-22,15.3-38.6,30.9-47c5.2-2.8,11.8-1.9,16,2.3c10.9,10.6,14.4,24.3,10.4,41.4
			C1868.7,1754.6,1847.7,1763.1,1836.6,1733.8z"/>
	</g>
</g>
</svg>
