<?xml version="1.0" encoding="utf-8"?>
<!-- Generator: Adobe Illustrator 19.0.0, SVG Export Plug-In . SVG Version: 6.00 Build 0)  -->
<svg version="1.1" id="Illustration" xmlns="http://www.w3.org/2000/svg" xmlns:xlink="http://www.w3.org/1999/xlink" x="0px"
	 y="0px" viewBox="0 0 3710 3710" style="enable-background:new 0 0 3710 3710;" xml:space="preserve">
<style type="text/css">
	.st0{display:none;fill:#F4F7FA;}
	.st1{fill:url(#SVGID_1_);}
	.st2{fill:url(#SVGID_2_);}
	.st3{fill:url(#SVGID_3_);}
	.st4{fill:url(#SVGID_4_);}
	.st5{fill:url(#SVGID_5_);}
	.st6{fill:url(#SVGID_6_);}
	.st7{fill:url(#SVGID_7_);}
	.st8{fill:#FFFFFF;}
	.st9{fill:url(#SVGID_8_);}
	.st10{fill:url(#SVGID_9_);}
	.st11{opacity:0.3;fill:url(#SVGID_10_);}
	.st12{fill:url(#SVGID_11_);}
	.st13{fill:url(#SVGID_12_);}
	.st14{fill:url(#SVGID_13_);}
	.st15{fill:url(#SVGID_14_);}
	.st16{fill:url(#SVGID_15_);}
	.st17{fill:url(#SVGID_16_);}
</style>
<g>
	<path class="st0" d="M2581.9,626.4c91.6,134.1-19.7,348.7,117.2,450.3c133.3,98.9,299.9-59.1,425.6,26.1
		c186.5,126.4,146.2,695.4-132.1,1046.3c-83.7,105.5-153.1,146.2-184.9,266.2c-68.3,257.7,160.6,413.8,115.4,541.1
		c-101.8,286.7-1623.7,512.1-2224.2-359c-280.5-406.8-316.9-990.5-57.9-1430.7C1109.2,371.2,2376.5,325.5,2581.9,626.4z"/>
	<g>
		<linearGradient id="SVGID_1_" gradientUnits="userSpaceOnUse" x1="823.8372" y1="1911.8093" x2="1728.731" y2="1911.8093">
			<stop  offset="0" style="stop-color:#FF9085"/>
			<stop  offset="1" style="stop-color:#FB6FBB"/>
		</linearGradient>
		<path class="st1" d="M1006.3,795.8c-19.4-10.9-44-3.5-54.1,16.3c-60.5,118.1-235.7,535.1-34,1089.5
			c239.6,658.7,797.7,1131.4,797.7,1131.4s40.3-548.7-22.1-933.6C1633.7,1727.7,1333.7,979.2,1006.3,795.8z"/>
		<linearGradient id="SVGID_2_" gradientUnits="userSpaceOnUse" x1="1942.8931" y1="1911.8093" x2="2847.7869" y2="1911.8093">
			<stop  offset="0" style="stop-color:#FF9085"/>
			<stop  offset="1" style="stop-color:#FB6FBB"/>
		</linearGradient>
		<path class="st2" d="M2665.3,795.8c19.4-10.9,44-3.5,54.1,16.3c60.5,118.1,235.7,535.1,34,1089.5
			c-239.6,658.7-797.7,1131.4-797.7,1131.4s-40.3-548.7,22.1-933.6C2037.9,1727.7,2338,979.2,2665.3,795.8z"/>
		<linearGradient id="SVGID_3_" gradientUnits="userSpaceOnUse" x1="2028.9868" y1="926.5349" x2="1920.7133" y2="1785.9606">
			<stop  offset="0" style="stop-color:#FFC444"/>
			<stop  offset="0.9964" style="stop-color:#F36F56"/>
		</linearGradient>
		<path class="st3" d="M1841.3,3065.6C825.4,3079,1438.7,1103.2,1788,520.2c21.9-36.5,61.4-39.1,86.4-4.7
			C2242.2,1021.3,2936.2,3051.2,1841.3,3065.6z"/>
		<linearGradient id="SVGID_4_" gradientUnits="userSpaceOnUse" x1="1130.2249" y1="1939.6287" x2="1076.0869" y2="3902.092">
			<stop  offset="0" style="stop-color:#FFC444"/>
			<stop  offset="0.9964" style="stop-color:#F36F56"/>
		</linearGradient>
		<path class="st4" d="M469.9,2028.1c-7.4-31.5,19.8-60.2,51.7-54.6c91.3,16.1,284.4,79.9,611.2,320
			c485.9,356.8,625.2,788.4,625.2,788.4S785.4,3380.3,469.9,2028.1z"/>
		<linearGradient id="SVGID_5_" gradientUnits="userSpaceOnUse" x1="2573.9675" y1="1979.4553" x2="2519.8296" y2="3941.9277">
			<stop  offset="0" style="stop-color:#FFC444"/>
			<stop  offset="0.9964" style="stop-color:#F36F56"/>
		</linearGradient>
		<path class="st5" d="M3201.7,2028.1c7.3-31.5-19.8-60.2-51.7-54.6c-91.3,16.1-284.4,79.9-611.2,320
			c-485.9,356.8-625.2,788.4-625.2,788.4S2886.3,3380.3,3201.7,2028.1z"/>
	</g>
	<g>
		
			<linearGradient id="SVGID_6_" gradientUnits="userSpaceOnUse" x1="-547.1585" y1="490.1133" x2="-847.7604" y2="1321.7777" gradientTransform="matrix(0.8034 0.5955 -0.5955 0.8034 3037.061 1196.0623)">
			<stop  offset="0" style="stop-color:#444B8C"/>
			<stop  offset="0.9964" style="stop-color:#26264F"/>
		</linearGradient>
		<path class="st6" d="M2088.4,1915.1c19.4-3,79-29.2,94.9-79.2c10.9-34.1-8-52.6,6.1-87.4c16.1-39.5,48.1-34.1,77.2-72.3
			c33.9-44.6,40.1-117.2,13.4-164.7c-21.5-38.2-46.9-29-87.3-80.7c-35.8-45.7-25-64.4-50.1-87.7c-49-45.4-112.5,4.6-200-15.5
			c-121.6-27.8-119.2-151.7-215.1-159.4c-88.1-7.1-196.7,89.1-212.8,181.3c-6.5,37,4,56.6-13.7,89c-27.2,49.8-75.6,36.7-114.6,86.2
			c-29.5,37.4-45.2,100.1-21.3,137.4c28,43.7,88.7,19,117,62c30.4,46.3-25,97.8,4.1,146.6c27.5,46.1,105.6,51.5,150.8,49.2
			c54.5-2.7,107.4-18.5,161.2-27.3C1898,1876.4,1990.4,1930.2,2088.4,1915.1z"/>
		<linearGradient id="SVGID_7_" gradientUnits="userSpaceOnUse" x1="1779.7937" y1="2738.1121" x2="1767.1089" y2="2988.6367">
			<stop  offset="0" style="stop-color:#893976"/>
			<stop  offset="1" style="stop-color:#311944"/>
		</linearGradient>
		<polygon class="st7" points="1766.4,2930.4 2358.2,2782.4 2387.8,2926.2 1846,3176.2 1417.1,3070.2 1158.3,2816.2 		"/>
		<path class="st8" d="M2332.1,2177.6c19.8-48.2-116.2-180.4-286.8-229.2c-123.8-35.5-228.8-15.7-283.4-6
			c-177.1,31.3-287.5,119.8-329,157c34,18.4,127.8,74.7,174.3,181.5c44.9,103.2,12.8,198.1-3.9,253.2
			c-14.6,48-36.7,120.9-102.2,173.7c-34.6,27.9-72.8,42-149.2,70.3c-90.1,33.4-146,42.6-145.6,60.6c0.5,23,92.1,41.8,88.9,56.1
			c-0.2,1.1-0.9,1.2-1,1.9c-1.2,10,101.6,34.6,231.6,54.2c152,22.9,227.9,34.3,300.6,21.9c113.2-19.4,94.2-54.2,207.7-73.8
			c132-22.7,192,18.6,311.5-27.3c20.1-7.7,100.7-38.8,98.4-71c-2.9-39.9-135.7-26.3-251.4-128.4c-50.9-45-75.6-92.2-84.1-109.9
			c-11-22.9-57.3-141.3-10.9-270.2c2.7-7.6,4.9-11.1,7.8-16.1C2161.4,2180.2,2313.4,2223.2,2332.1,2177.6z"/>
		<linearGradient id="SVGID_8_" gradientUnits="userSpaceOnUse" x1="1846.6066" y1="1676.1027" x2="1853.3131" y2="1994.6743">
			<stop  offset="0" style="stop-color:#311944"/>
			<stop  offset="1" style="stop-color:#A03976"/>
		</linearGradient>
		<path class="st9" d="M1834.6,1805.9c0,0-11.3,90.3-44.6,111c-33.3,20.7-87.2,47.7-93.2,55.1c-5.9,7.3,206.5,30.2,311.8-23l0,0
			c-34.7-7.2-44.1-9.9-44.1-9.9c-9.4-2.7-27-7.6-44.6-17.6c-12-6.8-31.3-20.2-49-45.3l0.4-50L1834.6,1805.9z"/>
		<g>
			<linearGradient id="SVGID_9_" gradientUnits="userSpaceOnUse" x1="1867.1442" y1="2962.854" x2="2608.5776" y2="2962.854">
				<stop  offset="0" style="stop-color:#893976"/>
				<stop  offset="1" style="stop-color:#311944"/>
			</linearGradient>
			<path class="st10" d="M1867.1,3129.4c117.6-63.1,204.5-127.3,263.4-175.8c116-95.5,169.2-167.6,286.7-196
				c21-5.1,140.6-34.1,179.2,19c42.7,58.8-40.3,181.8-50.4,196.7c-150.1,222.1-532.2,211.7-652,204.5
				C1885,3161.7,1876.1,3145.5,1867.1,3129.4z"/>
			<linearGradient id="SVGID_10_" gradientUnits="userSpaceOnUse" x1="1867.145" y1="2964.5791" x2="2608.5759" y2="2964.5791">
				<stop  offset="0" style="stop-color:#893976"/>
				<stop  offset="1" style="stop-color:#311944"/>
			</linearGradient>
			<path class="st11" d="M2596.4,2776.6c-11.3-15.5-29.5-23.9-50.2-28c6.9,23.8,7.5,46.1-1.1,65.6c-23.4,53.3-92.9,36.9-141.6,99.4
				c-47.9,61.4-14.7,120.6-57.1,145.9c-48.5,29-108.7-38.8-160.7-6.3c-35.3,22.1-24.3,63.9-65.5,86.7c-28.5,15.7-56.4,8.3-88.8,4.2
				c-37.2-4.7-88.1-5.7-152,7.7c4.8,8.7,9.7,17.5,14.5,26.2c119.9,7.2,502,17.6,652-204.5
				C2556.1,2958.3,2639.2,2835.4,2596.4,2776.6z"/>
			<linearGradient id="SVGID_11_" gradientUnits="userSpaceOnUse" x1="2077.1016" y1="3251.3523" x2="1934.3986" y2="3073.7664">
				<stop  offset="0" style="stop-color:#AA80F9"/>
				<stop  offset="0.9964" style="stop-color:#6165D7"/>
			</linearGradient>
			<path class="st12" d="M1956.1,3162.6c0,0,21.6-15.5,52.8-4.9c31.3,10.5,80.9,19,80.9,34.3c-0.1,15.3-49.8,24.9-84.1,18.6
				C1972.8,3204.6,1947,3176,1956.1,3162.6z"/>
			<linearGradient id="SVGID_12_" gradientUnits="userSpaceOnUse" x1="1989.4897" y1="3209.1807" x2="1792.8706" y2="2961.821">
				<stop  offset="0" style="stop-color:#FFC444"/>
				<stop  offset="0.9964" style="stop-color:#F36F56"/>
			</linearGradient>
			<path class="st13" d="M1924.5,3136.5l57.6,18.5c0,0,9.3,15.6-3.3,25.5c-12.6,9.9-56.5-11-56.5-11L1924.5,3136.5z"/>
			<linearGradient id="SVGID_13_" gradientUnits="userSpaceOnUse" x1="1566.1986" y1="2954.5569" x2="1402.8312" y2="3294.3616">
				<stop  offset="0" style="stop-color:#893976"/>
				<stop  offset="1" style="stop-color:#311944"/>
			</linearGradient>
			<path class="st14" d="M1124.5,2871.2c-17,98.9,196.6,206,245.4,230.5c99.6,49.9,287.1,120.4,565.3,93.5
				c3.7-22.2,7.4-44.4,11.1-66.6c-36.8-12.6-91.2-33.1-154.4-64.1c-107.9-53.1-148.8-91-298.5-181.5
				c-165.6-100.1-213.9-113-263.2-100.6C1188,2793,1132.4,2825.2,1124.5,2871.2z"/>
		</g>
		<linearGradient id="SVGID_14_" gradientUnits="userSpaceOnUse" x1="1927.7916" y1="1475.0958" x2="1839.2773" y2="1807.0248">
			<stop  offset="0" style="stop-color:#311944"/>
			<stop  offset="1" style="stop-color:#A03976"/>
		</linearGradient>
		<path class="st15" d="M1935.9,1754c0,65.2-37.3,128.4-83.3,128.4c-46,0-83.3-63.2-83.3-128.4s37.3-72.1,83.3-72.1
			C1898.6,1681.9,1935.9,1688.8,1935.9,1754z"/>
		<path class="st8" d="M992.6,2164.8c0,0,19.2,256.3,213.6,307.2c194.4,50.9,473-207.9,473-207.9s-174.4-206.6-246.4-164.7
			c-72,42-184.8,274.6-387.2,65.4H992.6z"/>
		<linearGradient id="SVGID_15_" gradientUnits="userSpaceOnUse" x1="1006.8105" y1="2333.3762" x2="993.5417" y2="2096.0107">
			<stop  offset="0" style="stop-color:#311944"/>
			<stop  offset="1" style="stop-color:#A03976"/>
		</linearGradient>
		<path class="st16" d="M991.9,2168c0,0,69.8,12.6,86.4-27.4c16.6-40-6.5-76.7-19.4-72.5c-12.9,4.2-4.9,31.1-7.5,47
			c-2.6,15.9-35.8,30.6-44.7,17.4c-8.9-13.2-8.7-40.5,21.8-52.5c30.5-11.9,23.7-18.6,5.3-24.3c-18.4-5.7-36.6,3.6-48.7,25
			c-12.1,21.5-52.5-63.5-57.5-86.1C922.6,1972,841.1,2081.5,991.9,2168z"/>
		<path class="st8" d="M2723.7,2156.3c0,0-19.2,256.3-213.6,307.2c-194.4,50.9-473-207.9-473-207.9s174.4-206.6,246.4-164.7
			c72,42,184.8,274.6,387.2,65.4H2723.7z"/>
		
			<linearGradient id="SVGID_16_" gradientUnits="userSpaceOnUse" x1="2604.718" y1="2324.9092" x2="2591.4492" y2="2087.5435" gradientTransform="matrix(-1 0 0 1 5314.2319 0)">
			<stop  offset="0" style="stop-color:#311944"/>
			<stop  offset="1" style="stop-color:#A03976"/>
		</linearGradient>
		<path class="st17" d="M2724.4,2159.5c0,0-69.8,12.6-86.4-27.4c-16.6-40,6.5-76.7,19.4-72.5c12.9,4.2,4.9,31.1,7.5,47
			c2.6,15.9,35.8,30.6,44.7,17.4c8.9-13.2,8.7-40.5-21.8-52.5s-23.7-18.6-5.3-24.3c18.4-5.7,36.6,3.6,48.7,25
			c12.1,21.5,52.5-63.5,57.5-86.1C2793.7,1963.6,2875.3,2073,2724.4,2159.5z"/>
	</g>
</g>
</svg>
