<?xml version="1.0" encoding="utf-8"?>
<!-- Generator: Adobe Illustrator 19.0.0, SVG Export Plug-In . SVG Version: 6.00 Build 0)  -->
<svg version="1.1" id="Illustration" xmlns="http://www.w3.org/2000/svg" xmlns:xlink="http://www.w3.org/1999/xlink" x="0px"
	 y="0px" viewBox="0 0 3710 3710" style="enable-background:new 0 0 3710 3710;" xml:space="preserve">
<style type="text/css">
	.st0{opacity:0.3;fill:url(#SVGID_1_);}
	.st1{opacity:0.3;}
	.st2{fill:url(#SVGID_2_);}
	.st3{fill:url(#SVGID_3_);}
	.st4{fill:url(#SVGID_4_);}
	.st5{fill:url(#SVGID_5_);}
	.st6{fill:url(#SVGID_6_);}
	.st7{fill:url(#SVGID_7_);}
	.st8{opacity:0.56;fill:#FFFFFF;}
	.st9{fill:url(#SVGID_8_);}
	.st10{fill:url(#SVGID_9_);}
	.st11{fill:url(#SVGID_10_);}
	.st12{fill:url(#SVGID_11_);}
	.st13{fill:url(#SVGID_12_);}
	.st14{fill:url(#SVGID_13_);}
	.st15{fill:url(#SVGID_14_);}
	.st16{fill:url(#SVGID_15_);}
	.st17{fill:url(#SVGID_16_);}
	.st18{fill:url(#SVGID_17_);}
	.st19{fill:url(#SVGID_18_);}
	.st20{fill:url(#SVGID_19_);}
	.st21{fill:url(#SVGID_20_);}
	.st22{fill:#FFFFFF;}
	.st23{fill:url(#SVGID_21_);}
	.st24{fill:url(#SVGID_22_);}
	.st25{fill:url(#SVGID_23_);}
	.st26{opacity:0.3;fill:url(#SVGID_24_);}
	.st27{opacity:0.3;fill:url(#SVGID_25_);}
	.st28{fill:url(#SVGID_26_);}
	.st29{fill:url(#SVGID_27_);}
	.st30{fill:url(#SVGID_28_);}
	.st31{fill:url(#SVGID_29_);}
	.st32{fill:url(#SVGID_30_);}
	.st33{fill:url(#SVGID_31_);}
	.st34{fill:url(#SVGID_32_);}
	.st35{fill:url(#SVGID_33_);}
	.st36{fill:url(#SVGID_34_);}
	.st37{fill:url(#SVGID_35_);}
	.st38{fill:url(#SVGID_36_);}
	.st39{fill:url(#SVGID_37_);}
	.st40{fill:url(#SVGID_38_);}
	.st41{fill:url(#SVGID_39_);}
	.st42{fill:url(#SVGID_40_);}
	.st43{fill:url(#SVGID_41_);}
	.st44{fill:url(#SVGID_42_);}
	.st45{fill:url(#SVGID_43_);}
	.st46{fill:url(#SVGID_44_);}
	.st47{fill:url(#SVGID_45_);}
	.st48{fill:url(#SVGID_46_);}
	.st49{fill:url(#SVGID_47_);}
	.st50{fill:url(#SVGID_48_);}
	.st51{fill:url(#SVGID_49_);}
	.st52{fill:url(#SVGID_50_);}
	.st53{fill:url(#SVGID_51_);}
	.st54{fill:url(#SVGID_52_);}
	.st55{fill:url(#SVGID_53_);}
	.st56{fill:url(#SVGID_54_);}
	.st57{fill:url(#SVGID_55_);}
	.st58{fill:url(#SVGID_56_);}
	.st59{fill:url(#SVGID_57_);}
	.st60{fill:url(#SVGID_58_);}
	.st61{fill:url(#SVGID_59_);}
	.st62{fill:url(#SVGID_60_);}
	.st63{fill:url(#SVGID_61_);}
	.st64{fill:url(#SVGID_62_);}
	.st65{fill:url(#SVGID_63_);}
	.st66{fill:url(#SVGID_64_);}
	.st67{fill:url(#SVGID_65_);}
	.st68{fill:url(#SVGID_66_);}
	.st69{fill:url(#SVGID_67_);}
	.st70{fill:url(#SVGID_68_);}
	.st71{fill:url(#SVGID_69_);}
	.st72{fill:url(#SVGID_70_);}
	.st73{fill:url(#SVGID_71_);}
</style>
<g>
	<linearGradient id="SVGID_1_" gradientUnits="userSpaceOnUse" x1="3407.6406" y1="3247.1113" x2="1367.2313" y2="1461.7545">
		<stop  offset="0" style="stop-color:#B37CFF"/>
		<stop  offset="1" style="stop-color:#F895E7"/>
	</linearGradient>
	<path class="st0" d="M3060.9,2319.9c-263.7,620.9-966.1,968.8-1575.3,874.9c-99.1-15.3-370.9-60.7-611.5-275.3
		c-463.2-413-562.2-1230.9-188.6-1807.3c271.9-419.5,759.4-657.3,1222.6-645.4c99.8,2.6,482.1,18.4,818.2,295.4
		c49.4,40.7,158.2,137.4,256.3,290.8C3212.9,1413.3,3232.7,1915.2,3060.9,2319.9z"/>
	<g>
		<g>
			<g class="st1">
				
					<linearGradient id="SVGID_2_" gradientUnits="userSpaceOnUse" x1="-3531.6272" y1="4485.3433" x2="-2910.2512" y2="4485.3433" gradientTransform="matrix(1.900000e-003 1 -1 1.900000e-003 5957.6851 4455.2368)">
					<stop  offset="0" style="stop-color:#B37CFF"/>
					<stop  offset="1" style="stop-color:#F895E7"/>
				</linearGradient>
				<path class="st2" d="M1243.6,1542.7c0.2-5.8,5.1-10.3,10.9-10.1c11.2,0.4,22.7,0.4,34-0.1c5.7-0.3,10.6,4.1,10.9,9.8
					c0,0.1,0,0.1,0,0.2c0.3,5.8-4.2,10.7-10,11c-11.9,0.6-23.9,0.6-35.8,0.1c-5.4-0.2-9.7-4.5-10.1-9.8
					C1243.5,1543.4,1243.5,1543.1,1243.6,1542.7z M1343.2,1526.2c11.1-2.1,22.2-4.6,33.1-7.6c5.6-1.5,11.4,1.7,12.9,7.3
					c1.5,5.6-1.8,11.4-7.3,12.9c-11.4,3.1-23.1,5.8-34.8,8c-5.7,1.1-11.2-2.7-12.2-8.4c-0.1-0.4-0.1-0.8-0.2-1.2
					C1334.3,1531.9,1337.9,1527.1,1343.2,1526.2z M1428.3,1500.3c10.4-4.5,20.6-9.4,30.6-14.8c5.1-2.7,11.5-0.8,14.2,4.3
					c2.7,5.1,0.8,11.5-4.3,14.2c-10.5,5.6-21.3,10.9-32.2,15.6c-5.3,2.3-11.5-0.2-13.8-5.5c-0.5-1.1-0.8-2.3-0.8-3.5
					C1421.8,1506.3,1424.2,1502.1,1428.3,1500.3z M1505.6,1456.1c9.1-6.7,18-13.8,26.5-21.2c4.4-3.8,11-3.4,14.8,1
					c3.8,4.4,3.4,11-1,14.8c-8.9,7.8-18.3,15.3-27.9,22.4c-4.7,3.4-11.2,2.4-14.7-2.3c-1.2-1.7-1.9-3.6-2-5.5
					C1501.1,1461.7,1502.6,1458.3,1505.6,1456.1z M1571,1395.7c7.4-8.5,14.5-17.5,21.1-26.6c3.4-4.7,10-5.7,14.6-2.3
					c4.7,3.4,5.7,10,2.3,14.6c-7,9.6-14.5,19-22.2,28c-3.8,4.4-10.4,4.9-14.8,1.1c-2.2-1.9-3.4-4.5-3.6-7.2
					C1568.3,1400.6,1569.1,1397.9,1571,1395.7z M1621.4,1322.4c5.3-9.9,10.3-20.2,14.7-30.6c2.3-5.3,8.5-7.8,13.8-5.5
					c5.3,2.3,7.8,8.5,5.5,13.8c-4.7,10.9-9.9,21.7-15.5,32.2c-2.7,5.1-9.1,7-14.2,4.3c-3.3-1.8-5.3-5.1-5.5-8.6
					C1620.1,1326.1,1620.5,1324.2,1621.4,1322.4z M1625.5,933.1c5.1-2.7,11.5-0.8,14.2,4.3c5.6,10.5,10.8,21.3,15.5,32.2
					c2.3,5.3-0.2,11.5-5.5,13.8c-5.3,2.3-11.5-0.2-13.8-5.5c-4.5-10.4-9.4-20.7-14.7-30.6c-0.7-1.4-1.1-2.8-1.2-4.3
					C1619.8,939,1621.8,935.1,1625.5,933.1z M1654.3,1239.8c3-10.9,5.5-22,7.5-33.1c1-5.7,6.5-9.5,12.2-8.4c5.7,1,9.4,6.5,8.4,12.2
					c-2.1,11.7-4.8,23.4-7.9,34.8c-1.5,5.6-7.3,8.9-12.9,7.3c-4.4-1.2-7.4-5.1-7.7-9.4C1653.9,1242.1,1654,1240.9,1654.3,1239.8z
					 M1661.5,1017.1c5.6-1.5,11.3,1.8,12.9,7.4c3.1,11.4,5.8,23.2,7.9,34.9c1.1,5.7-2.7,11.2-8.4,12.2c-5.7,1-11.2-2.7-12.2-8.4
					c-2-11.1-4.6-22.3-7.5-33.1c-0.2-0.7-0.3-1.4-0.3-2.1C1653.5,1023,1656.6,1018.4,1661.5,1017.1z M1668,1151.9
					c0.5-11.3,0.4-22.7-0.1-34c-0.3-5.8,4.2-10.7,10-10.9c5.7-0.3,10.6,4.1,10.9,9.8c0,0.1,0,0.1,0,0.2c0.5,11.9,0.5,23.9,0.1,35.7
					c-0.2,5.8-5.1,10.3-10.9,10c-5.4-0.2-9.7-4.5-10-9.8C1668,1152.6,1668,1152.2,1668,1151.9z"/>
				
					<linearGradient id="SVGID_3_" gradientUnits="userSpaceOnUse" x1="5112.9331" y1="4079.9431" x2="5147.8594" y2="4079.9431" gradientTransform="matrix(-6.530000e-002 -0.9979 -0.9979 6.530000e-002 6001.481 5740.6792)">
					<stop  offset="0" style="stop-color:#B37CFF"/>
					<stop  offset="1" style="stop-color:#F895E7"/>
				</linearGradient>
				<path class="st3" d="M1579.5,881.5c0.1,2.1,0.9,4.1,2.3,5.8c3.4,4.2,6.7,8.6,9.9,13c3.4,4.7,10,5.7,14.7,2.3
					c4.7-3.4,5.7-10,2.3-14.7c-3.4-4.6-6.9-9.2-10.4-13.7c-3.6-4.5-10.2-5.3-14.7-1.7C1580.7,874.8,1579.3,878.2,1579.5,881.5z"/>
			</g>
			<g class="st1">
				
					<linearGradient id="SVGID_4_" gradientUnits="userSpaceOnUse" x1="5294.2217" y1="4346.8223" x2="5318.1885" y2="4346.8223" gradientTransform="matrix(-6.530000e-002 -0.9979 -0.9979 6.530000e-002 6001.481 5740.6792)">
					<stop  offset="0" style="stop-color:#B37CFF"/>
					<stop  offset="1" style="stop-color:#F895E7"/>
				</linearGradient>
				<path class="st4" d="M1298.5,729.2c0.3,5,4.3,9.3,9.5,9.7c5.4,0.5,10.8,1.1,16.2,1.9c5.7,0.8,11-3.2,11.8-9
					c0.8-5.8-3.2-11-9-11.8c-5.7-0.8-11.4-1.4-17.1-2c-5.8-0.5-10.9,3.7-11.4,9.5C1298.5,728.1,1298.5,728.7,1298.5,729.2z"/>
				
					<linearGradient id="SVGID_5_" gradientUnits="userSpaceOnUse" x1="-3747.5288" y1="4893.2583" x2="-3109.2063" y2="4893.2583" gradientTransform="matrix(1.900000e-003 1 -1 1.900000e-003 5957.6851 4455.2368)">
					<stop  offset="0" style="stop-color:#B37CFF"/>
					<stop  offset="1" style="stop-color:#F895E7"/>
				</linearGradient>
				<path class="st5" d="M851.7,1141.4c-0.1-5.8,4.5-10.6,10.3-10.7c5.8-0.1,10.5,4.5,10.7,10.3c0.2,11,0.8,22.2,1.9,33.4
					c0.6,5.7-3.6,10.9-9.4,11.5c-5.8,0.6-10.9-3.6-11.5-9.4c-0.5-4.8-0.9-9.7-1.2-14.5C852.1,1155.1,851.8,1148.2,851.7,1141.4z
					 M871,1220.2c5.6-1.3,11.3,2.1,12.6,7.8c2.6,10.8,5.7,21.6,9.1,32.2c1.8,5.5-1.2,11.4-6.7,13.2c-5.5,1.8-11.4-1.2-13.2-6.7
					c-3.7-11.1-6.9-22.5-9.6-33.8c-0.1-0.6-0.2-1.2-0.3-1.8C862.6,1226.1,865.9,1221.4,871,1220.2z M854.7,1084.3
					c1.4-11.6,3.3-23.3,5.7-34.7c1.2-5.7,6.7-9.3,12.4-8.1c5.7,1.2,9.3,6.7,8.1,12.4c-2.3,10.9-4.1,22-5.4,33
					c-0.7,5.7-5.9,9.8-11.7,9.1c-5.1-0.6-8.9-4.8-9.2-9.7C854.6,1085.6,854.6,1085,854.7,1084.3z M899.2,1305.6
					c5.2-2.6,11.5-0.4,14,4.8c4.9,10,10.3,19.8,16,29.3c3,5,1.4,11.4-3.6,14.4c-5,3-11.4,1.4-14.4-3.6c-6-10-11.7-20.4-16.8-30.9
					c-0.6-1.3-1-2.6-1.1-3.9C893.1,1311.6,895.3,1307.5,899.2,1305.6z M875.8,994.6c3.9-11,8.4-21.9,13.2-32.6
					c2.4-5.3,8.6-7.6,13.9-5.2c5.3,2.4,7.6,8.6,5.2,13.9c-4.6,10.1-8.8,20.5-12.5,31c-1.9,5.5-7.9,8.3-13.4,6.4
					c-4.1-1.4-6.7-5.1-6.9-9.2C875.2,997.5,875.4,996,875.8,994.6z M916.2,911.8c6.2-9.9,13-19.6,20-28.9c3.5-4.6,10.1-5.5,14.7-2.1
					c4.6,3.5,5.5,10.1,2.1,14.7c-6.7,8.9-13.1,18.1-19,27.5c-3.1,4.9-9.6,6.4-14.5,3.3c-2.9-1.9-4.7-5-4.9-8.2
					C914.4,915.9,914.9,913.7,916.2,911.8z M973.6,839.7c8.2-8.3,16.9-16.3,25.8-23.9c4.4-3.8,11-3.2,14.8,1.2
					c3.8,4.4,3.2,11-1.2,14.8c-8.4,7.2-16.7,14.8-24.5,22.7c-4.1,4.1-10.7,4.1-14.8,0c-1.9-1.9-2.9-4.3-3.1-6.7
					C970.4,844.9,971.4,841.9,973.6,839.7z M1045.4,781.8c9.9-6.3,20.1-12.2,30.4-17.7c5.1-2.7,11.5-0.7,14.2,4.4
					c2.7,5.1,0.7,11.5-4.4,14.2c-9.8,5.2-19.5,10.8-28.9,16.8c-4.9,3.1-11.4,1.7-14.5-3.2c-1-1.5-1.5-3.2-1.6-4.9
					C1040.3,787.7,1042,784,1045.4,781.8z M1128.2,741.1c11-4,22.3-7.5,33.6-10.5c5.6-1.5,11.3,1.8,12.8,7.4
					c1.5,5.6-1.8,11.3-7.4,12.8c-10.7,2.9-21.5,6.2-31.9,10c-5.4,2-11.5-0.9-13.4-6.3c-0.3-0.9-0.5-1.9-0.6-2.9
					C1120.9,747.1,1123.7,742.7,1128.2,741.1z M1217.8,719.6c8.5-1.1,17.2-1.9,25.8-2.5c3.1-0.2,6.2-0.4,9.3-0.5
					c5.8-0.3,10.8,4.2,10.9,10c0.3,5.8-4.2,10.7-10,10.9c-2.9,0.1-5.9,0.3-8.8,0.5c-8.1,0.5-16.4,1.3-24.5,2.4
					c-5.7,0.7-11-3.3-11.7-9.1c0-0.2,0-0.4-0.1-0.6C1208.3,725.2,1212.2,720.3,1217.8,719.6z"/>
				
					<linearGradient id="SVGID_6_" gradientUnits="userSpaceOnUse" x1="4645.9409" y1="4749.2813" x2="4680.4219" y2="4749.2813" gradientTransform="matrix(-6.530000e-002 -0.9979 -0.9979 6.530000e-002 6001.481 5740.6792)">
					<stop  offset="0" style="stop-color:#B37CFF"/>
					<stop  offset="1" style="stop-color:#F895E7"/>
				</linearGradient>
				<path class="st6" d="M941.8,1391.7c0.1,2.1,0.9,4.1,2.3,5.9c3.6,4.4,7.3,8.9,11.1,13.2c3.8,4.4,10.4,4.8,14.8,1
					c4.4-3.8,4.8-10.4,1-14.8c-3.6-4.1-7.1-8.3-10.5-12.5c-3.6-4.5-10.2-5.2-14.7-1.6C942.9,1385.1,941.6,1388.4,941.8,1391.7z"/>
			</g>
			<g>
				
					<linearGradient id="SVGID_7_" gradientUnits="userSpaceOnUse" x1="-4326.498" y1="3336.4753" x2="-2034.4545" y2="6420.0156" gradientTransform="matrix(1.900000e-003 1 -1 1.900000e-003 5957.6851 4455.2368)">
					<stop  offset="0" style="stop-color:#A737D5"/>
					<stop  offset="1" style="stop-color:#EF497A"/>
				</linearGradient>
				<path class="st7" d="M1120.5,1411.2c1.7,1.2,4,1.2,5.7,0l48.6-34.6c25.8,10.6,53.4,17.1,82,18.9l28.5,52.4
					c1,1.8,3.1,2.8,5.1,2.5l70.6-11.8c2.1-0.3,3.7-2,4-4l9.8-58.8c26.4-11.1,50.4-26.3,71.3-44.7l57.2,16.9c2,0.6,4.2-0.2,5.4-1.9
					l41.5-58.3c1.2-1.7,1.2-4,0-5.7l-34.6-48.6c10.6-25.8,17.1-53.4,18.9-82l52.4-28.5c1.8-1,2.8-3.1,2.5-5.1l-11.8-70.6
					c-0.3-2.1-2-3.7-4-4l-58.8-9.8c-11.1-26.4-26.3-50.4-44.7-71.3l16.9-57.2c0.6-2-0.2-4.2-1.9-5.4l-58.3-41.5
					c-1.7-1.2-4-1.2-5.7,0l-48.6,34.6c-25.8-10.6-53.4-17.1-82-18.9l-28.5-52.4c-1-1.8-3.1-2.8-5.1-2.5l-70.6,11.8
					c-2.1,0.3-3.7,2-4,4l-9.8,58.8c-26.4,11.1-50.4,26.3-71.3,44.7l-57.2-16.9c-2-0.6-4.2,0.2-5.4,1.9l-41.5,58.3
					c-1.2,1.7-1.2,4,0,5.7l34.6,48.6c-10.6,25.8-17.1,53.4-18.9,82l-52.4,28.5c-1.8,1-2.8,3.1-2.5,5.1l11.8,70.6c0.3,2.1,2,3.7,4,4
					l58.8,9.8c11.1,26.4,26.3,50.4,44.7,71.3l-16.9,57.2c-0.6,2,0.2,4.2,1.9,5.4L1120.5,1411.2z"/>
				<path class="st8" d="M1202,1128.8c3.2-39.5,38-69.1,77.5-65.9c19.1,1.6,36.5,10.5,49,25.1c12.4,14.6,18.4,33.2,16.9,52.4
					c-3.2,39.5-38,69.1-77.5,65.9c-36-2.9-63.7-32-65.9-66.9C1201.7,1135.9,1201.7,1132.3,1202,1128.8z M1315.7,1098.9
					c-9.5-11.2-22.9-18.1-37.6-19.3c-30.3-2.5-57,20.2-59.4,50.5c-2.5,30.3,20.2,57,50.5,59.4c30.3,2.5,57-20.2,59.4-50.5
					c0.2-2.7,0.2-5.5,0.1-8.2C1327.9,1119.1,1323.4,1108,1315.7,1098.9z"/>
				<path class="st8" d="M1098.2,1144.6c0.4,6,1.1,12,2.1,18l0,0c0.3,1.9,0.7,3.8,1,5.7c1.9,9.3,4.5,18.4,7.8,27.2
					c0,0.1,0.1,0.2,0.1,0.4c0.1,0.3,0.3,0.7,0.4,1c0.3,0.7,0.5,1.3,0.8,2c0.7,1.7,2.4,2.8,4.2,2.6c0.4,0,0.9-0.1,1.3-0.3
					c2.2-0.9,3.2-3.3,2.3-5.4c-4.4-11.1-7.6-22.7-9.6-34.5c-9.9-58.9,12.2-115.8,53.5-153.1c23-20.7,52-35.4,84.7-40.9
					c5.7-1,11.5-1.6,17.2-2c38.6-2.5,76.5,8.2,108.4,30.9c36.6,26.1,60.9,64.9,68.4,109.3c15.4,91.6-46.6,178.6-138.2,194
					c-5.6,0.9-11.3,1.6-17,2c-24.6,1.6-49.3-2.2-72.2-11.2c-0.6-0.2-1.2-0.3-1.8-0.3c-1.6,0.1-3,1.1-3.6,2.7
					c-0.8,2.2,0.2,4.6,2.4,5.4c24.1,9.5,50,13.4,75.8,11.8c6-0.4,11.9-1.1,17.8-2.1c96.2-16.1,161.2-107.5,145.1-203.6
					c-7.8-46.6-33.3-87.3-71.8-114.7c-33.5-23.9-73.3-35.1-113.8-32.5c-6,0.4-12,1.1-18.1,2.1c-46.6,7.8-87.3,33.3-114.7,71.8
					C1106.8,1064.3,1095.5,1104.1,1098.2,1144.6z"/>
			</g>
		</g>
		<g>
			<g class="st1">
				
					<linearGradient id="SVGID_8_" gradientUnits="userSpaceOnUse" x1="4130.1196" y1="4735.5479" x2="4147.165" y2="4735.5479" gradientTransform="matrix(-6.530000e-002 -0.9979 -0.9979 6.530000e-002 6001.481 5740.6792)">
					<stop  offset="0" style="stop-color:#B37CFF"/>
					<stop  offset="1" style="stop-color:#F895E7"/>
				</linearGradient>
				<path class="st9" d="M991.2,1918.9c0.2,2.8,2.2,5.3,5,5.9c5.4,1.2,10.8,2.3,16.3,3.1c3.5,0.6,6.9-1.8,7.4-5.4
					c0.6-3.5-1.8-6.9-5.4-7.4c-5.2-0.8-10.4-1.8-15.5-3c-3.5-0.8-6.9,1.4-7.7,4.9C991.2,1917.6,991.2,1918.3,991.2,1918.9z"/>
				
					<linearGradient id="SVGID_9_" gradientUnits="userSpaceOnUse" x1="-2884.1492" y1="4763.769" x2="-2533.0857" y2="4763.769" gradientTransform="matrix(1.900000e-003 1 -1 1.900000e-003 5957.6851 4455.2368)">
					<stop  offset="0" style="stop-color:#B37CFF"/>
					<stop  offset="1" style="stop-color:#F895E7"/>
				</linearGradient>
				<path class="st10" d="M1040.6,1924.6c0.1-3.6,3.1-6.4,6.7-6.2c9,0.3,18.2,0.2,27.2-0.4c1.9-0.1,3.8-0.3,5.7-0.4
					c3.6-0.3,6.7,2.3,7,5.9c0.2,3.4-2.3,6.7-5.9,7c-2,0.2-4,0.3-6,0.5c-9.4,0.6-19,0.8-28.5,0.4c-3.3-0.1-6-2.8-6.2-6
					C1040.6,1925,1040.6,1924.8,1040.6,1924.6z M1112.7,1912.7c10.7-2.3,21.4-5.2,31.7-8.8c3.4-1.2,7.1,0.6,8.2,4
					c1.2,3.4-0.6,7.1-4,8.2c-10.8,3.7-22,6.8-33.2,9.2c-3.5,0.7-6.9-1.5-7.7-5c-0.1-0.3-0.1-0.6-0.1-0.9
					C1107.4,1916.3,1109.5,1913.3,1112.7,1912.7z M1174.8,1891.3c9.8-4.8,19.4-10.3,28.6-16.3c3-2,7-1.1,9,1.9c2,3,1.1,7-1.9,9
					c-9.6,6.3-19.7,12-30,17.1c-3.2,1.6-7.1,0.2-8.7-3c-0.4-0.8-0.6-1.6-0.6-2.4C1171,1895,1172.4,1892.5,1174.8,1891.3z
					 M1229.7,1855.3c8.3-7.1,16.3-14.7,23.7-22.8c2.4-2.6,6.5-2.8,9.2-0.4c2.6,2.4,2.8,6.5,0.4,9.1c-7.8,8.4-16.1,16.5-24.9,23.9
					c-2.7,2.3-6.8,2-9.1-0.7c-0.9-1.1-1.4-2.4-1.5-3.8C1227.3,1858.7,1228.1,1856.7,1229.7,1855.3z M1274.2,1807
					c6.4-8.9,12.2-18.3,17.5-27.8c1.7-3.1,5.6-4.3,8.8-2.6c3.1,1.7,4.3,5.6,2.6,8.8c-5.5,10-11.6,19.9-18.3,29.2
					c-2.1,2.9-6.1,3.6-9,1.5c-1.6-1.2-2.6-3-2.7-4.8C1272.9,1809.8,1273.3,1808.3,1274.2,1807z M1305.6,1749.4
					c4-10.2,7.4-20.7,10.1-31.2c0.9-3.5,4.4-5.5,7.9-4.7c3.5,0.9,5.5,4.4,4.7,7.9c-2.8,11.1-6.4,22.1-10.6,32.8
					c-1.3,3.3-5.1,5-8.4,3.6c-2.4-1-3.9-3.2-4.1-5.6C1305.1,1751.3,1305.2,1750.3,1305.6,1749.4z M1321.9,1685.9
					c1.4-10.8,2.1-21.8,2.2-32.8c0-3.6,2.9-6.5,6.5-6.4c3.6,0,6.4,2.9,6.5,6.5c-0.1,11.5-0.8,23.1-2.3,34.4
					c-0.5,3.5-3.7,6.1-7.3,5.6c-3.1-0.4-5.4-3-5.6-6C1321.9,1686.7,1321.9,1686.3,1321.9,1685.9z M1321.1,1580.1
					c3.5-0.9,7,1.3,7.8,4.7c2.4,9.6,4.2,19.5,5.6,29.4c0.2,1.5,0.4,3,0.6,4.5c0.5,3.5-2.1,6.8-5.7,7.2c-3.6,0.4-6.8-2.1-7.2-5.7
					c-0.2-1.4-0.3-2.8-0.5-4.3c-1.3-9.5-3.1-18.9-5.3-28.1c-0.1-0.4-0.2-0.8-0.2-1.1C1316,1583.7,1318,1580.8,1321.1,1580.1z"/>
			</g>
			<g class="st1">
				
					<linearGradient id="SVGID_10_" gradientUnits="userSpaceOnUse" x1="-3055.2554" y1="5100.5278" x2="-2667.0198" y2="5100.5278" gradientTransform="matrix(1.900000e-003 1 -1 1.900000e-003 5957.6851 4455.2368)">
					<stop  offset="0" style="stop-color:#B37CFF"/>
					<stop  offset="1" style="stop-color:#F895E7"/>
				</linearGradient>
				<path class="st11" d="M778,1666.1c-0.6-11.3-0.5-22.7,0.3-33.9c0.2-3.6,3.3-6.3,6.9-6c3.6,0.2,6.2,3.4,6,6.9
					c-0.7,10.7-0.8,21.6-0.3,32.3c0.2,3.6-2.6,6.6-6.1,6.8C781.3,1672.4,778.2,1669.7,778,1666.1C778,1666.2,778,1666.1,778,1666.1z
					 M787.1,1692.3c3.5-0.6,6.9,1.7,7.5,5.3c1.8,10.6,4.4,21.2,7.5,31.5c1,3.4-0.9,7-4.3,8.1c-3.4,1-7-0.9-8.1-4.3
					c-3.2-10.8-5.9-21.9-7.8-33c0-0.2-0.1-0.5-0.1-0.7C781.5,1695.9,783.8,1692.9,787.1,1692.3z M782.7,1598.6
					c2.2-11.1,5-22.1,8.5-32.8c1.1-3.4,4.8-5.3,8.2-4.2c3.4,1.1,5.3,4.7,4.2,8.2c-3.3,10.2-6,20.7-8.1,31.3
					c-0.7,3.5-4.1,5.8-7.6,5.1c-3-0.6-5-3.1-5.2-5.9C782.5,1599.7,782.6,1599.1,782.7,1598.6z M804.7,1756.1c3.3-1.4,7.1,0,8.5,3.3
					c4.3,9.8,9.3,19.5,14.8,28.7c1.8,3.1,0.8,7-2.2,8.9c-3.1,1.8-7.1,0.8-8.9-2.2c-5.8-9.7-11-19.8-15.6-30.2
					c-0.3-0.7-0.5-1.5-0.5-2.2C800.7,1759.8,802.1,1757.2,804.7,1756.1z M803.5,1534.2c4.7-10.2,10.2-20.3,16.1-29.8
					c1.9-3,5.9-4,8.9-2.1c3,1.9,4,5.9,2.1,8.9c-5.7,9.1-10.8,18.7-15.4,28.5c-1.5,3.2-5.4,4.7-8.6,3.1c-2.2-1-3.6-3.2-3.7-5.5
					C802.9,1536.3,803,1535.2,803.5,1534.2z M839.2,1476.7c7.1-8.8,14.7-17.3,22.8-25.1c2.6-2.5,6.7-2.5,9.2,0.1
					c2.5,2.6,2.5,6.7-0.1,9.2c-7.7,7.5-15,15.6-21.7,24c-2.2,2.8-6.3,3.2-9.1,1c-1.5-1.2-2.3-2.9-2.4-4.6
					C837.7,1479.6,838.2,1478,839.2,1476.7z M887.6,1429.4c9-6.9,18.5-13.2,28.2-18.9c3.1-1.8,7.1-0.8,8.9,2.3
					c1.8,3.1,0.8,7.1-2.3,8.9c-9.3,5.4-18.3,11.5-26.8,18.1c-2.8,2.2-6.9,1.6-9.1-1.2c-0.8-1.1-1.2-2.3-1.3-3.5
					C885,1432.8,885.9,1430.7,887.6,1429.4z"/>
				
					<linearGradient id="SVGID_11_" gradientUnits="userSpaceOnUse" x1="4230.3994" y1="4888.1665" x2="4256.4771" y2="4888.1665" gradientTransform="matrix(-6.530000e-002 -0.9979 -0.9979 6.530000e-002 6001.481 5740.6792)">
					<stop  offset="0" style="stop-color:#B37CFF"/>
					<stop  offset="1" style="stop-color:#F895E7"/>
				</linearGradient>
				<path class="st12" d="M834.9,1819.5c0.1,1.2,0.5,2.5,1.3,3.5c3.4,4.4,6.9,8.7,10.5,12.8c2.4,2.7,6.4,3,9.1,0.6
					c2.7-2.4,3-6.4,0.6-9.1c-3.4-3.9-6.8-8-10.1-12.2c-2.2-2.8-6.3-3.3-9.1-1.1C835.6,1815.4,834.7,1817.5,834.9,1819.5z"/>
			</g>
			<g>
				
					<linearGradient id="SVGID_12_" gradientUnits="userSpaceOnUse" x1="-4096.8823" y1="3165.7859" x2="-1804.8372" y2="6249.3281" gradientTransform="matrix(1.900000e-003 1 -1 1.900000e-003 5957.6851 4455.2368)">
					<stop  offset="0" style="stop-color:#A737D5"/>
					<stop  offset="1" style="stop-color:#EF497A"/>
				</linearGradient>
				<path class="st13" d="M957,1836.5c1.1,0.8,2.7,0.8,3.8,0l32.5-23.2c17.2,7.1,35.7,11.4,54.9,12.7l19.1,35c0.7,1.2,2,1.9,3.4,1.7
					l47.2-7.9c1.4-0.2,2.5-1.3,2.7-2.7l6.6-39.3c17.7-7.4,33.8-17.6,47.7-29.9l38.3,11.3c1.3,0.4,2.8-0.1,3.6-1.2l27.8-39
					c0.8-1.1,0.8-2.7,0-3.8l-23.2-32.5c7.1-17.2,11.4-35.7,12.7-54.9l35-19.1c1.2-0.7,1.9-2,1.7-3.4l-7.9-47.2
					c-0.2-1.4-1.3-2.5-2.7-2.7l-39.3-6.6c-7.4-17.7-17.6-33.8-29.9-47.7l11.3-38.3c0.4-1.3-0.1-2.8-1.2-3.6l-39-27.8
					c-1.1-0.8-2.7-0.8-3.8,0l-32.5,23.2c-17.2-7.1-35.7-11.4-54.9-12.7l-19.1-35c-0.7-1.2-2-1.9-3.4-1.7l-47.2,7.9
					c-1.4,0.2-2.5,1.3-2.7,2.7l-6.6,39.3c-17.7,7.4-33.8,17.6-47.7,29.9l-38.3-11.3c-1.3-0.4-2.8,0.1-3.6,1.2l-27.8,39
					c-0.8,1.1-0.8,2.7,0,3.8l23.2,32.5c-7.1,17.2-11.4,35.7-12.7,54.9l-35,19.1c-1.2,0.7-1.9,2-1.7,3.4l7.9,47.2
					c0.2,1.4,1.3,2.5,2.7,2.7l39.3,6.6c7.4,17.7,17.6,33.7,29.9,47.7l-11.3,38.3c-0.4,1.3,0.1,2.8,1.2,3.6L957,1836.5z"/>
				<path class="st8" d="M1010.7,1647.5c1.1-13,7.1-24.9,17.1-33.4c10-8.5,22.6-12.6,35.7-11.5c26.9,2.2,47,25.8,44.9,52.8
					c-2.2,26.9-25.9,47-52.8,44.9c-13-1.1-24.9-7.1-33.4-17.1c-6.9-8.1-10.9-18-11.6-28.4
					C1010.4,1652.3,1010.5,1649.9,1010.7,1647.5z M1062.4,1615.5c-9.6-0.8-18.9,2.2-26.3,8.5c-7.3,6.2-11.8,14.9-12.6,24.5l0,0
					c-0.8,9.6,2.2,18.9,8.5,26.3c6.2,7.3,14.9,11.8,24.5,12.6c19.8,1.6,37.2-13.2,38.8-33c0.1-1.8,0.2-3.6,0-5.3
					C1094.3,1631.5,1080.4,1617,1062.4,1615.5z"/>
				<path class="st8" d="M938.4,1658.5c0.3,4.1,0.7,8.2,1.4,12.3c1.4,8.2,3.6,16.2,6.6,24c0.1,0.3,0.3,0.7,0.4,1
					c1.1,2.7,3.7,4.2,6.4,4.1c0.7,0,1.3-0.2,2-0.4c3.3-1.3,4.9-5.1,3.6-8.4c-2.9-7.2-5-14.7-6.2-22.4l0,0c-0.1-0.4-0.1-0.8-0.2-1.3
					c-2.9-18.1-1.1-36.3,4.9-53.2c3.3-9.2,7.8-17.9,13.5-26.1c0-0.1,0.1-0.1,0.1-0.2c0.1-0.2,0.3-0.4,0.4-0.6
					c16.9-23.7,42-39.4,70.8-44.3c3.7-0.6,7.4-1.1,11.1-1.3c25-1.6,49.5,5.3,70.2,20c23.7,16.9,39.4,42,44.3,70.7
					c4.8,28.7-1.8,57.6-18.7,81.3c-16.9,23.7-42,39.4-70.8,44.3c-3.7,0.6-7.3,1-11,1.3c-15.9,1-31.9-1.4-46.8-7.3
					c-0.9-0.4-1.9-0.5-2.8-0.4c-2.4,0.2-4.7,1.7-5.6,4.1c-1.3,3.3,0.3,7.1,3.7,8.4c16.6,6.5,34.5,9.3,52.3,8.1
					c4.1-0.3,8.2-0.7,12.3-1.4c32.1-5.4,60.2-23,79.2-49.5c18.9-26.5,26.4-58.8,21-91c-5.4-32.1-23-60.2-49.5-79.2
					c-23.1-16.5-50.6-24.2-78.5-22.4c-4.1,0.3-8.3,0.8-12.5,1.4C977.7,1540.8,934.4,1596.9,938.4,1658.5z"/>
			</g>
		</g>
	</g>
	<g>
		<linearGradient id="SVGID_13_" gradientUnits="userSpaceOnUse" x1="1919.905" y1="2494.6697" x2="1917.8135" y2="2906.7605">
			<stop  offset="0" style="stop-color:#53D8FF"/>
			<stop  offset="1" style="stop-color:#3840F7"/>
		</linearGradient>
		<path class="st14" d="M2174,2641.8c-0.9-11.2-12.3-20.8-31.6-28.6c21-11.6,32.6-24,31.6-36.2c-3-36.8-119.6-57.5-260.5-46.1
			c-140.9,11.4-252.7,50.4-249.8,87.3c0.9,11.2,12.3,20.8,31.6,28.6c-21,11.6-32.6,24-31.6,36.2c0.9,11.2,12.3,20.8,31.6,28.6
			c-21,11.6-32.6,24-31.6,36.2c0.9,11.2,12.3,20.8,31.6,28.6c-21,11.6-32.6,24-31.6,36.2c1.3,16.3,24.9,29.4,62.9,38
			c-0.5,12-0.2,25.2,1,39.8c5.5,67.9,81.8,121.1,182.8,121.1c101,0,188.4-72.6,189.3-140.6c0.2-16.7-0.5-31.4-2-44.4
			c48.3-16.1,77.7-35.8,76.2-55c-0.9-11.2-12.3-20.8-31.6-28.6c21-11.6,32.6-24,31.6-36.2c-0.9-11.2-12.3-20.8-31.6-28.6
			C2163.4,2666.4,2175,2654,2174,2641.8z"/>
		<g>
			<linearGradient id="SVGID_14_" gradientUnits="userSpaceOnUse" x1="1893.9238" y1="2897.4844" x2="1672.8269" y2="3702.9106">
				<stop  offset="0" style="stop-color:#53D8FF"/>
				<stop  offset="1" style="stop-color:#3840F7"/>
			</linearGradient>
			<path class="st15" d="M1848.3,2865.1c-41.8,0-80.1-3.1-111.8-9.1c-1.8-0.4-3-2.1-2.7-4c0.4-1.8,2.1-3,4-2.7
				c49.5,9.5,115.6,11.6,186.2,5.9c57.7-4.7,111.7-14,156.1-26.9c1.8-0.5,3.7,0.5,4.2,2.3c0.5,1.8-0.5,3.7-2.3,4.2
				c-44.8,13.1-99.3,22.5-157.5,27.2C1898.3,2864.1,1872.7,2865.1,1848.3,2865.1z"/>
			<linearGradient id="SVGID_15_" gradientUnits="userSpaceOnUse" x1="1885.7424" y1="2895.2363" x2="1664.6459" y2="3700.6614">
				<stop  offset="0" style="stop-color:#53D8FF"/>
				<stop  offset="1" style="stop-color:#3840F7"/>
			</linearGradient>
			<path class="st16" d="M1849,2800.3c-54.4,0-103-5.1-137.2-14.9c-1.8-0.5-2.8-2.4-2.3-4.2c0.5-1.8,2.4-2.8,4.2-2.3
				c48.8,13.9,127.5,18.2,210.4,11.5c82-6.6,158.4-23.2,204.5-44.5c1.7-0.8,3.7,0,4.5,1.7c0.8,1.7,0,3.7-1.7,4.5
				c-46.8,21.6-124.1,38.4-206.8,45.1C1898.7,2799.3,1873.3,2800.3,1849,2800.3z"/>
			<linearGradient id="SVGID_16_" gradientUnits="userSpaceOnUse" x1="1865.1876" y1="2889.595" x2="1644.0898" y2="3695.0244">
				<stop  offset="0" style="stop-color:#53D8FF"/>
				<stop  offset="1" style="stop-color:#3840F7"/>
			</linearGradient>
			<path class="st17" d="M1848.3,2735.6c-58.7,0-110.1-6-144.7-17.4c-1.8-0.6-2.7-2.5-2.2-4.3c0.6-1.8,2.5-2.7,4.3-2.2
				c48.1,15.9,129.7,21.1,218.2,13.9c82-6.6,158.4-23.2,204.5-44.5c1.7-0.8,3.7,0,4.5,1.7c0.8,1.7,0,3.7-1.7,4.5
				c-46.8,21.6-124.1,38.4-206.8,45.1C1898.3,2734.6,1872.7,2735.6,1848.3,2735.6z"/>
			<linearGradient id="SVGID_17_" gradientUnits="userSpaceOnUse" x1="1859.6816" y1="2888.0842" x2="1638.5836" y2="3693.5146">
				<stop  offset="0" style="stop-color:#53D8FF"/>
				<stop  offset="1" style="stop-color:#3840F7"/>
			</linearGradient>
			<path class="st18" d="M1848.8,2670.8c-46.6,0-88.9-3.8-121.9-11.1c-1.8-0.4-3-2.2-2.6-4c0.4-1.8,2.2-3,4-2.6
				c49.5,11,120.8,13.9,195.6,7.8c81.3-6.6,157.3-23,203.5-44c1.7-0.8,3.7,0,4.5,1.7c0.8,1.7,0,3.7-1.7,4.5
				c-46.8,21.3-123.8,38-205.8,44.6C1898.6,2669.8,1873.1,2670.8,1848.8,2670.8z"/>
		</g>
		<linearGradient id="SVGID_18_" gradientUnits="userSpaceOnUse" x1="1927.7495" y1="1346.0132" x2="1860.0667" y2="3187.0005">
			<stop  offset="0" style="stop-color:#FDF53F"/>
			<stop  offset="1" style="stop-color:#D93C65"/>
		</linearGradient>
		<path class="st19" d="M1569.2,2315c-17.1-60.6-46.2-117.3-85.3-166.6c-83.9-105.7-220.7-320.7-237.6-614.2
			c-24.5-426.8,354-640.5,699.5-611.5c345.4,29,686.3,286.2,649,683.3c-23,244.3-159.7,429.6-261.5,536.1
			c-64.7,67.6-110.8,150.4-135.7,240.5c-30.6,110.3-103.3,247.8-276.1,256.2C1697.7,2649.6,1604.8,2441.1,1569.2,2315z"/>
		<linearGradient id="SVGID_19_" gradientUnits="userSpaceOnUse" x1="2047.1317" y1="1992.879" x2="2096.7659" y2="3569.8965">
			<stop  offset="0" style="stop-color:#FDF53F"/>
			<stop  offset="1" style="stop-color:#D93C65"/>
		</linearGradient>
		<path class="st20" d="M1978.5,2553.6l120.9-786.1c2.5-16.2,10.5-27.1,17.9-24.4c7.4,2.8,11.3,18.2,8.8,34.5
			c-0.1,0.4-0.2,1-0.2,1.4l-137.7,778.8c-1,5.9-4,9.6-6.6,8.3C1978.9,2564.8,1977.6,2559.3,1978.5,2553.6z"/>
		<linearGradient id="SVGID_20_" gradientUnits="userSpaceOnUse" x1="1773.7195" y1="2001.485" x2="1823.3538" y2="3578.5059">
			<stop  offset="0" style="stop-color:#FDF53F"/>
			<stop  offset="1" style="stop-color:#D93C65"/>
		</linearGradient>
		<path class="st21" d="M1853,2559.9l-120.9-786.1c-2.5-16.2-10.5-27.1-17.9-24.4c-7.4,2.8-11.3,18.2-8.8,34.5
			c0.1,0.4,0.2,1,0.2,1.4l137.7,778.8c1,5.9,4,9.6,6.6,8.3C1852.6,2571,1853.9,2565.5,1853,2559.9z"/>
		<path class="st22" d="M2098.5,1700c-3.1-4.9-10.2-6.8-15.9-4.1l-67.3,31.4l-23.4-66.6c-1.2-3.5-4.1-6.6-8.2-8.2
			c-7.7-3.2-17-0.3-20.7,6.4l-0.1,0.2l-55.3,100.9l-51.4-143.7l-0.1-0.2c-1.3-3.5-3.9-6.7-7.8-8.8c-8.6-4.7-20-2.5-25.4,5
			l-77.4,106.5c-3.1,4.4-2.1,10.2,2.7,13.4c5.1,3.4,12.5,2.6,16.5-1.8l68.1-76l61.3,136.7l0,0.1c1,2.2,2.8,4.1,5.4,5.3
			c5.8,2.7,12.9,0.8,16.1-4.2l59.2-95l22.3,48l0.2,0.4c0.2,0.3,0.3,0.7,0.6,1c3.1,4.9,10.2,6.8,15.9,4.1l79.9-37.3
			C2099.4,1711.1,2101.5,1704.9,2098.5,1700z"/>
		<path class="st22" d="M2335.8,2047c-4.5,0-9-1.4-12.9-4.3c-9.6-7.1-11.6-20.7-4.5-30.3c20.4-27.5,39.2-56,55.7-84.6
			c6-10.4,19.2-13.9,29.6-7.9c10.4,6,13.9,19.2,7.9,29.6c-17.3,30-37,59.9-58.4,88.7C2349,2044,2342.4,2047,2335.8,2047z"/>
		<path class="st22" d="M2435.2,1876.4c-2.9,0-5.8-0.6-8.6-1.8c-11-4.8-16-17.5-11.2-28.5c126.6-291.6,17.6-535.9,16.5-538.3
			c-5-10.9-0.2-23.7,10.7-28.7c10.9-5,23.7-0.2,28.7,10.7c4.9,10.7,118.1,264.5-16.1,573.6
			C2451.6,1871.5,2443.6,1876.4,2435.2,1876.4z"/>
	</g>
	<g>
		<g>
			<g>
				
					<linearGradient id="SVGID_21_" gradientUnits="userSpaceOnUse" x1="13274.3779" y1="2916.5962" x2="11948.874" y2="3775.8528" gradientTransform="matrix(1 0 0 1 -10580.9297 0)">
					<stop  offset="0" style="stop-color:#B37CFF"/>
					<stop  offset="1" style="stop-color:#F895E7"/>
				</linearGradient>
				<path class="st23" d="M3209.5,3190.1l-1433.4,0v-286.9l1433.4,0C3178.8,2903.2,3178.8,3190.1,3209.5,3190.1z"/>
				
					<linearGradient id="SVGID_22_" gradientUnits="userSpaceOnUse" x1="539.8675" y1="3006.9463" x2="-2443.8796" y2="3074.5005" gradientTransform="matrix(-1 0 0 1 1281.3782 0)">
					<stop  offset="0" style="stop-color:#CB236D"/>
					<stop  offset="1" style="stop-color:#4C246D"/>
				</linearGradient>
				<path class="st24" d="M1776.1,3118.3V2987c0-46.3,28.3-83.8,63.3-83.8h1410.5c1.9,0,3.4-1.5,3.4-3.4v-58.1
					c0-1.9-1.5-3.4-3.4-3.4H1747.2c-34.2,0-88.5,53.8-88.5,120.1v183.4c0,62.5,52.7,113.2,84.9,113.2h1506.1c1.9,0,3.4-1.5,3.4-3.4
					v-58.1c0-1.9-1.5-3.4-3.4-3.4H1830.3C1800.3,3190.1,1776.1,3158,1776.1,3118.3z"/>
			</g>
			<path class="st22" d="M3159.8,2965.5h-1344c-1.9,0-3.4-1.5-3.4-3.4c0-1.9,1.5-3.4,3.4-3.4h1344c1.9,0,3.4,1.5,3.4,3.4
				C3163.2,2964,3161.7,2965.5,3159.8,2965.5z"/>
			<path class="st22" d="M3159.8,3008.1h-1344c-1.9,0-3.4-1.5-3.4-3.4c0-1.9,1.5-3.4,3.4-3.4h1344c1.9,0,3.4,1.5,3.4,3.4
				C3163.2,3006.5,3161.7,3008.1,3159.8,3008.1z"/>
			<path class="st22" d="M3159.8,3050.6h-1344c-1.9,0-3.4-1.5-3.4-3.4c0-1.9,1.5-3.4,3.4-3.4h1344c1.9,0,3.4,1.5,3.4,3.4
				C3163.2,3049.1,3161.7,3050.6,3159.8,3050.6z"/>
			<path class="st22" d="M3159.8,3093.2h-1344c-1.9,0-3.4-1.5-3.4-3.4c0-1.9,1.5-3.4,3.4-3.4h1344c1.9,0,3.4,1.5,3.4,3.4
				C3163.2,3091.7,3161.7,3093.2,3159.8,3093.2z"/>
			<path class="st22" d="M3159.8,3135.8h-1344c-1.9,0-3.4-1.5-3.4-3.4c0-1.9,1.5-3.4,3.4-3.4h1344c1.9,0,3.4,1.5,3.4,3.4
				C3163.2,3134.3,3161.7,3135.8,3159.8,3135.8z"/>
		</g>
		<g>
			<linearGradient id="SVGID_23_" gradientUnits="userSpaceOnUse" x1="2445.8899" y1="3447.3022" x2="2868.4272" y2="1198.8063">
				<stop  offset="0" style="stop-color:#2B3582"/>
				<stop  offset="1" style="stop-color:#150E42"/>
			</linearGradient>
			<path class="st25" d="M1938.3,2840.3h1295.8c7.6,0,13.8-6.2,13.8-13.8v-251.9c0-7.6-6.2-13.8-13.8-13.8H1938.3
				c-7.6,0-13.8,6.2-13.8,13.8v251.9C1924.5,2834.1,1930.7,2840.3,1938.3,2840.3z"/>
			<linearGradient id="SVGID_24_" gradientUnits="userSpaceOnUse" x1="3731.1687" y1="1720.8245" x2="2849.6182" y2="2986.9919">
				<stop  offset="0" style="stop-color:#53D8FF"/>
				<stop  offset="1" style="stop-color:#3840F7"/>
			</linearGradient>
			<rect x="2981" y="2593" class="st26" width="136" height="215.2"/>
			<linearGradient id="SVGID_25_" gradientUnits="userSpaceOnUse" x1="3654.7029" y1="1667.5846" x2="2773.1528" y2="2933.7512">
				<stop  offset="0" style="stop-color:#53D8FF"/>
				<stop  offset="1" style="stop-color:#3840F7"/>
			</linearGradient>
			<rect x="2910" y="2593" class="st27" width="51" height="215.2"/>
		</g>
	</g>
	<g>
		<g>
			
				<linearGradient id="SVGID_26_" gradientUnits="userSpaceOnUse" x1="13883.9932" y1="3162.4873" x2="13952.9453" y2="2728.7593" gradientTransform="matrix(1 0 0 1 -13039.751 0)">
				<stop  offset="0" style="stop-color:#CB236D"/>
				<stop  offset="1" style="stop-color:#4C246D"/>
			</linearGradient>
			<rect x="853.2" y="2833.3" class="st28" width="31.9" height="345"/>
			
				<linearGradient id="SVGID_27_" gradientUnits="userSpaceOnUse" x1="13911.0039" y1="3165.7852" x2="13981.6406" y2="2721.4541" gradientTransform="matrix(1 0 0 1 -13039.751 0)">
				<stop  offset="0" style="stop-color:#CB236D"/>
				<stop  offset="1" style="stop-color:#4C246D"/>
			</linearGradient>
			<path class="st29" d="M1008.9,3185H729.4v-11.1c0-5.3,4.3-9.6,9.6-9.6h259.4c5.7,0,10.4,4.6,10.4,10.4V3185z"/>
			
				<linearGradient id="SVGID_28_" gradientUnits="userSpaceOnUse" x1="13855.1982" y1="3178.8162" x2="13928.4775" y2="2717.8672" gradientTransform="matrix(1 0 0 1 -13039.751 0)">
				<stop  offset="0" style="stop-color:#FDF53F"/>
				<stop  offset="1" style="stop-color:#D93C65"/>
			</linearGradient>
			<path class="st30" d="M1061.7,2820.6c0,20.1-16.4,36.5-36.5,36.5H724.8c-20.1,0-36.5-16.4-36.5-36.5v-33
				c0-20.1,16.4-36.5,36.5-36.5h300.4c20.1,0,36.5,16.4,36.5,36.5V2820.6z"/>
		</g>
		<g>
			
				<linearGradient id="SVGID_29_" gradientUnits="userSpaceOnUse" x1="4182.6113" y1="3048.8494" x2="4126.2949" y2="3159.6045" gradientTransform="matrix(1 0 0 1 -2917.5227 0)">
				<stop  offset="0" style="stop-color:#2B3582"/>
				<stop  offset="1" style="stop-color:#150E42"/>
			</linearGradient>
			<path class="st31" d="M1187.4,3115c0,0,91.1,65.7,75.3,109.8c0,0-99.7-43-111.7-76.9c-12-33.9,2-48.8,2-48.8L1187.4,3115z"/>
			
				<linearGradient id="SVGID_30_" gradientUnits="userSpaceOnUse" x1="4075.522" y1="3092.9253" x2="4131.623" y2="3092.9253" gradientTransform="matrix(1 0 0 1 -2917.5227 0)">
				<stop  offset="0" style="stop-color:#F9B776"/>
				<stop  offset="1" style="stop-color:#F47960"/>
			</linearGradient>
			<path class="st32" d="M1173.8,3060l-14.9,43.1c-2.2,6.5,0,13.9,5.8,17.6c2.9,1.8,6.9,3.5,12.3,4.8c7.7,1.7,15.6-1.8,19.3-8.8
				l17.8-33.6L1173.8,3060z"/>
			
				<linearGradient id="SVGID_31_" gradientUnits="userSpaceOnUse" x1="3997.8879" y1="2944.4849" x2="4236.2925" y2="2610.3433" gradientTransform="matrix(1 0 0 1 -2917.5227 0)">
				<stop  offset="0" style="stop-color:#2B3582"/>
				<stop  offset="0.2305" style="stop-color:#252A70"/>
				<stop  offset="0.7285" style="stop-color:#19164F"/>
				<stop  offset="1" style="stop-color:#150E42"/>
			</linearGradient>
			<path class="st33" d="M1028.8,2672.4c0,0,187.1,32.4,267.4,106.6c80.3,74.1-73.7,310.7-73.7,310.7s-25.2-0.2-55.8-26.4
				c0,0,91.3-177.9,12.6-229.8c-88.4-58.3-190.3-71.5-190.3-71.5l38-84L1028.8,2672.4z"/>
			
				<linearGradient id="SVGID_32_" gradientUnits="userSpaceOnUse" x1="4149.9292" y1="3160.8306" x2="3954.699" y2="3416.1309" gradientTransform="matrix(1 0 0 1 -2917.5227 0)">
				<stop  offset="0" style="stop-color:#2B3582"/>
				<stop  offset="1" style="stop-color:#150E42"/>
			</linearGradient>
			<path class="st34" d="M1246.9,3200.4c-20-9.3-76.8-49-86.3-50.7c-9.6-1.8-26.1,9.5-26.1,9.5s-4,7.3,0.3,19.9
				c13.3,16.1,42.9,46.8,82.6,58.3c29.2,8.4,49.7,0.6,62.4-8.6C1272.7,3218.1,1260.2,3206.6,1246.9,3200.4z"/>
			
				<linearGradient id="SVGID_33_" gradientUnits="userSpaceOnUse" x1="4052.2258" y1="3216.123" x2="4203.0791" y2="3216.123" gradientTransform="matrix(1 0 0 1 -2917.5227 0)">
				<stop  offset="0" style="stop-color:#53D8FF"/>
				<stop  offset="1" style="stop-color:#3840F7"/>
			</linearGradient>
			<path class="st35" d="M1217.3,3237.3c-39.7-11.4-69.3-42.2-82.6-58.3c2.9,8.6,9.6,19.6,24,32.5c35.6,32,103.7,43.6,118.2,41.3
				c11.6-1.8,10.5-12.5,2.9-24.2C1267,3237.9,1246.6,3245.8,1217.3,3237.3z"/>
			
				<linearGradient id="SVGID_34_" gradientUnits="userSpaceOnUse" x1="4034.9543" y1="3144.698" x2="4087.6062" y2="3144.698" gradientTransform="matrix(1 0 0 1 -2917.5227 0)">
				<stop  offset="0" style="stop-color:#F9B776"/>
				<stop  offset="1" style="stop-color:#F47960"/>
			</linearGradient>
			<path class="st36" d="M1117.4,3131.1c0.2,5.5,11.5,24.5,18.1,35.1c3.1,5,8.6,8.1,14.6,8.1c3.8,0,8.1-0.3,12-1.4
				c5.9-1.7,9.2-8,7.5-13.9l-12.9-44L1117.4,3131.1z"/>
			
				<linearGradient id="SVGID_35_" gradientUnits="userSpaceOnUse" x1="3911.9578" y1="3110.9919" x2="3925.0981" y2="2664.2173" gradientTransform="matrix(1 0 0 1 -2917.5227 0)">
				<stop  offset="0" style="stop-color:#2B3582"/>
				<stop  offset="1" style="stop-color:#150E42"/>
			</linearGradient>
			<path class="st37" d="M848.7,2616.2c0,0-41.6,111.1,0,144.9c41.6,33.8,140.7,71.8,162.8,139.1c22.1,67.3,59.7,198.1,110,244.4
				c0,0,35.3-3.4,48.6-17.5c0,0-28.6-195.3-47.5-245.4c-16.4-43.4-40.5-106-86.7-141c-13.2-10-10.9-25.9-4.8-41.3l11.2-28.1
				L848.7,2616.2z"/>
			
				<linearGradient id="SVGID_36_" gradientUnits="userSpaceOnUse" x1="4237.6743" y1="2676.4873" x2="4108.1475" y2="2473.7493" gradientTransform="matrix(1 0 0 1 -2917.5227 0)">
				<stop  offset="0" style="stop-color:#53D8FF"/>
				<stop  offset="1" style="stop-color:#3840F7"/>
			</linearGradient>
			<path class="st38" d="M1282.1,2529.2c-69.7,4.2-48-107.1-46.7-111.5l-105.7,74.7c0,0,5.6,59.5,93.5,90.8
				c22.2,7.9,42.6,8.2,60.5,4.4C1276,2565.1,1277.6,2545,1282.1,2529.2z"/>
			
				<linearGradient id="SVGID_37_" gradientUnits="userSpaceOnUse" x1="4195.8374" y1="2537.5325" x2="4379.5063" y2="2537.5325" gradientTransform="matrix(1 0 0 1 -2917.5227 0)">
				<stop  offset="0" style="stop-color:#F9B776"/>
				<stop  offset="1" style="stop-color:#F47960"/>
			</linearGradient>
			<path class="st39" d="M1416.8,2495.6c-26-18.1-55.4,0-55.4,0c-34.7,22.7-60.4,32.4-79.3,33.5c-4.5,15.9-6.1,35.9,1.6,58.3
				c38.9-8.4,66.7-36.5,78.8-50.9c4.4-5.2,12.1-6.1,17.4-1.9c5.4,4.3,10.7,10.1,9.7,16.3c-1.9,12.1,12.2,16,13.3,11.6
				c1.1-4.4-4.8-30.5-4.8-30.5s28.2,28.3,39.2,39.2c11,10.9,24.8,0,24.8,0S1442.8,2513.7,1416.8,2495.6z"/>
			
				<linearGradient id="SVGID_38_" gradientUnits="userSpaceOnUse" x1="4111.1255" y1="2317.5735" x2="3698.1414" y2="2617.9263" gradientTransform="matrix(1 0 0 1 -2917.5227 0)">
				<stop  offset="0" style="stop-color:#53D8FF"/>
				<stop  offset="1" style="stop-color:#3840F7"/>
			</linearGradient>
			<path class="st40" d="M957.2,2245.7c0,0,101.4-40.6,290,115.2c0,0,15.8,32.6-1.4,61.6c-17.2,29-181,170.5-203.5,248.9
				c0,0-97.6,31.7-198.5-43.5C843.8,2628,852.7,2409.6,957.2,2245.7z"/>
			
				<linearGradient id="SVGID_39_" gradientUnits="userSpaceOnUse" x1="4020.5903" y1="2266.4717" x2="4142.4526" y2="2266.4717" gradientTransform="matrix(1 0 0 1 -2917.5227 0)">
				<stop  offset="0" style="stop-color:#F9B776"/>
				<stop  offset="1" style="stop-color:#F47960"/>
			</linearGradient>
			<path class="st41" d="M1157.6,2209.5l-49.9,60.5c-5,6-6,14.4-2.6,21.4c6.9,14.1,23.4,34.7,59.8,31.9c10.8-0.8,20.4-7.4,25.2-17.2
				l34.9-72.1L1157.6,2209.5z"/>
			
				<linearGradient id="SVGID_40_" gradientUnits="userSpaceOnUse" x1="4051.9001" y1="2236.1389" x2="3638.9155" y2="2536.4917" gradientTransform="matrix(1 0 0 1 -2917.5227 0)">
				<stop  offset="0" style="stop-color:#53D8FF"/>
				<stop  offset="1" style="stop-color:#3840F7"/>
			</linearGradient>
			<path class="st42" d="M878.7,2504.8c-11.8-47.9,107.4-154.8,107.4-154.8l-28.9-104.3c0,0-257.4,171.3-191.8,309.1
				c9.4,19.8,21.9,33.6,36.4,42.8C822.5,2541.9,855.5,2516.3,878.7,2504.8z"/>
			<linearGradient id="SVGID_41_" gradientUnits="userSpaceOnUse" x1="863.3659" y1="1746.9795" x2="955.2643" y2="2642.145">
				<stop  offset="0" style="stop-color:#53D8FF"/>
				<stop  offset="1" style="stop-color:#3840F7"/>
			</linearGradient>
			<path class="st43" d="M878.6,2497.8c-1.3,0-2.4-0.9-2.7-2.1c-12-49,103.4-153.1,108.3-157.5c1.2-1,2.9-0.9,4,0.2
				c1,1.2,0.9,2.9-0.2,4c-1.2,1.1-117.8,106.3-106.6,152c0.4,1.5-0.6,3-2.1,3.4C879.1,2497.8,878.8,2497.8,878.6,2497.8z"/>
			
				<linearGradient id="SVGID_42_" gradientUnits="userSpaceOnUse" x1="3937.489" y1="2539.7434" x2="3470.936" y2="3350.4751" gradientTransform="matrix(1 0 0 1 -2917.5227 0)">
				<stop  offset="0" style="stop-color:#F9B776"/>
				<stop  offset="1" style="stop-color:#F47960"/>
			</linearGradient>
			<path class="st44" d="M1059.2,2500.7c0,0-141.3,54.9-175.8,13.6c-2.3-2.8-3.9-6-4.7-9.5c-23.2,11.5-56.2,37.1-76.9,92.9
				c74.3,47.5,201.4-26.4,235.7-48.2c5.7-3.6,12.4-4.8,19-3.5c13.2,2.7,36.1,6.8,48.5,4.9c18.1-2.8,44,60.9,73.3,41.3
				C1178.2,2592.1,1153.2,2481.4,1059.2,2500.7z"/>
			<g>
				
					<linearGradient id="SVGID_43_" gradientUnits="userSpaceOnUse" x1="4280.5728" y1="-274.1541" x2="4130.2539" y2="-159.1374" gradientTransform="matrix(0.922 0.3871 -0.3871 0.922 -2786.261 786.7947)">
					<stop  offset="0" style="stop-color:#F9B776"/>
					<stop  offset="1" style="stop-color:#F47960"/>
				</linearGradient>
				<path class="st45" d="M1282.1,2139.9c0,0,0.9,65.9-9.8,95.8c-10.6,29.9-12.3,51.5-48.6,43.2c-36.3-8.3-57.7-37.1-60.9-72.7
					c0,0-5.3-55,7.8-71.1C1183.8,2119,1282.1,2139.9,1282.1,2139.9z"/>
				
					<linearGradient id="SVGID_44_" gradientUnits="userSpaceOnUse" x1="4174.9663" y1="-364.9482" x2="4311.085" y2="-189.6962" gradientTransform="matrix(0.922 0.3871 -0.3871 0.922 -2786.261 786.7947)">
					<stop  offset="0" style="stop-color:#2B3582"/>
					<stop  offset="1" style="stop-color:#150E42"/>
				</linearGradient>
				<path class="st46" d="M1183.2,2190.1l4.3,1.8c0,0-2.4-43.5,15.7-43.4c18.1,0.1,84.7,13.4,107-2.8c21.5-15.6,21.5-47.5,7.7-62.2
					c-0.9-0.9-2.4-1-3.3-0.1l-2.5,2.1c-1.7,1.4-4.3,0-4.1-2.2l0,0c0.2-2.1-2.1-3.6-3.9-2.4c-6.8,4.8-22.2,10.8-53.8,3.9
					c-44.9-9.8-79.6-4.5-92.4,24c-0.8,1.8-3.2,2-4.3,0.4c-2.3-3.2-6.8-6.1-15.8-3.3c-15.5,4.8-21.3,31.8-4.8,62.9
					c0.8,1.5,0,3.3-1.7,3.6c-5.8,1.1-15.5,5.3-1.9,22c13.9,17.2,25,20.6,29.5,21.2c1.2,0.2,2.3-0.5,2.7-1.6l9.1-26.2
					c0.5-1.4,2-2,3.3-1.5L1183.2,2190.1z"/>
				
					<linearGradient id="SVGID_45_" gradientUnits="userSpaceOnUse" x1="4261.9272" y1="-298.5212" x2="4111.6084" y2="-183.5045" gradientTransform="matrix(0.922 0.3871 -0.3871 0.922 -2786.261 786.7947)">
					<stop  offset="0" style="stop-color:#F9B776"/>
					<stop  offset="1" style="stop-color:#F47960"/>
				</linearGradient>
				<path class="st47" d="M1182,2195.9c0,0,5.7-39.5-14.5-36.2c-20.1,3.3-8.5,43.3,3.8,50.1L1182,2195.9z"/>
			</g>
		</g>
		<g>
			<g>
				
					<linearGradient id="SVGID_46_" gradientUnits="userSpaceOnUse" x1="9090.3174" y1="2938.678" x2="9376.5547" y2="2938.678" gradientTransform="matrix(-1 0 0 1 10758.1035 0)">
					<stop  offset="0" style="stop-color:#9CFFFB"/>
					<stop  offset="1" style="stop-color:#9BFFFA"/>
				</linearGradient>
				<path class="st48" d="M1655.3,3244.8c1.6,0,3.3-0.3,4.9-1c6.3-2.6,9.2-9.7,6.5-15.8l-261.3-588.1c-2.7-6.1-10-8.9-16.4-6.3
					c-6.3,2.6-9.2,9.7-6.5,15.8l261.3,588.1C1645.9,3242.1,1650.5,3244.8,1655.3,3244.8z"/>
				
					<linearGradient id="SVGID_47_" gradientUnits="userSpaceOnUse" x1="9123.3721" y1="2938.6768" x2="9409.6104" y2="2938.6768" gradientTransform="matrix(-1 0 0 1 10758.1035 0)">
					<stop  offset="0" style="stop-color:#9CFFFB"/>
					<stop  offset="1" style="stop-color:#9BFFFA"/>
				</linearGradient>
				<path class="st49" d="M1361,3244.8c4.8,0,9.4-2.7,11.5-7.3l261.3-588.1c2.7-6.1-0.2-13.2-6.5-15.8c-6.3-2.6-13.6,0.2-16.4,6.3
					L1349.5,3228c-2.7,6.1,0.2,13.2,6.5,15.8C1357.6,3244.5,1359.3,3244.8,1361,3244.8z"/>
				
					<linearGradient id="SVGID_48_" gradientUnits="userSpaceOnUse" x1="9899.1895" y1="2938.678" x2="10185.4268" y2="2938.678" gradientTransform="matrix(-1 0 0 1 10758.1035 0)">
					<stop  offset="0" style="stop-color:#9CFFFB"/>
					<stop  offset="1" style="stop-color:#9BFFFA"/>
				</linearGradient>
				<path class="st50" d="M846.5,3244.8c1.6,0,3.3-0.3,4.9-1c6.3-2.6,9.2-9.7,6.5-15.8l-261.3-588.1c-2.7-6.1-10-8.9-16.4-6.3
					c-6.3,2.6-9.2,9.7-6.5,15.8L835,3237.5C837,3242.1,841.6,3244.8,846.5,3244.8z"/>
				
					<linearGradient id="SVGID_49_" gradientUnits="userSpaceOnUse" x1="9932.2422" y1="2938.6768" x2="10218.4795" y2="2938.6768" gradientTransform="matrix(-1 0 0 1 10758.1035 0)">
					<stop  offset="0" style="stop-color:#9CFFFB"/>
					<stop  offset="1" style="stop-color:#9BFFFA"/>
				</linearGradient>
				<path class="st51" d="M552.1,3244.8c4.8,0,9.4-2.7,11.5-7.3l261.3-588.1c2.7-6.1-0.2-13.2-6.5-15.8c-6.3-2.6-13.6,0.2-16.4,6.3
					L540.6,3228c-2.7,6.1,0.2,13.2,6.5,15.8C548.8,3244.5,550.4,3244.8,552.1,3244.8z"/>
			</g>
			
				<linearGradient id="SVGID_50_" gradientUnits="userSpaceOnUse" x1="9022.8223" y1="2638.2585" x2="10236.8867" y2="2638.2585" gradientTransform="matrix(-1 0 0 1 10758.1035 0)">
				<stop  offset="0" style="stop-color:#9CFFFB"/>
				<stop  offset="1" style="stop-color:#9BFFFA"/>
			</linearGradient>
			<path class="st52" d="M521.4,2621.7c-0.7-3.9,0.2-7.8,2.5-10.9c2.2-3,5.6-4.8,9.1-4.8h1188.8c4.6,0,8.9,2.6,11.4,7
				c2.5,4.4,2.8,9.8,0.9,14.5l-12.9,31.2c-2.9,7.1-9.3,11.7-16.4,11.7H541.1c-6.5,0-12.2-5.2-13.4-12.4L521.4,2621.7z"/>
		</g>
		<g>
			
				<linearGradient id="SVGID_51_" gradientUnits="userSpaceOnUse" x1="9578.4736" y1="3061.9602" x2="9339.5811" y2="3127.4343" gradientTransform="matrix(-0.9988 -4.940000e-002 -4.940000e-002 0.9988 10799.5723 -55.0327)">
				<stop  offset="0" style="stop-color:#2B3582"/>
				<stop  offset="1" style="stop-color:#150E42"/>
			</linearGradient>
			<path class="st53" d="M1131.6,2608.9c0.2,0,0.5,0,0.7,0l296.5-0.3c7.3,0,13.3-6,13.3-13.3c0-7.3-6-13.4-13.3-13.3l-296.5,0.3
				c-7.3,0-13.3,6-13.3,13.3C1119,2602.7,1124.6,2608.5,1131.6,2608.9z"/>
			
				<linearGradient id="SVGID_52_" gradientUnits="userSpaceOnUse" x1="9353.4414" y1="2375.75" x2="9183.9365" y2="2554.9063" gradientTransform="matrix(-1 0 0 1 10758.1035 0)">
				<stop  offset="0" style="stop-color:#2B3582"/>
				<stop  offset="1" style="stop-color:#150E42"/>
			</linearGradient>
			<path class="st54" d="M1695.4,2339.7h-246.9c-18.2,0-34.8,10.5-42.6,27l-114.2,242.1h306.9c11.7,0,22.3-7.2,26.6-18.1l88.5-224
				C1718.8,2353.7,1709.3,2339.7,1695.4,2339.7z"/>
			
				<linearGradient id="SVGID_53_" gradientUnits="userSpaceOnUse" x1="9250.9678" y1="2420.3586" x2="9174.0576" y2="2536.177" gradientTransform="matrix(-1 0 0 1 10758.1035 0)">
				<stop  offset="0" style="stop-color:#53D8FF"/>
				<stop  offset="1" style="stop-color:#3840F7"/>
			</linearGradient>
			<path class="st55" d="M1521.4,2463.8c-5.4,16.6-1.4,32.8,8.8,36.1c10.2,3.3,22.9-7.5,28.2-24.1c5.4-16.6,1.4-32.8-8.8-36.1
				C1539.4,2436.3,1526.7,2447.1,1521.4,2463.8z"/>
		</g>
	</g>
	<g>
		
			<linearGradient id="SVGID_54_" gradientUnits="userSpaceOnUse" x1="11080.9512" y1="2503.3384" x2="10703.6924" y2="2718.6724" gradientTransform="matrix(-1 0 0 1 13326.4766 0)">
			<stop  offset="0" style="stop-color:#F9B776"/>
			<stop  offset="1" style="stop-color:#F47960"/>
		</linearGradient>
		<path class="st56" d="M2302.9,2854.4c0.4-0.2,239.7-419.2,272.1-458.7c5.4-6.6,13.9-10,22.4-9l66.8,8l78.5,169.7l-130.7-76.1
			c12.9,89.5-155,222.4-212.6,270.9c-5.8,4.9-6.3,13.7-1,19.3l23,24.1c-37.7,38.3-81.3,62.8-130.5,74.2L2302.9,2854.4z"/>
		<linearGradient id="SVGID_55_" gradientUnits="userSpaceOnUse" x1="2201.4875" y1="2425.4053" x2="2548.6453" y2="3420.9299">
			<stop  offset="0" style="stop-color:#53D8FF"/>
			<stop  offset="1" style="stop-color:#3840F7"/>
		</linearGradient>
		<path class="st57" d="M2407.9,2789.6c0,0,14.7,4.7,19.6,17.8c2.4,6.3-0.2,13.3-5.6,17.2c-24.2,17.3-103.9,73.2-140.6,84.1
			c-3,0.9-5.9-1.8-5.2-4.9c1.9-8.5,8-25.6,27.7-50.6l-1.8,3.6c-2.2,4.5,2.7,9.2,7.1,6.7C2333.7,2849.7,2383.8,2819.3,2407.9,2789.6z
			"/>
		
			<linearGradient id="SVGID_56_" gradientUnits="userSpaceOnUse" x1="11044.4561" y1="2557.041" x2="12335.249" y2="1748.9845" gradientTransform="matrix(-1 0 0 1 13326.4766 0)">
			<stop  offset="0" style="stop-color:#F9B776"/>
			<stop  offset="1" style="stop-color:#F47960"/>
		</linearGradient>
		<path class="st58" d="M2396.1,2957.2c0.4-0.3,36.3-86.8,36.7-87c32.9-200.4,113.2-372.1,136.9-417.2c4-7.6,11.5-12.6,20.1-13.3
			l67-5.7l111.2,150.4l-143.4-48.1c30.8,85-106.8,249.2-153.4,308.3c-4.7,6-3.4,14.7,2.9,19.1l27.4,18.9
			c-29.2,45.1-66.9,78-112.8,99.1L2396.1,2957.2z"/>
		<linearGradient id="SVGID_57_" gradientUnits="userSpaceOnUse" x1="2255.3591" y1="2406.6196" x2="2602.5171" y2="3402.1453">
			<stop  offset="0" style="stop-color:#53D8FF"/>
			<stop  offset="1" style="stop-color:#3840F7"/>
		</linearGradient>
		<path class="st59" d="M2485.8,2872.5c0,0,15.3,1.7,22.8,13.5c3.6,5.6,2.5,13.1-2,18c-20.2,21.8-86.9,92.7-120.7,110.9
			c-2.8,1.5-6.1-0.6-6.1-3.7c0.1-8.7,2.6-26.7,16.9-55.1l-1,3.9c-1.3,4.9,4.5,8.5,8.3,5.2
			C2425.3,2946.4,2468.2,2906.5,2485.8,2872.5z"/>
		<g>
			
				<linearGradient id="SVGID_58_" gradientUnits="userSpaceOnUse" x1="-1186.6451" y1="-2626.2324" x2="-1855.4332" y2="-3504.3362" gradientTransform="matrix(-1 0 0 1 5494.7764 0)">
				<stop  offset="0" style="stop-color:#A737D5"/>
				<stop  offset="1" style="stop-color:#EF497A"/>
			</linearGradient>
			<path class="st60" d="M2970.5,2402.3c0,0,60.6,90.2,65.6,131.3c5,41.1-16.8,55.4-80.2,60.6c-188.8,15.6-281.9-41-281.9-41
				c-12.9-82.4-22.1-103.3-130-148.1c0,0,136.5,10.8,163.9,0.2C2735.4,2394.6,2970.5,2402.3,2970.5,2402.3z"/>
		</g>
		<g>
			
				<linearGradient id="SVGID_59_" gradientUnits="userSpaceOnUse" x1="-4470.6929" y1="2120.595" x2="-4377.9243" y2="2353.3037" gradientTransform="matrix(0.9446 -0.3283 0.3283 0.9446 6190.9395 -1699.1722)">
				<stop  offset="0" style="stop-color:#2B3582"/>
				<stop  offset="1" style="stop-color:#150E42"/>
			</linearGradient>
			<path class="st61" d="M2728.8,1897.1c0,0,42.2-50,87.1,11.3c8.1,11.1,39.4,1.9,50.8,25.2c5.9,12,18.7,18.8,31.8,16.4
				c32.8-6,86.3-6.6,112.7,44.8c20.2,39.2,4.6,62.1-15.6,75.2c-14.8,9.6-20.1,29.1-11.1,44.3c8.6,14.6,10.2,34.4-12,58.1
				c-49.7,53.3-148.1-33.8-148.1-33.8l-78.1-184.7L2728.8,1897.1z"/>
			<linearGradient id="SVGID_60_" gradientUnits="userSpaceOnUse" x1="2768.1785" y1="2369.6904" x2="3377.4365" y2="1491.5435">
				<stop  offset="0" style="stop-color:#53D8FF"/>
				<stop  offset="1" style="stop-color:#3840F7"/>
			</linearGradient>
			<path class="st62" d="M2806.6,2390.3c0,0-70.6-67.2-105.4-111.8c-18.8-24.1-24.7-55.8-16-85c15.9-53.5,44.1-108.8,46.6-117.4
				c3.9-13.2,83.1-12.7,83.1-12.7s155.8,101.1,217,272.4l-68.7,21.4c0,0-40.7-68.2-80.9-111.6c0,0,69.5,91.9,72,129.5L2806.6,2390.3
				z"/>
			
				<linearGradient id="SVGID_61_" gradientUnits="userSpaceOnUse" x1="-2023.7333" y1="2379.2175" x2="-1647.9276" y2="2379.2175" gradientTransform="matrix(1 0 0 1 4930.0132 0)">
				<stop  offset="0" style="stop-color:#F9B776"/>
				<stop  offset="1" style="stop-color:#F47960"/>
			</linearGradient>
			<path class="st63" d="M2672,2416.9l53-57.7l61.3,16.5c0,0,71.4,11.1,112.3,0c40.9-11.1,40.9-11.1,40.9-11.1l92.4-28.8l14.5,41
				c3.7,10.4,0,22-9,28.4c-8,5.7-17.4,11.9-23.3,14.5c-12.2,5.3-280.3,1.7-280.3,1.7L2672,2416.9z"/>
			
				<linearGradient id="SVGID_62_" gradientUnits="userSpaceOnUse" x1="-3982.9602" y1="1813.7297" x2="-3964.5891" y2="1679.3325" gradientTransform="matrix(0.9974 -7.170000e-002 7.170000e-002 0.9974 6595.8838 105.0094)">
				<stop  offset="0" style="stop-color:#F9B776"/>
				<stop  offset="1" style="stop-color:#F47960"/>
			</linearGradient>
			<path class="st64" d="M2760.5,1968.3l53.2,98.9c-3.5,21.6-57.9,22.2-66.3,9.3c-0.9-1.3-1.3-2.8-1.7-4.4l-31.8-66.1
				c-1.4-6.4,16.3-28.2,22.1-31.3l21.1-11.3C2765.4,1959.2,2731.4,1958.9,2760.5,1968.3z"/>
			<g>
				
					<linearGradient id="SVGID_63_" gradientUnits="userSpaceOnUse" x1="-6137.6167" y1="2314.271" x2="-5964.6431" y2="2006.436" gradientTransform="matrix(0.5458 -0.8379 0.8379 0.5458 4176.8994 -4320.769)">
					<stop  offset="0" style="stop-color:#F9B776"/>
					<stop  offset="1" style="stop-color:#F47960"/>
				</linearGradient>
				<path class="st65" d="M2652.9,1945.1c0,0-6,33.4,20.3,75.9c26.3,42.5,52.4,40.6,65.7,25.4c13.3-15.2,29.2-40.4,22-82.8
					C2753.6,1921.2,2661.9,1902.4,2652.9,1945.1z"/>
				
					<linearGradient id="SVGID_64_" gradientUnits="userSpaceOnUse" x1="-6100.4209" y1="2046.1951" x2="-6013.9346" y2="2263.1436" gradientTransform="matrix(0.5458 -0.8379 0.8379 0.5458 4176.8994 -4320.769)">
					<stop  offset="0" style="stop-color:#2B3582"/>
					<stop  offset="1" style="stop-color:#150E42"/>
				</linearGradient>
				<path class="st66" d="M2729,1968.2c0,0-42.5-55.9-75.2-7.2l0.6,16.8c0,0-42.5-2-37.9-41.1c4.6-39.1,39.3-65.9,87.4-52.5
					c48.1,13.4,76.2,28.6,81.6,62c5.4,33.4-21.8,27.9-21.8,27.9s-10.4-23-23-24.6c-12.6-1.6-8,16.6-8,16.6L2729,1968.2z"/>
				
					<linearGradient id="SVGID_65_" gradientUnits="userSpaceOnUse" x1="-6100.7959" y1="2334.9568" x2="-5927.8242" y2="2027.1254" gradientTransform="matrix(0.5458 -0.8379 0.8379 0.5458 4176.8994 -4320.769)">
					<stop  offset="0" style="stop-color:#F9B776"/>
					<stop  offset="1" style="stop-color:#F47960"/>
				</linearGradient>
				<path class="st67" d="M2738.8,1966.7c0,0-22-28.6-2-34.5c20.1-5.9,19.3,28,18,40.7L2738.8,1966.7z"/>
			</g>
		</g>
		<g>
			
				<linearGradient id="SVGID_66_" gradientUnits="userSpaceOnUse" x1="-2117.0466" y1="2328.1221" x2="-2313.6421" y2="2382.0037" gradientTransform="matrix(0.9988 -4.940000e-002 4.940000e-002 0.9988 4888.5444 -55.0328)">
				<stop  offset="0" style="stop-color:#53D8FF"/>
				<stop  offset="1" style="stop-color:#3840F7"/>
			</linearGradient>
			<path class="st68" d="M2847.6,2439.7c-0.2,0-0.4,0-0.6,0l-244-0.3c-6,0-10.9-4.9-10.9-10.9c0-6,4.9-11,10.9-10.9l244,0.3
				c6,0,10.9,4.9,10.9,10.9C2858,2434.7,2853.4,2439.4,2847.6,2439.7z"/>
			
				<linearGradient id="SVGID_67_" gradientUnits="userSpaceOnUse" x1="8999.8975" y1="2343.2327" x2="10768.0684" y2="2194.4683" gradientTransform="matrix(1 0 0 1 -6621.0962 0)">
				<stop  offset="0" style="stop-color:#2B3582"/>
				<stop  offset="1" style="stop-color:#150E42"/>
			</linearGradient>
			<path class="st69" d="M2383.7,2218.2h203.2c15,0,28.6,8.7,35,22.2l93.9,199.2h-252.5c-9.7,0-18.3-5.9-21.9-14.9l-72.8-184.3
				C2364.4,2229.7,2372.3,2218.2,2383.7,2218.2z"/>
			
				<linearGradient id="SVGID_68_" gradientUnits="userSpaceOnUse" x1="-2391.3789" y1="2284.5857" x2="-2454.6721" y2="2379.8984" gradientTransform="matrix(1 0 0 1 4930.0132 0)">
				<stop  offset="0" style="stop-color:#53D8FF"/>
				<stop  offset="1" style="stop-color:#3840F7"/>
			</linearGradient>
			<path class="st70" d="M2526.9,2320.3c4.4,13.7,1.2,27-7.3,29.7c-8.4,2.7-18.8-6.2-23.2-19.9c-4.4-13.7-1.2-27,7.3-29.7
				C2512.1,2297.7,2522.5,2306.6,2526.9,2320.3z"/>
		</g>
	</g>
	<g>
		
			<linearGradient id="SVGID_69_" gradientUnits="userSpaceOnUse" x1="1484.6451" y1="1170.0663" x2="1552.4866" y2="958.0621" gradientTransform="matrix(0.9822 0.188 -0.188 0.9822 952.3442 -30.5627)">
			<stop  offset="0" style="stop-color:#53D8FF"/>
			<stop  offset="1" style="stop-color:#3840F7"/>
		</linearGradient>
		<path class="st71" d="M2112.2,807.7L2028.7,940c0,0,5.9,239.9,245.8,364.5c239.9,124.6,367.2,20.1,367.2,20.1l106.8-197
			L2112.2,807.7z"/>
		
			<linearGradient id="SVGID_70_" gradientUnits="userSpaceOnUse" x1="1494.4058" y1="1027.7291" x2="1825.1095" y2="295.6592" gradientTransform="matrix(0.9822 0.188 -0.188 0.9822 952.3442 -30.5627)">
			<stop  offset="0" style="stop-color:#53D8FF"/>
			<stop  offset="1" style="stop-color:#3840F7"/>
		</linearGradient>
		<path class="st72" d="M2548.7,666.6l-539.3,30c-27.8,1.5-42.6,33.4-25.9,55.6c81.6,108.3,266.1,359.4,327,495
			c6.5,14.5,22.1,22.7,37.7,19.9l560.8-99.2c25.4-4.5,37.2-34,22-54.8c-80.3-109.5-285.6-384.7-359.9-440
			C2564.8,668.5,2556.8,666.2,2548.7,666.6z"/>
		
			<linearGradient id="SVGID_71_" gradientUnits="userSpaceOnUse" x1="1923.4875" y1="1381.0798" x2="1855.6509" y2="951.4459" gradientTransform="matrix(0.9822 0.188 -0.188 0.9822 952.3442 -30.5627)">
			<stop  offset="0" style="stop-color:#53D8FF"/>
			<stop  offset="1" style="stop-color:#3840F7"/>
		</linearGradient>
		<path class="st73" d="M2479.8,926.5c0,0,233,230.6,245,274.2c12,43.6-68.7,211.8-68.7,211.8c9.5,159.5-20.3,323.9-111.1,393.3
			c0,0-45.1-217,12.9-291.4c58-74.4,80.9-105.2,80.9-105.2s76.5-181.4,71.5-210.9C2710.2,1198.3,2454.4,932.3,2479.8,926.5z"/>
		<path class="st22" d="M2068.4,758.2l203,314l50.7,78.5l12.7,19.6l6.3,9.8c1.9,3,4.3,5.7,6.9,8.2c10.3,10,25.1,15.1,39.5,13.4
			l185.9-19.6c1.8-0.2,3.4,1.1,3.6,2.9c0.2,1.8-1.1,3.4-2.9,3.6l-185.7,21.3c-16.6,2.2-34.2-3.6-46.4-15.3c-3-2.9-5.8-6.1-8.2-9.6
			l-6.5-9.8l-12.9-19.5l-51.5-78l-205.9-312.1c-2.1-3.1-1.2-7.3,1.9-9.3C2062.2,754.2,2066.4,755,2068.4,758.2L2068.4,758.2z"/>
		<path class="st22" d="M2616.8,1500.3c-0.7,0.4-1.9,1.4-2.8,2.1l-3,2.6c-2,1.7-3.8,3.8-5.8,5.6l-5.4,6.2c-1.7,2.1-3.3,4.4-5,6.6
			c-1.7,2.1-3.2,4.5-4.7,6.8c-1.5,2.3-3,4.6-4.4,7l-4,7.4c-1.3,2.5-2.7,4.9-3.8,7.5l-3.4,7.7c-1.1,2.6-2.4,5.1-3.2,7.8
			c-1.9,5.3-3.8,10.6-5.6,15.9l-4.5,16.3c-0.4,1.4-0.8,2.7-1.1,4.1l-0.8,4.2l-1.7,8.3c-2.6,11.1-3.5,22.4-5.1,33.7
			c-0.4,2.8-0.6,5.7-0.8,8.5l-0.6,8.5c-0.3,5.7-0.8,11.4-1,17.1c0,11.4-0.2,22.9,0,34.3l1.9,34.3l0,0.1c0.1,1.3-0.9,2.4-2.2,2.5
			c-1.3,0.1-2.4-0.9-2.5-2.1l-3-34.5c-0.6-11.5-0.7-23.1-1.1-34.7c0.1-5.8,0.3-11.6,0.5-17.4l0.3-8.7c0.1-2.9,0.2-5.8,0.5-8.7
			c1.2-11.5,1.9-23.2,4.1-34.6l1.4-8.6l0.7-4.3c0.3-1.4,0.7-2.8,1-4.3l4.1-17c1.7-5.6,3.5-11.2,5.3-16.8c0.8-2.8,2-5.5,3.1-8.2
			l3.3-8.2c1-2.8,2.5-5.4,3.7-8l4-7.9c1.4-2.6,3-5.1,4.5-7.7c1.5-2.6,3-5.1,4.8-7.5c1.7-2.4,3.4-4.9,5.2-7.3l5.7-7
			c2.1-2.2,4.1-4.5,6.4-6.6c2.3-2.2,4.4-4.1,7.5-6.3c3-2.2,7.3-1.4,9.4,1.6c2.2,3,1.4,7.3-1.6,9.4c-0.1,0.1-0.2,0.2-0.4,0.3
			L2616.8,1500.3z"/>
		<path class="st22" d="M2610.1,1571.5l-4.9,22.2l-5,23.9l-9.9,47.9l-19.5,95.9c-0.4,2-2.3,3.3-4.3,2.9c-1.9-0.4-3.2-2.3-2.9-4.2
			l16.4-96.5l8.4-48.2l4.3-24.1l2.2-12.1l1.2-6.1l0.6-3.1c0.3-1.4,0.8-3,1.3-4.5c1.1-3.4,4.8-5.3,8.3-4.2c3.2,1.1,5.1,4.4,4.4,7.6
			L2610.1,1571.5z"/>
	</g>
</g>
</svg>
