<?xml version="1.0" encoding="utf-8"?>
<!-- Generator: Adobe Illustrator 19.0.0, SVG Export Plug-In . SVG Version: 6.00 Build 0)  -->
<svg version="1.1" id="Illustration" xmlns="http://www.w3.org/2000/svg" xmlns:xlink="http://www.w3.org/1999/xlink" x="0px"
	 y="0px" viewBox="0 0 3710 3710" style="enable-background:new 0 0 3710 3710;" xml:space="preserve">
<style type="text/css">
	.st0{fill:#F4F7FA;}
	.st1{fill:#D8DEE8;}
	.st2{opacity:0.5;clip-path:url(#SVGID_2_);}
	.st3{fill:#FCFDFE;}
	.st4{fill:url(#SVGID_3_);}
	.st5{fill:url(#SVGID_4_);}
	.st6{fill:url(#SVGID_5_);}
	.st7{fill:url(#SVGID_6_);}
	.st8{fill:url(#SVGID_7_);}
	.st9{opacity:0.3;fill:url(#SVGID_8_);}
	.st10{fill:url(#SVGID_9_);}
	.st11{fill:url(#SVGID_10_);}
	.st12{fill:url(#SVGID_11_);}
	.st13{fill:url(#SVGID_12_);}
	.st14{fill:url(#SVGID_13_);}
	.st15{fill:url(#SVGID_14_);}
	.st16{fill:url(#SVGID_15_);}
	.st17{fill:#FFFFFF;}
	.st18{opacity:0.2;fill:url(#SVGID_16_);}
	.st19{fill:url(#SVGID_17_);}
	.st20{opacity:0.3;fill:url(#SVGID_18_);}
	.st21{fill:url(#SVGID_19_);}
	.st22{fill:url(#SVGID_20_);}
	.st23{fill:url(#SVGID_21_);}
	.st24{fill:url(#SVGID_22_);}
	.st25{fill:url(#SVGID_23_);}
	.st26{fill:url(#SVGID_24_);}
	.st27{opacity:0.3;fill:url(#SVGID_25_);}
	.st28{fill:url(#SVGID_26_);}
	.st29{fill:url(#SVGID_27_);}
	.st30{opacity:0.4;fill:url(#SVGID_28_);}
	.st31{fill:url(#SVGID_29_);}
	.st32{opacity:0.2;fill:url(#SVGID_30_);}
	.st33{opacity:0.2;fill:url(#SVGID_31_);}
	.st34{fill:url(#SVGID_32_);}
	.st35{fill:url(#SVGID_33_);}
	.st36{fill:url(#SVGID_34_);}
	.st37{fill:url(#SVGID_35_);}
	.st38{fill:url(#SVGID_36_);}
	.st39{fill:url(#SVGID_37_);}
	.st40{fill:url(#SVGID_38_);}
	.st41{fill:url(#SVGID_39_);}
	.st42{fill:url(#SVGID_40_);}
	.st43{fill:url(#SVGID_41_);}
</style>
<g>
	<path class="st0" d="M3152.1,1261.6c74.7-680.8-585.3-917.3-1053.2-743C1627.2,694.3,1517.8,403,854.5,486.2
		c-671.6,84.3-330.6,1138.6-330.6,1138.6s106.9,916.8,233.5,1339.4c125.9,420.3,1331.3,268.2,1624.5,255.7
		c291.5-12.5,544.9,11.6,798.5-449.9C3433.6,2309.3,3077.6,1940.2,3152.1,1261.6z"/>
	<g>
		<g>
			<path class="st1" d="M2829,499.2c-309.7-78.7-483.7,405.6-825.2,460.9c-324.5,52.6-466.9,303.3-405.9,639.8
				c51.9,286.4-81.2,360.8-278.7,465.2c12.1,18.4,24.7,36.6,37.8,54.3c35.3,46.5,71.4,92.3,108,137.8
				c69,85.7,139.4,170.3,207.7,256.5c70.9,89.4,136.4,183.1,204.7,274.4c38.5,50.9,77.6,101.4,118,150.8
				c34.8,42.6,70,83.4,110.4,120.4c234.3-201.2,404.9-470.1,340.4-671.5c-40.3-125.9-146.9-145.3-146.6-258.9
				c0.4-137.1,147.2-233.7,277.6-318C3110.1,1466.8,3368.6,636.4,2829,499.2z"/>
			<g>
				<defs>
					<path id="SVGID_1_" d="M1598,1599.9c-61-336.4,81.4-587.2,405.9-639.8c341.4-55.3,515.5-539.7,825.2-460.9
						c539.6,137.2,281.2,967.5-251.7,1311.7C2044.4,2155.1,1658.9,1936.3,1598,1599.9z"/>
				</defs>
				<clipPath id="SVGID_2_">
					<use xlink:href="#SVGID_1_"  style="overflow:visible;"/>
				</clipPath>
				<g class="st2">
					<path class="st3" d="M3042.1,512.7C2379.4,1024.2,1907,1761.9,1706.5,2557c4.2,5.5,8.4,11,12.5,16.5
						c197.8-796.8,669.8-1536.7,1333.3-2048.9L3042.1,512.7z"/>
					<path class="st3" d="M1945.4,2876.2c3.2,4,6.3,8,9.5,12c275.3-181.5,611.8-279.8,617.1-281.3l-4.6-14.7
						C2562.1,2593.7,2223.5,2692.6,1945.4,2876.2z"/>
					<path class="st3" d="M2001.2,1807.6l-16-2.7c70.8-350.1-265.2-789.7-268.6-794.1l13.2-9.2
						C1733.2,1006,2073.3,1451,2001.2,1807.6z"/>
					<path class="st3" d="M2388.3,1189.2l-11.4-10.9c307.6-286,887-295,892.8-295l0,15.4C3264,898.7,2691.1,907.7,2388.3,1189.2z"/>
				</g>
			</g>
		</g>
	</g>
	<g>
		<g>
			<linearGradient id="SVGID_3_" gradientUnits="userSpaceOnUse" x1="1894.2842" y1="232.3293" x2="1654.4673" y2="2849.4561">
				<stop  offset="0" style="stop-color:#444B8C"/>
				<stop  offset="0.9964" style="stop-color:#26264F"/>
			</linearGradient>
			<path class="st4" d="M1742.1,626.4c-699.7,0-1266.9,567.2-1266.9,1266.9s567.2,1266.9,1266.9,1266.9s1266.9-567.2,1266.9-1266.9
				S2441.8,626.4,1742.1,626.4z M1742.1,2942.9c-579.7,0-1049.7-470-1049.7-1049.7s470-1049.7,1049.7-1049.7
				s1049.7,470,1049.7,1049.7S2321.8,2942.9,1742.1,2942.9z"/>
		</g>
		<g>
			<linearGradient id="SVGID_4_" gradientUnits="userSpaceOnUse" x1="1981.3469" y1="207.1694" x2="1741.53" y2="2824.2961">
				<stop  offset="0" style="stop-color:#FF9085"/>
				<stop  offset="1" style="stop-color:#FB6FBB"/>
			</linearGradient>
			<path class="st5" d="M1829.2,601.2c-699.7,0-1266.9,567.2-1266.9,1266.9s567.2,1266.9,1266.9,1266.9S3096,2567.7,3096,1868.1
				S2528.8,601.2,1829.2,601.2z M1829.2,2917.7c-579.7,0-1049.7-470-1049.7-1049.7s470-1049.7,1049.7-1049.7
				s1049.7,470,1049.7,1049.7S2408.9,2917.7,1829.2,2917.7z"/>
		</g>
	</g>
	<linearGradient id="SVGID_5_" gradientUnits="userSpaceOnUse" x1="1915.334" y1="-1326.5035" x2="1894.3955" y2="4106.8457">
		<stop  offset="0" style="stop-color:#AA80F9"/>
		<stop  offset="0.9964" style="stop-color:#6165D7"/>
	</linearGradient>
	<path class="st6" d="M2671.6,1539c-95,274.4-142.5,411.6-161.8,561.4c-7.8,60.8-23,211-18.5,398.7c1.8,76.8,6.3,131.7,7.4,171.9
		c0,1.2,0.1,2.3,0.1,3.5c0,0.2,0,0.3,0,0.6c0.5,23.2-0.1,41.4-3.6,56.2v0c0,6.1-3.5,11.6-7,16.7v0c0,1.3-0.4,2.5-1,3.7
		c-0.3,0.6-0.6,1.2-1,1.7c0,0,0,0,0,0c-0.3,0.6-0.7,1.2-1.1,1.7c0,0,0.4,0,0.4,0c-1.5,2.3-2.8,4.5-4.5,6.6c-0.6,0.7-1.1,1.4-1.7,2.1
		c-0.5,0.5-0.9,0.9-1.4,1.4c-0.5,0.5-0.9,1.3-1.4,1.3h0c-1,0-2,2-3,3c-1.4,1.3-2.9,2.5-4.5,3.8c-1.6,1.2-3.2,2.4-5,3.5
		c-109.5,71.9-289.2-118-608.9-77.4c-216,27.4-417.1,77-417.1,77c-44.3,10.9-74.3,19.2-97.5,22l-82.2-49.9
		c-20.3-73,27.2-215.7,47.9-391.8c0,0,30.2-256-25.2-523.1c-1.9-9-3.8-17.9-5.8-26.6c-0.8-3.5-1.6-7.1-2.4-10.5
		c-0.2-0.8-0.4-1.6-0.6-2.4c-1-4-2-8-2.9-11.9c-1.8-7.1-3.6-14.1-5.5-21c-0.6-2.3-1.3-4.6-1.9-6.8c0-0.2-0.1-0.4-0.2-0.6
		c-0.8-3.1-1.7-6.2-2.6-9.2c-1.3-4.5-2.6-8.9-3.9-13.3c-1-3.4-2-6.7-3.1-10c-7.4-23.7-15.2-46.1-23.3-67.2c-1.1-2.8-2.2-5.7-3.3-8.4
		c-1.3-3.4-2.7-6.7-4-10c-2.1-5.1-4.1-10.1-6.2-15c-1.5-3.6-3-7.2-4.6-10.8c-8.7-19.9-17.5-38.7-26.3-56.4c-1.4-2.7-2.7-5.4-4-8.1
		c-0.1-0.1-0.1-0.2-0.1-0.2c-2.8-5.5-5.6-10.9-8.3-16.2c-1.1-2.1-2.2-4.1-3.2-6.1c-0.3-0.6-0.6-1.2-0.9-1.7
		c-1.2-2.3-2.5-4.6-3.7-6.9c-0.2-0.2-0.3-0.4-0.4-0.6c-0.2-0.3-0.3-0.6-0.5-0.9c-0.5-0.9-1-1.6-1.5-2.5c-0.7-1.1-1.3-2.3-2-4.1h0
		c-74-136.2-136.7-202.8-82.6-285c92.1-139.9,404.8-143.7,778.1-148.1c287.8-3.4,791.5-9.5,889.4,174.6
		C2768.3,1292.5,2749.5,1314,2671.6,1539z"/>
	
		<linearGradient id="SVGID_6_" gradientUnits="userSpaceOnUse" x1="2442.7454" y1="664.9814" x2="2228.5229" y2="3002.7971" gradientTransform="matrix(0.7803 0.6254 -0.6254 0.7803 1276.2209 -1224.5046)">
		<stop  offset="0" style="stop-color:#444B8C"/>
		<stop  offset="0.9964" style="stop-color:#26264F"/>
	</linearGradient>
	<polygon class="st7" points="1202.3,2720.8 1062.4,2587 2360,967.6 2510.5,1088.2 	"/>
	
		<linearGradient id="SVGID_7_" gradientUnits="userSpaceOnUse" x1="2509.72" y1="494.0553" x2="2269.9014" y2="3111.2031" gradientTransform="matrix(0.7803 0.6254 -0.6254 0.7803 1276.2209 -1224.5046)">
		<stop  offset="0" style="stop-color:#FF9085"/>
		<stop  offset="1" style="stop-color:#FB6FBB"/>
	</linearGradient>
	<polygon class="st8" points="1177.3,2835.5 1026.8,2714.9 2481,900.6 2631.5,1021.2 	"/>
	<linearGradient id="SVGID_8_" gradientUnits="userSpaceOnUse" x1="1632.4707" y1="2646.002" x2="2331.7043" y2="759.695">
		<stop  offset="0" style="stop-color:#AA80F9"/>
		<stop  offset="0.9964" style="stop-color:#6165D7"/>
	</linearGradient>
	<path class="st9" d="M2495.2,2731.2L2495.2,2731.2c0,6.1-3.5,11.7-7,16.7v0c0,1.3-0.4,2.5-1,3.7c-0.3,0.6-0.6,1.2-1,1.7
		c0,0,0,0,0,0c-0.3,0.6-0.7,1.2-1.1,1.7c0,0,0.4,0,0.4,0c-1.5,2.3-2.8,4.5-4.5,6.6c-0.6,0.7-1.1,1.4-1.7,2.1c-0.5,0.5-0.9,1-1.4,1.5
		c-0.5,0.5-0.9,1-1.4,1.5c-1,1-2,1.9-3,2.9c-1.4,1.3-2.9,2.5-4.5,3.7c-1.6,1.2-3.2,2.3-5,3.5c-109.5,71.9-289.2-118-608.9-77.4
		c-216,27.4-417.1,77-417.1,77c-44.3,10.9-74.3,19.2-97.5,22l-82.2-49.9c-20.3-73,27.2-215.7,47.9-391.8c0,0,30.2-256-25.2-523.1
		c-1.9-9-3.8-17.9-5.8-26.6c-0.8-3.5-1.6-7.1-2.4-10.5c-0.2-0.8-0.4-1.6-0.6-2.4c-1-4-2-8-2.9-11.9c-1.8-7.1-3.6-14.1-5.5-21
		c-0.6-2.3-1.3-4.6-1.9-6.8c0-0.2-0.1-0.4-0.2-0.6c-0.8-3.1-1.7-6.2-2.6-9.2c-1.3-4.5-2.6-8.9-3.9-13.3c-1-3.4-2-6.7-3.1-10
		c-7.4-23.7-15.2-46.1-23.3-67.2c-1.1-2.8-2.2-5.7-3.3-8.4c-1.3-3.4-2.7-6.7-4-10c-2.1-5.1-4.1-10.1-6.2-15c-1.5-3.6-3-7.2-4.6-10.8
		c-8.7-19.9-17.5-38.7-26.3-56.4c-1.4-2.7-2.7-5.4-4-8.1c-0.1-0.1-0.1-0.2-0.1-0.2c-2.8-5.5-5.6-10.9-8.3-16.2
		c-1.1-2.1-2.2-4.1-3.2-6.1c-0.3-0.6-0.6-1.2-0.9-1.7c-1.2-2.3-2.5-4.6-3.7-6.9c-0.2-0.2-0.3-0.4-0.4-0.6c-0.2-0.3-0.3-0.6-0.5-0.9
		c-0.5-0.9-1-1.6-1.5-2.5c-0.7-1.1-1.4-2.3-2.1-4.1h0c146.1,38.4,198.5,196.5,302.7,320c206.1,244.5,42.4,405.2,259.9,562.5
		c145.1,104.9,317.2,17.3,541.6,107.8c100.3,40.4,176.6,102.6,235.1,174.5c0,1.2,0.1,2.3,0.1,3.5c0,0.2,0,0.3,0,0.6
		C2499.3,2698.2,2498.7,2716.4,2495.2,2731.2z"/>
	<g>
		<linearGradient id="SVGID_9_" gradientUnits="userSpaceOnUse" x1="1508.4966" y1="1027.9161" x2="2209.395" y2="1027.9161">
			<stop  offset="0" style="stop-color:#FFC444"/>
			<stop  offset="0.9964" style="stop-color:#F36F56"/>
		</linearGradient>
		<path class="st10" d="M2003.7,1064.2c-37.2-7.2-66.6-36-74.4-73.1l-17.7-83.8h-95.4l-23.8,96.2c-9.1,36.7-39.2,64.4-76.5,70.4
			l-207.4,33.3c0,0,375.9,95.3,700.9-3.4L2003.7,1064.2z"/>
		<g>
			
				<linearGradient id="SVGID_10_" gradientUnits="userSpaceOnUse" x1="1936.8353" y1="1043.5382" x2="1966.2638" y2="774.7027" gradientTransform="matrix(0.9936 -0.1133 0.1133 0.9936 -309.5573 89.967)">
				<stop  offset="0" style="stop-color:#FFC444"/>
				<stop  offset="0.9964" style="stop-color:#F36F56"/>
			</linearGradient>
			<path class="st11" d="M1743.8,825.2c0,0-6.4-29.7-28.4-11.2c-21.9,18.5,13,67.6,41.7,65.6L1743.8,825.2z"/>
			<linearGradient id="SVGID_11_" gradientUnits="userSpaceOnUse" x1="1965.6483" y1="928.9848" x2="1995.0775" y2="660.1426">
				<stop  offset="0" style="stop-color:#FFC444"/>
				<stop  offset="0.9964" style="stop-color:#F36F56"/>
			</linearGradient>
			<path class="st12" d="M1967.7,804.5c-3.7,2.5-14.3,72.2-14.3,72.2s18.5,2.2,31.9-22.8C1998.7,828.9,2005.1,779.2,1967.7,804.5z"
				/>
			<linearGradient id="SVGID_12_" gradientUnits="userSpaceOnUse" x1="1840.0446" y1="957.7741" x2="1874.5164" y2="642.8671">
				<stop  offset="0" style="stop-color:#FFC444"/>
				<stop  offset="0.9964" style="stop-color:#F36F56"/>
			</linearGradient>
			<path class="st13" d="M1751.2,727.8c-2.8,4.5-39.9,217.7,88.2,240c128.1,22.3,133.8-135.2,132.1-202.1
				c-1.6-66.8-60.2-91.1-93.8-95.8S1761.4,711.7,1751.2,727.8z"/>
			<linearGradient id="SVGID_13_" gradientUnits="userSpaceOnUse" x1="1654.1644" y1="765.4594" x2="2022.6682" y2="765.4594">
				<stop  offset="0" style="stop-color:#444B8C"/>
				<stop  offset="0.9964" style="stop-color:#3E4177"/>
			</linearGradient>
			<path class="st14" d="M2018,671.4c-13.5-22.4-47.6-11.8-57.5-33.4c-8.4-18.1,11.3-35.2,0.7-50.9c-8.8-13.1-30.4-12.8-34.2-12.7
				c-29.1,0.4-35.8,23.5-56.6,23c-25.4-0.6-26.3-35.3-59.9-49.9c-32.5-14.2-80.1-2.6-99.3,23.9c-14.9,20.6-2.2,35.8-21.8,62.3
				c-13.5,18.2-25.4,19-32.1,36.9c-6.3,16.8-2,32.7,1.3,44.6c8,28.4,22.8,41,45.3,71.2c10.1,13.6,23.8,33.6,38.1,60.1
				c6,15.9,14.5,40.6,22.4,71.7c7.2,28.3,6.8,34.1,13.5,43.2c23.1,31.6,76,28.6,98.2,27.3c25.5-1.5,57.2-3.3,73.2-25.5
				c8.6-12,7.5-22.8,9.5-51.7c1.4-20.6,4.4-49.6,11.1-84.7c0.1,0,3-16.1,10.4-35.9c9.3-24.8,18.9-28.7,29.4-54.3
				C2018.2,716.1,2029,689.6,2018,671.4z M1911.9,915.7c-15.7,3.6-26.4,0.4-47.7-0.7c-42.7-2.1-56.2,15-76.4,7.5
				c-8.4-3.1-23-12.1-27.1-28.9c-2.4-10.9-8.9-25.6-6.1-42.8c3.3-21,7.2-45.3,26.9-56c28.6-15.6,65.2,11.2,91.5-6.1
				c10-6.6,14.1-16.8,15.9-24.5c5.8,1.7,52.2,16.1,69.3,58.4c10.5,26.1,0.4,49.2-4.7,61.8C1943.8,896.8,1933.2,910.7,1911.9,915.7z"
				/>
			<linearGradient id="SVGID_14_" gradientUnits="userSpaceOnUse" x1="1886.0986" y1="700.4484" x2="1862.2369" y2="906.4545">
				<stop  offset="0" style="stop-color:#FFC444"/>
				<stop  offset="0.9964" style="stop-color:#F36F56"/>
			</linearGradient>
			<path class="st15" d="M1824.3,933.7c16.5,5.1,41.3,8.6,69-2c2.9-1.1,5.3,2.1,2.9,3.8c-9.9,7.1-24.4,14.6-40.2,13.4
				c-13-1-25-6-34.2-11.2C1819.2,936.2,1821.3,932.8,1824.3,933.7z"/>
		</g>
	</g>
	<g>
		<g>
			
				<linearGradient id="SVGID_15_" gradientUnits="userSpaceOnUse" x1="-339.0407" y1="1086.5496" x2="-422.0457" y2="3379.0647" gradientTransform="matrix(-1 0 0 1 1706.0197 0)">
				<stop  offset="0" style="stop-color:#311944"/>
				<stop  offset="1" style="stop-color:#6B3976"/>
			</linearGradient>
			<path class="st16" d="M1732,2110.5c-25.3-23.3-73.6-50.3-97.8-112.8c-7.3-18.8-33.1-85.5,5-136.6c22.6-30.3,64.7-50.9,101.7-43.6
				c31.7,6.2,36.6,28.3,90.4,72.6c20.9,17.3,54.6,45,92,60.5c64.2,26.4,102.7,1.6,167.1,4.4c79.1,3.5,171.1,47.7,215.4,111.9
				c78.6,114-35.3,229.6,50.8,363.2c28.2,43.8,42.1,33.9,109,118.6c66.9,84.8,100.4,127.2,94.4,179.2
				c-8.3,72.1-85.9,141-159.1,145.7c-71.5,4.6-116.9-51.6-153.3-27c-25.9,17.5-11.1,51.5-38.6,92.4
				c-35.4,52.7-105.1,63.2-116.4,64.9c-104.4,15.8-245.3-106.7-305.1-251.8C1679.8,2490.5,1869.3,2237.4,1732,2110.5z"/>
			<path class="st17" d="M1954.7,2048c-120.8-46.9-243.3-4-326,25c-76.1,26.6-213.9,68.4-280.7,192c-5.6,10.4,41,29.8,15.3,143.5
				c-38.2,169.3,90.2,288.8,84.9,375.2c-10.4,172.6-2.1,193.3,52.6,251c76.7,80.8-9.8-29.9,231.9,8.9
				c245.4,39.4,324,212.9,391.2,156.1c40.9-34.6,20.1-91,21.2-229.3c2.1-278,88.2-303.9,72.4-486.1
				C2205.1,2341.1,2131.4,2116.6,1954.7,2048z"/>
			
				<linearGradient id="SVGID_16_" gradientUnits="userSpaceOnUse" x1="2540.2871" y1="2997.9626" x2="3226.5552" y2="1412.2651" gradientTransform="matrix(-1 0 0 1 4631.4546 0)">
				<stop  offset="0" style="stop-color:#AA80F9"/>
				<stop  offset="0.9964" style="stop-color:#6165D7"/>
			</linearGradient>
			<path class="st18" d="M1693.1,2910.4c33.5-48.3,267.7,81.2,298.9,35.2c23.6-34.7-149.7-141.2-126.6-246.2
				c18.3-83.4,139.2-68.7,204-182.9c67.1-118.4,26.8-240.9,56.3-246.2c27.9-5,82.6,104.9,91.9,213.9c4.4,51.7-2.1,95.1-7.4,128.7
				c-13.7,87.5-32.3,98.6-47.7,168.4c-14.8,66.8-14.4,154.6-13.6,330.4c0.1,28.5,0.5,66.8-24.8,87.9c-7.4,6.2-34.1,25.2-105.5,4.5
				C1854.3,3156.6,1659.3,2959,1693.1,2910.4z"/>
			<g>
				<g>
					<linearGradient id="SVGID_17_" gradientUnits="userSpaceOnUse" x1="1252.322" y1="2933.1599" x2="1741.8739" y2="2933.1599">
						<stop  offset="0" style="stop-color:#311944"/>
						<stop  offset="1" style="stop-color:#893976"/>
					</linearGradient>
					<path class="st19" d="M1604.5,3155.2c12.4,13.3,52.6,52.8,123.6,67.9c94.8,20.1,170.4-19.2,183-26
						c-49.7-29.5-113.7-77.3-149.2-149.8c-15.8-32.4-10.8-56.9-26.7-134.5c-12.1-59.1-25.6-106.6-35.1-137.7
						c-9-63.5-54.7-115.7-115.6-132.1c-57-15.4-118.4,2.8-158.7,47c-11.3,81.8,2.4,139.3,16.5,176.1c11.1,28.9,12.3,19.6,87.7,153.1
						c16.6,29.4,35.5,63.5,57.1,103.4C1592.8,3133.4,1598.7,3144.3,1604.5,3155.2z"/>
					
						<linearGradient id="SVGID_18_" gradientUnits="userSpaceOnUse" x1="4375.5244" y1="3041.4792" x2="4039.2434" y2="2283.4221" gradientTransform="matrix(-0.9595 0.2818 0.2818 0.9595 4912.7134 -608.3775)">
						<stop  offset="0" style="stop-color:#311944"/>
						<stop  offset="1" style="stop-color:#893976"/>
					</linearGradient>
					<path class="st20" d="M1631.5,3010.2c22.7,42.8,47.4,39.9,85.4,94c33.6,47.9,46.2,93.6,51.6,124.1c14.9,2.2,49.2,5.6,86.6-7.8
						c19.9-7.1,34.2-16.6,43.4-24c-55.2-80.4-112.1-175.1-163.5-283.7c-66.5-140.7-107.5-270.5-133.3-380.8
						c-61.9,13.3-122.8,31-183.6,48c91.9,55.6,188.1,148.7,193.7,236.9C1617.2,2900.4,1595.6,2942.5,1631.5,3010.2z"/>
				</g>
				<linearGradient id="SVGID_19_" gradientUnits="userSpaceOnUse" x1="1530.0083" y1="2866.4844" x2="2110.4219" y2="2866.4844">
					<stop  offset="0" style="stop-color:#311944"/>
					<stop  offset="1" style="stop-color:#893976"/>
				</linearGradient>
				<path class="st21" d="M1848,3242.6c84.4,35.7,215-7.1,254.6-94.3c5.3-11.6,17-40.3-5.3-154.9c0,0-47.3-242.1-183.7-411.8
					c-7.6-9.5-17.5-22.3-33.1-34.5c-50.4-39.4-106.5-53.7-127.1-58.7c-56-13.7-130-17.4-223.4,9.2c89.8,219.7,149.9,397.8,189,522.9
					C1753.1,3129.9,1775.2,3211.9,1848,3242.6z"/>
			</g>
			<g>
				
					<linearGradient id="SVGID_20_" gradientUnits="userSpaceOnUse" x1="-352.7627" y1="3425.5195" x2="-208.9713" y2="3425.5195" gradientTransform="matrix(0.996 8.970000e-002 -8.970000e-002 0.996 2174.9077 -160.4537)">
					<stop  offset="0" style="stop-color:#444B8C"/>
					<stop  offset="0.9964" style="stop-color:#26264F"/>
				</linearGradient>
				<path class="st22" d="M1650.8,3200.4c7.5,6.4,7.9,21.2,8.2,30.9c0.1,4.3,0.2,6.5-0.4,8c-4.5,10.9-27.8,10.8-64.5,12.2
					c-57.9,2.2-75.4,5.4-79.3-2.8c-3.7-7.7,7.3-19.3,8.5-20.6c6.7-6.9,14.4-9.1,29.4-12.7c27.7-6.8,46.4-10.3,52-11.3
					C1640,3197.5,1645.9,3196.3,1650.8,3200.4z"/>
				
					<linearGradient id="SVGID_21_" gradientUnits="userSpaceOnUse" x1="-756.4277" y1="3351.022" x2="-696.5941" y2="3227.1802" gradientTransform="matrix(0.9976 6.940000e-002 -6.940000e-002 0.9976 2590.8335 -60.6691)">
					<stop  offset="0" style="stop-color:#FFC444"/>
					<stop  offset="0.9964" style="stop-color:#F36F56"/>
				</linearGradient>
				<path class="st23" d="M1613.7,3150.1l-2.3,61.2c1.8,2.9,21.8,10.7,36.9,2.4l11.4-60.6L1613.7,3150.1z"/>
				<g>
					
						<linearGradient id="SVGID_22_" gradientUnits="userSpaceOnUse" x1="-513.0161" y1="3610.9539" x2="-378.3889" y2="3610.9539" gradientTransform="matrix(0.977 0.2133 -0.2133 0.977 2663.4021 -210.6557)">
						<stop  offset="0" style="stop-color:#311944"/>
						<stop  offset="1" style="stop-color:#893976"/>
					</linearGradient>
					<path class="st24" d="M1511.4,3181.5c14.3,5.5,22.4,18.3,16.7,31.7c-5.7,13.4-33.5,14.7-49.8,21.2c-17.4,7-43.3,23.7-64.8,25.4
						c-8.7,0.7-26.9,4.8-31.1-5.7c-2.9-7.4,24.2-23,30.7-28c9.3-7,33.2-26.1,41.3-30.4C1474.7,3184.8,1492.6,3174.2,1511.4,3181.5z"
						/>
					
						<linearGradient id="SVGID_23_" gradientUnits="userSpaceOnUse" x1="-700.5484" y1="3477.1641" x2="-639.248" y2="3350.2864" gradientTransform="matrix(0.9894 0.1453 -0.1453 0.9894 2656.8743 -128.6684)">
						<stop  offset="0" style="stop-color:#311944"/>
						<stop  offset="1" style="stop-color:#893976"/>
					</linearGradient>
					<path class="st25" d="M1469.1,3137.9c1.6,19.4,3.2,38.7,4.6,58.1c11.9,5.7,26.4,1.1,36.3-5.7c1.5-19.8,2.9-39.6,4.3-59.4
						C1499.3,3133.2,1484.2,3135.6,1469.1,3137.9z"/>
					<linearGradient id="SVGID_24_" gradientUnits="userSpaceOnUse" x1="1321.1324" y1="2853.51" x2="1596.4938" y2="2853.51">
						<stop  offset="0" style="stop-color:#311944"/>
						<stop  offset="1" style="stop-color:#893976"/>
					</linearGradient>
					<path class="st26" d="M1596,2915.6c0,0.1,0,0.2,0,0.2c-0.4,11.3-1.1,22.3-2.2,33.1c0,0,0,0.1,0,0.2c-0.6,5.4-1.2,10.7-1.9,16
						c-1.1,8.1-2.4,16-3.9,23.8c0,0,0,0.1,0,0.1c-1.5,7.8-3.2,15.6-5,23.3c0,0,0,0.1,0,0.1c-1,4.2-2.1,8.4-3.2,12.5
						c-1.9,7.3-4,14.6-6.3,21.9c-0.8,2.7-1.6,5.3-2.5,7.9c-0.4,1.3-0.8,2.5-1.2,3.7c-0.4,1.3-0.9,2.6-1.3,3.9
						c-1,2.8-1.9,5.6-2.9,8.4c-9.5,26.6-20.9,53.3-34,81.2c-0.1,0-0.2,0-0.3,0c-3.6,0.3-7.2,0.6-10.8,0.9c-0.8,0.1-1.5,0.2-2.3,0.2
						c-1.8,0.2-3.6,0.3-5.4,0.5c-5.9,0.5-11.7,1.1-17.5,1.7c-8.2,0.8-16.4,1.6-24.4,2.4c-3.9,0.4-7.8,0.8-11.7,1.2
						c-67.3-146.5-101.6-273.3-120.3-365.8c-30.7-151.3-17.4-197.8,10.6-222c33.2-28.8,90.8-29.4,129.9-8.3c1.7,1,3.4,1.9,5,2.9
						c6.6,4.2,12.4,9.2,17.6,15.2c17.8,20.1,30.7,51.5,50.2,100.8l0.5,0v0.1c14,40.5,39.1,102.2,43.5,188.1
						C1596.8,2885.7,1596.5,2900.9,1596,2915.6z"/>
					<linearGradient id="SVGID_25_" gradientUnits="userSpaceOnUse" x1="1607.3308" y1="3003.0049" x2="1336.075" y2="2391.5295">
						<stop  offset="0" style="stop-color:#311944"/>
						<stop  offset="1" style="stop-color:#893976"/>
					</linearGradient>
					<path class="st27" d="M1596,2915.6c0,0.1,0,0.2,0,0.2c-0.3,11.3-1.1,22.3-2.2,33.1c0,0,0,0.1,0,0.2c-0.5,5.4-1.2,10.7-1.9,16
						c-1.1,8.1-2.4,16-3.9,23.8c0,0,0,0.1,0,0.1c-1.5,7.8-3.2,15.6-5,23.3c0,0,0,0.1,0,0.1c-1,4.2-2.1,8.4-3.2,12.5
						c-1.9,7.3-4,14.6-6.3,21.9c-0.8,2.7-1.6,5.3-2.5,7.9c-0.4,1.3-0.8,2.5-1.2,3.7c-0.4,1.3-0.9,2.6-1.3,3.9
						c-1,2.8-1.9,5.6-2.9,8.4c-9.5,26.6-20,53.3-33.9,81.2v2.2h-0.4c-3.7,0-7.3-0.6-10.8-0.2c-0.8,0.1-1.5-0.4-2.3-0.4
						c-1.7,0.1-3.4-0.2-5.1-0.6c25.7-52.9,36.8-135.9,25.3-185.4c-18.9-80.5-62.5-122.8-67-198.7c-4.1-70.6,23.8-135.8,13-203.2
						c6.6,4.2,12.4,9.2,17.6,15.2c-0.9-31.6-1.1-62.3-0.8-92.2c13.8,1.4,27.6,2.4,40.5,2.9c-2.9,63.7,0.6,120.3,11,190.2v0.1
						c10.5,73.8,40.1,122.2,43.5,188.1C1596.9,2885.7,1596.5,2900.9,1596,2915.6z"/>
				</g>
				<linearGradient id="SVGID_26_" gradientUnits="userSpaceOnUse" x1="1500.8883" y1="2817.3223" x2="1799.4307" y2="2817.3223">
					<stop  offset="0" style="stop-color:#311944"/>
					<stop  offset="1" style="stop-color:#893976"/>
				</linearGradient>
				<path class="st28" d="M1752.5,2665.8c-3.2,21.4-5.6,45.1-7.3,75c-5.6,99.4,3.6,155.8-16.5,252.5
					c-16.6,79.6-43.9,142.4-64.8,183.6c-2.9-0.2-5.7-0.4-8.6-0.6c-9.2-0.6-18.4-1.2-27.7-1.8c-0.4,0-7.2-0.5-14.8-1
					c-9.8-0.6-20.9-1.3-21.4-1.4c-9.1-32.4-17.8-66.3-26-101.4c-24.3-103.6-44.3-218.8-55.3-344.4c-4.4-50.2-7-98.7-8.3-145.4
					c-0.9-31.6-1.1-62.3-0.8-92.2c13.8,1.4,27.1,2.4,40,2.9c68.2,2.9,123.2-5.6,165.6-16.5c45.1-11.6,71.8-24.8,86.2-12.4
					C1816.3,2482.9,1770.9,2541,1752.5,2665.8z"/>
			</g>
			
				<linearGradient id="SVGID_27_" gradientUnits="userSpaceOnUse" x1="6614.7856" y1="1760.0698" x2="6628.8086" y2="1386.5498" gradientTransform="matrix(-0.9962 8.670000e-002 8.670000e-002 0.9962 8223.3252 -81.7878)">
				<stop  offset="0" style="stop-color:#FFC444"/>
				<stop  offset="0.9964" style="stop-color:#F36F56"/>
			</linearGradient>
			<path class="st29" d="M1771.5,1956.1c-12,24-19.5,46.8-0.1,64.7c11.9,10.9,29.7,16.1,47.3,21c41.5,11.5,59,4.2,68.1,12.4
				c19.9,18-18.4,95.7-96.7,108.1c-78,12.4-158.2-45.6-150.1-73.3c7.3-25,86-23.4,95.6-55c4.8-15.9-10.4-32.1-23.2-42.8l-9.2,1.3
				L1771.5,1956.1z"/>
			
				<linearGradient id="SVGID_28_" gradientUnits="userSpaceOnUse" x1="-3429.4883" y1="2188.9106" x2="-3418.4055" y2="1893.7032" gradientTransform="matrix(1 0 0 1 5221.1294 0)">
				<stop  offset="0" style="stop-color:#FFC444"/>
				<stop  offset="0.9964" style="stop-color:#F36F56"/>
			</linearGradient>
			<path class="st30" d="M1886.8,2054.2c-9-8.2-26.5-0.9-68.1-12.4c-17.6-4.9-35.4-10.1-47.3-21c-19.5-17.9-11.7-36.9,0.4-60.9
				l-68.7,32.6l9.2-1.3c10.2,8.5,21.7,20.4,23.7,32.9c5.8,2.4,10.9,5.1,14.6,7.8c-8,17.3-9.5,31.8-9.6,41.1
				c-0.1,14.5-0.1,25.3,9.6,34.7c10.6,10.3,26.7,13,40.8,15.3c31.2,5.2,59.1,0.5,77.1-4.2C1890.8,2093.3,1898,2064.4,1886.8,2054.2z
				"/>
			
				<linearGradient id="SVGID_29_" gradientUnits="userSpaceOnUse" x1="623.4174" y1="2070.2847" x2="618.8518" y2="2438.1304" gradientTransform="matrix(0.9117 -0.4108 0.4108 0.9117 298.9542 310.7294)">
				<stop  offset="0" style="stop-color:#FFC444"/>
				<stop  offset="0.9964" style="stop-color:#F36F56"/>
			</linearGradient>
			<path class="st31" d="M1765.3,1945.6c1,5.7,1.4,10.5-0.5,11.5c-3.7,2-9.9-13-22.1-20.4c-27.7-16.8-59.3,22.4-82.1,8.8
				c-0.2-0.1-0.3-0.2-0.4-0.3c12.1,34.3,55.4,103.5,90.4,87.5c35.5-16.2,22.9-53.7,22.9-53.7c5.7-10.1,12-23.1,3.8-35.7
				C1772.3,1935.7,1767.2,1942.5,1765.3,1945.6z"/>
			<linearGradient id="SVGID_30_" gradientUnits="userSpaceOnUse" x1="1748.4783" y1="2549.4983" x2="1595.2445" y2="2195.4348">
				<stop  offset="0" style="stop-color:#AA80F9"/>
				<stop  offset="0.9964" style="stop-color:#6165D7"/>
			</linearGradient>
			<path class="st32" d="M1514,2331.1c0,0,23.1,88.9,104.8,79.6c81.7-9.3,196.5-113.9,265.5-101.5c69.1,12.4,4.6,248.2-71.6,259.6
				C1736.7,2580.2,1321,2614.7,1514,2331.1z"/>
			<path class="st17" d="M2144.2,2577c-136.9,215.5-590.8,182.6-675.1,131.8c-30.4-18.3-46.4-46.4-47.3-73.1
				c-1.7-47.5,44-90.7,140.4-66.3c150.6,38,318.9-173.9,329.8-299.2c6.7-76.6,77.1-126.4,150-117c5.7,0.7,11.4,1.8,17,3.3
				c36.1,9.3,65.3,33,87.8,62.4c15.6,20.4,28,43.6,37.1,66.6C2223.6,2385.3,2201.1,2487.6,2144.2,2577z"/>
			<linearGradient id="SVGID_31_" gradientUnits="userSpaceOnUse" x1="1421.7588" y1="2482.6455" x2="2203.9207" y2="2482.6455">
				<stop  offset="0" style="stop-color:#AA80F9"/>
				<stop  offset="0.9964" style="stop-color:#6165D7"/>
			</linearGradient>
			<path class="st33" d="M2144.2,2577c-136.9,215.5-590.8,182.6-675.1,131.8c-30.4-18.3-46.4-46.4-47.3-73.1
				c23.4-5.6,61.4,1.7,92.6,16.7c67.4,32.3,305.4-4.4,372.2-100.3c66.8-95.8,179.1-114.6,234.9-141.4
				c55.8-26.9,25.4-191.8,25.4-191.8c15.6,20.4,28,43.6,37.1,66.6C2223.6,2385.3,2201.1,2487.6,2144.2,2577z"/>
			<linearGradient id="SVGID_32_" gradientUnits="userSpaceOnUse" x1="1316.6132" y1="2493.6951" x2="1329.8042" y2="2640.9434">
				<stop  offset="0" style="stop-color:#FFC444"/>
				<stop  offset="0.9964" style="stop-color:#F36F56"/>
			</linearGradient>
			<path class="st34" d="M1366.8,2637.6c0,0-72.3,0.5-82.7-44.1c-10.5-44.7-26.6-120.8,15.2-89.4S1395.3,2608.6,1366.8,2637.6z"/>
			<linearGradient id="SVGID_33_" gradientUnits="userSpaceOnUse" x1="1869.2106" y1="2354.092" x2="2011.5096" y2="2354.092">
				<stop  offset="0" style="stop-color:#FFC444"/>
				<stop  offset="0.9964" style="stop-color:#F36F56"/>
			</linearGradient>
			<path class="st35" d="M1882.1,2368.1c0,0,7-23.8,50.6-46.6c43.5-22.8,76.8-47.5,78.7,0c1.9,47.5-35.2,84.2-64.7,89.2
				C1917.3,2415.7,1838.4,2421.4,1882.1,2368.1z"/>
			<g>
				<path class="st17" d="M1578.2,2179.6c-10.8-9.4-26.5-20-46.9-24.8c-106.7-25.2-282.4,125.3-270.9,277.3
					c4,53.4,19.6,95.1,29.4,115c40.4,81.8,113.8,132,172.6,153c198.8,71.3,465-113.9,470.3-255.8c0.2-5.5,1.5-59.4-30.5-80
					c-34.4-22.1-80.7,11.3-177.7,46.1c-93.2,33.4-172.6,61.8-204,35C1470.7,2403.1,1551.8,2232.8,1578.2,2179.6z"/>
			</g>
		</g>
		<g>
			<linearGradient id="SVGID_34_" gradientUnits="userSpaceOnUse" x1="1707.498" y1="2009.7007" x2="1758.2166" y2="2009.7007">
				<stop  offset="0" style="stop-color:#444B8C"/>
				<stop  offset="0.9964" style="stop-color:#3E4177"/>
			</linearGradient>
			<polygon class="st36" points="1756,2020.1 1707.5,2010.5 1709.7,1999.3 1758.2,2009 			"/>
			<linearGradient id="SVGID_35_" gradientUnits="userSpaceOnUse" x1="1723.1639" y1="2009.7007" x2="1742.5507" y2="2009.7007">
				<stop  offset="0" style="stop-color:#444B8C"/>
				<stop  offset="0.9964" style="stop-color:#3E4177"/>
			</linearGradient>
			<polygon class="st37" points="1734.4,2031.3 1723.2,2029.1 1731.4,1988.1 1742.6,1990.3 			"/>
		</g>
	</g>
	<g>
		<linearGradient id="SVGID_36_" gradientUnits="userSpaceOnUse" x1="1598.3689" y1="1935.3943" x2="2817.0813" y2="2625.5095">
			<stop  offset="0" style="stop-color:#FFC444"/>
			<stop  offset="0.9964" style="stop-color:#F36F56"/>
		</linearGradient>
		<path class="st38" d="M2310.2,2402.1c-16.9,21.2-34.5,30.7-33.1,45.6c0,0,0,0.1,0,0.1c0.6,5.8,6.4,9.6,12,7.9
			c0.4-0.1,0.8-0.2,1.2-0.4c17.9-6,25.6-20.2,42.2-40.3c5.3-6.4,13.6-16,25-27.1c3.5,11.2-11.9,23.2-16.8,32.2
			c-3.9,7.3-14.5,25.1-11.7,34.1c4,13.3,14.3,1.4,18.9-4.8c9.4-12.5,18.5-25.6,27.6-38.3c11.7-16.2,21.2-25.9,35.6-39.6
			c6.4-6.1,12.2-12.8,18-19.6c7.9-9.2,12-21.1,11.3-33.2c0-0.1,0-0.2,0-0.3c-1.7-29.4-21.7-60.8-52.8-64.1c-1,0-2,0.1-2.9,0.1
			c-22,0.5-42.7-2.4-64-8.3c-13.8-3.8-32.8-15.9-45.9-6c0.3,17.5,20.3,31.5,35,37.6c4.8,2,9.3,2.5,13.8,5c4.4,2.5,6.4,3.6,6.7,5
			c0.6,2.6-1.8,5.3-2.7,6.4c-13.4,14.6-43,23.2-43,23.2c-19.2,5.6-38,12.8-57.1,18.9c-7.5,2.4-19,6-19.3,11.9
			c-0.2,3.7,4.3,6.8,5.4,7.5c11.6,7.9,27.1,0.1,50.1-5.2c16.4-3.7,45.8-8.3,48-3c4,10-90.7,49.2-84.9,70.4c1.1,4.1,5.6,6.3,8,7.3
			c14.5-6.5,30.1-14.1,46.3-23.3c17.8-10,33.7-20.2,47.7-30.1C2322.3,2385.6,2315.5,2395.5,2310.2,2402.1z"/>
		<linearGradient id="SVGID_37_" gradientUnits="userSpaceOnUse" x1="1651.7177" y1="1841.1823" x2="2870.4292" y2="2531.2971">
			<stop  offset="0" style="stop-color:#FFC444"/>
			<stop  offset="0.9964" style="stop-color:#F36F56"/>
		</linearGradient>
		<polygon class="st39" points="2405.4,2265 2515,2273.8 2524.9,2359 2422.5,2333.8 		"/>
	</g>
	<linearGradient id="SVGID_38_" gradientUnits="userSpaceOnUse" x1="2795.021" y1="-1324.7668" x2="2774.0686" y2="4112.1626">
		<stop  offset="0" style="stop-color:#AA80F9"/>
		<stop  offset="0.9964" style="stop-color:#6165D7"/>
	</linearGradient>
	<path class="st40" d="M2473.3,2258.5c-4.3,52.2,6.7,87.5,24.9,111.6c80.9,106.6,355.5,58.9,518.4-87.2
		c120.5-108,184.2-274.1,181.8-422.2c-4.6-289-256.1-639.4-640.2-734.2c-57,177.3-133.7,386.7-190.7,564.2
		c237.3,1.3,395,222.6,373.6,355.3C2725.3,2144.9,2614.5,2235,2473.3,2258.5z"/>
	<g>
		<linearGradient id="SVGID_39_" gradientUnits="userSpaceOnUse" x1="1486.3833" y1="2427.8411" x2="1779.6604" y2="3271.0132">
			<stop  offset="0" style="stop-color:#FFC444"/>
			<stop  offset="0.9964" style="stop-color:#F36F56"/>
		</linearGradient>
		<path class="st41" d="M1448.4,2447.3c3.7,26.9,14.2,44,5.4,56.1c0,0-0.1,0.1-0.1,0.1c-3.4,4.7-10.4,5-14.3,0.7
			c-0.3-0.3-0.5-0.6-0.8-0.9c-12.4-14.2-11.8-30.4-15.9-56.1c-1.3-8.2-3.6-20.7-7.7-36c-8.7,7.9-1.5,26-1.9,36.3
			c-0.3,8.3-0.3,29-7.2,35.4c-10.2,9.4-13-6-13.9-13.8c-1.7-15.6-2.9-31.4-4.4-47.1c-1.8-19.9-5.1-33.1-10.6-52.2
			c-2.4-8.5-4-17.2-5.6-26c-2.1-11.9,0.4-24.2,7.1-34.3c0.1-0.1,0.1-0.2,0.2-0.2c16.3-24.5,49.6-41.3,78-28.4
			c0.8,0.5,1.6,1.1,2.5,1.6c18.7,11.6,38.1,19.6,59.4,25.3c13.8,3.7,36.3,2.9,42.6,18.2c-9.2,14.9-33.4,16.8-49.2,14.6
			c-5.2-0.7-9.3-2.6-14.4-2.7c-5.1-0.1-7.3-0.1-8.3,0.9c-1.9,2-1.2,5.5-0.9,6.9c4.2,19.4,25.3,41.9,25.3,41.9
			c13.7,14.6,26.3,30.3,39.6,45.3c5.3,5.9,13.3,14.9,10.7,20c-1.7,3.3-7.2,3.7-8.5,3.8c-14,0.9-23.4-13.7-40.5-29.9
			c-12.2-11.5-35.3-30.4-39.8-26.9c-8.5,6.6,53.1,88.4,37.4,103.7c-3,2.9-8,2.6-10.6,2.2c-9.2-12.9-18.7-27.4-28.1-43.5
			c-10.2-17.6-18.8-34.5-25.8-50.2C1446.4,2426.9,1447.3,2438.9,1448.4,2447.3z"/>
		<linearGradient id="SVGID_40_" gradientUnits="userSpaceOnUse" x1="1417.0988" y1="2451.9404" x2="1710.3765" y2="3295.114">
			<stop  offset="0" style="stop-color:#FFC444"/>
			<stop  offset="0.9964" style="stop-color:#F36F56"/>
		</linearGradient>
		<polygon class="st42" points="1425.6,2277 1311.6,2276.4 1311.6,2347.8 1379.8,2355.5 		"/>
	</g>
	<linearGradient id="SVGID_41_" gradientUnits="userSpaceOnUse" x1="1058.5219" y1="-1331.4469" x2="1037.5695" y2="4105.4741">
		<stop  offset="0" style="stop-color:#AA80F9"/>
		<stop  offset="0.9964" style="stop-color:#6165D7"/>
	</linearGradient>
	<path class="st43" d="M1356.3,2258.2c4.3,52.2-6.7,87.5-24.9,111.6c-80.9,106.6-355.5,58.9-518.4-87.2
		c-120.5-108-184.2-274.1-181.8-422.2c4.6-289,256.9-653.3,641-748.1c57,177.3,132.9,400.7,189.9,578.1
		c-237.3,1.3-395,222.6-373.6,355.3C1104.3,2144.5,1215.1,2234.7,1356.3,2258.2z"/>
</g>
</svg>
