<?xml version="1.0" encoding="utf-8"?>
<!-- Generator: Adobe Illustrator 19.0.0, SVG Export Plug-In . SVG Version: 6.00 Build 0)  -->
<svg version="1.1" id="Illustration" xmlns="http://www.w3.org/2000/svg" xmlns:xlink="http://www.w3.org/1999/xlink" x="0px"
	 y="0px" viewBox="0 0 3710 3710" style="enable-background:new 0 0 3710 3710;" xml:space="preserve">
<style type="text/css">
	.st0{fill:#F4F7FA;}
	.st1{opacity:0.8;clip-path:url(#SVGID_2_);}
	.st2{fill:#FFFFFF;}
	.st3{opacity:0.8;clip-path:url(#SVGID_4_);}
	.st4{fill:url(#SVGID_5_);}
	.st5{fill:url(#SVGID_6_);}
	.st6{fill:url(#SVGID_7_);}
	.st7{fill:url(#SVGID_8_);}
	.st8{fill:url(#SVGID_9_);}
	.st9{fill:url(#SVGID_10_);}
	.st10{fill:url(#SVGID_11_);}
	.st11{opacity:0.3;fill:url(#SVGID_12_);}
	.st12{fill:url(#SVGID_13_);}
	.st13{fill:url(#SVGID_14_);}
	.st14{opacity:0.3;fill:url(#SVGID_15_);}
	.st15{fill:url(#SVGID_16_);}
	.st16{fill:url(#SVGID_17_);}
	.st17{fill:url(#SVGID_18_);}
	.st18{fill:url(#SVGID_19_);}
	.st19{fill:url(#SVGID_20_);}
	.st20{fill:url(#SVGID_21_);}
	.st21{fill:url(#SVGID_22_);}
	.st22{opacity:0.3;fill:url(#SVGID_23_);}
	.st23{fill:url(#SVGID_24_);}
	.st24{fill:#D8DEE8;}
	.st25{fill:url(#SVGID_25_);}
	.st26{opacity:0.3;fill:#D8DEE8;}
	.st27{fill:url(#SVGID_26_);}
	.st28{fill:url(#SVGID_27_);}
	.st29{fill:url(#SVGID_28_);}
	.st30{opacity:0.5;fill:#FFFFFF;}
	.st31{opacity:0.8;fill:#D8DEE8;}
	.st32{fill:url(#SVGID_29_);}
	.st33{fill:url(#SVGID_30_);}
	.st34{fill:url(#SVGID_31_);}
	.st35{fill:url(#SVGID_32_);}
	.st36{fill:url(#SVGID_33_);}
	.st37{fill:url(#SVGID_34_);}
	.st38{fill:url(#SVGID_35_);}
	.st39{fill:url(#SVGID_36_);}
	.st40{opacity:0.3;fill:url(#SVGID_37_);}
	.st41{fill:url(#SVGID_38_);}
	.st42{fill:url(#SVGID_39_);}
	.st43{fill:url(#SVGID_40_);}
	.st44{fill:url(#SVGID_41_);}
	.st45{opacity:0.3;}
	.st46{fill:url(#SVGID_42_);}
	.st47{fill:url(#SVGID_43_);}
	.st48{fill:url(#SVGID_44_);}
	.st49{fill:url(#SVGID_45_);}
	.st50{fill:url(#SVGID_46_);}
	.st51{fill:url(#SVGID_47_);}
	.st52{fill:url(#SVGID_48_);}
	.st53{fill:url(#SVGID_49_);}
	.st54{fill:url(#SVGID_50_);}
	.st55{fill:url(#SVGID_51_);}
	.st56{fill:url(#SVGID_52_);}
	.st57{fill:url(#SVGID_53_);}
	.st58{fill:url(#SVGID_54_);}
	.st59{fill:url(#SVGID_55_);}
	.st60{opacity:0.3;fill:url(#SVGID_56_);}
	.st61{fill:url(#SVGID_57_);}
	.st62{opacity:0.3;fill:url(#SVGID_58_);}
	.st63{fill:url(#SVGID_59_);}
	.st64{fill:url(#SVGID_60_);}
	.st65{fill:url(#SVGID_61_);}
	.st66{fill:url(#SVGID_62_);}
	.st67{fill:url(#SVGID_63_);}
	.st68{fill:url(#SVGID_64_);}
	.st69{fill:url(#SVGID_65_);}
	.st70{fill:url(#SVGID_66_);}
	.st71{fill:#26264F;}
	.st72{fill:url(#SVGID_67_);}
	.st73{opacity:0.3;fill:url(#SVGID_68_);}
	.st74{fill:url(#SVGID_69_);}
	.st75{opacity:0.3;fill:url(#SVGID_70_);}
</style>
<g>
	<path class="st0" d="M3221.1,2407.6c-81.2,312.3-309.9,601.5-863.9,751.1c-200.2,54.1-433.2,80.7-640.8,64.2
		c-305.7-24.2-626-162.2-880.6-318.6c-176.2-108.3-246.3-254.4-271.1-419.5c-15.4-102.1-13.4-211.5-8.5-323.7
		c7.4-168.8-19.5-338.8-59.2-503.1c-61.2-252.9-10.8-518.2,140.1-735.8c150.9-217.6,389.3-368.9,661.3-419.8
		c458.1-85.7,922.9-29.1,922.9-29.1c612.2,63.6,922,671.3,997.6,1166C3253.4,1865.4,3289.5,2144.6,3221.1,2407.6z"/>
	<g>
		<g>
			<g>
				<defs>
					<path id="SVGID_1_" d="M2692.4,1735c-10.1,0.9-19.8,1.9-28.7,2.8c-27.4,2.7-87.6,19.3-108.4-8
						c-34.2-45.1,52.7-121.6,74.6-155.9c27.1-42.5,60.6-89.8,66-141.4c8.3-78.5-45.5-184.7-111.9-225.7
						c-91.5-56.5-219.4-18.1-301.7,37.4c-119.1,80.4-202.9,213.1-236.8,351.6c-36.6,149.3,13.9,303.9-0.6,455.3
						c-22.8,237.9-360-65.2-294.1,560.4c14.5,138.1,38.3,289.2,115.9,407.6c32.2,49.1,96.5,117.3,160.6,113.4
						c90.9-5.6,86.9-134.2,115.1-193.6c33-69.4,90.5-124.2,154.4-165.3c81.3-52.2,175.6-98.8,207.9-197.3c21-64-10.6-129.8-51-179.6
						c-22.3-27.4-69.7-58.8-62.6-99.2c5.9-33.5,53-58.1,77.5-75.8c75.5-54.3,148.9-112.9,216.1-177.3
						c60.3-57.8,162.2-145.6,154-239.6C2832.2,1729.2,2754,1729.6,2692.4,1735z"/>
				</defs>
				<use xlink:href="#SVGID_1_"  style="overflow:visible;fill:#D8DEE8;"/>
				<clipPath id="SVGID_2_">
					<use xlink:href="#SVGID_1_"  style="overflow:visible;"/>
				</clipPath>
				<g class="st1">
					<g>
						<path class="st2" d="M2207.9,3296c-0.9,0-1.9-0.3-2.7-0.9C2050,3184.3,1977,3015.1,1982,2777.7
							c4.3-206.9,65-431.4,123.6-648.4c46.2-171,89.8-332.4,97.7-462.1c6.4-103.9,36-198.2,88.2-280.2
							c41.7-65.6,97.8-123.4,166.7-172c117.2-82.6,232.7-110,233.8-110.3c2.5-0.6,5,1,5.5,3.5c0.6,2.5-1,5-3.4,5.5
							c-1.1,0.3-115.1,27.4-230.8,109c-106.6,75.2-236.6,213.4-250.7,445c-8,130.6-51.7,292.5-98,464
							c-115.4,427.2-246.2,911.4,96.1,1155.9c2.1,1.5,2.6,4.4,1.1,6.4C2210.8,3295.3,2209.3,3296,2207.9,3296z"/>
					</g>
					<g>
						<path class="st2" d="M2211.6,1632.1c-0.5,0-0.9-0.1-1.4-0.2c-1.2-0.4-30.8-10.2-63.1-48.7c-29.5-35-67-101.7-78.2-220.5
							c-0.2-2.5,1.6-4.8,4.2-5c2.5-0.3,4.8,1.6,5,4.2c11,115.9,47.1,180.8,75.6,214.8c30.7,36.7,59.1,46.3,59.4,46.4
							c2.4,0.8,3.7,3.4,3,5.8C2215.3,1630.9,2213.5,1632.1,2211.6,1632.1z"/>
					</g>
					<g>
						<path class="st2" d="M2165.4,1922.1c-2.3,0-4.3-1.8-4.6-4.1c-0.3-2.5,1.6-4.8,4.1-5.1c0.8-0.1,79.9-8.6,183.7-54.4
							c95.6-42.2,232.4-125.7,340.6-283.5c1.4-2.1,4.3-2.6,6.4-1.2c2.1,1.4,2.6,4.3,1.2,6.4c-109.5,159.8-248,244.2-344.8,286.9
							c-105,46.3-185.3,54.9-186.1,55C2165.7,1922.1,2165.6,1922.1,2165.4,1922.1z"/>
					</g>
					<g>
						<path class="st2" d="M1998.9,2629.6c-0.5,0-1-0.1-1.5-0.3c-3.2-1.1-79.4-28.6-142.4-105.6c-37-45.3-61.5-98.2-72.8-157.4
							c-14.1-73.8-7.6-157.4,19.3-248.6c0.7-2.4,3.3-3.8,5.7-3.1c2.4,0.7,3.8,3.3,3.1,5.7c-59.7,202.8-4.9,327.9,51.5,397.2
							c61.3,75.2,137.8,102.9,138.6,103.1c2.4,0.9,3.7,3.5,2.8,5.9C2002.6,2628.4,2000.8,2629.6,1998.9,2629.6z"/>
					</g>
					<g>
						<path class="st2" d="M2025.7,2473.8c-2.3,0-4.3-1.7-4.6-4c-0.3-2.5,1.4-4.8,4-5.2c3.7-0.5,369.9-50.2,459.7-188.8
							c1.4-2.1,4.2-2.7,6.4-1.4c2.1,1.4,2.8,4.2,1.4,6.4c-38.8,59.9-129.1,110.5-268.6,150.6c-103.4,29.7-196.7,42.2-197.7,42.3
							C2026.1,2473.8,2025.9,2473.8,2025.7,2473.8z"/>
					</g>
				</g>
			</g>
		</g>
		<g>
			<g>
				<defs>
					<path id="SVGID_3_" d="M3196.6,1954.3c-31.8-114.6-132.5-201.5-247.7-231.4c-70.2-18.3-155.8-24.4-227.3-12
						c-100.6,17.5-183.7,83.2-248.5,159.3c-76.1,89.4-83.2,200.2-110.4,310.3c-5.3,21.6-40.5,140.4-67.1,70.8
						c-37.1-97.1-120-80-120-80c-64.8,13.4-114.6,61-138.6,120.9c-64,160-44.2,367.7-30.7,535.4c6.4,78.9,16.2,157.3,27.9,235.5
						c2.9,19.3,16.8,35.2,35.6,40.6c18.8,5.4,39-0.7,51.7-15.5c13.2-15.4,27.1-29.6,39.9-42.1c123.3-120,316.4-137.7,479.2-144.9
						c95.1-4.2,173.5-10.2,256.3-61.3c34.4-21.2,71.9-47.3,87.8-86.1c14.4-35.1,17.2-95.2-4.5-127.8c-27.1-40.6-87.2-38.1-123.1-68
						c-57.9-48.4,93.5-82,124-91.8c48.6-15.6,80.8-54.4,117.2-88c27.8-25.7,54-53.6,74.1-85.8
						C3234.1,2194,3226.5,2062.2,3196.6,1954.3z"/>
				</defs>
				<use xlink:href="#SVGID_3_"  style="overflow:visible;fill:#BFC8D6;"/>
				<clipPath id="SVGID_4_">
					<use xlink:href="#SVGID_3_"  style="overflow:visible;"/>
				</clipPath>
				<g class="st3">
					<g>
						<path class="st2" d="M2015,3144.7c-0.7,0-1.3-0.1-2-0.4c-2.3-1.1-3.3-3.8-2.2-6.1c1.5-3.2,154.2-325.8,364.9-656.4
							c123.8-194.3,243.2-353.3,354.7-472.7c139.9-149.7,268.1-237.2,381-260.2c2.5-0.5,4.9,1.1,5.4,3.6c0.5,2.5-1.1,4.9-3.6,5.4
							c-111,22.6-237.5,109.2-376.1,257.5c-111.2,119-230.2,277.5-353.7,471.4c-210.4,330.1-362.8,652.2-364.3,655.4
							C2018.4,3143.7,2016.8,3144.7,2015,3144.7z"/>
					</g>
					<g>
						<path class="st2" d="M2563.7,2221.5c-0.2,0-0.5,0-0.7-0.1c-2.5-0.4-4.2-2.8-3.8-5.3c0.7-4.4,68.7-435.9,1.2-508.7
							c-1.7-1.9-1.6-4.8,0.2-6.5c1.9-1.7,4.8-1.6,6.5,0.2c70.5,76.1,4,498.5,1.2,516.4C2567.9,2219.9,2566,2221.5,2563.7,2221.5z"/>
					</g>
					<g>
						<path class="st2" d="M3370.4,1998.1c-0.8,0-1.7-0.2-2.4-0.7c-181-113.1-557.5-54-561.2-53.4c-2.5,0.4-4.9-1.3-5.3-3.8
							c-0.4-2.5,1.3-4.9,3.8-5.3c1-0.2,96.7-15.4,213.7-16.3c108.3-0.8,257.6,10.8,353.9,71c2.2,1.4,2.8,4.2,1.5,6.4
							C3373.5,1997.3,3372,1998.1,3370.4,1998.1z"/>
					</g>
					<g>
						<path class="st2" d="M2166.9,2850.1c-0.3,0-0.7,0-1-0.1c-2.5-0.6-4-3.1-3.5-5.5c49.4-213.4-135.8-524.6-137.7-527.8
							c-1.3-2.2-0.6-5,1.6-6.3c2.2-1.3,5-0.6,6.3,1.6c0.5,0.8,47.8,79.9,88.4,184.7c37.5,96.9,76.7,236.3,50.4,349.9
							C2170.9,2848.6,2169,2850.1,2166.9,2850.1z"/>
					</g>
					<g>
						<path class="st2" d="M2320,2584.5c-1.9,0-3.7-1.2-4.4-3.2c-0.8-2.4,0.5-5,2.9-5.8c1.7-0.5,167.8-55,369-94.5
							c186-36.5,441-67.2,599.4-6.5c2.4,0.9,3.6,3.6,2.7,6c-0.9,2.4-3.6,3.6-6,2.7c-156.3-60-409.4-29.3-594.3,6.9
							c-200.7,39.4-366.2,93.7-367.9,94.2C2321,2584.4,2320.5,2584.5,2320,2584.5z"/>
					</g>
				</g>
			</g>
		</g>
	</g>
	<g>
		
			<linearGradient id="SVGID_5_" gradientUnits="userSpaceOnUse" x1="1041.2968" y1="959.5383" x2="1084.6045" y2="1091.7216" gradientTransform="matrix(1 0 0 1 1019.0129 0)">
			<stop  offset="0" style="stop-color:#FFC444"/>
			<stop  offset="0.9964" style="stop-color:#F36F56"/>
		</linearGradient>
		<path class="st4" d="M2087.6,1048.2l-9.8-18.4c0,0-9-1.9-13.1-8.3c-4.1-6.4-4.1-6.4-4.1-6.4s-2-6.8,5.4-14.1
			c1.7-1.7,2.5-4,2.2-6.3c-1-7-3.1-21.3-3.5-25c-0.3-2.4,0.7-5.3,1.8-7.6c0.7-1.6,3-1.4,3.4,0.3l7.8,28.8c0,0,6.3-1.6,8.4,3.7
			c0,0,5.4,3.2,6.2,8.9c0.8,5.6,0,19.3,0,19.3l8.6,19.4L2087.6,1048.2z"/>
		
			<linearGradient id="SVGID_6_" gradientUnits="userSpaceOnUse" x1="7400.1104" y1="967.9429" x2="7443.418" y2="1100.1262" gradientTransform="matrix(-1 0 0 1 8851.0957 0)">
			<stop  offset="0" style="stop-color:#FFC444"/>
			<stop  offset="0.9964" style="stop-color:#F36F56"/>
		</linearGradient>
		<path class="st5" d="M1423.7,1056.6l9.8-18.4c0,0,9-1.9,13.1-8.3c4.1-6.4,4.1-6.4,4.1-6.4s2-6.8-5.4-14.1c-1.7-1.7-2.5-4-2.2-6.3
			c1-7,3.1-21.3,3.5-25c0.3-2.4-0.7-5.3-1.8-7.6c-0.7-1.6-3-1.4-3.4,0.3l-7.8,28.8c0,0-6.3-1.6-8.4,3.7c0,0-5.4,3.2-6.2,8.9
			c-0.8,5.6,0,19.3,0,19.3l-8.6,19.4L1423.7,1056.6z"/>
		
			<linearGradient id="SVGID_7_" gradientUnits="userSpaceOnUse" x1="1889.7085" y1="2405.8945" x2="1958.5469" y2="2405.8945" gradientTransform="matrix(-0.996 8.970000e-002 8.970000e-002 0.996 3475.5598 -160.4537)">
			<stop  offset="0" style="stop-color:#444B8C"/>
			<stop  offset="0.9964" style="stop-color:#26264F"/>
		</linearGradient>
		<path class="st6" d="M1744.9,2395.1c-3.6,3.3-3.8,11-3.9,16c-0.1,2.2-0.1,3.4,0.2,4.1c2.2,5.6,13.3,5.6,30.9,6.3
			c27.7,1.1,36.1,2.8,38-1.4c1.8-4-3.5-10-4.1-10.6c-3.2-3.6-6.9-4.7-14.1-6.6c-13.3-3.5-22.2-5.3-24.9-5.8
			C1750,2393.6,1747.2,2393,1744.9,2395.1z"/>
		
			<linearGradient id="SVGID_8_" gradientUnits="userSpaceOnUse" x1="1457.9487" y1="2373.3044" x2="1488.1506" y2="2310.7937" gradientTransform="matrix(-0.9976 6.940000e-002 6.940000e-002 0.9976 3059.6338 -60.6691)">
			<stop  offset="0" style="stop-color:#FFC444"/>
			<stop  offset="0.9964" style="stop-color:#F36F56"/>
		</linearGradient>
		<path class="st7" d="M1764.3,2367.5l1.1,31.6c-0.9,1.5-10.5,5.5-17.7,1.2l-5.4-31.3L1764.3,2367.5z"/>
		
			<linearGradient id="SVGID_9_" gradientUnits="userSpaceOnUse" x1="1472.3832" y1="2351.1316" x2="1548.5803" y2="2351.1316" gradientTransform="matrix(-0.977 0.2133 0.2133 0.977 2987.0654 -210.6557)">
			<stop  offset="0" style="stop-color:#444B8C"/>
			<stop  offset="0.9964" style="stop-color:#26264F"/>
		</linearGradient>
		<path class="st8" d="M1979.3,2398c-5,4.7-6.5,13.8-2.7,18.6c3.8,4.6,10,1.6,27.1,3c18.3,1.5,22.8,5.9,35.5,3.2
			c5.1-1.1,14.2-3.9,14.2-7.3c0-2.4-4.4-3.9-19.3-9.5c-21.1-8-20.9-8.4-25.5-9.3C1997.2,2394.2,1985.8,2391.7,1979.3,2398z"/>
		
			<linearGradient id="SVGID_10_" gradientUnits="userSpaceOnUse" x1="1348.4421" y1="2367.9187" x2="1379.8062" y2="2303.0022" gradientTransform="matrix(-0.9894 0.1453 0.1453 0.9894 2993.5933 -128.6684)">
			<stop  offset="0" style="stop-color:#FFC444"/>
			<stop  offset="0.9964" style="stop-color:#F36F56"/>
		</linearGradient>
		<path class="st9" d="M1992.6,2369.9l7.6,29.8c-0.8,1.5-10.4,6.3-18.2,2.6l-12.1-29.2L1992.6,2369.9z"/>
		
			<linearGradient id="SVGID_11_" gradientUnits="userSpaceOnUse" x1="1366.8848" y1="2230.9026" x2="1170.9042" y2="1789.1155" gradientTransform="matrix(0.9986 5.330000e-002 -5.330000e-002 0.9986 781.433 -19.3005)">
			<stop  offset="0" style="stop-color:#311944"/>
			<stop  offset="1" style="stop-color:#893976"/>
		</linearGradient>
		<path class="st10" d="M1946.7,1722.9c-4.2,98.7-3.3,210,6.8,331.3c10,119.9,27.3,228.7,47.5,324.7c-11.9,2.4-23.8,4.9-35.7,7.3
			c-28.3-28.2-63.5-72-78.3-132.2c-9.2-37.3-4.4-56-9-101.6c-7.3-72.6-28.2-111.5-48.8-170.8c-18.5-53.3-39.4-131.1-47.3-234.2
			C1836.9,1739.2,1891.8,1731.1,1946.7,1722.9z"/>
		
			<linearGradient id="SVGID_12_" gradientUnits="userSpaceOnUse" x1="1335.3185" y1="2244.5576" x2="1139.4441" y2="1803.0101" gradientTransform="matrix(0.9986 5.330000e-002 -5.330000e-002 0.9986 781.433 -19.3005)">
			<stop  offset="0" style="stop-color:#311944"/>
			<stop  offset="1" style="stop-color:#893976"/>
		</linearGradient>
		<path class="st11" d="M1930.3,2184.2c-13.1-49.8-38.3-63-39.2-110c-0.6-33.2,11.8-36,11-67.8c-1.3-48.3-30.7-73.6-45.5-103.9
			c-15.6-32.1-21.6-83.6,20.5-169.2c-31.7,4.7-63.4,9.4-95.1,14.1c7.8,103.1,28.8,180.9,47.3,234.2c20.5,59.3,41.4,98.2,48.8,170.8
			c4.6,45.6-0.2,64.3,9,101.6c14.8,60.2,50,104,78.3,132.2c3-0.6,6.1-1.2,9.1-1.9c-30.6-35-41.3-66.3-44.1-91.7
			C1925.8,2251.4,1943.5,2234.4,1930.3,2184.2z"/>
		
			<linearGradient id="SVGID_13_" gradientUnits="userSpaceOnUse" x1="905.3734" y1="2273.0859" x2="710.3011" y2="1833.3467" gradientTransform="matrix(0.9976 -6.940000e-002 6.940000e-002 0.9976 858.1197 92.9864)">
			<stop  offset="0" style="stop-color:#311944"/>
			<stop  offset="1" style="stop-color:#893976"/>
		</linearGradient>
		<path class="st12" d="M1833.2,1709.5c-13.6,125.1-26.1,252.6-37.3,382.4c-8.4,97.4-15.9,193.6-22.6,288.6
			c-11.6,0.8-23.1,1.6-34.7,2.4c-10-21.3-23.1-53.7-31-94.8c-9.7-49.9-5.2-79-7.9-130.3c-3-57.6-11.1-70.5-22.8-143.5
			c-23.7-148.2-35.6-222.3,2-266C1691.1,1734.2,1728.9,1699,1833.2,1709.5z"/>
		
			<linearGradient id="SVGID_14_" gradientUnits="userSpaceOnUse" x1="539.6274" y1="1704.5535" x2="975.8159" y2="696.6924" gradientTransform="matrix(1 0 0 1 1019.0129 0)">
			<stop  offset="0" style="stop-color:#AA80F9"/>
			<stop  offset="0.9964" style="stop-color:#6165D7"/>
		</linearGradient>
		<path class="st13" d="M2107.3,1031.4c-10.8,4.6-21.7,9.2-32.5,13.7c5.4,12.4,35.3,84.9,0.8,152.2c-30,58.5-99.7,95.3-178.1,92.5
			c-14.4-2.3-29.4-4.4-45-5.9c-7.5-1.7-15-3.7-22.5-6.2c-0.1,0.8-0.1,2.3-0.2,4.2c-7.1-0.5-14.3-0.9-21.6-1.2
			c-45.7-1.9-88.1,0.6-126.6,5.6c0,0,0-0.1,0-0.2c-0.3,0.1-0.7,0.2-1,0.3c-24,3.1-46.4,7.2-67.1,11.8
			c-78.2,2.6-147.6-34.1-177.5-92.5c-34.5-67.3-4.6-139.7,0.8-152.2c-10.8-4.6-21.7-9.2-32.5-13.7
			c-14.7,16.2-105.4,119.1-81.9,246.3c27.1,146.6,191.2,263.7,281.6,225.2c0.2,0.7,0.5,1.5,0.7,2.2c14.1,48.1,23.6,93.9,24.4,148.3
			c0.3,17.7,0.1,67.2,3,140.1c1.9,47.2,3.9,74.3,19.6,81.3c1.7,0.7,3.3,1.2,4.9,1.4c1.4,0.1,2.8,0.1,4.3-0.1
			c13.2-2.1,28-19,60.1-29.9c29.1-9.9,58.5-7.2,116-1.5c85.8,8.5,91.8,20.6,108.7,10.6c9.9-5.9,15.1-14.5,18.6-30.1
			c5.6-25.1,6.8-68.2,15.8-147.5c9-78.9,12.8-79.7,16.8-135.6c1.2-17.6,2-34.3,2.5-50c82.1-29,170.9-118.4,190.2-222.8
			C2212.7,1150.5,2122,1047.6,2107.3,1031.4z"/>
		
			<linearGradient id="SVGID_15_" gradientUnits="userSpaceOnUse" x1="700.4571" y1="1826.6342" x2="971.4465" y2="1200.4835" gradientTransform="matrix(1 0 0 1 1019.0129 0)">
			<stop  offset="0" style="stop-color:#AA80F9"/>
			<stop  offset="0.9964" style="stop-color:#6165D7"/>
		</linearGradient>
		<path class="st14" d="M1965,1833.5c-3.5,17.2-8.7,26.1-19.6,32.1c-16.8,9.2-22.9-1.9-108.7-9.6c-57.5-5.2-86.9-7.6-116,1.4
			c-32.2,9.9-47,25.3-60.1,27.1c-1.4,0.2-2.8,0.2-4.3,0.1c-1.6-0.2-3.2-0.6-4.9-1.4c-15.7-7-17.7-34.1-19.6-81.3
			c-2.9-72.9-2.7-122.4-3-140.1c-0.8-54.4-10.3-100.1-24.4-148.3c21.5-7,33.7-4.8,41-0.2c23.3,14.7-2.2,53.7,24.1,95.9
			c27.8,44.5,79.5,38.7,87.4,71.3c9.9,40.9-64.3,82.4-54.2,96c9.7,13,71.8-33.9,128-13.7c39.4,14.1,39.2,48.1,81.4,64.4
			c17.2,6.7,35,8,51.9,6.4C1964.3,1833.6,1964.6,1833.5,1965,1833.5z"/>
		<g>
			
				<linearGradient id="SVGID_16_" gradientUnits="userSpaceOnUse" x1="1197.9517" y1="1123.739" x2="1205.6298" y2="919.2198" gradientTransform="matrix(0.8944 0.4471 -0.4471 0.8944 1190.0399 -182.9961)">
				<stop  offset="0" style="stop-color:#FFC444"/>
				<stop  offset="0.9964" style="stop-color:#F36F56"/>
			</linearGradient>
			<path class="st15" d="M1800.3,1200.1c-0.9,20.4-4.1,36.5-6.8,47.5c-3.2,12.6-5.1,15.8-7.5,18.3c-3.6,3.8-9,6.9-38.7,12.6
				c-16.1,3.1-18.2,2.9-18.6,4.4c-2.1,7.6,39.9,36.2,85.2,32.3c27.7-2.4,53.5-16.8,52.4-25.1c-1.1-8.4-28.8-5.4-36.2-20.8
				c-5.1-10.7,2-25.2,10.2-37C1833.8,1218.3,1806.9,1214.2,1800.3,1200.1z"/>
			<g>
				
					<linearGradient id="SVGID_17_" gradientUnits="userSpaceOnUse" x1="985.8618" y1="1100.4132" x2="933.8044" y2="968.1969" gradientTransform="matrix(-0.9988 -4.960000e-002 -4.960000e-002 0.9988 2808.5969 252.4768)">
					<stop  offset="0" style="stop-color:#311944"/>
					<stop  offset="1" style="stop-color:#6B3976"/>
				</linearGradient>
				<path class="st16" d="M1850.9,1210.9c6.9-8.3,8.1-23.3,1.2-33.2c-6-8.5-16-10.2-22.1-11.3c-17.4-3-40,3.2-48.6,18.9
					c-5.1,9.3,3.7,29.8,5.1,33.4c1.5,4.1,4.6,5.7,7.4,8.9c3.8,4.5,9.9,11.5,19.7,23.4c1-3.3,2.4-7.3,4.6-11.7
					c0.8-1.7,4.2-8.2,9.1-13.6C1837,1215.2,1844.3,1218.8,1850.9,1210.9z"/>
				
					<linearGradient id="SVGID_18_" gradientUnits="userSpaceOnUse" x1="507.8939" y1="987.5908" x2="505.4998" y2="1180.4795" gradientTransform="matrix(0.9999 -1.160000e-002 1.160000e-002 0.9999 1300.3658 228.061)">
					<stop  offset="0" style="stop-color:#FFC444"/>
					<stop  offset="0.9964" style="stop-color:#F36F56"/>
				</linearGradient>
				<path class="st17" d="M1799.3,1240.8c0,0,10.5,19.5,33.6,19.3c20.6-0.2,26.1-46.2,13.5-56.7c-4.2-3.5-12.9-5.3-20.2-3.7
					c-4.3,1-5.8,2.6-12.8,4.1c-6.5,1.3-8.2,0.5-10.3,2c-2.5,1.9-4.6,6.8-1.2,20.5c-3.7-4.2-8.3-6-11.8-4.6c-0.5,0.2-2,1.1-2.9,2.5
					C1784.1,1229.4,1788.5,1236.3,1799.3,1240.8z"/>
				
					<linearGradient id="SVGID_19_" gradientUnits="userSpaceOnUse" x1="969.96" y1="1106.7452" x2="917.8487" y2="974.392" gradientTransform="matrix(-0.9988 -4.960000e-002 -4.960000e-002 0.9988 2808.5969 252.4768)">
					<stop  offset="0" style="stop-color:#311944"/>
					<stop  offset="1" style="stop-color:#6B3976"/>
				</linearGradient>
				<path class="st18" d="M1802.3,1203c1,0.8-2.3,4.3-2.8,9.6c-1,10.1,8.7,22.9,19.1,24.5c6.2,0.9,8.1-2.7,18.4-3.2
					c6.4-0.3,11.6,0.8,14.9,1.7c2.6,11.3-1,22.3-8.7,27c-8.3,5.1-18.4,1.2-22.6-0.4c-2.8-1.1-11.8-4.6-16.2-13.3
					c-4.5-9,0.7-14.1-4.8-20.3c-2.7-3.2-6.5-4.7-9.9-10.6c-0.9-1.6-1.5-3.1-1.9-4C1793.5,1208.5,1800.9,1201.8,1802.3,1203z"/>
				
					<linearGradient id="SVGID_20_" gradientUnits="userSpaceOnUse" x1="818.2012" y1="1231.0509" x2="821.9866" y2="1264.7971" gradientTransform="matrix(1 0 0 1 1019.0129 0)">
					<stop  offset="0" style="stop-color:#FFC444"/>
					<stop  offset="1" style="stop-color:#F36F56"/>
				</linearGradient>
				<ellipse class="st19" cx="1838.5" cy="1242.9" rx="3.3" ry="4.2"/>
			</g>
		</g>
		<g>
			<g>
				
					<linearGradient id="SVGID_21_" gradientUnits="userSpaceOnUse" x1="781.7712" y1="450.4952" x2="640.7516" y2="1081.6597" gradientTransform="matrix(1 0 0 1 1019.0129 0)">
					<stop  offset="0" style="stop-color:#FFC444"/>
					<stop  offset="0.9964" style="stop-color:#F36F56"/>
				</linearGradient>
				<path class="st20" d="M2251.3,660.1c-29.2,117.8-58.4,236-87.9,354.8c-0.2,0.7,0.2-0.7,0,0c-116.8-35-242.1-50.9-371.6-51.3
					c-91.6-0.2-185.4,8.4-280.4,26.3c-37,7-73.6,17.4-110.9,27.2c-2.5,0.7-5.7-0.7-8.2,0c-40.4-135.3-81.5-272.9-123.3-412.7
					c138.9-29.1,275.6-43.1,408.1-42.8c177.2,0.4,346.9,26.1,504.3,75C2205,643.9,2228.3,651.7,2251.3,660.1z"/>
				
					<linearGradient id="SVGID_22_" gradientUnits="userSpaceOnUse" x1="679.202" y1="436.1982" x2="1005.7612" y2="1432.915" gradientTransform="matrix(1 0 0 1 1019.0129 0)">
					<stop  offset="0" style="stop-color:#FFC444"/>
					<stop  offset="0.9964" style="stop-color:#F36F56"/>
				</linearGradient>
				<path class="st21" d="M2259.5,660.1c-29.4,118.5-58.8,237.5-88.4,357.1c-2.5-0.8-5.1-1.5-7.7-2.3
					c-117.1-34.2-242-51.7-371.6-51.3c-91.7,0.3-185.6,9.4-280.7,28c-36.7,7.1-73.6,15.6-110.6,25.6c-0.2-0.7-0.4-1.4-0.6-2
					c-40.2-134.6-81.1-271.5-122.7-410.7c136-28.5,269.9-42.5,399.9-42.8c178.1-0.4,348.6,24.8,506.9,73.3
					C2209.5,642.7,2234.7,651.1,2259.5,660.1z"/>
			</g>
			<g>
				<path class="st2" d="M2120.2,737.4c-4.8,19-23,29.3-40.8,23.6c-177-56.4-372.8-67.9-572.1-29.3c-21.3,4.1-43.4-9.4-49.3-31l0,0
					c-6-21.6,7.9-43.3,30.9-47.4c211.8-38.4,419.2-23.8,606,38C2113.7,697.5,2125,718.5,2120.2,737.4L2120.2,737.4z"/>
				<path class="st2" d="M2120.2,885.6c-4.8,19.1-23,29.8-40.8,24.6c-177-52.1-372.8-58.9-572.1-15.6c-21.3,4.6-43.4-8.3-49.3-29.8
					l0,0c-6-21.5,7.9-43.4,30.9-48.2c211.8-43.5,419.2-33.9,606,23.4C2113.7,845.8,2125,866.5,2120.2,885.6L2120.2,885.6z"/>
			</g>
			
				<linearGradient id="SVGID_23_" gradientUnits="userSpaceOnUse" x1="492.209" y1="826.0276" x2="1240.4998" y2="826.0276" gradientTransform="matrix(1 0 0 1 1019.0129 0)">
				<stop  offset="0" style="stop-color:#FFC444"/>
				<stop  offset="0.9964" style="stop-color:#F36F56"/>
			</linearGradient>
			<path class="st22" d="M2259.5,660.1c-29.4,118.5-58.8,237.5-88.4,357.1c-2.5-0.8-5.1-1.5-7.7-2.3c-0.2,0.7,0.2-0.7,0,0
				c-116.8-35-242.1-50.9-371.6-51.3c-91.7,0.3-185.6,9.4-280.7,28c0.1-0.5,0.2-1.1,0.2-1.6c1.1-6.3,2.3-13.1,3.5-20.5
				c13.3-78.5,157.1-12.9,245.2-126.9c88.1-114,228.2-48.3,284.7-41.1s73.8-86.8,122.2-150.9c4.4-5.9,9.3-10.5,14.4-14
				c0.9-0.6,1.8-1.2,2.6-1.7C2209.5,642.7,2234.7,651.1,2259.5,660.1z"/>
		</g>
	</g>
	<g>
		
			<linearGradient id="SVGID_24_" gradientUnits="userSpaceOnUse" x1="3127.4446" y1="2578.8777" x2="2821.449" y2="3609.6021" gradientTransform="matrix(1 0 0 1 -1675.0461 0)">
			<stop  offset="0" style="stop-color:#FFC444"/>
			<stop  offset="0.9964" style="stop-color:#F36F56"/>
		</linearGradient>
		<path class="st23" d="M1726,3186.7l-683.8-19.1c-78-3.6-140.1-101.2-140.1-217.8v-1.3c0-116.5,62.1-212.6,140.1-214.2l731.6-24.7
			L1726,3186.7z"/>
		<g>
			<path class="st24" d="M2936.1,3129.4l-1135.5,44.8c-106.2,4.2-193.4-73.4-193.4-173.4v-67.8c0-100,87.2-182.1,193.4-183.3
				l1135.5-13.2V3129.4z"/>
			
				<linearGradient id="SVGID_25_" gradientUnits="userSpaceOnUse" x1="3251.8733" y1="2957.9216" x2="4635.8828" y2="2957.9216" gradientTransform="matrix(1 0 0 1 -1675.0461 0)">
				<stop  offset="0" style="stop-color:#FFC444"/>
				<stop  offset="0.9964" style="stop-color:#F36F56"/>
			</linearGradient>
			<path class="st25" d="M2947.1,3149.9L1746,3199.1c-92.8,3.8-169.2-99.4-169.2-230v-1.4c0-130.7,76.4-237.7,169.2-238.7
				l1201.1-12.3c7.6-0.1,13.8,9.2,13.8,20.8s-6.2,21-13.8,21.1L1746,2774.4c-74.7,1-136.1,87.3-136.1,192.4v1.4
				c0,105.1,61.3,188.3,136.1,185.4l1201.1-45.6c7.6-0.3,13.8,8.8,13.8,20.4S2954.7,3149.6,2947.1,3149.9z"/>
		</g>
		<g>
			<path class="st26" d="M1685,2717.5l-650.9,14.7c-59.8,1.3-107.5-46-107.5-105.8v-40.5c0-59.8,47.7-111.2,107.5-114.9l650.9-40.6
				V2717.5z"/>
			
				<linearGradient id="SVGID_26_" gradientUnits="userSpaceOnUse" x1="2550.1086" y1="2575.252" x2="2883.9041" y2="2578.8999" gradientTransform="matrix(1 0 0 1 -1675.0461 0)">
				<stop  offset="0" style="stop-color:#AA80F9"/>
				<stop  offset="0.9964" style="stop-color:#6165D7"/>
			</linearGradient>
			<path class="st27" d="M1593.4,2730.5l-551.1,15.4c-78,1.6-140.1-60.3-140.1-137.9v-0.9c0-77.6,62.1-144.8,140.1-149.8l551.1-43.1
				c9.7-0.6,121.8,6.6,121.8,15.1s-104.7,14.9-114.3,15.5l-558.6,40.4c-63,3.8-113.4,57.9-113.4,120.8v0.9
				c0,62.8,50.4,112.7,113.4,111.1l551.1-18.1c9.6-0.3,121.8,8.4,121.8,16.9C1715.2,2725.3,1603.1,2730.3,1593.4,2730.5z"/>
		</g>
		<g>
			<polygon class="st24" points="2936.1,2702.8 1607.1,2715.1 1607.1,2428.7 2936.1,2441.1 			"/>
			
				<linearGradient id="SVGID_27_" gradientUnits="userSpaceOnUse" x1="3251.8733" y1="2435.1238" x2="4635.8828" y2="2435.1238" gradientTransform="matrix(1 0 0 1 -1675.0461 0)">
				<stop  offset="0" style="stop-color:#AA80F9"/>
				<stop  offset="0.9964" style="stop-color:#6165D7"/>
			</linearGradient>
			<path class="st28" d="M2947.1,2456l-1353.7-11.2c-9.1-0.1-16.6-7-16.6-15.4c0-8.5,7.4-15.2,16.6-15.1l1353.7,13.8
				c7.6,0.1,13.8,6.4,13.8,14.1C2960.8,2449.9,2954.7,2456.1,2947.1,2456z"/>
			
				<linearGradient id="SVGID_28_" gradientUnits="userSpaceOnUse" x1="3251.8733" y1="2709.6282" x2="4635.8828" y2="2709.6282" gradientTransform="matrix(1 0 0 1 -1675.0461 0)">
				<stop  offset="0" style="stop-color:#AA80F9"/>
				<stop  offset="0.9964" style="stop-color:#6165D7"/>
			</linearGradient>
			<path class="st29" d="M2947.1,2716.7l-1353.7,13.8c-9.1,0.1-16.6-6.7-16.6-15.1c0-8.5,7.4-15.4,16.6-15.4l1353.7-11.2
				c7.6-0.1,13.8,6.1,13.8,13.8C2960.8,2710.3,2954.7,2716.6,2947.1,2716.7z"/>
		</g>
		<path class="st30" d="M1542.8,3133.7l-145.3-8.3c-35.1-100.1-32.5-196.7,0-314.1l145.3,0.4
			C1513.6,2931.6,1518.1,3037.7,1542.8,3133.7z"/>
		<path class="st31" d="M1241.5,2743.7l-4.6-181.3L1070,2746c0,0-90.2,48.6-74.7,133.9l103.1-41l91.6,31.7
			C1190.1,2870.7,1192.4,2781.1,1241.5,2743.7z"/>
		
			<linearGradient id="SVGID_29_" gradientUnits="userSpaceOnUse" x1="2830.1272" y1="2778.8486" x2="2740.7512" y2="2646.5259" gradientTransform="matrix(1 0 0 1 -1675.0461 0)">
			<stop  offset="0" style="stop-color:#AA80F9"/>
			<stop  offset="0.9964" style="stop-color:#6165D7"/>
		</linearGradient>
		<path class="st32" d="M1051.3,2573.7l185.6-11.3c0,0-87.3,66.3-46.8,308.3c0,0-79.3-25.2-113.9-68.4l-80.9,77.6
			C995.4,2879.9,946,2664.8,1051.3,2573.7z"/>
	</g>
	<g>
		
			<linearGradient id="SVGID_30_" gradientUnits="userSpaceOnUse" x1="6245.5854" y1="1905.1952" x2="6224.585" y2="1808.9976" gradientTransform="matrix(1 0 0 1 -5506.4854 0)">
			<stop  offset="0" style="stop-color:#311944"/>
			<stop  offset="1" style="stop-color:#893976"/>
		</linearGradient>
		<path class="st33" d="M682.2,1808.2c0,0,8.8-9.8,9.7-24.7c0.9-15-1.2-44.9,20.8-39.1c22,5.8,33.6,1.5,28.1,18.6
			c0,0,6.7,17.5-14.1,25.8s-23.5,30.1-23.5,30.1L682.2,1808.2z"/>
		
			<linearGradient id="SVGID_31_" gradientUnits="userSpaceOnUse" x1="-5439.4858" y1="2630.7842" x2="-5700.0444" y2="1969.0135" gradientTransform="matrix(-1 8.500000e-003 8.500000e-003 1 -4917.2744 10.923)">
			<stop  offset="0" style="stop-color:#444B8C"/>
			<stop  offset="0.9964" style="stop-color:#26264F"/>
		</linearGradient>
		<path class="st34" d="M444.6,2106.5c2.6-56.4,38.5-92.6,47.4-101.3c53.5-52.3,129-50.2,153.2-49.6c85.8,2.3,105.1,44.9,165,29
			c50.7-13.4,54.6-48.6,98.2-51c45.6-2.5,93.4,33.1,112.5,73.7c36.9,78.1-20.7,199.8-102.9,236.5c-85.4,38.2-131.6-44.8-288.1-20.3
			c-57.1,8.9-90.5,26.2-127.5,5.3C461.8,2205.8,442.5,2151.5,444.6,2106.5z"/>
		
			<linearGradient id="SVGID_32_" gradientUnits="userSpaceOnUse" x1="6459.0972" y1="3256.7937" x2="6515.4917" y2="3256.7937" gradientTransform="matrix(1 -8.500000e-003 8.500000e-003 1 -5454.4668 15.6603)">
			<stop  offset="0" style="stop-color:#444B8C"/>
			<stop  offset="0.9964" style="stop-color:#26264F"/>
		</linearGradient>
		<path class="st35" d="M1036.7,3197.9c0,0-4.5,4.3-4.5,11.9c0,2.2,1.1,4.4,2.9,5.8c4,3.1,12.9,9.3,26.7,14.9
			c19.6,8,26.1,7.2,26.9,3.9c0.8-3.3-9.3-12-18-19.7C1062.2,3207,1036.7,3197.9,1036.7,3197.9z"/>
		
			<linearGradient id="SVGID_33_" gradientUnits="userSpaceOnUse" x1="6479.6343" y1="3282.6011" x2="6465.1494" y2="3190.0017" gradientTransform="matrix(1 -8.500000e-003 8.500000e-003 1 -5454.4668 15.6603)">
			<stop  offset="0" style="stop-color:#311944"/>
			<stop  offset="1" style="stop-color:#893976"/>
		</linearGradient>
		<path class="st36" d="M1030.3,3167.6c0,0,6.4,29.5,6,40.3c0,0,7.9,6.8,18.9-0.2c0,0-5.9-26.9-3.2-38.1L1030.3,3167.6z"/>
		
			<linearGradient id="SVGID_34_" gradientUnits="userSpaceOnUse" x1="6239.2197" y1="3270.0603" x2="6291.7471" y2="3270.0603" gradientTransform="matrix(1 -8.500000e-003 8.500000e-003 1 -5454.4668 15.6603)">
			<stop  offset="0" style="stop-color:#444B8C"/>
			<stop  offset="0.9964" style="stop-color:#26264F"/>
		</linearGradient>
		<path class="st37" d="M818.6,3209.9c0,0-5.1,3.6-6.1,11.1c-0.3,2.2,0.4,4.5,2.1,6.2c3.6,3.6,11.5,11,24.4,18.4
			c18.3,10.6,24.9,10.7,26.1,7.6c1.2-3.1-7.5-13.2-15.1-22C842.6,3222.4,818.6,3209.9,818.6,3209.9z"/>
		
			<linearGradient id="SVGID_35_" gradientUnits="userSpaceOnUse" x1="6249.3774" y1="3284.4429" x2="6247.8252" y2="3199.0859" gradientTransform="matrix(1 -8.500000e-003 8.500000e-003 1 -5454.4668 15.6603)">
			<stop  offset="0" style="stop-color:#311944"/>
			<stop  offset="1" style="stop-color:#893976"/>
		</linearGradient>
		<path class="st38" d="M809.2,3182.7c0,0,6.4,29.5,6,40.3c0,0,7.9,6.8,18.9-0.2c0,0-5.9-26.9-3.2-38.1L809.2,3182.7z"/>
		
			<linearGradient id="SVGID_36_" gradientUnits="userSpaceOnUse" x1="6369.6606" y1="3326.0303" x2="6437.9463" y2="2776.6428" gradientTransform="matrix(1 -8.500000e-003 8.500000e-003 1 -5454.4668 15.6603)">
			<stop  offset="0" style="stop-color:#40447E"/>
			<stop  offset="0.9964" style="stop-color:#3C3B6B"/>
		</linearGradient>
		<path class="st39" d="M1101.8,2550c2.6,88.6,2.2,183.8-2.8,284.6c-6.2,125.9-18.6,242.6-34.3,349c-5.9,1.7-14.1,3.3-23.8,3.3
			c-6.8,0-12.8-0.9-17.6-1.9c-2.8-12.5-7.2-31.6-12.9-54.7c-10.3-42-12.8-47.5-16-61.9c-13.5-59.8,3.4-76.9-5.3-138.6
			c-1.9-13.5-2.7-12.3-21.4-77.4c-23.3-81.2-35.1-121.7-40.6-152.8c-14.9-83.4-22.4-125.1,0.8-151.1
			C958.2,2514.5,1029.3,2519.1,1101.8,2550z"/>
		
			<linearGradient id="SVGID_37_" gradientUnits="userSpaceOnUse" x1="6369.0581" y1="3325.9551" x2="6437.3438" y2="2776.5679" gradientTransform="matrix(1 -8.500000e-003 8.500000e-003 1 -5454.4668 15.6603)">
			<stop  offset="0" style="stop-color:#40447E"/>
			<stop  offset="0.9964" style="stop-color:#3C3B6B"/>
		</linearGradient>
		<path class="st40" d="M1044.7,3133.1c-9.9-27.4,7-41.6,6.5-89c-0.4-40.9-13.2-45.9-17.3-91.9c-3.8-42.2,5.4-54.3,7.5-93.2
			c3.9-73.4-25.2-97.7-31.3-153.9c-4.2-38.7,2.3-95,53.3-168.9c-58.1-17.3-110.5-15.5-135.3,12.3c-23.2,25.9-15.7,67.7-0.8,151.1
			c5.6,31.1,17.3,71.6,40.6,152.8c18.7,65.1,19.4,63.9,21.4,77.4c8.7,61.7-8.1,78.8,5.3,138.6c3.2,14.4,5.7,20,16,61.9
			c5.7,23.2,10.1,42.2,12.9,54.7c4.8,1,10.8,1.9,17.6,1.9c9.7,0,17.9-1.6,23.8-3.3c1-6.5,1.9-13,2.8-19.6
			C1057.8,3155.9,1049.3,3145.8,1044.7,3133.1z"/>
		
			<linearGradient id="SVGID_38_" gradientUnits="userSpaceOnUse" x1="6139.5571" y1="2783.3113" x2="6395.6201" y2="2946.2605" gradientTransform="matrix(1 -8.500000e-003 8.500000e-003 1 -5454.4668 15.6603)">
			<stop  offset="0" style="stop-color:#40447E"/>
			<stop  offset="0.9964" style="stop-color:#3C3B6B"/>
		</linearGradient>
		<path class="st41" d="M1006.6,2544.6c-34.8,96.9-68.6,204.6-98.4,322.3c-29,114.5-50.3,222.3-65.8,321.7
			c-4.6,2.2-13.4,5.5-24.8,5.4c-9.7-0.1-17.3-2.8-21.8-4.7c-11.7-29-24-66.7-31.5-111.9c-4.8-29-10-60.6-6.5-101.2
			c4.7-54,19.5-62.7,25.9-116.1c4.8-39.9-1.9-47.8-4-105.5c-3.3-89.6-4.9-135.7,17.2-167.8C844.4,2517.9,983.5,2540.6,1006.6,2544.6
			z"/>
		
			<linearGradient id="SVGID_39_" gradientUnits="userSpaceOnUse" x1="6657.5645" y1="1949.0114" x2="5410.2544" y2="3517.8479" gradientTransform="matrix(1 0 0 1 -5506.4854 0)">
			<stop  offset="0" style="stop-color:#FF9085"/>
			<stop  offset="1" style="stop-color:#FB6FBB"/>
		</linearGradient>
		<path class="st42" d="M1125.5,2558.5c-10.5-59-1.9-56.1-11.7-124.3c-12.8-89.2-28.8-104-36.5-166.7c-4.5-37-16.8-126.9,0.2-197.9
			c-36.4-8.5-75.3-11.2-163.2,2.6c-11.1,1.7-21.6,4.1-31.6,7c-9.1-5.5-21.6,1.2-45.4,1.2c-54,0.1-100.8-34.4-122-59.1
			c-43.8-51.1-45.1-138.8-0.6-215.2c-12.5-0.4-24.9-0.8-37.4-1.3c-8.1,8.3-114,119.6-79.7,225c19.5,59.8,80.2,105.7,84.4,108.8
			c38.9,28.9,62.2,27.2,101.4,66.8c11,11.2,26.2,28.4,35.6,31.9c36.1,63,35.6,101.4,23.8,126c-11.8,24.8-34,33.2-57.5,81.9
			c-23.3,48.4-13.4,64.8-34.5,86.1c-37.8,38.2-95.6,11.5-108.1,37.7c-12.2,25.7,31.3,77,75.5,102.6c35,20.3,68.7,23.5,92.4,25.5
			c43.1,3.7,50.1-5.6,122.4-11.7c54.1-4.6,84.7-7.2,125.5-1.4c56.5,8,74.4,23.8,87.9,12.4
			C1164.2,2681.5,1140.6,2643.5,1125.5,2558.5z"/>
		<g>
			
				<linearGradient id="SVGID_40_" gradientUnits="userSpaceOnUse" x1="6428.689" y1="1995.0846" x2="6343.3315" y2="2157.5222" gradientTransform="matrix(1 -8.500000e-003 8.500000e-003 1 -5454.4668 15.6603)">
				<stop  offset="0" style="stop-color:#311944"/>
				<stop  offset="1" style="stop-color:#893976"/>
			</linearGradient>
			<path class="st43" d="M921.3,2009.6c2.8,7.5,6.6,24.1-1.4,39.2c-7,13.2-20.2,19.1-25.4,21.5c-12.7,5.8-20.4,4.2-20.7,6.6
				c-0.7,5.3,35.8,22.3,73.4,14.4c22.1-4.6,42.9-17.5,41.5-24.6c-1.6-8-30-2.2-39.9-17.6c-6.3-9.8-2.3-24,2.7-35.3
				C944,2007.8,928.6,2015.7,921.3,2009.6z"/>
			<g>
				
					<linearGradient id="SVGID_41_" gradientUnits="userSpaceOnUse" x1="6279.7266" y1="4857.8794" x2="6181.8086" y2="4817.8223" gradientTransform="matrix(0.8903 -0.4554 0.4554 0.8903 -6712.6353 522.5142)">
					<stop  offset="0" style="stop-color:#311944"/>
					<stop  offset="1" style="stop-color:#893976"/>
				</linearGradient>
				<path class="st44" d="M923.1,2027.4c0,0,18.8,8.4,33.7-5.4c13.4-12.3-10.9-49.6-25.5-50c-4.9-0.1-11.7,3.6-15.5,9
					c-2.2,3.2-2.2,5.3-6,10.5c-3.5,4.8-5.1,5.2-5.5,7.5c-0.5,2.9,1.1,7.7,11.6,16c-5-0.9-9.1,0.5-10.5,3.5c-0.2,0.5-0.6,2-0.4,3.6
					C906.2,2027.7,913.3,2030.3,923.1,2027.4z"/>
			</g>
		</g>
		<g class="st45">
			
				<linearGradient id="SVGID_42_" gradientUnits="userSpaceOnUse" x1="6332.062" y1="1981.9177" x2="5419.5469" y2="5045.3687" gradientTransform="matrix(1 -8.500000e-003 8.500000e-003 1 -5491.4058 15.9748)">
				<stop  offset="0" style="stop-color:#FF9085"/>
				<stop  offset="1" style="stop-color:#FB6FBB"/>
			</linearGradient>
			<path class="st46" d="M846.4,2608.6c31.3-63.1,110.6-69.3,114.2-119.5c2.6-36.8-39.3-41.7-55.9-94.7
				c-25-79.6,50-130.8,23.5-185.5c-18.2-37.4-57.6-22.6-149.2-70.5c-42.8-22.4-110.7-57.9-149.7-129c-15.9-28.9-23.9-58-27.5-84.1
				c-11.2,32.7-15.6,69-4,104.6c19.5,59.8,80.2,105.7,84.4,108.8c38.9,28.9,62.2,27.2,101.4,66.8c11,11.2,26.2,28.4,35.6,31.9
				c36.1,63,35.6,101.4,23.8,126c-11.8,24.8-34,33.2-57.5,81.9c-23.3,48.4-13.4,64.8-34.5,86.1c-37.8,38.2-95.6,11.5-108.1,37.7
				c-12.2,25.7,31.3,77,75.5,102.6c35,20.3,68.7,23.5,92.4,25.5c10.9,0.9,19.4,1,27.3,0.6C830.3,2657.6,836.2,2629.2,846.4,2608.6z"
				/>
		</g>
		<g>
			
				<linearGradient id="SVGID_43_" gradientUnits="userSpaceOnUse" x1="8534.7705" y1="-2554.1084" x2="8684.3457" y2="-1559.556" gradientTransform="matrix(0.9751 0.2218 -0.2218 0.9751 -7421.0176 -681.2546)">
				<stop  offset="0" style="stop-color:#AA80F9"/>
				<stop  offset="0.9964" style="stop-color:#6165D7"/>
			</linearGradient>
			<path class="st47" d="M1170.6,1655.8l-8.4-15.9l14.7-18.4c3.3-4.1,8.8-5.6,13.7-3.7c25.9,10,105,47,138,137.4
				c1.7,4.7,0.3,10.1-3.6,13.3c-7,5.9-15.5,11.2-15.5,11.2L1170.6,1655.8z"/>
			
				<linearGradient id="SVGID_44_" gradientUnits="userSpaceOnUse" x1="8411.7559" y1="-2535.6052" x2="8561.3311" y2="-1541.0571" gradientTransform="matrix(0.9751 0.2218 -0.2218 0.9751 -7421.0176 -681.2546)">
				<stop  offset="0" style="stop-color:#AA80F9"/>
				<stop  offset="0.9964" style="stop-color:#6165D7"/>
			</linearGradient>
			<path class="st48" d="M1111.9,1867l16.3,53.3c0,0,2.4,15.7,5.7,21.5c-5.2,8.9-20.3,14.6-20.3,14.6l-38.2-57.8l34.7-31.6
				L1111.9,1867z"/>
			
				<linearGradient id="SVGID_45_" gradientUnits="userSpaceOnUse" x1="9052.4639" y1="233.9216" x2="8705.748" y2="994.9343" gradientTransform="matrix(0.9751 0.2218 -0.2218 0.9751 -7421.0176 -681.2546)">
				<stop  offset="0" style="stop-color:#FFC444"/>
				<stop  offset="0.9964" style="stop-color:#F36F56"/>
			</linearGradient>
			<path class="st49" d="M1023,1888.6c0,0,122.6-148.9,139.2-248.6c101.5,15.5,147.3,139.8,147.3,139.8s-190.4,88-249.3,146.2
				C1036.4,1923.6,1023,1888.6,1023,1888.6z"/>
			
				<linearGradient id="SVGID_46_" gradientUnits="userSpaceOnUse" x1="8347.9268" y1="-2526.011" x2="8497.502" y2="-1531.4598" gradientTransform="matrix(0.9751 0.2218 -0.2218 0.9751 -7421.0176 -681.2546)">
				<stop  offset="0" style="stop-color:#AA80F9"/>
				<stop  offset="0.9964" style="stop-color:#6165D7"/>
			</linearGradient>
			<path class="st50" d="M1045.4,1903.2c0,0-8.6-11.9-22.4-14.6c-6.1-1.5,3.5,35.4,37.2,37.4
				C1055.3,1918.4,1050.3,1910.8,1045.4,1903.2z"/>
		</g>
		
			<linearGradient id="SVGID_47_" gradientUnits="userSpaceOnUse" x1="6643.4302" y1="1993.5082" x2="6629.5581" y2="1929.9647" gradientTransform="matrix(1 0 0 1 -5506.4854 0)">
			<stop  offset="0" style="stop-color:#311944"/>
			<stop  offset="1" style="stop-color:#893976"/>
		</linearGradient>
		<path class="st51" d="M1100.7,1902.2c0,0,18.8-23.9,24.6-14.4c5.7,9.5,20.5,36.6,6.2,44.1
			C1117.2,1939.2,1101.7,1926.5,1100.7,1902.2z"/>
		<linearGradient id="SVGID_48_" gradientUnits="userSpaceOnUse" x1="1365.73" y1="1443.3325" x2="1120.2946" y2="2362.5112">
			<stop  offset="0" style="stop-color:#AA80F9"/>
			<stop  offset="0.9964" style="stop-color:#6165D7"/>
		</linearGradient>
		<path class="st52" d="M1228.6,1556.6c0.8,4.7,4,8.8,8.8,10.5c132.1,46.5,137.1,145.3,137.1,146.2c0.3,7.4,6.5,13.3,13.9,13
			c7.4-0.3,13.3-6.5,13-13.9c-0.2-4.8-5.9-118.2-155.1-170.7c-7-2.5-14.7,1.2-17.2,8.2C1228.4,1552.1,1228.2,1554.5,1228.6,1556.6z"
			/>
		<linearGradient id="SVGID_49_" gradientUnits="userSpaceOnUse" x1="1389.9449" y1="1449.7982" x2="1144.5098" y2="2368.9763">
			<stop  offset="0" style="stop-color:#AA80F9"/>
			<stop  offset="0.9964" style="stop-color:#6165D7"/>
		</linearGradient>
		<path class="st53" d="M1242.4,1504.4c1,5.8,5,10.9,11,13c164.2,57.8,170.4,180.6,170.5,181.8c0.3,9.2,8.1,16.5,17.3,16.2
			c9.3-0.3,16.5-8.1,16.2-17.3c-0.2-6-7.3-147-192.9-212.3c-8.7-3.1-18.3,1.5-21.4,10.2C1242.2,1498.8,1242,1501.6,1242.4,1504.4z"
			/>
		
			<linearGradient id="SVGID_50_" gradientUnits="userSpaceOnUse" x1="6657.5542" y1="2072.863" x2="5799.9453" y2="3151.543" gradientTransform="matrix(1 0 0 1 -5506.4854 0)">
			<stop  offset="0" style="stop-color:#FF9085"/>
			<stop  offset="1" style="stop-color:#FB6FBB"/>
		</linearGradient>
		<path class="st54" d="M973.9,2061.1c0,0,112-3.6,160,27.7c61,39.8,21.2-91.6-26.7-142.1c25.9-30.4,33.3-30.9,33.3-30.9
			s231.5,212,84.1,281.9s-216.3-6.7-216.3-6.7L973.9,2061.1z"/>
	</g>
	<g>
		
			<linearGradient id="SVGID_51_" gradientUnits="userSpaceOnUse" x1="-1637.6769" y1="3314.9243" x2="-1546.1031" y2="3314.9243" gradientTransform="matrix(-0.9989 4.640000e-002 4.640000e-002 0.9989 1088.6735 -58.4637)">
			<stop  offset="0" style="stop-color:#444B8C"/>
			<stop  offset="0.9964" style="stop-color:#26264F"/>
		</linearGradient>
		<path class="st55" d="M2802.6,3133c-16.3,13.2-17.2,22.5-16.7,27.1c0.8,7.4,6.4,10.2,19.6,24.1c17.9,18.8,15.2,21.3,24.3,28.1
			c20.2,15,48.7,14,50.4,8.9c1.2-3.6-11.7-6.5-26.4-23.5c-13.5-15.7-18.1-31.2-19.3-35.8c-2.2-8.3-2.8-15.5-2.9-20.4L2802.6,3133z"
			/>
		
			<linearGradient id="SVGID_52_" gradientUnits="userSpaceOnUse" x1="-1566.5026" y1="3205.4041" x2="-1612.5021" y2="3289.5493" gradientTransform="matrix(-0.9989 4.640000e-002 4.640000e-002 0.9989 1088.6735 -58.4637)">
			<stop  offset="0" style="stop-color:#FFC444"/>
			<stop  offset="0.9964" style="stop-color:#F36F56"/>
		</linearGradient>
		<path class="st56" d="M2857.2,3092.9l-32.1,55.9c-7.7,3.4-15.1,1.7-22-8.3l12.5-68L2857.2,3092.9z"/>
		
			<linearGradient id="SVGID_53_" gradientUnits="userSpaceOnUse" x1="-1738.1141" y1="3303.3735" x2="-1576.1713" y2="2597.0249" gradientTransform="matrix(-0.9989 4.640000e-002 4.640000e-002 0.9989 1088.6735 -58.4637)">
			<stop  offset="0" style="stop-color:#311944"/>
			<stop  offset="1" style="stop-color:#6B3976"/>
		</linearGradient>
		<path class="st57" d="M2896.1,2375.9c31.3,52.8,82,154.6,92.2,292.3c10.1,135.9-24.2,239.5-38.5,278.1
			c-26.9,72.4-73.7,148.4-100.9,184.6c-18.3-7.7-29.1-19.7-47.5-27.4c2.8-10,11.3-42.9,16.6-62.5c4.1-15.2,11.8-43.3,13.4-49.3
			c13.2-50.3,2.8-88.1,6.4-150.4c4.2-72.6,20.9-64.2,18.4-107.8c-3.7-65.1-40.6-80.3-83-174.5c-29-64.5-59.4-132.2-31.4-169.3
			C2777,2343.2,2884.1,2372.5,2896.1,2375.9z"/>
		
			<linearGradient id="SVGID_54_" gradientUnits="userSpaceOnUse" x1="-1537.6891" y1="3213.8579" x2="-1411.6761" y2="3213.8579" gradientTransform="matrix(-1 0 0 1 1245.5168 0)">
			<stop  offset="0" style="stop-color:#444B8C"/>
			<stop  offset="0.9964" style="stop-color:#26264F"/>
		</linearGradient>
		<path class="st58" d="M2669.9,3184.2c-9.8,6.2-15.7,21-11.2,30.3c4.4,9.1,15.5,6.3,42.6,14.6c29,8.9,34.8,17.9,56.2,17.9
			c8.6,0,24.3-1.5,25.6-7.3c0.9-4.1-5.7-8.2-27.6-22.9c-31.1-20.9-30.8-21.5-37.7-24.7C2700.3,3184.1,2682.8,3176,2669.9,3184.2z"/>
		
			<linearGradient id="SVGID_55_" gradientUnits="userSpaceOnUse" x1="-1469.1118" y1="3207.4585" x2="-1420.5493" y2="3106.9453" gradientTransform="matrix(-1 0 0 1 1245.5168 0)">
			<stop  offset="0" style="stop-color:#FFC444"/>
			<stop  offset="0.9964" style="stop-color:#F36F56"/>
		</linearGradient>
		<path class="st59" d="M2716.3,3139.9l-11.9,54.4c-1.7,2.4-18.6,8.3-30.5,0l4.4-54.4H2716.3z"/>
		
			<linearGradient id="SVGID_56_" gradientUnits="userSpaceOnUse" x1="-1735.8711" y1="3303.8877" x2="-1573.9283" y2="2597.5393" gradientTransform="matrix(-0.9989 4.640000e-002 4.640000e-002 0.9989 1088.6735 -58.4637)">
			<stop  offset="0" style="stop-color:#AA80F9"/>
			<stop  offset="0.9964" style="stop-color:#6165D7"/>
		</linearGradient>
		<path class="st60" d="M2741.8,2389.8c35.2-46.6,142.4-17.3,154.3-13.9c12.8,21.7,29,51.8,44.2,89.1c-38-7.5-54.5-0.7-62.1,8.3
			c-29.8,35,63.5,112.2,44.3,229.3c-7.5,45.8-27.1,66.4-23.5,122.4c2.7,41.6,15.6,62.7,24.5,93.2c5.4,18.3,9.5,40.8,9.7,68
			c-26.9,59-62.1,115.2-84.3,144.8c-18.3-7.7-29.1-19.7-47.5-27.4c2.8-10,11.3-42.9,16.6-62.5c4.1-15.2,11.8-43.3,13.4-49.3
			c13.2-50.3,2.8-88.1,6.4-150.4c4.2-72.6,20.9-64.2,18.4-107.8c-3.7-65.1-40.6-80.3-83-174.5
			C2744.2,2494.5,2713.8,2426.8,2741.8,2389.8z"/>
		
			<linearGradient id="SVGID_57_" gradientUnits="userSpaceOnUse" x1="-1543.4268" y1="2855.6243" x2="-1257.3431" y2="2404.6216" gradientTransform="matrix(-1 0 0 1 1245.5168 0)">
			<stop  offset="0" style="stop-color:#311944"/>
			<stop  offset="1" style="stop-color:#6B3976"/>
		</linearGradient>
		<path class="st61" d="M2812.4,2404.5c3,121.4-1.6,262.1-21.5,417.2c-16.3,126.2-39.9,240.2-66,340.1c-3.6,2-16.2,8.6-32.4,5.5
			c-11.5-2.2-19.1-8.1-22.5-11.1c2.8-20.4,5.7-51.3,3.4-88.6c-4.1-64.2-19.2-77.2-25.6-143.6c-5.7-58.2,0.3-105.8,3.2-127.9
			c8.9-67.9,21.1-69.3,21.3-109.9c0.4-62.6-28.3-85-44-144.7c-10.5-39.8-16.1-99.2,10.3-180.7
			C2696.5,2375.3,2754.4,2389.9,2812.4,2404.5z"/>
		
			<linearGradient id="SVGID_58_" gradientUnits="userSpaceOnUse" x1="-1506.5752" y1="2879.0005" x2="-1220.4915" y2="2427.9976" gradientTransform="matrix(-1 0 0 1 1245.5168 0)">
			<stop  offset="0" style="stop-color:#AA80F9"/>
			<stop  offset="0.9964" style="stop-color:#6165D7"/>
		</linearGradient>
		<path class="st62" d="M2638.5,2360.7c17,4.3,33.9,8.5,50.9,12.8c-8.9,30.6-17.4,76.5-7.2,128.6c14.1,71.9,50.7,87.7,56.1,152.6
			c4.8,58.4-22.7,70.3-35.9,148.1c-13.5,79.8,6.9,117.3,11.2,184c2.9,45.7-1.8,105.4-29.6,178.1c-6.9-2.7-11.7-6.5-14.1-8.7
			c2.8-20.4,5.7-51.3,3.4-88.6c-4.1-64.2-19.2-77.2-25.6-143.6c-5.7-58.2,0.3-105.8,3.2-127.9c8.9-67.9,21.1-69.3,21.3-109.9
			c0.4-62.6-28.3-85-44-144.7C2617.7,2501.6,2612.1,2442.2,2638.5,2360.7z"/>
		
			<linearGradient id="SVGID_59_" gradientUnits="userSpaceOnUse" x1="-1364.7048" y1="1723.4595" x2="-1325.0977" y2="1928.2201" gradientTransform="matrix(-1 0 0 1 1849.5729 0)">
			<stop  offset="0" style="stop-color:#FFC444"/>
			<stop  offset="0.9964" style="stop-color:#F36F56"/>
		</linearGradient>
		<path class="st63" d="M3189.5,1747.4c1-9.9,3.7-32.9,7.6-25.2c2.6,5.3,3.8,15.2,4.3,23.2c16.6,0.9,20.5,0.1,16.6,18.2
			c-4.1,19.5-5.1,13.7-6.2,24s7.5,28.8,7.5,28.8l-21.9,4.8c0,0-6.8-21.9-9.6-32.5C3185.6,1779.8,3180.1,1755,3189.5,1747.4z"/>
		
			<linearGradient id="SVGID_60_" gradientUnits="userSpaceOnUse" x1="-812.0634" y1="1383.4924" x2="-803.8484" y2="2777.2798" gradientTransform="matrix(-1 0 0 1 1849.5729 0)">
			<stop  offset="0" style="stop-color:#FFC444"/>
			<stop  offset="0.9964" style="stop-color:#F36F56"/>
		</linearGradient>
		<path class="st64" d="M2525,2224.4c4.8,58.4,23.7,105.8,63.8,98.7c16.3-2.9,29.2-11.6,39.7-23.9c25.4-29.9,35.4-81.1,39.3-121.2
			c0,0,0,0,0,0c3.2-33,2.2-58.5,2.2-58.5l121-130.3l0.1-0.1c0,0-192,5.1-234.1,52.4C2534,2067.4,2519.2,2153.9,2525,2224.4z"/>
		
			<linearGradient id="SVGID_61_" gradientUnits="userSpaceOnUse" x1="-1133.8395" y1="-6811.7119" x2="-1125.6243" y2="-5417.8901" gradientTransform="matrix(-0.9837 0.1796 -0.1796 -0.9837 907.8507 -3577.7778)">
			<stop  offset="0" style="stop-color:#FFC444"/>
			<stop  offset="0.9964" style="stop-color:#F36F56"/>
		</linearGradient>
		<path class="st65" d="M3236.1,1793.6c10.2,22.7,55.2,190.6,9,286.6c-49.1,101.8-219.6,89.8-275.2,105.1
			c-30.8,8.5-47.8,6.9-67.3,8.7c-20.8-130.3,40-192.4,66.6-209.2c46.7-29.3,111.6,31.3,168.2,2.8c51-25.6,47.2-97,48.1-169
			C3197.2,1813.8,3224.4,1798.5,3236.1,1793.6z"/>
		
			<linearGradient id="SVGID_62_" gradientUnits="userSpaceOnUse" x1="-929.9224" y1="1384.1864" x2="-921.7074" y2="2777.9729" gradientTransform="matrix(-1 0 0 1 1849.5729 0)">
			<stop  offset="0" style="stop-color:#FFC444"/>
			<stop  offset="0.9964" style="stop-color:#F36F56"/>
		</linearGradient>
		<path class="st66" d="M2556.2,2556.1c13,14.1,48.9-38.2,112-42.8c33.6-2.5,38.2,11.4,73.2,5.2c38.2-6.7,36.4-23.8,72.2-30.6
			c26.3-5,38.7,2.1,65.2,3.9c6.8,0.5,4.4,0,34.5-0.6c67.5-1.3,69.3,1.3,74.1-2.9c9.4-8.4,7-23.2-10.7-110.2c-2.3-11.4-4.9-24-7.8-38
			c-3.7-18-6.2-30.5-5.8-48.1c0.5-27.8,8.6-41.7,14.7-75.4c3.1-17,6.3-38,9.2-65.8c3.9-38.2,9.8-104.8,7.5-173.3
			c-39.3-1.2-82.2-0.5-128.1,3.2c-26.1,2.1-51.3,5-75.4,8.5c-57,8.3-108.2,20-153,32.8c0.2,35.6,4,62.4,7.8,80.9
			c1.6,7.8,5.1,29.2,7.6,56.7c0.7,7.4,0.1,15.6,0.1,25.9v0.6c0,50.9-13.9,66.7-25.6,113.2c-2.9,11.5-5.4,24.9-7.9,41.2
			c-10.5,67.6-0.1,82.8-18.4,110.4c-13.1,19.7-29.7,29.1-40.7,60.3C2557.2,2521.5,2548.2,2547.3,2556.2,2556.1z"/>
		<g>
			
				<linearGradient id="SVGID_63_" gradientUnits="userSpaceOnUse" x1="13837.9473" y1="-5700.8882" x2="13845.8896" y2="-5912.4546" gradientTransform="matrix(0.9409 0.3386 -0.2954 0.8205 -11864.6328 2001.4653)">
				<stop  offset="0" style="stop-color:#FFC444"/>
				<stop  offset="0.9964" style="stop-color:#F36F56"/>
			</linearGradient>
			<path class="st67" d="M2858.9,1923.2c0,8.7-1.3,23.7-11.6,35.8c-5.3,6.3-11.1,9.4-19.5,13.6c-37.5,18.6-53.8,20.6-53.6,24.7
				c0.3,7.3,49.7,10.8,90.9,9.5c10.3-0.3,49.7-1.9,50-9.7c0.3-7.9-31-11.4-37.5-28.8c-4.1-11.1,3.7-22.9,11.9-31.8
				C2883.2,1928.7,2865,1931.2,2858.9,1923.2z"/>
			<g>
				
					<linearGradient id="SVGID_64_" gradientUnits="userSpaceOnUse" x1="-11291.7109" y1="928.0898" x2="-11348.3896" y2="784.1361" gradientTransform="matrix(-0.9433 0.3323 0.3323 0.9433 -8111.8398 4901.7534)">
					<stop  offset="0" style="stop-color:#311944"/>
					<stop  offset="1" style="stop-color:#6B3976"/>
				</linearGradient>
				<path class="st68" d="M2893.4,1897.7c4.1-11.4-0.3-26.7-11.4-33.3c-9.6-5.6-20.8-2.7-27.5-0.9c-19.5,5.1-40.9,21.6-44,41.2
					c-1.8,11.6,15.3,27.7,18.2,30.7c3.2,3.4,7.1,3.5,11.2,5.4c5.8,2.6,14.8,6.8,29.7,13.9c-0.2-3.7-0.2-8.4,0.4-13.7
					c0.2-2.1,1.3-10.1,4.4-17.6C2880.5,1908.3,2889.5,1908.5,2893.4,1897.7z"/>
				
					<linearGradient id="SVGID_65_" gradientUnits="userSpaceOnUse" x1="12777.877" y1="1559.5723" x2="12775.3408" y2="1763.8923" gradientTransform="matrix(0.921 -0.3894 0.3894 0.921 -9516.1035 5450.0508)">
					<stop  offset="0" style="stop-color:#FFC444"/>
					<stop  offset="0.9964" style="stop-color:#F36F56"/>
				</linearGradient>
				<path class="st69" d="M2850.6,1951.2c0,0,18.6,14.4,42.8,3.4c21.6-9.9,9.8-57.8-7.5-62.3c-5.8-1.5-15.6,0.7-22.6,5.7
					c-4.1,2.9-5.1,5.3-12,10c-6.3,4.3-8.5,4.3-10,6.8c-1.9,3.1-2.2,8.8,6.5,20.8c-5.5-2.4-11.1-2-14.2,1c-0.5,0.5-1.7,2-2.1,3.8
					C2830.1,1947,2837.5,1951.8,2850.6,1951.2z"/>
			</g>
		</g>
		<g>
			
				<linearGradient id="SVGID_66_" gradientUnits="userSpaceOnUse" x1="6908.5933" y1="1052.3717" x2="5946.7861" y2="2117.7588" gradientTransform="matrix(1 0 0 1 -3847.4104 0)">
				<stop  offset="0" style="stop-color:#311944"/>
				<stop  offset="1" style="stop-color:#A03976"/>
			</linearGradient>
			<path class="st70" d="M2825.8,1438.1l-503.5-19.7c-17.3-0.7-33.3,12.1-33.3,28.5v310.2c0,16.4,15.7,29.3,33,28.8l503-13.9
				c14.2-0.4,27.1-12.7,27.1-27.4v-278.8C2852,1451.1,2840,1438.7,2825.8,1438.1z"/>
			<g>
				<path class="st71" d="M2586.8,2111.1c3.4,0,6.2-2.8,6.2-6.2v-634.7c0-3.4-2.8-6.2-6.2-6.2c-3.4,0-6.2,2.8-6.2,6.2v634.7
					C2580.6,2108.4,2583.3,2111.1,2586.8,2111.1z"/>
			</g>
			<g>
				
					<linearGradient id="SVGID_67_" gradientUnits="userSpaceOnUse" x1="6919.7529" y1="1054.1063" x2="5960.8125" y2="2116.3179" gradientTransform="matrix(1 0 0 1 -3847.4104 0)">
					<stop  offset="0" style="stop-color:#FF9085"/>
					<stop  offset="1" style="stop-color:#FB6FBB"/>
				</linearGradient>
				<path class="st72" d="M2862.8,1465.9v278.8c0,14.7-11.3,27-25.5,27.4l-476.3,13.2l-25.7,0.7c-17.3,0.5-32-12.4-32-28.8v-310.3
					c0-16.4,14.7-29.2,32-28.5l426.7,16.7l75.1,3C2851.4,1438.7,2862.8,1451.1,2862.8,1465.9z"/>
				<g>
					<path class="st2" d="M2597.5,1639.4l-21.7-0.5c-6.1-0.1-11.1-5.3-11.4-11.4l-7.9-152.9c-0.2-3.2,1-5.8,3.1-7.9
						c2.2-2.1,5.2-2.8,8.3-2.6l37.4,2.6c3.1,0.2,6,1.2,8.1,3.6c2.1,2.4,3.2,5.3,3,8.3l-7.7,150.2
						C2608.4,1634.8,2603.4,1639.6,2597.5,1639.4z"/>
					<path class="st2" d="M2564,1676.8c5.4-5.2,13-7.7,22.9-7.5c10.1,0.2,17.8,2.8,23,8c5.2,5.1,7.8,12.7,7.8,22.6
						c0,9.5-2.7,16.9-8,22.2c-5.4,5.3-13,7.9-22.8,7.9c-9.7,0-17.3-2.7-22.8-8.2c-5.5-5.5-8.2-12.9-8.2-22.4
						C2555.8,1689.5,2558.5,1682,2564,1676.8z"/>
				</g>
				
					<linearGradient id="SVGID_68_" gradientUnits="userSpaceOnUse" x1="7009.1343" y1="1160.5035" x2="6092.2168" y2="2176.1667" gradientTransform="matrix(1 0 0 1 -3847.4104 0)">
					<stop  offset="0" style="stop-color:#FF9085"/>
					<stop  offset="1" style="stop-color:#FB6FBB"/>
				</linearGradient>
				<path class="st73" d="M2862.8,1465.9v278.8c0,14.7-11.3,27-25.5,27.4l-476.3,13.2c22.6-40.5,91.8-28.9,149.9-111.5
					c16.6-23.5,35-36.9,53.7-44.7c15-6.2,30.1-8.8,44.6-10.1c51.1-4.6,93.4,7.5,89.7-67.3c-3.3-66,31.1-99.6,63.5-116.6l75,3
					C2851.5,1438.7,2862.8,1451.1,2862.8,1465.9z"/>
			</g>
		</g>
		<linearGradient id="SVGID_69_" gradientUnits="userSpaceOnUse" x1="2587.3135" y1="2092.717" x2="2593.3291" y2="2433.198">
			<stop  offset="0" style="stop-color:#FFC444"/>
			<stop  offset="0.655" style="stop-color:#F78C50"/>
			<stop  offset="0.9964" style="stop-color:#F36F56"/>
		</linearGradient>
		<path class="st74" d="M2565.9,2111.1c0,0-8.3-28.9-8.3-45.4s45.8-16.5,54.2-16.5c8.3,0,4.2,28.9-12.5,30.9
			c-16.7,2.1-12.5,26.8-12.5,26.8L2565.9,2111.1z"/>
		
			<linearGradient id="SVGID_70_" gradientUnits="userSpaceOnUse" x1="-1143.1727" y1="2339.0771" x2="-675.4474" y2="2339.0771" gradientTransform="matrix(-1 0 0 1 1849.5729 0)">
			<stop  offset="0" style="stop-color:#FFC444"/>
			<stop  offset="0.9964" style="stop-color:#F36F56"/>
		</linearGradient>
		<path class="st75" d="M2560.9,2511.2c-3.7,10.4-12.7,36.1-4.7,45c13,14.1,48.9-38.2,112-42.8c33.6-2.5,38.2,11.4,73.2,5.2
			c38.2-6.7,36.4-23.8,72.2-30.6c26.3-5,38.7,2.1,65.2,3.9c6.8,0.5,4.4,0,34.5-0.6c67.5-1.3,69.3,1.3,74.1-2.9
			c9.4-8.4,7-23.2-10.7-110.2c-21.8,4-49.7,22.9-78.4,48.8c-52.3,47.2-75,21.2-112.6-21.2c-37.7-42.5-70.5-8.2-102-29.4
			c-31.5-21.2-3.4-71.9,27.4-119.1c30.8-47.2-12.3-115.7-41.8-80.8c-0.5,0.6-1,1.2-1.5,1.7c0,0,0,0,0,0c-5.3,5.8-9.5,7.9-13.2,7.4
			c-15.9-1.9-21-51.8-48.3-66c3,10.1,3.8,20.8,4.8,31.2c2.6,27,3.4,54,4.3,81.1c0.5,16.7,8.6,56.8-11.3,64.6
			c-26,10-42.6-15.4-52.7-34.7c-7.1-13.5-16.2-25.9-26.4-37.3c4.8,58.4,23.7,105.8,63.8,98.7c16.3-2.9,29.2-11.6,39.7-23.9
			c-2.9,11.5-5.7,24.9-8.2,41.2c-10.5,67.6-0.3,82.8-18.6,110.4C2588.6,2470.5,2571.9,2479.9,2560.9,2511.2z"/>
	</g>
</g>
</svg>
