<?xml version="1.0" encoding="utf-8"?>
<!-- Generator: Adobe Illustrator 19.0.0, SVG Export Plug-In . SVG Version: 6.00 Build 0)  -->
<svg version="1.1" id="Illustration" xmlns="http://www.w3.org/2000/svg" xmlns:xlink="http://www.w3.org/1999/xlink" x="0px"
	 y="0px" viewBox="0 0 3710 3710" style="enable-background:new 0 0 3710 3710;" xml:space="preserve">
<style type="text/css">
	.st0{fill:#F4F7FA;}
	.st1{fill:#D9DDE3;}
	.st2{opacity:0.3;fill:#FFFFFF;}
	.st3{fill:#BFC6D1;}
	.st4{fill:url(#SVGID_1_);}
	.st5{fill:url(#SVGID_2_);}
	.st6{fill:url(#SVGID_3_);}
	.st7{fill:url(#SVGID_4_);}
	.st8{fill:url(#SVGID_5_);}
	.st9{fill:url(#SVGID_6_);}
	.st10{fill:url(#SVGID_7_);}
	.st11{opacity:0.5;fill:#FFFFFF;}
	.st12{fill:url(#SVGID_8_);}
	.st13{fill:url(#SVGID_9_);}
	.st14{fill:url(#SVGID_10_);}
	.st15{fill:url(#SVGID_11_);}
	.st16{fill:url(#SVGID_12_);}
	.st17{fill:url(#SVGID_13_);}
	.st18{fill:#FFFFFF;}
	.st19{opacity:0.3;fill:url(#SVGID_14_);}
	.st20{fill:url(#SVGID_15_);}
	.st21{fill:url(#SVGID_16_);}
	.st22{fill:url(#SVGID_17_);}
	.st23{opacity:0.3;fill:url(#SVGID_18_);}
	.st24{fill:url(#SVGID_19_);}
	.st25{fill:url(#SVGID_20_);}
	.st26{fill:url(#SVGID_21_);}
	.st27{opacity:0.3;}
	.st28{fill:url(#SVGID_22_);}
	.st29{fill:url(#SVGID_23_);}
	.st30{fill:url(#SVGID_24_);}
	.st31{fill:url(#SVGID_25_);}
	.st32{fill:url(#SVGID_26_);}
	.st33{fill:url(#SVGID_27_);}
	.st34{fill:url(#SVGID_28_);}
	.st35{fill:url(#SVGID_29_);}
	.st36{opacity:0.3;fill:url(#SVGID_30_);}
	.st37{fill:url(#SVGID_31_);}
	.st38{fill:url(#SVGID_32_);}
	.st39{fill:url(#SVGID_33_);}
	.st40{fill:url(#SVGID_34_);}
	.st41{fill:url(#SVGID_35_);}
	.st42{fill:url(#SVGID_36_);}
	.st43{fill:url(#SVGID_37_);}
	.st44{opacity:0.3;fill:url(#SVGID_38_);}
	.st45{fill:url(#SVGID_39_);}
</style>
<g>
	<path class="st0" d="M1107.4,555.2c-96.5,140.6,16.6,368.6-126.5,474.3c-139.3,102.9-310.5-65.8-441.8,22.8
		C344.4,1183.8,380,1785.2,664.8,2158.9c85.6,112.4,157.2,156.1,188.9,283.2c68.1,272.9-171.1,435.3-125.6,570.2
		c102.5,303.9,1678.6,559,2311-354.4c295.4-426.6,339.5-1042.6,75.7-1510.5C2637.8,302,1323.9,239.7,1107.4,555.2z"/>
	<g>
		<path class="st1" d="M1688.1,2969.5c64.6-5.1,173.3-13.6,268.3-91.7c172.7-142,187.9-421.7,132.1-614.2
			c-47.9-165.4-176-294.4-432.2-552.6c-241.3-243.1-332.8-285.3-332.2-400.7c0.8-164.6,187.5-245.4,159.8-437.4
			c-3.3-23-14.7-102.2-74.6-144.4c-102.6-72.3-275.3,14.4-363.4,87.2c-84.9,70.2-190.7,209.7-165.4,347.2
			c18.3,99.7,89.9,113.6,86.2,200.7c-3.7,87.6-77.2,99.9-139.4,231.5c-24.8,52.6-74.7,158.2-47.6,264.6
			c35.1,137.7,167.2,152.3,167.7,260.4c0.4,78.1-68.5,96-86.4,182.4c-23.5,113.7,67.2,221.1,143.8,309.5
			C1095.3,2716.1,1338.7,2997,1688.1,2969.5z"/>
		<path class="st2" d="M1355.3,766.8c50.1,58.4-174.7,204.1-189,468.5c-15.3,284.5,222.4,532.7,332.3,647.5
			c187.5,195.8,289.8,190.5,393.4,383.6c41,76.4,126.4,235.7,67.6,411.4c-5.5,16.3-69,197.5-232.9,249.1
			c-185.9,58.5-359.5-94.1-509-225.6c-90.4-79.5-270.9-238.2-226.3-350.7c27.3-68.8,132.4-104.4,210.9-102.4
			c112,2.8,185.2,82.6,199.4,66.4c12.9-14.5-34.1-93.2-108.5-161.6c-148.9-136.9-255.6-92.7-361.7-211.7
			c-12.9-14.4-113.2-130.3-82.6-260.2c17.6-74.9,79.1-156.4,142.7-156.4c71.9,0,115.2,104.3,134.6,93.7
			c18.5-10.2-9.9-111.7-52.5-207.9c-62.6-141.3-103.7-153.2-119.1-236.5c-23.4-127,47.3-235.4,57.7-250.9
			C1109.5,778.4,1312.5,716.9,1355.3,766.8z"/>
	</g>
	<g>
		<path class="st3" d="M1504.5,2916.5c36.6-23.2,98.1-62.3,129.9-138.1c57.8-137.9-20.4-307.9-113.3-404.2
			c-79.8-82.7-195.7-118.9-427.5-191.3c-218.3-68.2-285.5-64.5-321.2-132.9c-50.8-97.5,34.3-203.6-41.9-308.4
			c-9.1-12.6-40.5-55.8-89.1-62c-83.1-10.6-158.2,94.6-187.5,165.1c-28.3,68-47.3,183.5,10.5,256.9c41.9,53.2,88.5,39,113.5,91.6
			c25.1,52.9-14.5,83.2-10.2,180.4c1.7,38.8,5.1,116.8,54.4,171.2c63.6,70.4,146.3,37.7,180.2,101.4c24.5,46-10.6,78.1,5.8,134.7
			c21.5,74.5,108.6,109.7,181.4,137.9C1075.2,2952.2,1306.6,3042,1504.5,2916.5z"/>
		<path class="st2" d="M621.5,1719.1c47.8,18.8-39.6,175.3,34.3,335.9c79.6,172.9,297.4,245.2,398.1,278.7
			c171.8,57,230.6,21.9,352,103.6c48,32.3,148.1,99.7,168.1,221.9c1.9,11.4,20.7,138.3-60,220c-91.6,92.7-241.7,56.8-371.1,25.9
			c-78.2-18.7-234.3-56-243-136.4c-5.3-49.1,45.7-103.1,92.7-126.5c67.1-33.4,135.1-9.1,138.6-23.1c3.1-12.6-49.2-44.4-114.5-61.6
			c-130.6-34.3-179.9,25.2-279.7-12c-12.1-4.5-107.5-41.6-129.9-127.9c-12.9-49.8-2-117.2,35.6-137c42.5-22.5,100.6,25.6,108.7,13.3
			c7.8-11.8-40.6-62.9-95.8-106.4c-81-63.9-109.1-58.1-144-102.5c-53.4-67.7-45.4-153.9-44.1-166.3
			C479.9,1802.8,580.7,1703,621.5,1719.1z"/>
	</g>
	<g>
		<linearGradient id="SVGID_1_" gradientUnits="userSpaceOnUse" x1="1732.3502" y1="2734.7754" x2="1652.7137" y2="2458.3909">
			<stop  offset="0" style="stop-color:#311944"/>
			<stop  offset="0.5554" style="stop-color:#6F2B60"/>
			<stop  offset="1" style="stop-color:#A03976"/>
		</linearGradient>
		<polygon class="st4" points="1059.2,2580.2 1643.1,2554.8 2315.9,2578.4 1652.2,2723.4 		"/>
		<g>
			<linearGradient id="SVGID_2_" gradientUnits="userSpaceOnUse" x1="1198.3651" y1="3137.3149" x2="1300.8022" y2="2904.3203">
				<stop  offset="0" style="stop-color:#AA80F9"/>
				<stop  offset="0.9964" style="stop-color:#6165D7"/>
			</linearGradient>
			<path class="st5" d="M1529.7,3142.8l-473-127.3c-47.6-12.8-84.6-60-84.6-105.8v-0.5c0-45.8,37-76.5,84.6-68.1l507.3,83
				L1529.7,3142.8z"/>
			<g>
				<linearGradient id="SVGID_3_" gradientUnits="userSpaceOnUse" x1="1465.2445" y1="3003.6689" x2="2316.6729" y2="3003.6689">
					<stop  offset="0" style="stop-color:#F4F7FA"/>
					<stop  offset="0.9964" style="stop-color:#D8DEE8"/>
				</linearGradient>
				<path class="st6" d="M2316.7,3047.2l-764.2,85.3c-47.9,5.3-87.2-28-87.2-74.6v-31.6c0-46.6,39.4-87.5,87.2-91.3l764.2-60.8
					C2282.9,2937.2,2275.1,2996,2316.7,3047.2z"/>
				<linearGradient id="SVGID_4_" gradientUnits="userSpaceOnUse" x1="1444.6978" y1="3004.0718" x2="2331.6465" y2="3004.0718">
					<stop  offset="0" style="stop-color:#AA80F9"/>
					<stop  offset="0.9964" style="stop-color:#6165D7"/>
				</linearGradient>
				<path class="st7" d="M2323.3,3055.7l-764.5,86.7c-62.4,7.1-114.2-36.6-114.2-97.6v-0.7c0-61,51.7-114.6,114.2-119.5l764.5-59.6
					c4.6-0.4,8.3,3.5,8.3,8.6c0,5.1-3.7,9.5-8.3,9.9l-764.5,62.2c-50.2,4.1-91.7,47.3-91.7,96.3v0.7c0,49,41.5,84.2,91.7,78.7
					l764.5-84.1c4.6-0.5,8.3,3.2,8.3,8.3C2331.6,3050.6,2327.9,3055.2,2323.3,3055.7z"/>
			</g>
		</g>
		<g>
			<linearGradient id="SVGID_5_" gradientUnits="userSpaceOnUse" x1="983.1877" y1="3250.1899" x2="1224.4385" y2="2849.6667">
				<stop  offset="0" style="stop-color:#311944"/>
				<stop  offset="0.5554" style="stop-color:#6F2B60"/>
				<stop  offset="1" style="stop-color:#A03976"/>
			</linearGradient>
			<path class="st8" d="M1549.5,2924.7l-492.8-83.5c-47.6-8.4-84.6-70.8-84.6-139.6v-0.8c0-68.7,37-123.3,84.6-121.5l522.8,19.4
				L1549.5,2924.7z"/>
			<g>
				<linearGradient id="SVGID_6_" gradientUnits="userSpaceOnUse" x1="1465.2445" y1="2749.1746" x2="2316.6729" y2="2749.1746">
					<stop  offset="0" style="stop-color:#F4F7FA"/>
					<stop  offset="0.9964" style="stop-color:#D8DEE8"/>
				</linearGradient>
				<path class="st9" d="M2316.7,2851.7l-721.4,54.4c-71.1,5.4-130-46.9-130-116.9v-47.5c0-70,58.9-128.3,130-130.2l721.4-19.7
					C2282.7,2686.2,2275.2,2774.5,2316.7,2851.7z"/>
				<linearGradient id="SVGID_7_" gradientUnits="userSpaceOnUse" x1="1444.6978" y1="2751.8008" x2="2331.6465" y2="2751.8008">
					<stop  offset="0" style="stop-color:#311944"/>
					<stop  offset="0.5554" style="stop-color:#6F2B60"/>
					<stop  offset="1" style="stop-color:#A03976"/>
				</linearGradient>
				<path class="st10" d="M2323.3,2865l-764.5,59.6c-62.4,4.9-114.2-65.6-114.2-157.1v-1c0-91.5,51.7-167.3,114.2-168.8l764.5-19
					c4.6-0.1,8.3,6,8.3,13.6s-3.7,13.9-8.3,14.1l-764.5,22.9c-50.2,1.5-91.7,62.6-91.7,136.1v1c0,73.5,41.5,130.3,91.7,126.6
					l764.5-55.7c4.6-0.3,8.3,5.6,8.3,13.2C2331.6,2858.2,2327.9,2864.7,2323.3,2865z"/>
			</g>
		</g>
		<path class="st11" d="M1396.7,2855.8l-105.3-18.4c-24.6-67.1-22.8-128.8,0-202.5l105.3,7.5
			C1375.1,2719.9,1378.4,2790.2,1396.7,2855.8z"/>
	</g>
	<g>
		<g>
			<linearGradient id="SVGID_8_" gradientUnits="userSpaceOnUse" x1="1503.9493" y1="866.8226" x2="1523.7319" y2="1086.9027">
				<stop  offset="0" style="stop-color:#444B8C"/>
				<stop  offset="0.9964" style="stop-color:#26264F"/>
			</linearGradient>
			<path class="st12" d="M1889,1113.6l-757.2,11.1V972.4c0-43.3,60.8-68.9,89.2-39.8l15.8,34.5c26.3,26.9,63.5,34.9,96.4,20.9
				L1889,751V1113.6z"/>
			
				<linearGradient id="SVGID_9_" gradientUnits="userSpaceOnUse" x1="-3815.4861" y1="863.4508" x2="-3795.8503" y2="1081.8994" gradientTransform="matrix(-1 0 0 1 -1516.4751 0)">
				<stop  offset="0" style="stop-color:#444B8C"/>
				<stop  offset="0.9964" style="stop-color:#26264F"/>
			</linearGradient>
			<path class="st13" d="M1962.7,1112.5l647.8-9.5l25.2-134.4c0-37.3-59.5-54-81.1-28.9l-23.6,27.5c-20.4,23.7-49.5,31-75.6,18.6
				l-492.8-233.2V1112.5z"/>
		</g>
		<g>
			<linearGradient id="SVGID_10_" gradientUnits="userSpaceOnUse" x1="1529.8112" y1="872.0877" x2="1549.5938" y2="1092.168">
				<stop  offset="0" style="stop-color:#AA80F9"/>
				<stop  offset="0.9964" style="stop-color:#6165D7"/>
			</linearGradient>
			<path class="st14" d="M1914.8,1118.9l-757.2,11.1V977.7c0-43.3,45.8-65.8,74.3-36.8l30.8,31.5c26.3,26.9,63.5,34.9,96.4,20.9
				l555.8-237V1118.9z"/>
			
				<linearGradient id="SVGID_11_" gradientUnits="userSpaceOnUse" x1="-3834.8286" y1="868.13" x2="-3815.1926" y2="1086.5786" gradientTransform="matrix(-1 0 0 1 -1516.4751 0)">
				<stop  offset="0" style="stop-color:#AA80F9"/>
				<stop  offset="0.9964" style="stop-color:#6165D7"/>
			</linearGradient>
			<path class="st15" d="M1988.6,1117.8l647.8-9.5V977.1c0-37.3-34.3-57.2-55.9-32.1l-23.6,27.5c-20.4,23.7-49.5,31-75.6,18.6
				l-492.8-233.2V1117.8z"/>
		</g>
		<g>
			<g>
				<linearGradient id="SVGID_12_" gradientUnits="userSpaceOnUse" x1="484.5231" y1="1671.1487" x2="1830.6304" y2="1671.1487">
					<stop  offset="0" style="stop-color:#40447E"/>
					<stop  offset="0.9964" style="stop-color:#3C3B6B"/>
				</linearGradient>
				<polygon class="st16" points="1824.9,2247.2 1157.6,1109 490.2,2241.6 484.5,2237.5 1157.6,1095.1 1160.4,1100 1830.6,2243 				
					"/>
				<g>
					<linearGradient id="SVGID_13_" gradientUnits="userSpaceOnUse" x1="464.6027" y1="2323.0681" x2="1850.5461" y2="2323.0681">
						<stop  offset="0" style="stop-color:#311944"/>
						<stop  offset="0.5554" style="stop-color:#6F2B60"/>
						<stop  offset="1" style="stop-color:#A03976"/>
					</linearGradient>
					<path class="st17" d="M1850.5,2245.1c0,50.9-310.3,248-693,248s-693-197.2-693-248c0-50.9,310.3-92.1,693-92.1
						S1850.5,2194.2,1850.5,2245.1z"/>
					<ellipse class="st18" cx="1157.6" cy="2241.6" rx="693" ry="92.1"/>
					<linearGradient id="SVGID_14_" gradientUnits="userSpaceOnUse" x1="1152.968" y1="2182.0361" x2="1163.177" y2="2295.6106">
						<stop  offset="0" style="stop-color:#AA80F9"/>
						<stop  offset="0.9964" style="stop-color:#6165D7"/>
					</linearGradient>
					<ellipse class="st19" cx="1157.6" cy="2233.3" rx="670.2" ry="71.6"/>
				</g>
				<linearGradient id="SVGID_15_" gradientUnits="userSpaceOnUse" x1="1150.5704" y1="922.2883" x2="1185.0646" y2="1807.6266">
					<stop  offset="0" style="stop-color:#444B8C"/>
					<stop  offset="0.9964" style="stop-color:#26264F"/>
				</linearGradient>
				<ellipse class="st20" cx="1157.6" cy="1102.1" rx="81.8" ry="91.3"/>
			</g>
			<g>
				<linearGradient id="SVGID_16_" gradientUnits="userSpaceOnUse" x1="2048.8455" y1="1587.2811" x2="3224.0105" y2="1587.2811">
					<stop  offset="0" style="stop-color:#40447E"/>
					<stop  offset="0.9964" style="stop-color:#3C3B6B"/>
				</linearGradient>
				<polygon class="st21" points="3219,2090.2 2636.4,1096.5 2053.8,2085.3 2048.8,2081.7 2636.4,1084.4 2638.9,1088.6 3224,2086.5 
									"/>
				<g>
					<linearGradient id="SVGID_17_" gradientUnits="userSpaceOnUse" x1="2031.4546" y1="2156.4131" x2="3241.3972" y2="2156.4131">
						<stop  offset="0" style="stop-color:#311944"/>
						<stop  offset="0.5554" style="stop-color:#6F2B60"/>
						<stop  offset="1" style="stop-color:#A03976"/>
					</linearGradient>
					<path class="st22" d="M3241.4,2088.3c0,44.4-270.9,216.5-605,216.5s-605-172.1-605-216.5c0-44.4,270.9-80.4,605-80.4
						S3241.4,2043.9,3241.4,2088.3z"/>
					<ellipse class="st18" cx="2636.4" cy="2084.8" rx="605" ry="80.4"/>
					<linearGradient id="SVGID_18_" gradientUnits="userSpaceOnUse" x1="2632.3335" y1="2034.4655" x2="2641.4033" y2="2135.3647">
						<stop  offset="0" style="stop-color:#AA80F9"/>
						<stop  offset="0.9964" style="stop-color:#6165D7"/>
					</linearGradient>
					<ellipse class="st23" cx="2636.4" cy="2080" rx="585.1" ry="64.4"/>
				</g>
				<linearGradient id="SVGID_19_" gradientUnits="userSpaceOnUse" x1="2627.8088" y1="869.2878" x2="2657.9224" y2="1642.1968">
					<stop  offset="0" style="stop-color:#444B8C"/>
					<stop  offset="0.9964" style="stop-color:#26264F"/>
				</linearGradient>
				<ellipse class="st24" cx="2636.4" cy="1090.5" rx="71.4" ry="79.7"/>
			</g>
		</g>
		<linearGradient id="SVGID_20_" gradientUnits="userSpaceOnUse" x1="1948.9513" y1="667.4367" x2="1988.3933" y2="1106.2263">
			<stop  offset="0" style="stop-color:#444B8C"/>
			<stop  offset="0.9964" style="stop-color:#26264F"/>
		</linearGradient>
		<path class="st25" d="M2015.3,517.4l-127.8-5.9c-29-1.3-52.7,25.8-52.7,60.7v106l34.1,492.4c2.3,32.6,25,57.1,52.1,56.4l61.3-1.6
			c26.7-0.7,48.8-25.9,50.9-58l32.8-482.4V581.4C2066.1,547.3,2043.4,518.7,2015.3,517.4z"/>
		<linearGradient id="SVGID_21_" gradientUnits="userSpaceOnUse" x1="1975.8735" y1="667.4367" x2="2015.3154" y2="1106.2263">
			<stop  offset="0" style="stop-color:#AA80F9"/>
			<stop  offset="0.9964" style="stop-color:#6165D7"/>
		</linearGradient>
		<path class="st26" d="M2042.2,517.4l-127.8-5.9c-29-1.3-52.7,25.8-52.7,60.7v106l34.1,492.4c2.3,32.6,25,57.1,52.1,56.4l61.3-1.6
			c26.7-0.7,48.8-25.9,50.9-58L2093,685V581.4C2093,547.3,2070.4,518.7,2042.2,517.4z"/>
		<g class="st27">
			<path class="st18" d="M2015.6,992.9c-39.4-154.3-110.4-219.1-121.7-367.6c-3-40.1-1-77.5,3.7-111.2c-20.7,7.5-35.7,30.3-35.7,58
				v106l34.1,492.4c2.3,32.6,25,57.1,52.1,56.4l61.3-1.6c10.4-0.3,20.1-4.3,28.2-11C2041.6,1120.7,2029.3,1046.6,2015.6,992.9z"/>
		</g>
	</g>
	<g>
		<linearGradient id="SVGID_22_" gradientUnits="userSpaceOnUse" x1="1896.8032" y1="1643.722" x2="1805.9961" y2="1973.1619">
			<stop  offset="0" style="stop-color:#FFC444"/>
			<stop  offset="0.9964" style="stop-color:#F36F56"/>
		</linearGradient>
		<path class="st28" d="M1909,1235.3c0,0-227.6,91.1-189,337.4c38.6,246.3,377.1,169,377.1,169l19.9-169c0,0-257.3,10.8-224.9-147.4
			c35.3-172.2,65.4-174.1,65.4-174.1L1909,1235.3z"/>
		<linearGradient id="SVGID_23_" gradientUnits="userSpaceOnUse" x1="2153.0779" y1="3052.1902" x2="2175.6416" y2="3458.3401">
			<stop  offset="0" style="stop-color:#444B8C"/>
			<stop  offset="0.9964" style="stop-color:#26264F"/>
		</linearGradient>
		<path class="st29" d="M2209.6,3196.6c0,0,2.8,22.5,0.9,30c-1.9,7.5-67.2,13-89.3,10.3c-22.2-2.6,13.2-25.2,27.3-29.5
			C2162.6,3203.2,2209.6,3196.6,2209.6,3196.6z"/>
		<linearGradient id="SVGID_24_" gradientUnits="userSpaceOnUse" x1="2195.6921" y1="3252.3469" x2="2183.7056" y2="2703.9822">
			<stop  offset="0" style="stop-color:#FFC444"/>
			<stop  offset="0.9964" style="stop-color:#F36F56"/>
		</linearGradient>
		<path class="st30" d="M2176.7,3159.2l6.9,45c0,0,17.5,7.9,26,0.1l0.9-47.1L2176.7,3159.2z"/>
		<linearGradient id="SVGID_25_" gradientUnits="userSpaceOnUse" x1="2561.4692" y1="3029.5081" x2="2584.0322" y2="3435.6423">
			<stop  offset="0" style="stop-color:#444B8C"/>
			<stop  offset="0.9964" style="stop-color:#26264F"/>
		</linearGradient>
		<path class="st31" d="M2544.7,3157.1c0,0-13.9,10.3-10.2,22.6c3.7,12.3,36,61.6,59,75.6c23,14,15.8-15.2,9.1-33.3
			c-6.7-18.2-23.8-58.2-30.5-64.9C2565.5,3150.4,2544.7,3157.1,2544.7,3157.1z"/>
		<linearGradient id="SVGID_26_" gradientUnits="userSpaceOnUse" x1="2555.2488" y1="3244.4871" x2="2543.2627" y2="2696.1287">
			<stop  offset="0" style="stop-color:#FFC444"/>
			<stop  offset="0.9964" style="stop-color:#F36F56"/>
		</linearGradient>
		<path class="st32" d="M2519.8,3107.7c6.7,18.7,13.1,34,18.2,45.3c11.1,25,17.2,34.4,24.1,42.6c6,7.1,20.3,22.2,24.1,19.7
			c3.9-2.6-6.5-21-26.6-74.9c-2.9-7.8-12.1-32.7-12.1-32.7l0,0H2519.8z"/>
		<linearGradient id="SVGID_27_" gradientUnits="userSpaceOnUse" x1="2021.5917" y1="2895.936" x2="2249.3284" y2="2590.2891">
			<stop  offset="0" style="stop-color:#444B8C"/>
			<stop  offset="0.9964" style="stop-color:#26264F"/>
		</linearGradient>
		<path class="st33" d="M2040,2327.8c-4.8,46.9-9.4,119.7-2.5,208.1c8.9,115.1,32,188,60.8,310.7c17.6,75,41.4,185.4,62.9,323.5
			c5,2.9,19.7,10.4,38.6,7.6c10.6-1.6,18.5-5.8,23.2-8.8c56.4-172.5,39.8-279.4,12.5-346c-11.6-28.4-25.7-50.8-33.2-94.4
			c-10-57.7,2.4-90,19.9-223.7c12.5-95.3,10.3-110,2-124.3C2191,2323.3,2089.2,2324.4,2040,2327.8z"/>
		<linearGradient id="SVGID_28_" gradientUnits="userSpaceOnUse" x1="2190.7656" y1="2933.8679" x2="2724.1492" y2="2436.4434">
			<stop  offset="0" style="stop-color:#444B8C"/>
			<stop  offset="0.9964" style="stop-color:#26264F"/>
		</linearGradient>
		<path class="st34" d="M2234.3,2347.9c34.6,178.6,68.5,272.4,94.2,325.4c6.3,13.1,27.5,55.3,47.4,115.8
			c17.7,53.6,25.1,93,28.8,110.3c11.9,54.7,41.4,134.7,120.7,239.5c1,0.6,14.5,8.2,27.4,1.4c6.5-3.5,9.8-9,11.1-11.5
			c-10.4-100.2-22.3-184.4-32.6-249.4c-2.2-13.6-11.7-73.3-26.7-152.1c-5.9-30.8-14.4-76-24.7-122.4
			c-12.8-57.8-32.4-136.4-62.7-230.6C2356.3,2365.4,2295.3,2356.7,2234.3,2347.9z"/>
		
			<linearGradient id="SVGID_29_" gradientUnits="userSpaceOnUse" x1="2233.7104" y1="2007.0023" x2="2071.0625" y2="1776.5845" gradientTransform="matrix(0.914 -0.4057 0.4057 0.914 -44.3241 868.3495)">
			<stop  offset="0" style="stop-color:#444B8C"/>
			<stop  offset="0.9964" style="stop-color:#26264F"/>
		</linearGradient>
		<path class="st35" d="M2282.5,1592.9c-27.5-6.9-74.8-8-113.4-42.1c-11.6-10.3-52.8-46.7-37.5-95.3c9.1-28.9,36.8-58.1,69-66.4
			c27.5-7.1,38.2,6.2,95.2,17.3c22.2,4.3,57.9,11.2,92.9,8.4c60-4.9,83.6-35.8,136.6-57c65.1-26,152.9-28.8,208.3-0.7
			c98.3,49.8,41.3,170,151.6,230.5c36.1,19.8,44.4,8.1,124.2,42.1c79.9,34.1,119.9,51.1,130.9,88.8c15.2,52.4-26.7,127.4-84.4,156.9
			c-56.4,28.8-110.3,6.6-132.2,36.5c-15.6,21.3,6.7,39.3-3.1,77.2c-12.6,48.9-65.8,81.1-74.4,86.3c-79.7,48.3-230.9,15-323.4-62.9
			C2355.8,1871.9,2432.2,1630.5,2282.5,1592.9z"/>
		<linearGradient id="SVGID_30_" gradientUnits="userSpaceOnUse" x1="2050.6416" y1="2917.5813" x2="2278.3782" y2="2611.9348">
			<stop  offset="0" style="stop-color:#444B8C"/>
			<stop  offset="0.9964" style="stop-color:#26264F"/>
		</linearGradient>
		<path class="st36" d="M2235.6,2823c-11.6-28.4-25.7-50.8-33.2-94.4c-10-57.7,2.4-90,19.9-223.7c12.5-95.3,10.3-110,2-124.3
			c-18.1-31.1-56.4-44.8-95.5-50.5c0.5,2,1.1,4,1.5,6c20.5,93.7-57.8,150.9-22.5,254c17.4,50.8,45.2,62.4,51.7,121.4
			c6.1,55.2-15.9,66.7-11.2,116.9c7,75,60.3,93.1,74.2,150.6c9,37.3,1.4,91.9-64.4,170.9c1.1,6.8,2.2,13.6,3.3,20.6
			c5,2.9,19.7,10.4,38.6,7.6c10.6-1.6,18.5-5.8,23.2-8.8C2279.5,2996.4,2262.8,2889.5,2235.6,2823z"/>
		<linearGradient id="SVGID_31_" gradientUnits="userSpaceOnUse" x1="2085.439" y1="1883.0348" x2="2591.3628" y2="2547.061">
			<stop  offset="0" style="stop-color:#FFC444"/>
			<stop  offset="0.9964" style="stop-color:#F36F56"/>
		</linearGradient>
		<path class="st37" d="M1967.8,1628c5.2-8,21.6-30.3,91.5-46.7c35-8.2,99.7-22.3,183-4.7c114.4,24.2,185.6,92.9,212.4,121.7
			c-22,14.3-82.5,57.9-112.5,140.6c-9.3,25.7-36.9,113.7,2.5,196.2c22.7,47.5,62.9,83.2,93.4,110.2c45.8,40.6,69.5,46.9,84.9,83.3
			c16.7,39.6-0.1,59,20.6,86.1c22.3,29.1,48.4,15.6,86.2,45.1c38.7,30.2,24.9,55,60.2,88.4c51.2,48.5,119.1,32.7,122.2,54.5
			c2.7,18.8-45.5,44.2-86.5,54.5c-81.2,20.4-151.9-13.9-173-24.4c-58.3-29.3-48.2-48.2-92.6-70.5c-74.4-37.4-125.2,4.2-294.7,8.5
			c-91.8,2.3-138.2,2.8-163.6-28.2c-23.2-28.4-11-59.5,2.9-193.5c0,0,0,0,0,0c4.5-44.8,13.9-138.5,13.9-191.9
			c0-31.6-10.9-83.1-32.8-186.3c-1.3-6.1-13.1-61.8-22.7-136.3C1954.5,1667.4,1955.7,1646.8,1967.8,1628z"/>
		<g class="st27">
			<linearGradient id="SVGID_32_" gradientUnits="userSpaceOnUse" x1="2392.9604" y1="1569.3613" x2="2523.3247" y2="2366.5906">
				<stop  offset="0" style="stop-color:#FFC444"/>
				<stop  offset="0.9964" style="stop-color:#F36F56"/>
			</linearGradient>
			<path class="st38" d="M2690,2448.2c-35.2-33.4-21.5-58.2-60.2-88.4c-37.8-29.5-63.9-15.9-86.2-45.1
				c-20.8-27.1-3.9-46.5-20.6-86.1c-15.4-36.4-39.1-42.6-84.9-83.3c-30.5-27.1-70.7-62.7-93.4-110.2
				c-39.4-82.4-11.9-170.4-2.5-196.2c30-82.7,90.6-126.4,112.5-140.6c-2.1-2.3-4.6-4.9-7.3-7.6c-144.6,19.9-229,103.4-239.4,128.2
				c-24.1,57.2,14.1,78.2,15,243.2c0.5,78.9-8,110,17.5,142.9c29.3,37.6,63,26,105.3,75.2c32.5,37.8,27.3,61.8,57.7,77.7
				c32.6,17.1,53.4-2.8,90.3,5c61.5,13.1,74.7,84,115.3,122.8c30.7,29.3,87.6,49.9,199.7,27.8c2.6-3.8,3.8-7.5,3.3-10.9
				C2809,2480.9,2741.2,2496.6,2690,2448.2z"/>
		</g>
		<linearGradient id="SVGID_33_" gradientUnits="userSpaceOnUse" x1="2247.8728" y1="1398.1208" x2="2121.3911" y2="1770.5378">
			<stop  offset="0" style="stop-color:#FFC444"/>
			<stop  offset="0.9964" style="stop-color:#F36F56"/>
		</linearGradient>
		<path class="st39" d="M2195.3,1487.2c0,0,7.3,58.3,28.8,71.7c21.5,13.4,56.3,30.8,60.1,35.5c3.8,4.7-133.3,19.5-201.3-14.8l0,0
			c22.4-4.7,28.5-6.4,28.5-6.4c6.1-1.7,17.4-4.9,28.8-11.4c7.7-4.4,20.2-13,31.6-29.3l-0.3-32.3L2195.3,1487.2z"/>
		<linearGradient id="SVGID_34_" gradientUnits="userSpaceOnUse" x1="2163.6428" y1="1495.3203" x2="2383.8894" y2="1362.7228">
			<stop  offset="0" style="stop-color:#FFC444"/>
			<stop  offset="0.9964" style="stop-color:#F36F56"/>
		</linearGradient>
		<path class="st40" d="M2198.6,1507.9c0,0-14,19.3-36,11.2c-19.7-7.2-7.9-58.1,7.7-63.9c5.2-1.9,14.8-1.1,21.2,2.9
			c4.5,2.8,16.5,17.7,9.6,34.5c5-1.4,9.4-0.1,10.5,2.3c1.4,3.1-2.8,7.4-3.8,8.3C2204.4,1506.6,2200.4,1507.6,2198.6,1507.9z"/>
		<linearGradient id="SVGID_35_" gradientUnits="userSpaceOnUse" x1="1932.1934" y1="1167.4066" x2="1913.4554" y2="1245.8715">
			<stop  offset="0" style="stop-color:#FFC444"/>
			<stop  offset="0.9964" style="stop-color:#F36F56"/>
		</linearGradient>
		<path class="st41" d="M1945.7,1239.8l32.1-16.4c0,0-67.9-4.3-84.3-28.9c-16.4-24.6-28.1-24.6-19.9-8.2c5.6,11.1,30,35.3,45.1,49.6
			C1926,1242.8,1936.8,1244.3,1945.7,1239.8z"/>
		<linearGradient id="SVGID_36_" gradientUnits="userSpaceOnUse" x1="2297.6609" y1="1829.5895" x2="2615.7664" y2="1829.5895">
			<stop  offset="0" style="stop-color:#FFC444"/>
			<stop  offset="0.9964" style="stop-color:#F36F56"/>
		</linearGradient>
		<path class="st42" d="M2299.6,1870.2c-14.3,30.5,51.6,101.4,124.8,135.1c14.9,6.9,122.1,56.2,169.9,8.8
			c39.5-39.2,14-120.1,4.9-149.1c-44.7-142-181.8-214.2-239.3-240.2c-42.9,107.3-17.6,155.1-7.7,170c10.4,15.6,39.4,48.3,70.2,77.2
			c21.7,20.3,35.1,30.2,33.3,33.3c-2.3,3.9-27.6-3.5-126.3-51.5C2318.1,1855.6,2304.5,1859.8,2299.6,1870.2z"/>
		<g>
			<linearGradient id="SVGID_37_" gradientUnits="userSpaceOnUse" x1="2120.8386" y1="2296.3643" x2="2145.8921" y2="2076.4485">
				<stop  offset="0" style="stop-color:#311944"/>
				<stop  offset="0.5554" style="stop-color:#6F2B60"/>
				<stop  offset="1" style="stop-color:#A03976"/>
			</linearGradient>
			<path class="st43" d="M2055.8,1692.2l174.5,16.3c3.7,0.3,6.7,2.9,7.7,6.4l65.1,227.4c1.7,6-3.1,11.9-9.4,11.3l-176-15.5
				c-3.7-0.3-6.8-2.9-7.8-6.5l-63.7-228.3C2044.7,1697.4,2049.5,1691.6,2055.8,1692.2z"/>
			<linearGradient id="SVGID_38_" gradientUnits="userSpaceOnUse" x1="2073.3313" y1="2290.9509" x2="2098.385" y2="2071.0349">
				<stop  offset="0" style="stop-color:#311944"/>
				<stop  offset="0.5554" style="stop-color:#6F2B60"/>
				<stop  offset="1" style="stop-color:#A03976"/>
			</linearGradient>
			<path class="st44" d="M2171.9,1888.9c-6.6-36,13.7-63.8-5.7-97.5c-20-34.7-55.1-28.8-80.3-57.4c-8-9.1-15.2-22-18.8-40.8
				l-11.3-1.1c-6.2-0.6-11.1,5.3-9.4,11.3l63.7,228.3c1,3.6,4.1,6.2,7.8,6.5l89.4,7.9C2184.5,1925.7,2175.1,1906,2171.9,1888.9z"/>
		</g>
		<linearGradient id="SVGID_39_" gradientUnits="userSpaceOnUse" x1="2273.5461" y1="1815.2552" x2="2362.1431" y2="2357.0613">
			<stop  offset="0" style="stop-color:#FFC444"/>
			<stop  offset="0.9964" style="stop-color:#F36F56"/>
		</linearGradient>
		<path class="st45" d="M2324.5,1863.1c0,0-60.1-61.5-84.6-70.6c-24.5-9.1-2.8,55.8,11.5,64.9c14.3,9.1,19.9,12.6,31.1,14
			c11.2,1.4,11.2,1.4,11.2,1.4l14.7,7.8C2308.5,1880.7,2327.3,1878.4,2324.5,1863.1z"/>
	</g>
</g>
</svg>
