<?xml version="1.0" encoding="utf-8"?>
<!-- Generator: Adobe Illustrator 19.0.0, SVG Export Plug-In . SVG Version: 6.00 Build 0)  -->
<svg version="1.1" id="Illustration" xmlns="http://www.w3.org/2000/svg" xmlns:xlink="http://www.w3.org/1999/xlink" x="0px"
	 y="0px" viewBox="0 0 3710 3710" style="enable-background:new 0 0 3710 3710;" xml:space="preserve">
<style type="text/css">
	.st0{fill:#F4F7FA;}
	.st1{fill:#BFC8D6;}
	.st2{opacity:0.3;fill:#BFC8D6;}
	.st3{fill:#D8DEE8;}
	.st4{opacity:0.3;fill:#D8DEE8;}
	.st5{fill:url(#SVGID_1_);}
	.st6{fill:url(#SVGID_2_);}
	.st7{fill:#FFFFFF;}
	.st8{clip-path:url(#SVGID_4_);}
	.st9{fill:#B7C0CE;}
	.st10{opacity:0.4;fill:#D8DEE8;}
	.st11{fill:#97A6B7;}
	.st12{fill:url(#SVGID_5_);}
	.st13{fill:url(#SVGID_6_);}
	.st14{fill:url(#SVGID_7_);}
	.st15{fill:url(#SVGID_8_);}
	.st16{fill:url(#SVGID_9_);}
	.st17{fill:url(#SVGID_10_);}
	.st18{fill:url(#SVGID_11_);}
	.st19{fill:url(#SVGID_12_);}
	.st20{fill:url(#SVGID_13_);}
	.st21{fill:url(#SVGID_14_);}
	.st22{fill:url(#SVGID_15_);}
	.st23{opacity:0.3;fill:url(#SVGID_16_);}
	.st24{fill:url(#SVGID_17_);}
	.st25{fill:url(#SVGID_18_);}
	.st26{fill:url(#SVGID_19_);}
	.st27{fill:url(#SVGID_20_);}
	.st28{fill:url(#SVGID_21_);}
	.st29{fill:url(#SVGID_22_);}
	.st30{fill:url(#SVGID_23_);}
	.st31{fill:url(#SVGID_24_);}
	.st32{fill:url(#SVGID_25_);}
	.st33{fill:url(#SVGID_26_);}
	.st34{fill:url(#SVGID_27_);}
	.st35{fill:url(#SVGID_28_);}
	.st36{fill:url(#SVGID_29_);}
	.st37{fill:url(#SVGID_30_);}
	.st38{fill:url(#SVGID_31_);}
	.st39{fill:url(#SVGID_32_);}
	.st40{fill:url(#SVGID_33_);}
	.st41{fill:url(#SVGID_34_);}
	.st42{fill:url(#SVGID_35_);}
	.st43{fill:url(#SVGID_36_);}
	.st44{fill:url(#SVGID_37_);}
	.st45{fill:url(#SVGID_38_);}
	.st46{opacity:0.3;fill:url(#SVGID_39_);}
	.st47{fill:url(#SVGID_40_);}
	.st48{fill:url(#SVGID_41_);}
	.st49{fill:url(#SVGID_42_);}
	.st50{fill:url(#SVGID_43_);}
	.st51{fill:url(#SVGID_44_);}
	.st52{fill:url(#SVGID_45_);}
	.st53{fill:url(#SVGID_46_);}
	.st54{fill:url(#SVGID_47_);}
	.st55{fill:url(#SVGID_48_);}
	.st56{fill:url(#SVGID_49_);}
	.st57{fill:url(#SVGID_50_);}
	.st58{opacity:0.2;}
	.st59{fill:url(#SVGID_51_);}
	.st60{opacity:0.9;}
	.st61{fill:url(#SVGID_52_);}
	.st62{opacity:0.8;}
	.st63{fill:url(#SVGID_53_);}
</style>
<g>
	<path class="st0" d="M3264.9,1624.2c-57.3-369.4-103.3-624.7-310.1-764.5c-348.9-235.9-738.5,147.1-1232.6-109.9
		c-243.3-126.5-252.4-273.3-458.5-292.7c-364.6-34.5-663.1,394.2-689,431c-157.2,223.4-209.7,495.7-146,755.4
		c41.4,168.7,69.4,343.2,61.7,516.5c-13.4,301.6-5.7,583.2,291.4,763.1c265.3,160.6,599.1,302.3,917.6,327.1
		c216.4,16.9,459.2-10.4,667.8-65.9C3430.3,2901.1,3343.7,2132.1,3264.9,1624.2z"/>
	<g>
		<g>
			<path class="st1" d="M2958.6,1105.7c-58.3,100.4-230.2,159.6-166.2,302.5c18.6,41.5,46.8,82.2,49.7,128.8
				c2.9,47.8-37.5,81.3-64.6,115.5c-28.5,35.8-49.1,73.4-52.4,119.9c-4.9,68.6,40.1,116.5,72.5,171.8
				c37.5,63.9,9.3,103.8-38.6,151.3c-102.4,101.7-37.3,259.5-52.2,384.6c-14.6,123.8-79.4,216.6-195.5,264.4
				c-56.4,23.2-117,35.4-177.3,42.7c-46.6,5.7-97.8,1.8-146,5.3c0,0-0.1,0-0.1,0c-6.9,0.5-13.7,2-20.4,2h0c-8.3,0-16.6,2.5-24.6,4.2
				c77.7-17.1,237.1-220.5,212.1-331.8c-25-111.3-89-191.9-13.1-301.2c75.9-109.2-0.8-118.9-73.1-235.7
				c-72.3-116.8-83.5-211.4,18.3-269.6c101.7-58.1,95.8-58.7,20.7-343.7c-75.2-285,200.3-502.2,367.2-543
				c42.8-10.4,109.5-3.8,149.3,15.2c7.1,3.4,13.9,7.2,20.6,11.5c26.9,17,50.9,40.7,70.9,68
				C2962.8,932.9,3002.5,1030.1,2958.6,1105.7z"/>
			<path class="st2" d="M2958.6,1105.7c-58.3,100.4-230.2,159.6-166.2,302.5c18.6,41.5,46.8,82.2,49.7,128.8
				c2.9,47.8-37.5,81.3-64.6,115.5c-28.5,35.8-49.1,73.4-52.4,119.9c-4.9,68.6,40.1,116.5,72.5,171.8
				c37.5,63.9,9.3,103.8-38.6,151.3c-102.4,101.7-37.3,259.5-52.2,384.6c-14.6,123.8-79.4,216.6-195.5,264.4
				c-56.4,23.2-117,35.4-177.3,42.7c-46.6,5.7-97.8,1.8-146,5.3c30-5.3,61.7-20.2,86.7-32.9c80.7-41,164.1-92.6,206.2-176
				c22-43.6,9.7-64.7-8.6-108.6c-28.2-67.8-39.8-142.1-5.3-211c33.8-67.6,87.1-132.4,85.2-211.9c-3-122.4-162.2-206.3-82.7-332.9
				c48.6-77.3,139.5-127.6,153.8-225.2c9.7-66.1-32.1-121-52.3-180.5c-21.5-63.3-21.9-131.8-10.8-197.3
				c32.6-190.8,165.6-277,284.5-315.8c26.9,17,50.9,40.7,70.9,68C2962.8,932.9,3002.5,1030.1,2958.6,1105.7z"/>
		</g>
		<g>
			<path class="st3" d="M3082.4,2087.6c-95.1,39.9-171,77.9-150.3,197.1c33.4,191.9-72.3,308.8-191.9,359.9
				c-115.5,49.4-404.9,116.5-539.9-4.3c-4.8-4.2-9.3-8.7-13.7-13.5c30.7-4.5,169.7,108.6,217-183.5
				c47.3-292.1,164.2-155.8,273.5-271.6c109.4-115.8-75.9-226.3-40.4-522.3c9.8-81,108.8-191.8,184.7-215.9
				c65.8-20.8,138.7-12.2,205.8,15.1c1.3,0.5,2.7,1.1,4,1.7c88.1,37,165.9,106.1,204,183.1
				C3316.3,1797.2,3260.4,2012.9,3082.4,2087.6z"/>
			<path class="st4" d="M3082.4,2087.6c-95.1,39.9-171,77.9-150.3,197.1c33.4,191.9-72.3,308.8-191.9,359.9
				c-115.5,49.4-404.9,116.5-539.9-4.3c57.4,20.3,126.9,34.6,186.3,27.7c84.9-9.8,163.4-73.9,212.1-141.4
				c40.2-55.7,65.8-120.4,105.4-176.5c27.5-38.9,69.2-64.2,97.1-102.4c27.1-37.2,44.6-82.1,59.7-125.3
				c18.9-54.1,24.1-110.9,20.7-167.9c-9.1-156-93.6-359.9,69.4-465.4c24.8-16.1,52.1-28.7,80.3-38.7c88.1,37,165.9,106.1,204,183.1
				C3316.3,1797.2,3260.4,2012.9,3082.4,2087.6z"/>
		</g>
	</g>
	<g>
		<g>
			<g>
				<g>
					<linearGradient id="SVGID_1_" gradientUnits="userSpaceOnUse" x1="3074.1846" y1="1830.8976" x2="441.7029" y2="1824.9429">
						<stop  offset="0" style="stop-color:#444B8C"/>
						<stop  offset="0.9964" style="stop-color:#26264F"/>
					</linearGradient>
					<path class="st5" d="M562.7,681.8v2295.4c0,34.3,33,53.4,71.4,42.7l19.2-5.3l6.3-1.8l1042.6-307.5
						c26.2-7.2,47.8-18.7,47.8-46.7V788.4c0-28-13.4-10.2-39.5-12.6l-20.6-1.2l-1031.5-142h0l-25.4-4.4
						C594.7,624.5,562.7,647.5,562.7,681.8z"/>
					<linearGradient id="SVGID_2_" gradientUnits="userSpaceOnUse" x1="601.6957" y1="1821.9851" x2="1785.4093" y2="1821.9851">
						<stop  offset="0" style="stop-color:#444B8C"/>
						<stop  offset="0.9964" style="stop-color:#26264F"/>
					</linearGradient>
					<path class="st6" d="M601.7,684.1v2284c0,30,25.4,48.1,57,45c4.4-0.4,9.5-1.4,14.1-2.7l1062.9-294.8
						c26-7.2,49.7-36.1,49.7-63.9V790.2c0-27.8-23.5-52.8-49.5-55.4l-44.9-4.4L674.1,630.6c-4.4-0.4-9.2,1.5-13.3,1.2
						c0,0,0.6,0,0.6,0C629.4,633.6,601.7,653.9,601.7,684.1z"/>
					<path class="st0" d="M1751.3,891.2V2624c0,26.1-19.9,52.9-44.4,59.5l-995.8,269.2c-35,9.5-63.9-8.6-63.9-40.2V813.9
						c0-31.6,28.9-55.2,63.9-52.5l995.8,78.8C1731.5,842.2,1751.3,865.1,1751.3,891.2z"/>
				</g>
				<path class="st7" d="M1271.5,750.5c0,10.6-8.7,18.4-19.5,17.5c-10.8-0.9-19.6-10.3-19.6-21c0-10.7,8.8-18.5,19.6-17.5
					C1262.8,730.5,1271.5,739.9,1271.5,750.5z"/>
				<path class="st4" d="M562.7,2730.4v246.8c0,34.3,33,53.4,71.4,42.7l19.2-5.3l6.3-1.8c4.4-0.4,9.1-1.3,13.7-2.6l1062.6-294.7
					c26-7.2,49.6-36,49.6-63.9V790.2c0-27.8-23.5-52.8-49.5-55.4l-44.9-4.4c0.9,14,0.8,28.3,1.2,42.6c0.6,22.5,0.3,45-0.1,66
					c-1,55.6-4.9,101.2-8.9,111c-76.3,187-313.4,223.9-417.7,402.7c-80.7,138.2-19.8,274,18,409.1
					c108.3,387.2-182.6,680.6-566.4,883c-24.1,12.7-47.3,25.3-69.8,37.8c-14.7,8.2-30.4,16.6-44.5,24.8
					C589.5,2715,576.9,2722.6,562.7,2730.4z"/>
			</g>
		</g>
		<g>
			<defs>
				<path id="SVGID_3_" d="M1751.3,891.2V2624c0,26.1-19.9,52.9-44.4,59.5l-995.8,269.2c-35,9.5-63.9-8.6-63.9-40.2V813.9
					c0-31.6,28.9-55.2,63.9-52.5l995.8,78.8C1731.5,842.2,1751.3,865.1,1751.3,891.2z"/>
			</defs>
			<clipPath id="SVGID_4_">
				<use xlink:href="#SVGID_3_"  style="overflow:visible;"/>
			</clipPath>
			<g class="st8">
				<g>
					<path class="st9" d="M916.7,2663.6c0,52.2,109.1,73.9,239.7,49.2c126.4-23.9,226-82.6,226-131.8s-99.6-72.6-226-51.7
						C1025.8,2551,916.7,2611.4,916.7,2663.6z"/>
					<path class="st7" d="M916.7,2652.5c0,49.3,109.1,68.8,239.7,44.4c126.4-23.6,226-79.9,226-126.4c0-46.5-99.6-106.6-226-86.3
						C1025.8,2505.1,916.7,2603.2,916.7,2652.5z"/>
					<path class="st10" d="M916.7,2652.5c0-49.3,109.1-147.4,239.7-168.3c58.9-9.4,111.8-1.4,151.6,14.4c2.8,5.3,4.1,10.7,3.5,16.2
						c-2.6,26.8-46.5,50.6-71.9,60.4c-64.8,24.9-96.9-7.4-151.6,3.3c-34.2,6.7-82.1,31.5-139.6,112
						C928.3,2681.3,916.7,2668.4,916.7,2652.5z"/>
					<path class="st7" d="M1143.6,2529.8c9.3,0.7,18-0.8,26.1-4.2c7.4-3,12.4-10.5,12.4-17.8l0-252.7l-51.7,6.8v254
						C1130.4,2523.6,1136,2529.2,1143.6,2529.8z"/>
					<path class="st11" d="M1143.6,2529.8c9.3,0.7,18-0.8,26.1-4.2c7.4-3,12.4-10.5,12.4-17.8l0-252.7l-51.7,6.8v254
						C1130.4,2523.6,1136,2529.2,1143.6,2529.8z"/>
					<g>
						
							<linearGradient id="SVGID_5_" gradientUnits="userSpaceOnUse" x1="2588.7651" y1="2371.7549" x2="2488.3818" y2="2240.9524" gradientTransform="matrix(-1 0 0 1 3458.3369 0)">
							<stop  offset="0" style="stop-color:#311944"/>
							<stop  offset="1" style="stop-color:#893976"/>
						</linearGradient>
						<path class="st12" d="M1420.6,2120.6l-74.6-38.3c-3.1-17.3-38.8-198.4-187.1-244.9c-61.9-19.4-129.7-11.4-167.4-7
							c-76.3,9-131.6,15.5-158.4,52.4c-34.8,47.7,23.4,83.1,11.4,211.8c-4.9,52.6-17.4,77.2-1.8,109.8c18.5,39,61.1,56.4,94,64.9
							c38.9,16.2,105.7,37.4,192.3,32.9c141.7-7.4,244.3-79.3,278.9-105.9c15.3-6.8,26.8-20.9,30-37
							C1441.2,2143.1,1434.3,2127.7,1420.6,2120.6z"/>
						
							<linearGradient id="SVGID_6_" gradientUnits="userSpaceOnUse" x1="2350.3196" y1="2082.1267" x2="2464.5527" y2="1779.3186" gradientTransform="matrix(-1 0 0 1 3458.3369 0)">
							<stop  offset="0" style="stop-color:#311944"/>
							<stop  offset="1" style="stop-color:#893976"/>
						</linearGradient>
						<path class="st13" d="M974.9,1842c-56.5,5.9-92,8.1-111.8,33.6c-20.9,26.9,0.2,46.6,4.1,135.9c3.5,81.3-11.9,115.3,16.4,157.4
							c0,0,14.3,21.3,36.8,35.8c78.5,50.6,274.2,24.7,353.8-106.7c62.3-102.9,36.5-242.2-37.4-283.5
							C1200.1,1794,1191.7,1819.2,974.9,1842z"/>
						
							<linearGradient id="SVGID_7_" gradientUnits="userSpaceOnUse" x1="2283.6731" y1="2126.5637" x2="2281.8315" y2="2283.094" gradientTransform="matrix(-1 0 0 1 3458.3369 0)">
							<stop  offset="0" style="stop-color:#311944"/>
							<stop  offset="1" style="stop-color:#893976"/>
						</linearGradient>
						<path class="st14" d="M1426,2078.1l-74.4-38.7c0,0-206.8-45.4-408.2,71.7c-23.2,13.5-37.7,37.7-37.7,62.2
							c0,18.8,12,34.2,30.4,39.2c35.9,18.7,105.2,47.8,198.7,45.4c144.3-3.7,248.3-80.3,278.5-104.2c15.3-6.7,26.7-20.7,30-36.8
							C1446.5,2100.7,1439.6,2085.2,1426,2078.1z"/>
					</g>
				</g>
				<g>
					<g>
						<g>
							
								<linearGradient id="SVGID_8_" gradientUnits="userSpaceOnUse" x1="5778.9531" y1="1230.0837" x2="6759.3291" y2="1895.999" gradientTransform="matrix(-1 0 0 1 7130.7905 0)">
								<stop  offset="0" style="stop-color:#311944"/>
								<stop  offset="1" style="stop-color:#6B3976"/>
							</linearGradient>
							<path class="st15" d="M1302.7,1561.9c16.7-11.4,1.5-41.8,0.6-108.4c-1.1-81.7,20.9-97.3,3.2-129.1
								c-21.7-39-76.8-54.9-113.8-55.5c-8.2-0.1-10.1-4.5-79.5,13.4c-128.2,32.9-160.9-1-220.2,34c-58.1,34.3-32.5,70.6-89.4,111.4
								c-93.8,67.3-194.7-0.4-264.8,56.7c-67.3,54.9-68.9,189.5,1.9,258.6c78.9,77,217.4,42.9,307.8,21
								c18.8-4.6,112.2-29,207.3-101.2c51.6-39.2,86.7-79.7,108.9-109.1c5.2-5.9,13.3-13,23.9-14.6c12.7-1.8,22.9,5.3,27.8,8.4
								C1242,1563.7,1286.2,1573.1,1302.7,1561.9z"/>
							
								<linearGradient id="SVGID_9_" gradientUnits="userSpaceOnUse" x1="-5541.4902" y1="1582.3047" x2="-5522.0122" y2="1895.3379" gradientTransform="matrix(1 0 0 1 6900.5054 0)">
								<stop  offset="0" style="stop-color:#AA80F9"/>
								<stop  offset="0.9964" style="stop-color:#6165D7"/>
							</linearGradient>
							<path class="st16" d="M1234.9,1519.7c21.8-20.2,98.7,14,148.8,60.8c58,54.2,53.6,100.6,103.6,167.8
								c24.6,33.1,18.6,162.6-48.1,124.6c-47-26.7-71.4-65.7-118.8-143.1C1272.3,1651.2,1207.5,1545.2,1234.9,1519.7z"/>
							
								<linearGradient id="SVGID_10_" gradientUnits="userSpaceOnUse" x1="5410.0327" y1="2552.8494" x2="5518.7651" y2="2552.8494" gradientTransform="matrix(-1 0 0 1 7130.7905 0)">
								<stop  offset="0" style="stop-color:#311944"/>
								<stop  offset="1" style="stop-color:#6B3976"/>
							</linearGradient>
							<path class="st17" d="M1698.7,2547.9l-54.3-24.1l-24.8,4.4c0,0-8.5,33.9-7.5,35.3c11.1,16.6,62.3,21.3,93.8,16.7
								c5.2-0.8,12.5-2.1,14.4-6.4C1723.5,2566.6,1709.3,2555.2,1698.7,2547.9z"/>
							
								<linearGradient id="SVGID_11_" gradientUnits="userSpaceOnUse" x1="5463.7324" y1="2590.8259" x2="5609.46" y2="2153.6414" gradientTransform="matrix(-1 0 0 1 7130.7905 0)">
								<stop  offset="0" style="stop-color:#FFC444"/>
								<stop  offset="0.9964" style="stop-color:#F36F56"/>
							</linearGradient>
							<path class="st18" d="M1643.4,2487c-3.5,21.6,0.9,31.7,5.7,37c3.4,3.7,6.4,4.4,26.3,18.7c6.6,4.7,9.9,7.2,9.1,9
								c-0.9,2-6.7,2.1-19.2,1.2c-27.5-1.9-41.3-2.9-44.7-9.2c-3.1-5.7-0.4-8.9-0.5-25.8c-0.1-11.1-2.3-19.7-4.1-25
								C1625.2,2491,1634.3,2489,1643.4,2487z"/>
							
								<linearGradient id="SVGID_12_" gradientUnits="userSpaceOnUse" x1="5427.1279" y1="2345.6941" x2="5493.5537" y2="2345.6941" gradientTransform="matrix(-1 0 0 1 7130.7905 0)">
								<stop  offset="0" style="stop-color:#311944"/>
								<stop  offset="1" style="stop-color:#6B3976"/>
							</linearGradient>
							<path class="st19" d="M1682.8,2315c0,0,24.4,26.5,20.4,60.2c-4,33.7-46.9-8-52.9-23.5c-6-15.5-13.1-37.9-13.1-37.9
								S1667.5,2289.8,1682.8,2315z"/>
							
								<linearGradient id="SVGID_13_" gradientUnits="userSpaceOnUse" x1="5390.1631" y1="2523.4009" x2="5495.9199" y2="2206.1287" gradientTransform="matrix(-1 0 0 1 7130.7905 0)">
								<stop  offset="0" style="stop-color:#FFC444"/>
								<stop  offset="0.9964" style="stop-color:#F36F56"/>
							</linearGradient>
							<path class="st20" d="M1673.4,2269c0,0-6.7,36.2,6,53c6.3,8.3,14.8,14.9,12.3,22.8c-1.7,5.3-8,9.9-13.4,10.2
								c-10.3,0.5-16.1-15.1-20.2-26c-6-16.2-9.4-52.4-9.4-52.4L1673.4,2269z"/>
							
								<linearGradient id="SVGID_14_" gradientUnits="userSpaceOnUse" x1="5524.4673" y1="1980.2433" x2="5605.7046" y2="2449.8965" gradientTransform="matrix(-1 0 0 1 7130.7905 0)">
								<stop  offset="0" style="stop-color:#AB316D"/>
								<stop  offset="1" style="stop-color:#792D3D"/>
							</linearGradient>
							<path class="st21" d="M1653.8,2301.6c7.6-4,15.1-7.9,22.7-11.8c11.7-29.4,26-76.9,21.3-131.6
								c-12.3-140.9-141.8-203.7-156.4-210.5c-36.2,22-73.2,51.8-74.6,84.9c-1.7,41.6,54,57.1,105.6,110.8
								C1603,2175.3,1635.5,2224.1,1653.8,2301.6z"/>
							
								<linearGradient id="SVGID_15_" gradientUnits="userSpaceOnUse" x1="5665.9565" y1="2553.9866" x2="5779.6655" y2="2194.1167" gradientTransform="matrix(-1 0 0 1 7130.7905 0)">
								<stop  offset="0" style="stop-color:#AB316D"/>
								<stop  offset="1" style="stop-color:#792D3D"/>
							</linearGradient>
							<path class="st22" d="M1645.7,2503c25-105.1,18.7-186.3,11.4-232.7c-10.9-70.3-33.3-213.8-129.7-258.3
								c-21.4-9.9-52.2-17.6-90.1-47.7c-31.9-25.4-52.4-53.5-64.7-73.6c-138.6-28.3-270.9-0.8-330.7,79.9
								c-7,9.4-24.5,30.1-27.9,58.5c-7.7,64.1,57.4,132.7,129.3,139.9c89.4,8.9,140.4-85.3,217-64.8c21.1,5.7,39,23.6,74.4,59.2
								c44.6,44.8,69.4,87.9,78.8,105.1c27.7,51.1,48.6,88.4,51.7,140.3c0.7,12.1,1.1,36.7,15.1,60.9c10.7,18.5,25.2,29.6,35.9,36.1
								C1626,2504.9,1635.8,2504,1645.7,2503z"/>
							
								<linearGradient id="SVGID_16_" gradientUnits="userSpaceOnUse" x1="5673.2422" y1="2530.8901" x2="5783.1309" y2="2183.1113" gradientTransform="matrix(-1 0 0 1 7130.7905 0)">
								<stop  offset="0" style="stop-color:#AB316D"/>
								<stop  offset="1" style="stop-color:#792D3D"/>
							</linearGradient>
							<path class="st23" d="M1013.9,2029.1c3.4-28.4,20.9-49.1,27.9-58.5c59.8-80.7,192.1-108.2,330.7-79.9
								c12.4,20.1,32.8,48.2,64.7,73.6c37.9,30.1,68.7,37.8,90.1,47.7c59.2,27.3,90.4,91.5,108.2,153.3
								c-26.5-38.8-49.3-47.3-67-45.4c-25.5,2.8-37,26.5-67.8,27.2c-33.2,0.8-40.9-26.1-68.1-26c-8.2,0-18.3,2.5-30.4,10.4
								c-16.3-15.1-28.5-23.7-42-27.3c-76.6-20.5-127.5,73.8-217,64.8C1071.4,2161.8,1006.3,2093.2,1013.9,2029.1z"/>
							
								<linearGradient id="SVGID_17_" gradientUnits="userSpaceOnUse" x1="5822.7847" y1="1938.6141" x2="5924.1401" y2="2524.5767" gradientTransform="matrix(-1 0 0 1 7130.7905 0)">
								<stop  offset="0" style="stop-color:#AB316D"/>
								<stop  offset="1" style="stop-color:#792D3D"/>
							</linearGradient>
							<path class="st24" d="M1579.5,2052.2c-14.6,0.8-37.2,2.9-64.7,8.7c-133.1,28.2-170.7,99.4-285.4,130
								c-27.6,7.4-153.2,40.8-208.8-23.1c-40.4-46.5-34.3-135.4,9.8-174.3c18.5-16.4,36.8-17.7,152.9-27.7
								c42.9-3.7,85.2-7.6,127.2-11c172.6-14.2,204.8-29,235.1-3.9C1559.6,1962.4,1580.1,1988.2,1579.5,2052.2z"/>
							<g>
								<g>
									
										<linearGradient id="SVGID_18_" gradientUnits="userSpaceOnUse" x1="5683.0239" y1="1636.21" x2="6506.7466" y2="1937.8552" gradientTransform="matrix(-1 0 0 1 7130.7905 0)">
										<stop  offset="0" style="stop-color:#AA80F9"/>
										<stop  offset="0.9964" style="stop-color:#6165D7"/>
									</linearGradient>
									<path class="st25" d="M1215.3,1527.6c0,0-217-53.1-240.1,102.7c-22.4,150.2,90.9,209.8,39.8,363.6
										c-6,18,401.6-97.7,401.6-97.7c-52-60.2-64.2-112.8-65.4-150c-1.4-40.7,10.5-60,0-107.7c0,0-11.7-53.3-54.4-97.9
										C1290.5,1534.3,1283.1,1527.6,1215.3,1527.6z"/>
								</g>
								
									<linearGradient id="SVGID_19_" gradientUnits="userSpaceOnUse" x1="1058.1611" y1="1846.722" x2="1556.8015" y2="2029.3229">
									<stop  offset="0" style="stop-color:#AA80F9"/>
									<stop  offset="0.9964" style="stop-color:#6165D7"/>
								</linearGradient>
								<path class="st26" d="M1077.3,1954.1c0,0,199.9-69.6,314.4-85.7L1077.3,1954.1z"/>
							</g>
							<g>
								
									<linearGradient id="SVGID_20_" gradientUnits="userSpaceOnUse" x1="-3808.1316" y1="2597.177" x2="-3798.9861" y2="2353.5723" gradientTransform="matrix(0.984 0.1784 -0.1784 0.984 5382.3545 -244.2395)">
									<stop  offset="0" style="stop-color:#FFC444"/>
									<stop  offset="0.9964" style="stop-color:#F36F56"/>
								</linearGradient>
								<path class="st27" d="M1169.1,1438.7c2,8.8,11.9,55.9-8.2,68.8c-4.4,2.8-12.8,4.6-29.6,8.3c-11.1,2.4-20.4,4-27,5
									c1,8,3.8,20.9,13.4,32.4c26.9,32,80.2,21,87.7,19.4c26.5-5.9,52.4-15,58.6-20.1c9.5-7.8,16.9-13.6,21.3-19.4
									c-10.1-4.4-30.6-16.2-44.4-19.9c-10.3-2.7-20.1-4.6-28.9-5.8c-1.5-9.1-2.9-18.1-4.4-27.2
									C1195,1466.4,1182.1,1452.6,1169.1,1438.7z"/>
								
									<linearGradient id="SVGID_21_" gradientUnits="userSpaceOnUse" x1="-3809.9153" y1="2380.7756" x2="-3813.8125" y2="2694.7715" gradientTransform="matrix(0.984 0.1784 -0.1784 0.984 5382.3545 -244.2395)">
									<stop  offset="0" style="stop-color:#FFC444"/>
									<stop  offset="0.9964" style="stop-color:#F36F56"/>
								</linearGradient>
								<path class="st28" d="M1168.2,1462.4c0,0,3.6,34.7,38.4,39.6c30.9,4.3,54-68.9,38.3-87.2c-5.2-6.1-18.2-11.8-29.5-11.2
									c-8,0.4-34.9,11-38.7,37.4c-5.4-5.4-12.1-6.8-15.5-4.4c-4.2,3.1-2,11.5-1.4,13.4C1161.5,1456.7,1166,1460.7,1168.2,1462.4z"
									/>
							</g>
						</g>
					</g>
					<g>
						
							<linearGradient id="SVGID_22_" gradientUnits="userSpaceOnUse" x1="-5874.9863" y1="877.9441" x2="-5853.5278" y2="1222.8165" gradientTransform="matrix(0.9933 -0.1159 0.1159 0.9933 6683.0708 89.9445)">
							<stop  offset="0" style="stop-color:#AA80F9"/>
							<stop  offset="0.9964" style="stop-color:#6165D7"/>
						</linearGradient>
						<path class="st29" d="M1167.7,1924.6c4.3-11.3,8.5-22.5,12.7-33.7c-47.2-8.5-113.4-21.7-182.4-39.6
							c-10.9-2.8-23.9-6.4-28.2-17c-12-29.7,63.7-66.7,92.8-134.7c26.7-62.5,12-146.4-19.1-155.1C978,1526,736.8,1819,824.6,1931
							C873.4,1993.3,1020.3,1989.8,1167.7,1924.6z"/>
					</g>
					
						<linearGradient id="SVGID_23_" gradientUnits="userSpaceOnUse" x1="1906.2406" y1="1789.8148" x2="2236.7534" y2="1789.8148" gradientTransform="matrix(-1 0 0 1 3458.3369 0)">
						<stop  offset="0" style="stop-color:#40447E"/>
						<stop  offset="0.9964" style="stop-color:#3C3B6B"/>
					</linearGradient>
					<path class="st30" d="M1222.2,1950.6l66.6-255.8c1.6-6.2,6.5-11.3,12.7-13.2l229.9-72.1c12.4-3.9,23.5,7.1,20.1,19.7
						l-69.7,261.4c-1.7,6.3-6.7,11.5-12.9,13.3l-225.7,66.4C1230.1,1974,1218.8,1963.5,1222.2,1950.6z"/>
					
						<linearGradient id="SVGID_24_" gradientUnits="userSpaceOnUse" x1="-5646.8765" y1="1885.2521" x2="-5772.3237" y2="2003.47" gradientTransform="matrix(1 0 0 1 6900.5054 0)">
						<stop  offset="0" style="stop-color:#FFC444"/>
						<stop  offset="0.9964" style="stop-color:#F36F56"/>
					</linearGradient>
					<path class="st31" d="M1180.4,1890.9c29.3-17.6,64.2-5.1,66.4-4.2c6.4,2.4,15.6,6.8,24.9,15.3c1.1,1.3,13.5,17.1,9,23
						c-3.6,4.7-17.8,2.4-34.8-6.5c-7.2-0.3-17.8-0.3-30.7,2c-23.7,4.2-34.6,12.5-43.2,7c-6.4-4-8.5-13.6-6.2-21.1
						C1168.2,1898.4,1175.5,1893.9,1180.4,1890.9z"/>
				</g>
			</g>
		</g>
	</g>
	<g>
		<g>
			<linearGradient id="SVGID_25_" gradientUnits="userSpaceOnUse" x1="2958.9634" y1="2655.9878" x2="3029.3118" y2="2655.9878">
				<stop  offset="0" style="stop-color:#444B8C"/>
				<stop  offset="0.9964" style="stop-color:#26264F"/>
			</linearGradient>
			<path class="st32" d="M3029.3,2490.7l-22,309.3c-1.5,12.2-11.8,21.3-24.1,21.3l0,0c-13.4,0-24.3-10.9-24.3-24.3v-271.3
				L3029.3,2490.7z"/>
			<linearGradient id="SVGID_26_" gradientUnits="userSpaceOnUse" x1="1977.604" y1="3060.4907" x2="2052.8889" y2="3060.4907">
				<stop  offset="0" style="stop-color:#444B8C"/>
				<stop  offset="0.9964" style="stop-color:#26264F"/>
			</linearGradient>
			<path class="st33" d="M2052.9,2888.1l-23.5,321.9c-1.6,13-12.7,22.8-25.8,22.8l0,0c-14.3,0-26-11.6-26-26v-281.3L2052.9,2888.1z"
				/>
			<linearGradient id="SVGID_27_" gradientUnits="userSpaceOnUse" x1="1203.7721" y1="2969.0378" x2="1279.0571" y2="2969.0378">
				<stop  offset="0" style="stop-color:#444B8C"/>
				<stop  offset="0.9964" style="stop-color:#26264F"/>
			</linearGradient>
			<path class="st34" d="M1279.1,2796.7l-23.6,321.9c-1.6,13-12.7,22.8-25.8,22.8l0,0c-14.3,0-26-11.6-26-26v-281.3L1279.1,2796.7z"
				/>
			<linearGradient id="SVGID_28_" gradientUnits="userSpaceOnUse" x1="1731.3846" y1="2463.2361" x2="3256.0469" y2="2463.2361">
				<stop  offset="0" style="stop-color:#AA80F9"/>
				<stop  offset="0.9964" style="stop-color:#6165D7"/>
			</linearGradient>
			<path class="st35" d="M3254.1,2000.2L3076.5,2503c-9.9,27.9-31.3,50.1-58.9,60.9l-1068.3,418c-13.7,5.4-28.6,7.2-43.2,5.4
				l-174.7-21.8l1137.3-747.6l136-279.5l220.8,17.7C3247.2,1957.8,3261.4,1979.7,3254.1,2000.2z"/>
			
				<linearGradient id="SVGID_29_" gradientUnits="userSpaceOnUse" x1="1084.7743" y1="2687.0537" x2="2889.613" y2="2687.0537" gradientTransform="matrix(-1 0 0 1 4044.8352 0)">
				<stop  offset="0" style="stop-color:#AA80F9"/>
				<stop  offset="0.9964" style="stop-color:#6165D7"/>
			</linearGradient>
			<path class="st36" d="M1243.9,2741.1l1019.5-328.3l326.3-24.2l370.4,85.5l-949,358.1c-49.8,18.8-82.7,66.4-82.7,119.7l0,0
				c0,20.2-17.8,35.8-37.9,33.2l-707.7-93.3c-16.1-2.1-27.9-16-27.5-32.2l0,0C1156.6,2805.3,1192.1,2757.7,1243.9,2741.1z"/>
			
				<linearGradient id="SVGID_30_" gradientUnits="userSpaceOnUse" x1="810.4046" y1="2186.1394" x2="1789.3553" y2="2186.1394" gradientTransform="matrix(-1 0 0 1 4044.8352 0)">
				<stop  offset="0" style="stop-color:#AA80F9"/>
				<stop  offset="0.9964" style="stop-color:#6165D7"/>
			</linearGradient>
			<path class="st37" d="M3233.3,1956l1.1,0.9c-60.6-4.7-116.5,32.6-135.6,90.2L2959,2469.6l-703.5-56.3l170.3-417.3
				c24.3-59.6,84-97,148.2-92.9L3233.3,1956z"/>
		</g>
		<path class="st4" d="M2695.2,2005.3c66.9-14.3,157.6-2,211,59.8c59.7,69,53.4,177.1,14.1,242.7
			c-23.1,38.5-175.9,144.2-175.9,144.2s-238.4,105.2-267.3,116.1c-180.2,67.9-222.7-2.7-351.7,56.3
			c-124,56.7-119.4,137.7-274.4,193.5c-52.7,19-130.3,37.3-140.7,17.6c-9.2-17.5,37.8-59.6,77.4-95c43.8-39.2,89.4-79.9,168.8-123.1
			c160.1-87.1,229.8-31.1,323.6-105.5c43.4-34.4,35.1-50.4,105.5-168.8C2495.3,2158.4,2570.5,2032,2695.2,2005.3z"/>
		<g>
			
				<linearGradient id="SVGID_31_" gradientUnits="userSpaceOnUse" x1="2232.519" y1="2748.6003" x2="2336.4897" y2="2748.6003" gradientTransform="matrix(-1 0 0 1 4044.8352 0)">
				<stop  offset="0" style="stop-color:#311944"/>
				<stop  offset="1" style="stop-color:#6B3976"/>
			</linearGradient>
			<path class="st38" d="M1810.2,2711.5c0,0-17.7-10.6-39,3.5c-21.2,14.2-92.1,70.8-49.6,74.4
				C1764.2,2792.9,1824.4,2739.8,1810.2,2711.5z"/>
			
				<linearGradient id="SVGID_32_" gradientUnits="userSpaceOnUse" x1="2211.9844" y1="2784.502" x2="2311.0601" y2="2784.502" gradientTransform="matrix(-1 0 0 1 4044.8352 0)">
				<stop  offset="0" style="stop-color:#311944"/>
				<stop  offset="1" style="stop-color:#6B3976"/>
			</linearGradient>
			<path class="st39" d="M1831.5,2750.4c0,0,7.1,24.8-10.6,39c-17.7,14.2-72.7,45.9-81.4,39c-17.7-14.2,10.6-49.6,28.3-60.2
				C1785.4,2757.5,1817.3,2722.1,1831.5,2750.4z"/>
			
				<linearGradient id="SVGID_33_" gradientUnits="userSpaceOnUse" x1="1605.6945" y1="2517.7827" x2="2266.5286" y2="2517.7827" gradientTransform="matrix(-1 0 0 1 4044.8352 0)">
				<stop  offset="0" style="stop-color:#311944"/>
				<stop  offset="1" style="stop-color:#6B3976"/>
			</linearGradient>
			<path class="st40" d="M2327.2,2318.4c-5.6,2-12.1,6.6-17.7,17.7c-32.7-1.8-80.5-3.1-138.1,0c-95.5,5.2-143.3,7.8-194.8,28.3
				c-20.4,8.2-157.9,63.1-191.2,198.3c-16.9,68.6,0.4,127.9,10.6,155.8c7.1,0,14.2,0,21.2,0c36-127.4,97.6-179.1,134.6-201.8
				c55.2-33.9,126.1-39.6,265.6-49.6c154.5-11.1,208.1-0.4,219.6-28.3C2453.8,2397.8,2367.3,2304.5,2327.2,2318.4z"/>
			
				<linearGradient id="SVGID_34_" gradientUnits="userSpaceOnUse" x1="1865.0538" y1="2755.627" x2="1921.7129" y2="2440.4609" gradientTransform="matrix(-1 0 0 1 4044.8352 0)">
				<stop  offset="0" style="stop-color:#311944"/>
				<stop  offset="1" style="stop-color:#6B3976"/>
			</linearGradient>
			<path class="st41" d="M2500.7,2463.6c-10,17.2-27.6,41.9-56.7,60.2c-105,65.9-216.5-42.3-340,14.2
				c-29.8,13.6-62.3,46.8-127.5,113.3c-64.8,66.1-111.4,128.6-152.3,116.9c-8.2-2.4-14.1-7.1-17.7-10.6
				c18.4-66.8,58.3-170.3,148.7-262c32.9-33.4,82.3-82.5,162.9-113.3c122.2-46.8,233.3-20,276.2-7.1
				C2429.9,2404.6,2465.3,2434.1,2500.7,2463.6z"/>
			
				<linearGradient id="SVGID_35_" gradientUnits="userSpaceOnUse" x1="1779.9434" y1="1984.8683" x2="1598.1628" y2="2360.2336" gradientTransform="matrix(-1 0 0 1 4044.8352 0)">
				<stop  offset="0" style="stop-color:#FF9085"/>
				<stop  offset="1" style="stop-color:#FB6FBB"/>
			</linearGradient>
			<path class="st42" d="M2493.7,1936c-28.8,1.4-71.1,7.6-113.3,31.9c-61.6,35.5-62.1,74.5-113.3,92.1
				c-53.2,18.3-115.6-2.3-155.8-35.4c-32-26.3-46.7-57.7-53.1-74.4c-10.6,2.4-21.2,4.7-31.9,7.1c1.2,32.8,8.8,108.1,63.7,162.9
				c107.9,107.7,339.8,78.4,400.2-39C2516.2,2030.4,2505.3,1972.8,2493.7,1936z"/>
			
				<linearGradient id="SVGID_36_" gradientUnits="userSpaceOnUse" x1="2027.254" y1="2020.8905" x2="1994.203" y2="1520.4028" gradientTransform="matrix(-1 0 0 1 4044.8352 0)">
				<stop  offset="0" style="stop-color:#FFC444"/>
				<stop  offset="0.9964" style="stop-color:#F36F56"/>
			</linearGradient>
			<path class="st43" d="M2055.7,1961.4c0,0-29.2,29.7-66.6,28.9c-6.4-0.1-9.6-7.8-5.3-12.5c10.4-11.1,28.4-27.8,47.6-35.2
				c5.4-2.1,7.7-8.4,5.3-13.6c-4.1-8.6-8.4-20-4.5-24.5c0,0,6.3-3.5,15.2,17.3C2051,1930.1,2068.8,1946,2055.7,1961.4z"/>
			
				<linearGradient id="SVGID_37_" gradientUnits="userSpaceOnUse" x1="1621.0129" y1="1907.9019" x2="1439.2321" y2="2283.2681" gradientTransform="matrix(-1 0 0 1 4044.8352 0)">
				<stop  offset="0" style="stop-color:#FF9085"/>
				<stop  offset="1" style="stop-color:#FB6FBB"/>
			</linearGradient>
			<path class="st44" d="M2837.1,2042.2c-22.3-23.6-85.1-83.7-187.7-106.2c-107.8-23.7-193.7,8.7-223.1,21.2
				c-7.8,19.4-19,50-28.3,88.5c-19.7,81.3-11,115.7-28.3,166.4c-10.8,31.7-33.7,75.6-88.5,120.4c35.1,18.4,79.5,46.5,123.9,88.5
				c30,28.4,53.2,56.7,70.8,81.4c46.5-10,110.8-31,173.5-77.9C2823.1,2294.9,2835.6,2078.5,2837.1,2042.2z"/>
			
				<linearGradient id="SVGID_38_" gradientUnits="userSpaceOnUse" x1="1464.7299" y1="2058.0383" x2="1431.6785" y2="1557.5474" gradientTransform="matrix(-1 0 0 1 4044.8352 0)">
				<stop  offset="0" style="stop-color:#FFC444"/>
				<stop  offset="0.9964" style="stop-color:#F36F56"/>
			</linearGradient>
			<path class="st45" d="M2599.9,2088.2c0,0-17.7-67.3-31.9-74.4c-14.2-7.1-7.1,63.7,3.5,74.4
				C2582.2,2098.8,2599.9,2105.9,2599.9,2088.2z"/>
			
				<linearGradient id="SVGID_39_" gradientUnits="userSpaceOnUse" x1="1625.7479" y1="1910.1937" x2="1443.9667" y2="2285.5608" gradientTransform="matrix(-1 0 0 1 4044.8352 0)">
				<stop  offset="0" style="stop-color:#FF9085"/>
				<stop  offset="1" style="stop-color:#FB6FBB"/>
			</linearGradient>
			<path class="st46" d="M2412.2,2375.1c33.3-13,53.9-45,63.7-60.2c43-66.7,14.6-108.8,46-134.6c40.2-33,97.5,7.6,194.8-3.5
				c41.4-4.8,77.1-17.9,106.4-33.1c-19.1,83.8-64.6,199.4-173.7,281c-62.8,46.9-127,67.9-173.5,77.9c-17.7-24.8-40.8-53.1-70.8-81.4
				c-16.8-15.9-33.6-29.8-49.9-42C2375.5,2382.9,2394.9,2381.8,2412.2,2375.1z"/>
			
				<linearGradient id="SVGID_40_" gradientUnits="userSpaceOnUse" x1="1488.3398" y1="2215.1995" x2="1136.5831" y2="2186.8701" gradientTransform="matrix(-1 0 0 1 4044.8352 0)">
				<stop  offset="0" style="stop-color:#FF9085"/>
				<stop  offset="1" style="stop-color:#FB6FBB"/>
			</linearGradient>
			<path class="st47" d="M2748.6,2102.4c-10.9-31.4-6.4-61.5,10.6-74.4c26.5-20,72.4,10.5,77.9,14.2c63.1,41.9,82,141.7,60.2,219.6
				c-7.1,25.4-18.7,66.9-56.7,92.1c-60.7,40.3-148.9,12-198.3-28.3c-63.9-52.2-88.5-145.4-63.7-237.3c4.7,0,9.4,0,14.2,0
				c20,32.6,100,159.7,138.1,145.2C2738.9,2230.4,2760.4,2215.3,2748.6,2102.4z"/>
			<g>
				
					<linearGradient id="SVGID_41_" gradientUnits="userSpaceOnUse" x1="-400.2671" y1="2588.4172" x2="-391.2434" y2="2348.0557" gradientTransform="matrix(0.917 0.3988 -0.3988 0.917 3985.3411 -184.8945)">
					<stop  offset="0" style="stop-color:#FFC444"/>
					<stop  offset="0.9964" style="stop-color:#F36F56"/>
				</linearGradient>
				<path class="st48" d="M2616.3,1837.6c0.2,22.9-2.4,41-4.8,53.5c-2.3,11.9-3.3,15.6-6,19.1c-8.7,11.5-28.3,17.7-43.8,18.2
					c-5.6,0.2-17.7-0.3-20.3,5.6c0,0-0.1,0.2-0.2,0.5c-2.1,6.4,25.8,28.4,49.8,38.7c51.2,22.1,115.4,4.5,116.9-10.6
					c1.3-13.2-45.7-17.5-54.3-49.3c-4.3-16,3-31.8,9.2-42C2654.7,1855.9,2624.4,1852.9,2616.3,1837.6z"/>
				<g>
					
						<linearGradient id="SVGID_42_" gradientUnits="userSpaceOnUse" x1="3077.47" y1="2118.3901" x2="3013.3943" y2="1955.6494" gradientTransform="matrix(0.9986 5.310000e-002 -5.310000e-002 0.9986 -281.8527 -323.463)">
						<stop  offset="0" style="stop-color:#311944"/>
						<stop  offset="1" style="stop-color:#6B3976"/>
					</linearGradient>
					<path class="st49" d="M2582.2,1828.4c2.3-6.9,8.2-7.4,10.4-15.8c2.5-9.8-4.2-14.5-1.8-20.3c4.2-10.3,31-9.6,47.5-6.9
						c18.3,3,38.6,6.4,49,23.6c10.1,16.7,8.1,41.8-2.7,48.6c-5.9,3.7-10.8-0.3-20.4,2.5c-12.2,3.5-19.9,14.5-24.5,23.7
						c-0.7-3.8-1.9-8.4-3.8-13.5c-3.7-9.8-5.2-14.9-8.5-16.1c-6.7-2.4-11.6,10.5-21.4,10.5
						C2592.9,1864.7,2577.6,1842.2,2582.2,1828.4z"/>
					
						<linearGradient id="SVGID_43_" gradientUnits="userSpaceOnUse" x1="-1638.433" y1="1855.0161" x2="-1641.1091" y2="2070.6279" gradientTransform="matrix(-0.9935 -0.114 -0.114 0.9935 1221.2913 -192.6872)">
						<stop  offset="0" style="stop-color:#FFC444"/>
						<stop  offset="0.9964" style="stop-color:#F36F56"/>
					</linearGradient>
					<path class="st50" d="M2656.7,1874.1c0,0-13.9,20.5-39.6,17.6c-22.9-2.6-23.7-54.4-8.5-64.6c5.1-3.4,15-4.4,22.8-1.8
						c4.6,1.6,6.1,3.6,13.8,6c7.1,2.2,9.1,1.5,11.2,3.4c2.6,2.4,4.3,8.1-1,22.9c4.6-4.2,10-5.7,13.6-3.7c0.6,0.3,2.1,1.5,2.9,3.1
						C2674.9,1863,2669.2,1870.3,2656.7,1874.1z"/>
				</g>
			</g>
		</g>
	</g>
	<g>
		<linearGradient id="SVGID_44_" gradientUnits="userSpaceOnUse" x1="2384.2485" y1="1429.6844" x2="1661.1903" y2="2588.7048">
			<stop  offset="3.597120e-003" style="stop-color:#E38DDD"/>
			<stop  offset="1" style="stop-color:#9571F6"/>
		</linearGradient>
		<path class="st51" d="M2003.8,1429.2c22.1-125.5,190.1-170.5,270.8-178.6c16.7-1.7,212-18,315,129.5
			c73.2,104.9,80,265.4,16.7,315.3c-29.9,23.5-71.2,19.2-95.3,58c-17.1,27.5-15,59.9-10.9,81.8c-23.9-15.4-56.4-40.8-82.7-80.8
			c-23.6-35.9-20.5-50.5-38.4-66.3c-43.8-38.6-108.3,8.2-179.1-0.9C2098.1,1674.2,1983.2,1546.1,2003.8,1429.2z"/>
		<path class="st7" d="M2179.8,1407.2c-16.7,25.9-22.6,61.4-24.3,90.4c-1.7,30.4,12.7,56.8,43.7,64.4c12.7,3.1,25.4,2.5,37.7-0.5
			c-5,4.5-13.5,10.6-14.4,16.7c-0.9,6,6.1,8.6,11,9.2c10.5,1.2,22.2-3.6,32.7-9.5c11.7,13.4,25.9,24.6,41.5,33.5
			c33.9,19.2,76.6,30.2,115,19c18.6-5.4,35.6-16,46.5-32.3c10.2-15.3,14.8-33.8,16.2-52.1c15.4-1.9,31.6-5.6,42.4-16.9
			c11.9-12.3,11.6-30.6,6.1-45.8c-2.8-7.7-6.6-15-11.1-22c0.2-0.2,0.4-0.4,0.6-0.6c3.9,6.5,7.6,13.2,10.8,20.1
			c11.4,23.9,20.9,51.5,15.2,78.2c-2.6,12.1-8.6,23.2-18.2,31.1c-9.9,8.1-22.2,9.7-33,15.7c-18,10-9.3,28.4,0.6,41.1
			c8.9,11.5,20.8,27.6,12.4,42.6c-7,12.3-22.7,17-35.6,19.9c-1.1,0.2-0.7,1.9,0.4,1.7c15.4-3.3,35.8-9.7,39.8-27.3
			c5-21.8-16.3-34.7-23.3-52.6c-7-17.9,8.7-23.3,22-28.2c9.4-3.4,17.9-8.1,24.8-15.5c13.3-14.5,17-35,15.4-54
			c-2.3-26.7-13.1-53-27.8-76.7c12.3-15.3,17-36.7,12.3-55.8c-4.9-19.6-20-33.9-35.9-45.2c-25.1-17.8-53.7-29.8-83.3-38
			c-28.2-7.8-57.8-13.3-86.9-16.3c-1.6-0.2-3.2-0.3-4.8-0.4c-8-3.9-16.4-6.7-24.9-7.5c-14.9-1.3-26.8,5.2-36.8,15.1
			c-2.4,0.8-4.7,1.6-7.1,2.6c-22.4,8.7-45.7,18.9-62.8,36.2c-13,13.1-24.7,33.3-19.7,52.5
			C2177.6,1402.5,2178.6,1404.9,2179.8,1407.2z M2308.8,1300.8c-8.8,0.4-17.5,1.5-26.1,3.4c0.1-0.1,0.2-0.1,0.3-0.2
			C2291.3,1299.5,2300.2,1299,2308.8,1300.8z M2197.6,1405.9c-1.7,2.6-3.5,5.3-5.2,8.1c-1.8-1.9-3.5-3.9-5-6
			c1.8-2.6,3.7-5.1,5.8-7.4C2194.7,1402.4,2196.1,1404.1,2197.6,1405.9z M2201.3,1410.1c7.6,8.5,15.9,16.2,25.1,23
			c-10.3-3.6-21.3-8.4-29.8-15.3C2198,1415.1,2199.6,1412.6,2201.3,1410.1z M2193.9,1423.1c5.5,4.1,11.6,7.5,17.6,10.3
			c11,5.1,22.7,9.4,34.7,12.1c8.1,4.2,16.4,7.9,24.9,11.4c3.8,4.8,8,9.4,12.3,13.7c6.2,9.5,14.5,18,23.5,25.4
			c-6.2-1.1-12.3-2.3-18.6-3.4c-11.3-2-26.6-4.5-37.5,1.3c-4.7-4.5-10.2-8.3-15.6-11.6c-16-9.6-47.2-19.7-45.7-42.6
			C2189.8,1433.9,2191.5,1428.4,2193.9,1423.1z M2250.3,1501.7c4.7,5.4,8.2,11.8,8.9,19.3c0.8,8.6-2.5,16.4-7.3,23.4
			c-5.8-11.8-10.4-26-5.5-37.1C2247.3,1505,2248.6,1503.2,2250.3,1501.7z M2509.7,1465.8c-9,6.1-19.4,10.6-29.7,13.8
			c-0.5-2.1-0.9-4.2-1.4-6.3c-4.4-18.6-10-38.1-19.1-55c-9-16.9-23.5-30.5-43.7-29.7c-0.3,0-0.6,0-0.9,0.1c3.5-1,7.8-0.9,13.2,0.7
			c15.4,4.5,29.9,16.5,42.3,26.3c12.3,9.8,24.1,20.5,34.4,32.4c0.9,2.6,1.8,5.2,2.5,7.8C2508.2,1458.6,2509.1,1462,2509.7,1465.8z
			 M2266.1,1388.1c0.7-1.3,1.5-2.5,2.3-3.7c0,0.1,0,0.1-0.1,0.2c-2.5,6.5-5.5,12.9-8.2,19.4C2261,1398.8,2263,1393.5,2266.1,1388.1z
			 M2260.8,1422.6c3.1-12.9,9.8-24.9,14.5-37.3c1.6-4.3,2.7-8.6,3.5-13c15.2-14.1,36.2-22.3,56.1-25.8c2.8-0.5,5.5-0.8,8.3-1.1
			c-9,6.8-16.2,15.7-21.8,25.6c-26.8,5.8-47.1,30.2-49.5,57.4c-2.9,0.8-5.9,1.5-8.9,1.8C2262.2,1427.7,2261.4,1425.2,2260.8,1422.6z
			 M2310.8,1503.1c0.2,0.6,0.5,1.2,0.7,1.8c-12.2,16.5-30.6,29.3-47.8,38.4c-2,1.1-4,2.1-6.1,3.1c4-6,7.1-12.7,7.7-20
			c0.9-11-3.4-20.3-10.1-28.1c14.9-6.8,41.1,2.1,53.5,4.4C2309.4,1502.9,2310.1,1503,2310.8,1503.1z M2399.8,1486.7
			c1.2-4.5,2-9.2,2.5-13.9c8.1-1.5,16.3-1.2,24.2,2.4c0.9,0.4,1.8,0.9,2.6,1.3c-0.5,3.9-1.2,7.7-2.3,11.4
			C2417.8,1488.1,2408.8,1487.7,2399.8,1486.7z M2476.5,1492.8c0.3,1.7,0.6,3.4,0.8,5.1c-5.2-2.2-10.2-5.1-15-8.1
			c2.1-0.4,4.2-0.9,6.4-1.4c2.2-0.5,4.4-1.1,6.7-1.8C2475.7,1488.7,2476.1,1490.7,2476.5,1492.8z M2455.5,1485.4
			c-1.6-1-3.2-2-4.6-2.9c-4.9-3-10.3-6.6-15.9-9.7c1.5-21.8-5.1-44.3-19.7-62.4c-2-2.5-4.2-4.9-6.4-7.2c-0.6-2.4-1.3-4.8-2.1-7.2
			c8.9-2,18.1-2,26.5,2.3c11.5,5.8,18.6,17.4,23.8,28.8c7.9,17.1,13.3,35.7,17.1,54.3C2468,1483,2461.8,1484.4,2455.5,1485.4z
			 M2355.4,1344.7c1.8,0,3.5,0,5.3,0c9.8,6.3,18.8,13.7,25,22.1c5.1,7,8.1,15.2,8.8,23.7c-19-14-42.6-22.6-65.6-20.6
			c3.8-5.9,8.2-11.3,13.4-16.1C2346.5,1350.1,2350.8,1347.1,2355.4,1344.7z M2301.7,1386.2c4.9-3.7,10.3-6.3,16-8
			c-6.3,13.3-10.2,28-12.6,42c-0.4,2.5-0.8,5-1.1,7.5c-6.7-2.4-13.8-3.3-20.9-2c-1.6,0.3-3.1,0.6-4.6,1
			C2280.7,1411,2289.3,1395.6,2301.7,1386.2z M2321.1,1439.1c4.9-1.9,9.7-4.1,14.5-6.4c20.1-9.9,38.1-24.1,58.8-32.7
			c-0.3,2.7-0.8,5.4-1.6,8c-2.1,7.3-5.8,14-10.5,19.9c-2.2,2.8-4.6,5.5-7.2,7.9c-1.5,1.4-3.1,2.7-4.8,3.8c-6.7,0.8-8,0.5-3.9-0.7
			c4.2-1.5,1-7.6-3.1-6.1c-11.8,4.3-5.2,16.5,5.4,14.8c11.3-1.8,21.6-17.5,26.4-27.1c0,2.9,0.1,5.7,0.3,8.3
			c0.6,12.5,1.9,26.2,0.9,39.3c-10,2.8-19.6,7.9-28,13.5c-12.3-2.6-24.5-6-36.5-9.8c0.1-2.6,0.1-5.2-0.1-7.9
			C2330.9,1454.5,2327.2,1445.8,2321.1,1439.1z M2403.7,1406.2c2.2,9,3.4,18.2,3.5,27.3c0,8.5-1.5,16.5-4.3,23.7
			c-0.1-6.3-0.4-12.5-0.8-18.4c-0.6-9-1.7-22.7,0.6-33.6C2403.1,1405.5,2403.4,1405.9,2403.7,1406.2z M2411.4,1414.9
			c9.2,11.9,15.6,25.8,17.6,41c0.7,4.7,0.9,9.5,0.7,14.1c-5.2-2.4-10.5-4.1-15.9-4.2c-2.8-0.1-5.6,0.1-8.3,0.5
			C2413.1,1450.9,2414.3,1432.9,2411.4,1414.9z M2391.4,1475.9c-2.8,3.1-5.8,5.9-9.2,8.4c-1.9-0.3-3.8-0.7-5.7-1
			C2381.2,1480.5,2386.2,1477.9,2391.4,1475.9z M2375.1,1489c-2.2,1.3-4.5,2.5-6.9,3.5c-3.3,1.4-6.5,2.6-9.8,3.5
			c3.5-2.9,7.1-5.6,10.9-8.2C2371.2,1488.3,2373.2,1488.7,2375.1,1489z M2334.1,1499c-3-1.5-5.7-3-8.3-4.5
			c2.5-5.3,4.4-10.8,5.4-16.5c10.1,3.1,20.3,5.9,30.6,8.3c-5.1,3.8-10,7.8-14.7,12.1C2342.8,1498.9,2338.5,1499.1,2334.1,1499z
			 M2312.1,1485.5c-1.1-4.9-1.9-9.8-2.4-14.7c0.8,0.3,1.7,0.6,2.5,0.9c4.1,1.4,8.3,2.8,12.5,4.2c-0.4,2.4-0.9,4.9-1.7,7.2
			c-0.8,2.6-1.8,5.2-3,7.7C2317.4,1489.2,2314.8,1487.4,2312.1,1485.5z M2309.1,1464.3c-0.4-5.5-0.5-11-0.4-16.1
			c0-1.6,0.1-3.2,0.2-4.9c1.8-0.5,3.6-1.1,5.4-1.7c7.7,7.3,11.2,17.6,11,28.1c-0.7-0.2-1.4-0.5-2.1-0.7
			C2318.4,1467.4,2313.8,1465.9,2309.1,1464.3z M2302.5,1462c-6.9-2.4-13.7-4.9-20.5-7.5c-0.8-2-1.4-4-2-6
			c7.6-0.4,15.1-1.6,22.5-3.4C2302.2,1450.7,2302.2,1456.3,2302.5,1462z M2278.7,1442.4c-0.4-2.8-0.7-5.7-0.7-8.7c0,0,0.1,0,0.1,0
			c8.6-2.4,17-2.6,25.1,0.7c-0.1,1.5-0.3,2.9-0.4,4.4c-1,0.3-2.1,0.5-3.1,0.8C2292.7,1441.3,2285.7,1442.2,2278.7,1442.4z
			 M2325,1376.5c8.6-1.4,17.5-1,26.1,0.8c14.1,2.9,27.7,9.1,39.5,17.6c-10.8,4.6-21,11.2-30.6,17.1c-13.9,8.6-28.3,16.8-43.7,22.6
			c-2-1.6-4.2-3.1-6.5-4.3C2311.7,1411.8,2316.2,1392.8,2325,1376.5z M2447,1486.6c-4.8,0.6-9.6,0.9-14.4,1.2
			c0.7-2.8,1.3-5.7,1.7-8.6C2438.7,1481.5,2442.9,1484,2447,1486.6z M2393.3,1486c-0.9-0.1-1.7-0.2-2.6-0.3c1.3-1.1,2.5-2.3,3.7-3.5
			C2394,1483.4,2393.6,1484.7,2393.3,1486z M2391.2,1491.6c-8,18.8-26,18.8-42.9,13.3c0.2-0.2,0.4-0.3,0.6-0.5
			c10.6-1.5,20.9-4.8,30.7-10.7c1.6-1,3.2-2,4.7-3.1C2386.6,1491,2388.9,1491.3,2391.2,1491.6z M2337.3,1507.6
			c-0.4,0.4-0.7,0.7-1.1,1.1c-1.9-1.1-3.8-2.3-5.7-3.5c0.6,0,1.1,0,1.7,0.1C2333.9,1506.1,2335.6,1506.9,2337.3,1507.6z
			 M2286.9,1464.5c-0.4-0.7-0.8-1.4-1.2-2.1c5.8,2.1,11.5,4.1,17.3,6.1c0.3,3.8,0.8,7.6,1.5,11.3
			C2298.4,1475.2,2292.4,1470.1,2286.9,1464.5z M2269.1,1442.4c-1.1-1.9-2.2-3.8-3.2-5.7c2-0.3,3.9-0.7,5.9-1.2
			c0,1.4,0.1,2.8,0.3,4.3c0.1,0.9,0.2,1.8,0.3,2.8C2271.3,1442.5,2270.2,1442.4,2269.1,1442.4z M2303.9,1321.9
			c10.2-0.1,20.5,4,29.7,8.2c5.4,2.5,11.2,5.4,17,8.6c-24,1.2-50.6,8.4-70.1,23c0.7-5.7,1.4-11.4,2.4-17.2
			C2285.1,1332.2,2290.2,1322.1,2303.9,1321.9z M2374.4,1338.7c24.7-3.3,51.1,8.4,71.2,24.4c11.8,9.5,22.9,21.4,32.4,34.5
			c-28.5-27.3-64-52.3-102.7-57.9C2375.1,1339.4,2374.7,1339,2374.4,1338.7z M2498.4,1432.2c-12.1-11.7-25.5-22.1-38.3-31.2
			c-12.7-9-30.6-22.7-47.1-17.8c-3.6,1.1-6.5,2.9-8.9,5.2c-1.2-3.2-2.6-6.4-4-9.5c-5.2-11.2-11.6-21.9-19-31.8
			c13.8,2.7,27.1,7.8,39.8,15c25.7,14.7,49.6,33.6,70,55.6C2493.6,1422.5,2496.1,1427.3,2498.4,1432.2z M2510.5,1471.5
			c1.3,13-0.9,27.3-14.4,29.6c-4,0.7-8.2,0.2-12.3-0.9c-0.7-5.1-1.6-10.2-2.6-15.3C2491.4,1481.6,2501.5,1477.4,2510.5,1471.5z
			 M2479.6,1540.8c-26.6,2.8-53,0.9-78.4-5.4c2.9-2.2,5.7-4.6,8.2-7.1c10.2-10,17.4-22,21.6-34.8c7.8-0.3,15.6-1.1,23.4-2.3
			c5.9,3.6,11.8,7.1,18.1,10c1.7,0.8,3.6,1.6,5.5,2.3C2479.6,1515.7,2480.3,1528.4,2479.6,1540.8z M2393.6,1533.4
			c-17.6-5-34.7-12-51-21.1c-0.4-0.2-0.8-0.5-1.3-0.7c0.6-0.5,1.1-1.1,1.7-1.6c21.8,8.2,44.4,8.6,54.5-16.5c0.1-0.3,0.3-0.7,0.4-1.1
			c9,1,18.1,1.4,27.1,1.3c-3.8,10.5-9.8,20.2-17.7,28.4C2403.2,1526.4,2398.5,1530.3,2393.6,1533.4z M2386.2,1537.5
			c-11.8,5.4-24.9,6.6-37.8,0.5c-7.5-3.5-13.7-8.5-18.8-14.4c2.4-2.5,4.8-5,7.3-7.5C2352.7,1525,2369.2,1532.2,2386.2,1537.5z
			 M2326.1,1519c-2.8-4-5.2-8.2-7.3-12.8c0.2-0.3,0.5-0.6,0.7-1c4.1,2.8,8.2,5.4,12.3,7.8C2329.9,1515.1,2328,1517.1,2326.1,1519z
			 M2321.9,1523.4c-13,13.5-25.9,27.1-41.1,38.1c-4.2,3-8.6,5.8-13.1,8.4c-3.5-4.4-6.7-9-9.6-14c-0.3-0.5-0.5-1-0.8-1.4
			c9.1-4.1,17.8-9.2,25.9-14.7c11-7.5,22.5-17,31.6-28.1c1.7,3.4,3.6,6.7,5.8,9.8C2320.9,1522.1,2321.4,1522.8,2321.9,1523.4z
			 M2205.3,1404.6c5.6-7.5,11.8-14.4,16.9-20.7c10.2-12.5,18.1-25.9,26.4-39.7c6.2-10.4,13-21.8,21.9-30.6c2.1-0.7,4.2-1.3,6.3-2
			c16.1-4.8,32.6-5.6,49-4.5c4.8,2.4,9.5,5.3,13.7,8.2c8.3,5.6,16.3,12.3,23.6,19.9c-1.3,0.4-2.5,0.8-3.8,1.3
			c-11.7-7.6-24.3-14-37.2-18.1c-19.7-6.2-39-3.3-44.8,19.2c-2.6,10.2-3.2,20.6-4.9,30.9c-7.7,7.5-13.8,16.4-17.3,27
			c-3,9.2-3.2,18.4-1.4,27.2c-0.8,3.5-1.3,7-1.5,10.6c-0.1,2,1.4,3.2,3.2,3.5c1.1,0.2,2.1,0.3,3.2,0.3c0.7,1.6,1.5,3.1,2.3,4.7
			c-4.1-0.5-8.1-1.1-12.1-2C2232,1430.7,2217.8,1418.7,2205.3,1404.6z M2524.1,1452.6c-8.1-12.5-17.3-24.2-26.7-34.9
			c-11.5-20.9-26.7-40.3-43.6-55c-22.4-19.5-54-35.4-84.1-29.3c-3.9-4.2-8-8.3-12.3-12.1c-5-4.4-10.7-8.9-16.7-12.9
			c3.5,0.4,6.9,0.9,10.4,1.4c57.1,8.5,122.7,21.7,166,63.2c18.2,17.4,24.4,42.8,14.7,66.5
			C2529.9,1444.4,2527.2,1448.7,2524.1,1452.6z M2520,1457.3c-3.3-4.7-6.9-9.2-10.7-13.6c-1-2.7-2.1-5.5-3.3-8.2
			c5.3,6.8,10.2,13.8,14.7,21C2520.5,1456.7,2520.3,1457,2520,1457.3z M2485.8,1540.1c0-0.3,0-0.6,0-0.9c0.4-11.2-0.1-22.4-1.4-33.6
			c8.5,2.2,17.3,1.9,23.9-4.9c8.3-8.6,9.2-21.4,7.5-33.1c0.9-0.7,1.7-1.4,2.5-2.1c8.5,12.7,15.4,27.7,13.2,43
			C2528.4,1530.9,2505.4,1537.5,2485.8,1540.1z M2271.6,1574.7c3.8-2.4,7.4-4.8,10.6-7c16.2-11.2,29.7-25.5,43.3-39.8
			c8.6,9.8,20,17.3,32.8,19.7c12.8,2.4,25.4-1.2,36.3-7.7c25.8,7,52.8,9.6,80.1,7.2c1.5-0.1,3-0.3,4.5-0.4
			c-3,31.6-15.7,60.8-48,74.3c-43.4,18.2-95.7,2.6-132.8-22.8C2288.3,1591.4,2279.4,1583.6,2271.6,1574.7z M2248.6,1558
			c0.9-0.3,1.9-0.7,2.8-1.1c3.2,5.6,6.8,10.9,10.7,15.9c-2.3,1.2-4.6,2.3-6.9,3.3c-3.6,1.6-31,10.7-23.6-0.7
			c2.3-3.5,7.3-7,10.2-10.1C2244.1,1562.9,2246.4,1560.5,2248.6,1558z M2183.9,1413.6c1.7,2.1,3.5,4,5.5,5.8
			c-5.9,11.6-9.1,24.5-2.2,36c10.5,17.7,33.8,24.3,50,35.2c3,2,5.9,4.2,8.6,6.6c-0.8,0.8-1.6,1.6-2.3,2.5
			c-7.7,9.9-5.4,24.1-1.9,35.1c1.7,5.2,3.7,10.2,6,15c-0.3,0.4-0.6,0.7-0.9,1.1c-19.2,7.1-40.1,9.2-59-0.8
			c-27.1-14.4-27.1-43.7-23.4-70.4C2167.4,1458.4,2172.4,1433.3,2183.9,1413.6z M2183.9,1401.4c-8.1-20.9,9.7-44.2,25.3-56.6
			c14.2-11.4,31.8-20.4,49.4-27c-10.1,12.8-18,28.3-25.2,40.1c-9.3,15.2-21.4,28.2-31.9,42.5c-1.9-2.3-3.8-4.7-5.6-7.1
			c-1-1.4-3.5-1.5-4.7-0.3C2188.6,1395.6,2186.2,1398.4,2183.9,1401.4z"/>
	</g>
	<g>
		<g>
			<g>
				<g>
					
						<linearGradient id="SVGID_45_" gradientUnits="userSpaceOnUse" x1="3941.4619" y1="751.8389" x2="4411.2686" y2="1623.1915" gradientTransform="matrix(-1 0 0 1 5859.7881 0)">
						<stop  offset="0" style="stop-color:#311944"/>
						<stop  offset="1" style="stop-color:#893976"/>
					</linearGradient>
					<path class="st52" d="M1447.1,990.9c0,154.6,150.5,280.2,338.9,280.7c191.6,0.5,349.2-128.3,349.2-287.5
						c0-159.3-157.7-284.9-349.2-280.6C1597.6,707.7,1447.1,836.4,1447.1,990.9z"/>
					
						<linearGradient id="SVGID_46_" gradientUnits="userSpaceOnUse" x1="3941.4619" y1="751.8389" x2="4411.2686" y2="1623.1915" gradientTransform="matrix(-1 0 0 1 5859.7881 0)">
						<stop  offset="0" style="stop-color:#311944"/>
						<stop  offset="1" style="stop-color:#893976"/>
					</linearGradient>
					<path class="st53" d="M1447.1,990.9c0,154.6,150.5,280.2,338.9,280.7c191.6,0.5,349.2-128.3,349.2-287.5
						c0-159.3-157.7-284.9-349.2-280.6C1597.6,707.7,1447.1,836.4,1447.1,990.9z"/>
					
						<linearGradient id="SVGID_47_" gradientUnits="userSpaceOnUse" x1="4727.1445" y1="1417.1954" x2="5297.2661" y2="2474.6018" gradientTransform="matrix(-0.9879 -0.1549 -0.1549 0.9879 6860.895 -10.3045)">
						<stop  offset="0" style="stop-color:#311944"/>
						<stop  offset="1" style="stop-color:#893976"/>
					</linearGradient>
					<path class="st54" d="M1640.8,1228.1c-26.7,9.1-53.7,18.6-81,28.4c-39.7,14.3-78.5,28.9-116.3,43.6c0.6-24.6,5-70.9,31.8-120.5
						c20.5-37.9,46.1-63,63.5-77.5L1640.8,1228.1z"/>
					
						<linearGradient id="SVGID_48_" gradientUnits="userSpaceOnUse" x1="3965.6848" y1="726.1381" x2="4435.4917" y2="1597.4906" gradientTransform="matrix(-1 0 0 1 5859.7881 0)">
						<stop  offset="0" style="stop-color:#FF9085"/>
						<stop  offset="1" style="stop-color:#FB6FBB"/>
					</linearGradient>
					<path class="st55" d="M1422.9,965.2c0,154.6,150.5,280.2,338.9,280.7c191.6,0.5,349.2-128.3,349.2-287.5
						s-157.7-284.9-349.2-280.6C1573.3,682,1422.9,810.7,1422.9,965.2z"/>
					
						<linearGradient id="SVGID_49_" gradientUnits="userSpaceOnUse" x1="3965.6848" y1="726.1381" x2="4435.4917" y2="1597.4906" gradientTransform="matrix(-1 0 0 1 5859.7881 0)">
						<stop  offset="0" style="stop-color:#FF9085"/>
						<stop  offset="1" style="stop-color:#FB6FBB"/>
					</linearGradient>
					<path class="st56" d="M1422.9,965.2c0,154.6,150.5,280.2,338.9,280.7c191.6,0.5,349.2-128.3,349.2-287.5
						s-157.7-284.9-349.2-280.6C1573.3,682,1422.9,810.7,1422.9,965.2z"/>
					
						<linearGradient id="SVGID_50_" gradientUnits="userSpaceOnUse" x1="4763.5518" y1="1418.4397" x2="5311.2939" y2="2434.3396" gradientTransform="matrix(-0.9879 -0.1549 -0.1549 0.9879 6860.895 -10.3045)">
						<stop  offset="0" style="stop-color:#FF9085"/>
						<stop  offset="1" style="stop-color:#FB6FBB"/>
					</linearGradient>
					<path class="st57" d="M1616.6,1202.4c-30.1,15.1-61.4,30.1-93.8,44.9c-26.9,12.3-53.4,23.9-79.3,34.9
						c0.9-26.5,5.1-63.5,19.1-105.2c15-44.6,35.7-78.3,51.9-100.5L1616.6,1202.4z"/>
					<g class="st58">
						
							<linearGradient id="SVGID_51_" gradientUnits="userSpaceOnUse" x1="3835.5261" y1="775.8177" x2="4297.7524" y2="1703.3948" gradientTransform="matrix(-1 0 0 1 5859.7881 0)">
							<stop  offset="0" style="stop-color:#FF9085"/>
							<stop  offset="1" style="stop-color:#FB6FBB"/>
						</linearGradient>
						<path class="st59" d="M1678.6,1173.7c41.3-83.8-0.5-161.7,55.4-216.3c57-55.7,131.5-5.2,212.2-51.3
							c31.4-17.9,66.3-51.9,92.4-121.4c45.4,47.7,72.5,107.9,72.5,173.7c0,159.3-157.7,288-349.2,287.5
							c-43.4-0.1-84.8-6.9-122.8-19.1C1657.7,1209.1,1670.1,1190.9,1678.6,1173.7z"/>
					</g>
				</g>
			</g>
		</g>
		<g class="st60">
			<path class="st7" d="M2021.6,871.9c0,11-8.7,19.5-19.3,19.5h-464.3c-10.7,0-19.3-8.5-19.3-19.5l0,0c0-11,8.7-19.5,19.3-19.5
				h464.3C2012.9,852.4,2021.6,860.9,2021.6,871.9L2021.6,871.9z"/>
			<path class="st7" d="M2021.6,965.8c0,11-8.7,17.7-19.3,17.7h-464.3c-10.7,0-19.3-6.8-19.3-17.7l0,0c0-11,8.7-17.7,19.3-17.7
				h464.3C2012.9,948.1,2021.6,954.8,2021.6,965.8L2021.6,965.8z"/>
			<path class="st7" d="M1921,1061.5c0,11-8.7,21.3-19.3,21.3h-363.7c-10.7,0-19.3-10.3-19.3-21.3l0,0c0-11,8.7-21.3,19.3-21.3
				h363.7C1912.3,1040.2,1921,1050.5,1921,1061.5L1921,1061.5z"/>
		</g>
	</g>
	<g>
		<g>
			
				<linearGradient id="SVGID_52_" gradientUnits="userSpaceOnUse" x1="2329.3977" y1="2212.0188" x2="2023.1172" y2="4583.2075" gradientTransform="matrix(-1 0 0 1 3390.0522 0)">
				<stop  offset="0" style="stop-color:#FF9085"/>
				<stop  offset="1" style="stop-color:#FB6FBB"/>
			</linearGradient>
			<path class="st61" d="M1206.8,3210.5c-119-15.3-269.8-55.4-330.3-168.7c-14.4-26.9-28.9-79.3,7.5-99c33.2-18,76.2,1,101,24.5
				c18.2,17.2,32.3,55.7,52.8,67.9c29.9,17.8,46-30.8,45.3-50.8c-1.4-44.8-56.5-63.2-93.2-72.9c-60.8-16.2-131.6-30-127.8-98.5
				c3.8-68.5,70.6-109.7,122.1-79.7c42.4,24.7,36.4,77.4,65.3,109.1c25.7,28.1,34.7-17.5,32.9-39.9c-3.7-48.6-46.5-83.7-77.9-116.3
				c-35.5-36.8-74.8-110.9-36.9-159.6c21.8-28,77.2-34.6,109.9-29.8c160.2,23.1,54,230.5,83.1,253.6s56.7-17.4,56.6-78.9
				s9.4-107,73.6-87.3s76.5,180.5,3.1,242.4c-73.4,61.8,4.6,129.2,24.3,84.9c14.2-32,26.7-115.7,67.8-124.9
				c68.5-15.3,67.5,124.6,47.8,157.1c-27.6,45.6-90.1,55.5-125,94.9c-10.1,11.4-33,39.8-24.1,56.5c12.4,23.3,47-1.6,59.7-12.4
				c28.6-24.3,68.1-106.8,108.4-52C1502.3,3098.2,1419.2,3198.6,1206.8,3210.5z"/>
			<g class="st62">
				<path class="st7" d="M1189.6,3198.6c2.8,0,5.1-2.3,5.1-5.1c0-2.4,3.4-246.3-103.1-536.3c-1-2.7-3.9-4-6.6-3.1
					c-2.7,1-4,3.9-3.1,6.6c105.8,288.2,102.5,530.1,102.5,532.5C1184.4,3196.1,1186.7,3198.6,1189.6,3198.6
					C1189.6,3198.6,1189.6,3198.6,1189.6,3198.6z"/>
			</g>
		</g>
		<linearGradient id="SVGID_53_" gradientUnits="userSpaceOnUse" x1="1411.4746" y1="2531.095" x2="1138.5818" y2="3750.2478">
			<stop  offset="0" style="stop-color:#FFC444"/>
			<stop  offset="0.9964" style="stop-color:#F36F56"/>
		</linearGradient>
		<path class="st63" d="M1145.9,3106.2c19.3-16.4,60.2,9.3,77.3,19c9.9,5.7,23.4,14.3,35.2,9.3c12.5-5.3,11.6-18.4,4-27.6
			c-13.5-16.6-39.4-21.2-58.2-29.2c-20.2-8.7-38.8-20.5-48.7-40.9c-7.9-16.3-9.8-40.3-0.8-56.3c24.8-44.3,60.8-9.7,81,16.7
			c9.8,12.8,31.7,34.9,48.3,19.8c17.7-16.1,2.5-44.8-11.2-57.4c-17.9-16.5-39.6-28-59.1-42.4c-17.6-13-35.6-31.5-23.9-54.5
			c9-17.8,31.8-27.6,51.2-26.1c44.9,3.5,51.9,69.1,81.5,94.3c10.5,8.9,34.2,16,46.7,7.2c12.7-8.9,4.4-29.3-0.1-40.4
			c-13.5-33-110.8-143.5-30.2-157.4c20.3-3.5,48.2,2.9,64.2,15.8c30.1,24.3,46,72.5,53.9,109c12.5,57.5,11.7,121.4-2.2,178.5
			c-30.7,126.4-102.9,167-102.9,167c-31.2,10.3-70.3,15.3-102.7,8.5c-38.1-8.1-83.6-36.2-102.4-71.4
			C1140.7,3136.3,1133.9,3116.4,1145.9,3106.2z"/>
	</g>
</g>
</svg>
