<?xml version="1.0" encoding="utf-8"?>
<!-- Generator: Adobe Illustrator 19.0.0, SVG Export Plug-In . SVG Version: 6.00 Build 0)  -->
<svg version="1.1" id="Illustration" xmlns="http://www.w3.org/2000/svg" xmlns:xlink="http://www.w3.org/1999/xlink" x="0px"
	 y="0px" viewBox="0 0 1200 800" style="enable-background:new 0 0 1200 800;" xml:space="preserve">
<style type="text/css">
	.st0{opacity:0.4;fill:url(#SVGID_1_);}
	.st1{opacity:0.4;fill:url(#SVGID_2_);}
	.st2{fill:url(#SVGID_3_);}
	.st3{fill:url(#SVGID_4_);}
	.st4{fill:url(#SVGID_5_);}
	.st5{fill:url(#SVGID_6_);}
	.st6{fill:url(#SVGID_7_);}
	.st7{fill:url(#SVGID_8_);}
	.st8{fill:url(#SVGID_9_);}
	.st9{fill:url(#SVGID_10_);}
	.st10{fill:url(#SVGID_11_);}
	.st11{fill:url(#SVGID_12_);}
	.st12{fill:url(#SVGID_13_);}
	.st13{fill:url(#SVGID_14_);}
	.st14{fill:url(#SVGID_15_);}
	.st15{fill:url(#SVGID_16_);}
	.st16{fill:url(#SVGID_17_);}
	.st17{fill:url(#SVGID_18_);}
	.st18{fill:url(#SVGID_19_);}
	.st19{fill:url(#SVGID_20_);}
	.st20{fill:url(#SVGID_21_);}
	.st21{fill:url(#SVGID_22_);}
	.st22{fill:url(#SVGID_23_);}
	.st23{fill:url(#SVGID_24_);}
	.st24{fill:url(#SVGID_25_);}
	.st25{fill:url(#SVGID_26_);}
	.st26{fill:url(#SVGID_27_);}
	.st27{fill:url(#SVGID_28_);}
	.st28{fill:url(#SVGID_29_);}
	.st29{fill:url(#SVGID_30_);}
	.st30{fill:url(#SVGID_31_);}
	.st31{fill:url(#SVGID_32_);}
	.st32{fill:url(#SVGID_33_);}
	.st33{fill:#FFFFFF;}
	.st34{fill:url(#SVGID_34_);}
	.st35{fill:url(#SVGID_35_);}
	.st36{fill:url(#SVGID_36_);}
	.st37{fill:url(#SVGID_37_);}
	.st38{fill:url(#SVGID_38_);}
	.st39{fill:url(#SVGID_39_);}
	.st40{fill:url(#SVGID_40_);}
	.st41{fill:url(#SVGID_41_);}
	.st42{fill:url(#SVGID_42_);}
	.st43{fill:url(#SVGID_43_);}
	.st44{fill:url(#SVGID_44_);}
	.st45{fill:url(#SVGID_45_);}
	.st46{fill:url(#SVGID_46_);}
	.st47{fill:url(#SVGID_47_);}
	.st48{fill:url(#SVGID_48_);}
	.st49{fill:url(#SVGID_49_);}
	.st50{fill:url(#SVGID_50_);}
	.st51{fill:url(#SVGID_51_);}
	.st52{fill:url(#SVGID_52_);}
	.st53{fill:#F2BD4A;}
	.st54{fill:url(#SVGID_53_);}
	.st55{fill:url(#SVGID_54_);}
	.st56{fill:url(#SVGID_55_);}
	.st57{fill:url(#SVGID_56_);}
	.st58{fill:url(#SVGID_57_);}
	.st59{fill:url(#SVGID_58_);}
	.st60{fill:url(#SVGID_59_);}
	.st61{fill:url(#SVGID_60_);}
	.st62{fill:url(#SVGID_61_);}
	.st63{fill:url(#SVGID_62_);}
	.st64{fill:url(#SVGID_63_);}
	.st65{fill:url(#SVGID_64_);}
	.st66{fill:url(#SVGID_65_);}
	.st67{fill:url(#SVGID_66_);}
	.st68{fill:url(#SVGID_67_);}
	.st69{fill:url(#SVGID_68_);}
	.st70{fill:url(#SVGID_69_);}
	.st71{fill:url(#SVGID_70_);}
	.st72{fill:url(#SVGID_71_);}
	.st73{fill:url(#SVGID_72_);}
	.st74{fill:url(#SVGID_73_);}
	.st75{fill:url(#SVGID_74_);}
	.st76{fill:url(#SVGID_75_);}
	.st77{fill:url(#SVGID_76_);}
	.st78{fill:url(#SVGID_77_);}
	.st79{fill:url(#SVGID_78_);}
	.st80{fill:url(#SVGID_79_);}
	.st81{fill:url(#SVGID_80_);}
	.st82{fill:url(#SVGID_81_);}
	.st83{fill:url(#SVGID_82_);}
	.st84{fill:url(#SVGID_83_);}
	.st85{fill:url(#SVGID_84_);}
	.st86{fill:url(#SVGID_85_);}
	.st87{fill:url(#SVGID_86_);}
	.st88{fill:url(#SVGID_87_);}
	.st89{fill:url(#SVGID_88_);}
	.st90{fill:url(#SVGID_89_);}
	.st91{fill:url(#SVGID_90_);}
	.st92{fill:url(#SVGID_91_);}
	.st93{fill:url(#SVGID_92_);}
	.st94{fill:url(#SVGID_93_);}
	.st95{fill:url(#SVGID_94_);}
	.st96{fill:url(#SVGID_95_);}
	.st97{fill:url(#SVGID_96_);}
	.st98{fill:url(#SVGID_97_);}
	.st99{opacity:0.7;}
	.st100{opacity:0.8;}
	.st101{fill:url(#SVGID_98_);}
	.st102{fill:url(#SVGID_99_);}
	.st103{fill:url(#SVGID_100_);}
	.st104{opacity:0.6;fill:#FFFFFF;}
	.st105{fill:url(#SVGID_101_);}
	.st106{fill:url(#SVGID_102_);}
	.st107{fill:url(#SVGID_103_);}
	.st108{fill:url(#SVGID_104_);}
</style>
<g>
	<g>
		<g>
			
				<linearGradient id="SVGID_1_" gradientUnits="userSpaceOnUse" x1="-1598.5336" y1="373.5317" x2="-622.03" y2="373.5317" gradientTransform="matrix(-1 0 0 1 -500 0)">
				<stop  offset="0" style="stop-color:#B37CFF"/>
				<stop  offset="1" style="stop-color:#F895E7"/>
			</linearGradient>
			<path class="st0" d="M618.7,636.5c0,0,331.6,3.3,423.9-70.7c92.4-74,57.6-147.7-13.1-168.6c-70.7-20.9-82.8-42.6-44.7-71.9
				c38.1-29.3,86.4-89.5,6.1-149.9c-80.2-60.5-171.8,26.4-243.5,14.8c-71.7-11.5-43.3-50.4-137.6-23.5
				c-94.3,26.8-73.5-51.3-149.3-58.3c-75.8-7.1-68,81.2-146,47.9c-78-33.3-141.8-28.7-175.3,24.2c-33.5,52.9-19,124.2,54.6,166.7
				c73.6,42.5,65.7,39.6,38.2,81.3c-27.5,41.8-52.1,179.1,73,198.7C430,646.7,618.7,636.5,618.7,636.5z"/>
			<linearGradient id="SVGID_2_" gradientUnits="userSpaceOnUse" x1="127.07" y1="370.2629" x2="1040.861" y2="370.2629">
				<stop  offset="0" style="stop-color:#B37CFF"/>
				<stop  offset="1" style="stop-color:#F895E7"/>
			</linearGradient>
			<path class="st1" d="M573.5,630.3c0,0-308.5,3.3-394.4-69.9c-85.9-73.2-53.6-146.1,12.2-166.7c65.8-20.7,77-42.1,41.6-71.1
				c-35.4-29-80.4-88.5-5.7-148.3c74.7-59.8,159.9,26.1,226.6,14.7c66.7-11.4,40.3-49.8,128.1-23.3s68.4-50.7,139-57.7
				c70.5-7,63.3,80.3,135.9,47.4c46.9-21.3,112.1-34.8,151.2,8.1c31.4,34.4,35.4,88.8,12.5,128.6c-14.2,24.7-42,40.1-52.7,67
				c-33.3,83.2,123.6,141.9,56.2,221.4c-36.1,42.5-109.3,32.5-158.3,40.7C749.1,640.4,573.5,630.3,573.5,630.3z"/>
		</g>
		<g>
			
				<linearGradient id="SVGID_3_" gradientUnits="userSpaceOnUse" x1="959.1382" y1="366.5072" x2="1045.4623" y2="366.5072" gradientTransform="matrix(0.9991 4.220000e-002 -4.220000e-002 0.9991 18.3154 -52.4033)">
				<stop  offset="0" style="stop-color:#ED539F"/>
				<stop  offset="1" style="stop-color:#A061C2"/>
			</linearGradient>
			<path class="st2" d="M991.5,446c0,0,47.3-82.9,32.6-95.3c-14.7-12.3-14.9,23.5-20.9,18.4c-5.9-5.1,3.7-35,1.1-55.8
				c-2.6-20.8-8.4-48.7-15.8-20.7c-7.4,28-6.5,55.6-9.7,41.3c-3.2-14.3-14.2-88.6-28.4-66.4c-14.2,22.2-17.2,51-2.9,67.8
				c14.3,16.8,33.5,35.6,9.9,23.2c-23.6-12.4-39.7-6.9-14.5,15.6c0,0,38,31.5,21.5,30c-16.5-1.5-42.8,15.9-15.7,28.5
				C948.9,432.8,987.3,438.3,991.5,446z"/>
			
				<linearGradient id="SVGID_4_" gradientUnits="userSpaceOnUse" x1="1648.3417" y1="397.5417" x2="1745.7456" y2="397.5417" gradientTransform="matrix(-0.9728 0.2318 0.2318 0.9728 2462.1511 -310.3142)">
				<stop  offset="0" style="stop-color:#B37CFF"/>
				<stop  offset="1" style="stop-color:#F895E7"/>
			</linearGradient>
			<path class="st3" d="M971.9,521.7c0,0-92.1-4.4-88-25.7c4.1-21.3,34.1-7,47.5-5.7c13.4,1.4,5.5-7.8-21.7-27
				c-27.2-19.2-42.2-47.3-13.4-34.2c28.8,13.1,40.4,37.7,38.4,20.3c-2-17.3-39-66.2-7.7-46.2c31.4,20,29.2,38.5,30.2,53.1
				s5.1-28.3,14.9-21.9c9.8,6.4,4.2,12.9,0.7,29.9c-3.5,17,6.3,3.3,9.6-2.3c3.2-5.6,11.2,7.8,3.4,26.2
				C978,506.8,971.9,521.7,971.9,521.7z"/>
			<linearGradient id="SVGID_5_" gradientUnits="userSpaceOnUse" x1="1014.8122" y1="348.2491" x2="954.6061" y2="615.1371">
				<stop  offset="0" style="stop-color:#233894"/>
				<stop  offset="0.9964" style="stop-color:#DD397A"/>
			</linearGradient>
			<path class="st4" d="M990.2,618.7c-0.1,0.1-0.1,0.1-0.1,0.2c0,0,0,0.1,0,0l0-0.3l0.1-1l0.1-2.1l0.1-4.3l0.2-8.7l0.3-17.4
				c0.1-11.6,0.2-23.2,0.2-34.8c-0.1-23.2-0.5-46.4-1.4-69.6c-0.5-11.6-1-23.2-1.8-34.7c-0.8-11.6-1.7-23.1-2.9-34.6
				c-1.2-11.5-2.7-23-4.7-34.4c-2-11.3-4.5-22.7-8.6-33.3l0-0.1c-0.4-1,0.1-2.2,1.2-2.6c1-0.4,2.2,0.1,2.6,1.1c4.4,11,7,22.5,9.3,34
				c2.2,11.5,3.8,23,5.2,34.6c1.3,11.6,2.4,23.2,3.4,34.8c0.9,11.6,1.6,23.2,2.3,34.9c1.2,23.2,1.9,46.5,2.3,69.8
				c0.2,11.6,0.3,23.3,0.3,34.9l-0.1,17.5l-0.1,8.7l-0.1,4.4L998,618l0,1.1l0,0.3c0,0.1,0,0.4,0,0.6c0,0.4-0.1,0.9-0.2,1.3
				c-0.7,2.1-2.9,3.2-5,2.5C990.6,623,989.5,620.8,990.2,618.7z"/>
			<linearGradient id="SVGID_6_" gradientUnits="userSpaceOnUse" x1="974.6039" y1="447.6086" x2="969.1421" y2="626.7762">
				<stop  offset="0" style="stop-color:#233894"/>
				<stop  offset="0.9964" style="stop-color:#DD397A"/>
			</linearGradient>
			<path class="st5" d="M989.7,623.2c0,0.1,0,0.2,0,0.3c0,0,0,0.2,0,0.1l0-0.2l-0.1-0.7l-0.2-1.4l-0.4-2.7l-0.9-5.5l-1.9-11
				c-1.3-7.3-2.7-14.7-4.1-22c-2.8-14.6-5.8-29.2-9.1-43.8c-3.3-14.5-6.8-29-10.9-43.3c-2-7.1-4.3-14.2-6.7-21.2
				c-2.5-6.9-5.2-13.9-8.8-20.1l0-0.1c-0.6-1-0.2-2.2,0.8-2.8c1-0.5,2.2-0.2,2.7,0.7c4,6.6,6.9,13.6,9.6,20.7
				c2.7,7,5.1,14.2,7.3,21.3c4.4,14.3,8.3,28.8,11.9,43.4c3.6,14.5,6.9,29.1,10,43.8c1.6,7.3,3.1,14.7,4.5,22l2.2,11l1,5.5l0.5,2.8
				l0.2,1.4l0.1,0.7l0,0.2l0.1,0.4c0,0.3,0,0.7,0,1c-0.2,2.2-2.1,3.7-4.3,3.5C991.1,627.3,989.5,625.4,989.7,623.2z"/>
			<linearGradient id="SVGID_7_" gradientUnits="userSpaceOnUse" x1="1020.0886" y1="399.6072" x2="1117.4689" y2="399.6072">
				<stop  offset="0" style="stop-color:#B37CFF"/>
				<stop  offset="1" style="stop-color:#F895E7"/>
			</linearGradient>
			<path class="st6" d="M1009.4,462.8c0,0,93.4-14.9,84.5-34.7c-8.9-19.8-34.8,1.1-47.5,5.5c-12.7,4.4-14.5,2.2,7.5-22.8
				c22.1-25,24.1-50.9-0.9-31.5c-25,19.4-16.4,37.4-18.5,20.1c-2.1-17.3,31.3-83.5,5.5-56.8c-25.9,26.7-29,49.5-26.6,63.9
				c2.5,14.4-11.5-26.3-19.6-17.8s-1.1,13.6,6.2,29.3c7.3,15.7-5.4,4.7-9.8,0c-4.5-4.7-9.1,10.2,2.8,26.3
				C1004.8,460.5,1009.4,462.8,1009.4,462.8z"/>
			<linearGradient id="SVGID_8_" gradientUnits="userSpaceOnUse" x1="990.0766" y1="415.8723" x2="1035.5332" y2="617.3773">
				<stop  offset="0" style="stop-color:#233894"/>
				<stop  offset="0.9964" style="stop-color:#DD397A"/>
			</linearGradient>
			<path class="st7" d="M1002.4,621.2c-0.1-0.4-0.2-0.8-0.2-1.1c0-0.2,0-0.4,0-0.5l0-0.2l0-0.9l0-1.7l-0.1-3.3l-0.1-6.5l0-13.1
				c0-8.7,0.1-17.4,0.3-26.1c0.3-17.4,0.9-34.8,1.9-52.2c1-17.4,2.3-34.8,4.3-52.1c1-8.7,2.3-17.3,4-25.9c1.7-8.6,3.7-17.2,7-25.5
				c0.4-1,1.6-1.5,2.6-1.1c1,0.4,1.5,1.6,1.1,2.6l0,0.1c-3,7.9-4.8,16.3-6.3,24.8c-1.5,8.5-2.6,17.1-3.4,25.7
				c-1.7,17.2-2.7,34.5-3.4,51.8c-0.6,17.3-0.9,34.7-0.9,52c0,8.7,0.1,17.3,0.2,26l0.3,13l0.2,6.5l0.1,3.2l0.1,1.6l0,0.8l0,0.2
				c0,0.1,0-0.1,0-0.1c0-0.1-0.1-0.2-0.1-0.3c0.7,2.1-0.4,4.3-2.5,5C1005.3,624.4,1003.1,623.3,1002.4,621.2z"/>
			<g>
				<linearGradient id="SVGID_9_" gradientUnits="userSpaceOnUse" x1="968.4051" y1="745.1742" x2="993.6497" y2="621.756">
					<stop  offset="0" style="stop-color:#C32B78"/>
					<stop  offset="1" style="stop-color:#593092"/>
				</linearGradient>
				<path class="st8" d="M957.7,603.2h77.3c5.1,0,8.8,4.7,7.7,9.7c-4.9,21.4-10.9,43.2-23,65.2c-2.2,4.1-6.5,6.6-11.2,6.6h-25.2
					c-4.6,0-8.8-2.5-11-6.6c-9.7-18.1-19.1-39.6-23.7-64C947.6,608.5,951.9,603.2,957.7,603.2z"/>
			</g>
		</g>
		<g>
			
				<linearGradient id="SVGID_10_" gradientUnits="userSpaceOnUse" x1="188.6448" y1="397.8669" x2="274.9684" y2="397.8669" gradientTransform="matrix(0.9935 0.1138 -0.1138 0.9935 56.45 -63.5221)">
				<stop  offset="0" style="stop-color:#ED539F"/>
				<stop  offset="1" style="stop-color:#A061C2"/>
			</linearGradient>
			<path class="st9" d="M222.3,447c0,0,53.1-79.3,39.3-92.7c-13.7-13.4-16.6,22.4-22.1,16.9c-5.6-5.5,6.2-34.7,5.1-55.6
				c-1.1-20.9-4.8-49.1-14.2-21.8c-9.4,27.4-10.4,55-12.6,40.5c-2.2-14.4-7.9-89.3-23.6-68.3c-15.8,21.1-20.8,49.7-7.7,67.5
				c13.1,17.8,30.9,37.9,8.2,23.8c-22.7-14.1-39.1-9.7-15.5,14.5c0,0,35.6,34.1,19.3,31.4c-16.3-2.7-43.8,12.8-17.7,27.3
				C180.7,430.7,218.7,439,222.3,447z"/>
			
				<linearGradient id="SVGID_11_" gradientUnits="userSpaceOnUse" x1="428.5771" y1="279.3184" x2="368.3701" y2="546.2105" gradientTransform="matrix(0.9974 7.180000e-002 -7.180000e-002 0.9974 -154.8339 41.7324)">
				<stop  offset="0" style="stop-color:#233894"/>
				<stop  offset="0.9964" style="stop-color:#DD397A"/>
			</linearGradient>
			<path class="st10" d="M208.6,619.1c-0.1,0-0.1,0.1-0.1,0.2c0,0,0,0.1,0,0l0-0.3l0.1-1l0.2-2.1l0.5-4.3l0.8-8.6l1.5-17.3
				c1-11.6,1.9-23.1,2.7-34.7c1.6-23.1,2.8-46.3,3.6-69.5c0.4-11.6,0.6-23.2,0.7-34.8c0.1-11.6,0-23.2-0.4-34.7
				c-0.4-11.6-1-23.1-2.2-34.6c-1.2-11.5-2.9-22.9-6.2-33.8l0-0.1c-0.3-1.1,0.3-2.2,1.3-2.5c1.1-0.3,2.2,0.3,2.5,1.3
				c3.6,11.3,5.4,23,6.8,34.6c1.3,11.6,2.2,23.3,2.7,34.9c0.5,11.6,0.8,23.3,0.9,34.9c0.1,11.6,0,23.3-0.2,34.9
				c-0.5,23.3-1.4,46.5-2.7,69.8c-0.6,11.6-1.4,23.2-2.2,34.8l-1.3,17.4l-0.7,8.7l-0.4,4.4l-0.2,2.2l-0.1,1.1l0,0.3
				c0,0.1-0.1,0.4-0.1,0.6c-0.1,0.4-0.2,0.8-0.3,1.3c-0.8,2-3.1,3-5.1,2.1C208.7,623.4,207.8,621.1,208.6,619.1z"/>
			
				<linearGradient id="SVGID_12_" gradientUnits="userSpaceOnUse" x1="2536.0205" y1="186.0245" x2="2633.4243" y2="186.0245" gradientTransform="matrix(0.9728 0.2318 -0.2318 0.9728 -2158.5601 -310.3142)">
				<stop  offset="0" style="stop-color:#B37CFF"/>
				<stop  offset="1" style="stop-color:#F895E7"/>
			</linearGradient>
			<path class="st11" d="M244.3,521.7c0,0,92.1-4.4,88-25.7c-4.1-21.3-34.1-7-47.5-5.7c-13.4,1.4-5.5-7.8,21.7-27
				c27.2-19.2,42.2-47.3,13.4-34.2c-28.8,13.1-40.4,37.7-38.4,20.3s39-66.2,7.7-46.2c-31.4,20-29.2,38.5-30.2,53.1
				c-0.9,14.6-5.1-28.3-14.9-21.9c-9.8,6.4-4.2,12.9-0.7,29.9c3.5,17-6.3,3.3-9.6-2.3c-3.2-5.6-11.2,7.8-3.4,26.2
				C238.2,506.8,244.3,521.7,244.3,521.7z"/>
			
				<linearGradient id="SVGID_13_" gradientUnits="userSpaceOnUse" x1="-1637.9597" y1="447.6086" x2="-1643.4215" y2="626.7762" gradientTransform="matrix(-1 0 0 1 -1396.4091 0)">
				<stop  offset="0" style="stop-color:#233894"/>
				<stop  offset="0.9964" style="stop-color:#DD397A"/>
			</linearGradient>
			<path class="st12" d="M226.5,623.2c0,0.1,0,0.2,0,0.3c0,0,0,0.2,0,0.1l0-0.2l0.1-0.7l0.2-1.4l0.4-2.7l0.9-5.5l1.9-11
				c1.3-7.3,2.7-14.7,4.1-22c2.8-14.6,5.8-29.2,9.1-43.8c3.3-14.5,6.8-29,10.9-43.3c2-7.1,4.3-14.2,6.7-21.2
				c2.5-6.9,5.2-13.9,8.8-20.1l0-0.1c0.6-1,0.2-2.2-0.8-2.8c-1-0.5-2.2-0.2-2.7,0.7c-4,6.6-6.9,13.6-9.6,20.7
				c-2.7,7-5.1,14.2-7.3,21.3c-4.4,14.3-8.3,28.8-11.9,43.4c-3.6,14.5-6.9,29.1-10,43.8c-1.6,7.3-3.1,14.7-4.5,22l-2.2,11l-1,5.5
				l-0.5,2.8l-0.2,1.4l-0.1,0.7l0,0.2l-0.1,0.4c0,0.3,0,0.7,0,1c0.2,2.2,2.1,3.7,4.3,3.5C225.1,627.3,226.7,625.4,226.5,623.2z"/>
			
				<linearGradient id="SVGID_14_" gradientUnits="userSpaceOnUse" x1="322.0134" y1="423.4255" x2="419.3904" y2="423.4255" gradientTransform="matrix(-0.9944 0.106 0.106 0.9944 447.5204 -33.2337)">
				<stop  offset="0" style="stop-color:#B37CFF"/>
				<stop  offset="1" style="stop-color:#F895E7"/>
			</linearGradient>
			<path class="st13" d="M189.5,483.6c0,0-94.4-4.9-87.7-25.5c6.8-20.6,34.8-2.6,47.8,0.4c13.1,3,14.7,0.7-9.9-21.8
				c-24.6-22.5-29.4-48-2.4-31.4c26.9,16.7,20.2,35.5,20.5,18s-40-79.7-11.4-55.9c28.6,23.8,34.1,46.1,33.2,60.7
				c-0.9,14.6,8.7-27.4,17.6-19.8s2.6,13.4-3.1,29.8c-5.6,16.4,5.8,4.1,9.8-1c3.9-5.1,10.1,9.2,0,26.4
				C193.8,480.9,189.5,483.6,189.5,483.6z"/>
			
				<linearGradient id="SVGID_15_" gradientUnits="userSpaceOnUse" x1="-1127.5542" y1="515.1312" x2="-1082.0992" y2="716.6291" gradientTransform="matrix(-0.9944 0.106 0.106 0.9944 -972.0829 42.2205)">
				<stop  offset="0" style="stop-color:#233894"/>
				<stop  offset="0.9964" style="stop-color:#DD397A"/>
			</linearGradient>
			<path class="st14" d="M213.3,640.4c0-0.4,0.1-0.8,0.1-1.1c0-0.2,0-0.4,0-0.5l0-0.2l-0.1-0.9l-0.1-1.7l-0.3-3.3l-0.6-6.5l-1.4-13
				c-1-8.7-2-17.3-3.1-25.9c-2.2-17.3-4.6-34.5-7.4-51.7c-2.8-17.2-5.9-34.3-9.8-51.4c-1.9-8.5-4.1-17-6.7-25.4
				c-2.6-8.4-5.5-16.7-9.7-24.6c-0.5-1-1.7-1.4-2.7-0.8c-1,0.5-1.4,1.7-0.9,2.7l0,0.1c3.8,7.5,6.5,15.7,8.9,24
				c2.4,8.3,4.4,16.7,6.1,25.1c3.5,16.9,6.4,34,8.8,51.2c2.5,17.2,4.6,34.4,6.4,51.6c0.9,8.6,1.8,17.2,2.6,25.9l1.1,12.9l0.5,6.5
				l0.2,3.2l0.1,1.6l0,0.8l0,0.2c0,0.1,0-0.1,0-0.1c0-0.1,0-0.2,0.1-0.3c-0.5,2.1,0.9,4.2,3,4.7
				C210.7,643.9,212.8,642.6,213.3,640.4z"/>
			<g>
				<linearGradient id="SVGID_16_" gradientUnits="userSpaceOnUse" x1="191.4051" y1="745.1742" x2="216.6497" y2="621.756">
					<stop  offset="0" style="stop-color:#C32B78"/>
					<stop  offset="1" style="stop-color:#593092"/>
				</linearGradient>
				<path class="st15" d="M180.7,603.2H258c5.1,0,8.8,4.7,7.7,9.7c-4.9,21.4-10.9,43.2-23,65.2c-2.2,4.1-6.5,6.6-11.2,6.6h-25.2
					c-4.6,0-8.8-2.5-11-6.6c-9.7-18.1-19.1-39.6-23.7-64C170.6,608.5,174.9,603.2,180.7,603.2z"/>
			</g>
		</g>
		<g>
			
				<linearGradient id="SVGID_17_" gradientUnits="userSpaceOnUse" x1="389.3957" y1="367.8933" x2="448.8957" y2="253.8932" gradientTransform="matrix(1 0 0 1 300.6978 0)">
				<stop  offset="0" style="stop-color:#2B3582"/>
				<stop  offset="1" style="stop-color:#150E42"/>
			</linearGradient>
			<path class="st16" d="M695,391.5c0,0,8.8-22.3-17.1-18.9c-25.9,3.4-21.5,18.6-23.5,26.3c-2,7.6-12.9,16.3-43.1,28.1
				c-30.2,11.8-21.3,43.9-7.7,54.6c13.6,10.7,21,3.6,24.1,22c3.2,18.4,15.8,33.3,31.5,17.7c15.7-15.6,33.6-34,28.6-58.2
				c-5-24.2,0.7-19.6,10.4-30.7C707.9,421.2,687.2,410.5,695,391.5z"/>
			<g>
				<linearGradient id="SVGID_18_" gradientUnits="userSpaceOnUse" x1="520.8237" y1="677.5766" x2="536.9714" y2="576.0027">
					<stop  offset="0" style="stop-color:#53D8FF"/>
					<stop  offset="1" style="stop-color:#3840F7"/>
				</linearGradient>
				<rect x="522.9" y="600.5" class="st17" width="7.5" height="80.8"/>
				<linearGradient id="SVGID_19_" gradientUnits="userSpaceOnUse" x1="527.299" y1="678.6058" x2="543.4468" y2="577.0309">
					<stop  offset="0" style="stop-color:#53D8FF"/>
					<stop  offset="1" style="stop-color:#3840F7"/>
				</linearGradient>
				<path class="st18" d="M559.4,682.8h-65.4l0,0c0-2.7,2.2-4.9,4.9-4.9h55.7C557.2,678,559.4,680.2,559.4,682.8L559.4,682.8z"/>
				<linearGradient id="SVGID_20_" gradientUnits="userSpaceOnUse" x1="514.8227" y1="676.6228" x2="530.9704" y2="575.0488">
					<stop  offset="0" style="stop-color:#53D8FF"/>
					<stop  offset="1" style="stop-color:#3840F7"/>
				</linearGradient>
				<path class="st19" d="M569.1,597.7c0,4.4-3.6,8-8,8h-66.2c-4.4,0-8-3.6-8-8v-7.3c0-4.4,3.6-8,8-8h66.2c4.4,0,8,3.6,8,8V597.7z"
					/>
			</g>
			<g>
				
					<linearGradient id="SVGID_21_" gradientUnits="userSpaceOnUse" x1="-1973.687" y1="83.2428" x2="-1946.613" y2="159.1386" gradientTransform="matrix(-0.9756 -0.2194 -0.2194 0.9756 -1405.9772 -192.2486)">
					<stop  offset="0" style="stop-color:#2B3582"/>
					<stop  offset="1" style="stop-color:#150E42"/>
				</linearGradient>
				<path class="st20" d="M484.7,335.5c0,0,7.2-18-15.1-21c-22.3-3-30.9,15.8-39.7,40.4c-7.2,20.2-31.5,31.3-47.3,43.7
					c-19.9,15.6-29.1,39.5-21.8,64.7c6,20.6,28.5,27.5,47.8,26.7c59.1-2.4,73.9-1.1,77.4-38.5S484.7,335.5,484.7,335.5z"/>
				
					<linearGradient id="SVGID_22_" gradientUnits="userSpaceOnUse" x1="5333.8105" y1="439.1867" x2="5257.1885" y2="533.3828" gradientTransform="matrix(0.9922 -0.1247 0.1247 0.9922 -4789.9531 547.5703)">
					<stop  offset="0" style="stop-color:#F9B776"/>
					<stop  offset="1" style="stop-color:#F47960"/>
				</linearGradient>
				<path class="st21" d="M549.7,344.9c-0.5-1-1.9-0.8-2.2,0.2c-1.1,3.8-3.6,10.5-9.1,12.9c-0.3,0.1-0.5,0.2-0.8,0.4
					c-0.2-0.7-0.2-1.6,0.3-2.5c1.7-2.6-1.4-6.1-1.4-6.1s-0.2,3.1-2.6,5c-2,1.7-3,5.4-1.6,8.5c2.9,11.4,7.3,26.4-9.8,37.4
					c-17.1,11-41.2-20.8-41.2-20.8l12,37.9c0,0,18.4,13.6,39.9-5.5c21.5-19.1,7.2-47,7.2-47S557,358.8,549.7,344.9z"/>
				
					<linearGradient id="SVGID_23_" gradientUnits="userSpaceOnUse" x1="5234.5737" y1="748.7253" x2="5232.6802" y2="981.6165" gradientTransform="matrix(0.9922 -0.1247 0.1247 0.9922 -4789.9531 547.5703)">
					<stop  offset="0" style="stop-color:#EA4D70"/>
					<stop  offset="1" style="stop-color:#3840F7"/>
				</linearGradient>
				<path class="st22" d="M479.9,375.9c-5.1-1.5-20-4.4-34.2,8.7c-2.4,2.2-3.4,5.6-2.5,8.7c3.8,14,13.8,55.4,5,73.3
					c0,0,15.5,17.1,32.4,3.3c0,0,7.6-33.1,17.5-47.6c6.9-10-10.9-37.7-15.5-44.3C482.1,377,481.1,376.2,479.9,375.9z"/>
				
					<linearGradient id="SVGID_24_" gradientUnits="userSpaceOnUse" x1="-8003.2129" y1="1598.783" x2="-7999.1196" y2="1569.7186" gradientTransform="matrix(-0.9602 0.2794 0.2794 0.9602 -7653.5313 1090.4124)">
					<stop  offset="0" style="stop-color:#F9B776"/>
					<stop  offset="1" style="stop-color:#F47960"/>
				</linearGradient>
				<path class="st23" d="M465.8,348c0,0-7.6,21.4-8.1,30.8c0,0,8.4,3.8,16.2-2.6c0,0,0.8-21.4,2-25.2L465.8,348z"/>
				
					<linearGradient id="SVGID_25_" gradientUnits="userSpaceOnUse" x1="-8493.1699" y1="1441.9412" x2="-8454.8936" y2="1485.9485" gradientTransform="matrix(-0.9981 6.190000e-002 6.190000e-002 0.9981 -8082.3496 -576.3175)">
					<stop  offset="0" style="stop-color:#F9B776"/>
					<stop  offset="1" style="stop-color:#F47960"/>
				</linearGradient>
				<path class="st24" d="M483.1,331.3c0,0,13.2,31.4-0.1,36.6c-13.3,5.3-22.7-17-22.7-17s-1.2-15.8,4.7-19.8
					C470.7,327.1,483.1,331.3,483.1,331.3z"/>
				
					<linearGradient id="SVGID_26_" gradientUnits="userSpaceOnUse" x1="-1953.5514" y1="76.0602" x2="-1926.4775" y2="151.9558" gradientTransform="matrix(-0.9756 -0.2194 -0.2194 0.9756 -1405.9772 -192.2486)">
					<stop  offset="0" style="stop-color:#2B3582"/>
					<stop  offset="1" style="stop-color:#150E42"/>
				</linearGradient>
				<path class="st25" d="M475.6,322.8c0,0,8.4,4.1,8.7,8.4c0.3,4.3-14.3,4.9-18.2,4.2l-6.8,15.5c0,0-5.8-17.3-0.2-25.3
					C464.8,317.6,475.6,322.8,475.6,322.8z"/>
				
					<linearGradient id="SVGID_27_" gradientUnits="userSpaceOnUse" x1="-8483.6074" y1="1433.6222" x2="-8445.332" y2="1477.6292" gradientTransform="matrix(-0.9981 6.190000e-002 6.190000e-002 0.9981 -8082.3496 -576.3175)">
					<stop  offset="0" style="stop-color:#F9B776"/>
					<stop  offset="1" style="stop-color:#F47960"/>
				</linearGradient>
				<path class="st26" d="M464.5,349.7c0,0-5.6-10.4-9.8-5.4c-4.3,5,4.5,11.5,8.5,9.4L464.5,349.7z"/>
				
					<linearGradient id="SVGID_28_" gradientUnits="userSpaceOnUse" x1="5095.0059" y1="726.1398" x2="5186.3228" y2="564.9457" gradientTransform="matrix(1 -9.500000e-003 9.500000e-003 1 -4691.6743 45.0221)">
					<stop  offset="0" style="stop-color:#F9B776"/>
					<stop  offset="1" style="stop-color:#F47960"/>
				</linearGradient>
				<path class="st27" d="M500.5,539.4c-0.1,1.5,2.6,13.4,4,19.8c0.6,2.6,0.2,5.2-1.1,7.5l-49.7,83.7c-0.6,1-1,2.1-1.3,3.3
					c-0.9,3.9-2.8,13.5-1.8,22.3l2.6,5.3l-11.1-2.5l-2.4-29.9l3.1-1.9c2.7-1.7,4.8-4.1,6.1-7.1c4.5-10.9,15.7-38.7,18.5-52.3
					c3.3-15.4,20.4-27.9,20.4-27.9l-3-7.1L500.5,539.4z"/>
				
					<linearGradient id="SVGID_29_" gradientUnits="userSpaceOnUse" x1="5114.9121" y1="669.1485" x2="5141.6045" y2="669.1485" gradientTransform="matrix(1 -9.500000e-003 9.500000e-003 1 -4691.6743 45.0221)">
					<stop  offset="0" style="stop-color:#2B3582"/>
					<stop  offset="1" style="stop-color:#150E42"/>
				</linearGradient>
				<path class="st28" d="M429.6,668.4c0,0,6-9.5,6.7-13.2c0.7-3.7,2.7-10.3,6.4-8.3c0,0,1.7,18,1.1,25c-0.6,7,8,6.8,8,6.8
					s2.4,0.3,4.1,2.1c1.2,1.2,0.3,3.3-1.3,3.4c-2.8,0.2-7.2,0.2-11.9-0.7c-1.6-0.3-2.8-1.7-2.9-3.4l-1.2-20.7l-7.6,9.6L429.6,668.4z
					"/>
				
					<linearGradient id="SVGID_30_" gradientUnits="userSpaceOnUse" x1="5198.4902" y1="606.8925" x2="5061.9219" y2="650.5627" gradientTransform="matrix(1 -9.500000e-003 9.500000e-003 1 -4691.6743 45.0221)">
					<stop  offset="0" style="stop-color:#F9B776"/>
					<stop  offset="1" style="stop-color:#F47960"/>
				</linearGradient>
				<path class="st29" d="M470.8,552.7c0,0-1.8,74.8-2,85.5c-0.2,10.6,1.7,34.2,12.3,41.2l-4.6,3.4c0,0-5.8-4.9-11.5-14.4
					c-6.4-10.6-8.3-12.6-8.3-12.6l2.1-4.3c0.9-1.9,1.2-4,0.8-6.1c-2.3-11.1-10-48.2-12.1-56.2c-2.5-9.4-2.6-22,6-32.5
					C462.1,546.2,470.8,552.7,470.8,552.7z"/>
				
					<linearGradient id="SVGID_31_" gradientUnits="userSpaceOnUse" x1="5139.6592" y1="673.9694" x2="5171.479" y2="673.9694" gradientTransform="matrix(1 -9.500000e-003 9.500000e-003 1 -4691.6743 45.0221)">
					<stop  offset="0" style="stop-color:#2B3582"/>
					<stop  offset="1" style="stop-color:#150E42"/>
				</linearGradient>
				<path class="st30" d="M460.9,686.2c-0.3,0-0.6-0.2-0.7-0.6c-0.4-2.5-1.8-12.5-3-15.1c-1.4-3-5.9-15.5,0-16.5
					c0,0,14.7,21.5,17.5,24.3c2.8,2.9,6.4,1,6.4,1s2.7,0.8,4.8,3.5c1,1.3,0.1,3.1-1.5,3.1l-9.9,0.1c-2.9,0-5.5-1.7-6.5-4.4
					c-1.7-4.3-4.7-10.7-8.2-13.6l1.8,17.3C461.6,685.9,461.3,686.2,460.9,686.2L460.9,686.2z"/>
				
					<linearGradient id="SVGID_32_" gradientUnits="userSpaceOnUse" x1="5153.7891" y1="530.5196" x2="5109.1865" y2="734.1776" gradientTransform="matrix(1 -9.500000e-003 9.500000e-003 1 -4691.6743 45.0221)">
					<stop  offset="0" style="stop-color:#EA4D70"/>
					<stop  offset="1" style="stop-color:#3840F7"/>
				</linearGradient>
				<path class="st31" d="M483.1,461.8c0,0-2.2,7.1,1.2,18.8l21.2,74.2c0.3,1.2-0.3,2.4-1.4,2.8c-6.4,2.3-27.2,8.7-55.7,6.8
					c-1.4-0.1-2.6-1.1-3-2.5c-1.9-8.5-8.3-37.3-9.6-43.2c-5-22.6-10.6-46.9,14.1-61.7C461.2,461.8,471.8,464.7,483.1,461.8z"/>
				
					<linearGradient id="SVGID_33_" gradientUnits="userSpaceOnUse" x1="5177.4526" y1="575.2774" x2="5328.9365" y2="402.0019" gradientTransform="matrix(0.9922 -0.1247 0.1247 0.9922 -4789.9531 547.5703)">
					<stop  offset="0" style="stop-color:#F9B776"/>
					<stop  offset="1" style="stop-color:#F47960"/>
				</linearGradient>
				<path class="st32" d="M443.7,387.4c0,0-24.2,20.1-30.2,47.5c-6,27.4,35.3,30.4,35.3,30.4s5.6-6.3,12.3-4
					c6.7,2.2,0.5-10.9-7.3-10.9c-7.8,0-4.2,6.2-15.2,1.2c-10.7-4.9-17.4-19.9,10-42.7c1.6-1.3,2.9-3,3.6-4.9
					C457.6,390.5,453.4,381.7,443.7,387.4z"/>
				<path class="st33" d="M392.8,480.9C392.8,480.9,392.8,480.9,392.8,480.9c-5.3-0.3-11.5-2.5-15.5-5.4
					c-4.3-3.2-8.3-10.5-10.5-16.3c-4.7-12.3-3.5-24.5,3.7-36.3c5.3-8.8,14-17.6,26.5-26.9c5.4-4,11.3-8,17.4-11.9
					c0.1-0.1,0.3,0,0.3,0.1c0.1,0.1,0,0.3-0.1,0.3c-6.1,3.9-11.9,7.9-17.3,11.9c-12.4,9.2-21.1,18-26.4,26.8
					c-7.1,11.7-8.3,23.8-3.6,35.9c2.2,5.8,6.1,13,10.3,16.1c3.9,2.8,10,5,15.2,5.3c0.1,0,0.2,0.1,0.2,0.3
					C393.1,480.8,393,480.9,392.8,480.9z"/>
				<path class="st33" d="M482.5,327.9c-0.1,0-0.2-0.1-0.2-0.2c0-0.1-1.3-6.3-8.9-8c-0.1,0-0.2-0.2-0.2-0.3c0-0.1,0.2-0.2,0.3-0.2
					c7.9,1.8,9.3,8.3,9.3,8.4C482.7,327.7,482.6,327.9,482.5,327.9C482.5,327.9,482.5,327.9,482.5,327.9z"/>
			</g>
			<g>
				<g>
					
						<linearGradient id="SVGID_34_" gradientUnits="userSpaceOnUse" x1="-1085.2477" y1="519.4893" x2="-1069.4708" y2="519.4893" gradientTransform="matrix(-1 0 0 1 -632.0794 0)">
						<stop  offset="0" style="stop-color:#2B3582"/>
						<stop  offset="1" style="stop-color:#150E42"/>
					</linearGradient>
					<path class="st34" d="M450.8,531.4c0.3,0,0.7,0,1,0l-0.3-4.3c-3.1,0.2-5.7-0.8-7.5-2.7c-2-2.2-2.8-5.6-2.2-9.1
						c0.2-1.1,0.7-2.9,1.7-3.3c1.5-0.5,4.8,1.7,6.6,3.4l3-3.1c-1-1-6.3-5.9-10.9-4.5c-2.4,0.8-4,3-4.6,6.6
						c-0.9,4.8,0.3,9.5,3.2,12.7C443.3,529.9,446.8,531.4,450.8,531.4z"/>
				</g>
				
					<linearGradient id="SVGID_35_" gradientUnits="userSpaceOnUse" x1="-1111.0793" y1="520.5" x2="-1082.0793" y2="520.5" gradientTransform="matrix(-1 0 0 1 -632.0794 0)">
					<stop  offset="0" style="stop-color:#2B3582"/>
					<stop  offset="1" style="stop-color:#150E42"/>
				</linearGradient>
				<path class="st35" d="M450.9,506h27.5c0.5,0,0.6,0.5,0.6,1v20.9c0,4.1-3,7.1-7.2,7.1h-14.3c-4.1,0-7.5-3-7.5-7.1V507
					C450,506.5,450.4,506,450.9,506z"/>
			</g>
			<g>
				<linearGradient id="SVGID_36_" gradientUnits="userSpaceOnUse" x1="316.3518" y1="578.3163" x2="249.0787" y2="730.5664">
					<stop  offset="0" style="stop-color:#FDF53F"/>
					<stop  offset="0.6645" style="stop-color:#E57A58"/>
					<stop  offset="1" style="stop-color:#D93C65"/>
				</linearGradient>
				<path class="st36" d="M292.9,590.7c-2,2.9-9.7,68.2-10.9,92.4c-0.1,1.6,1.2,3,2.9,3l0,0c1.4,0,2.6-1,2.8-2.4l14.2-90.8
					L292.9,590.7z"/>
				<linearGradient id="SVGID_37_" gradientUnits="userSpaceOnUse" x1="371.8803" y1="602.8521" x2="304.607" y2="755.1025">
					<stop  offset="0" style="stop-color:#FDF53F"/>
					<stop  offset="0.6645" style="stop-color:#E57A58"/>
					<stop  offset="1" style="stop-color:#D93C65"/>
				</linearGradient>
				<path class="st37" d="M355.2,590.7c2,2.9,9.7,68.2,10.9,92.4c0.1,1.6-1.2,3-2.9,3l0,0c-1.4,0-2.6-1-2.8-2.4l-14.2-90.8
					L355.2,590.7z"/>
				<linearGradient id="SVGID_38_" gradientUnits="userSpaceOnUse" x1="307.1497" y1="667.642" x2="318.9521" y2="610.9909">
					<stop  offset="0" style="stop-color:#FDF53F"/>
					<stop  offset="0.6645" style="stop-color:#E57A58"/>
					<stop  offset="1" style="stop-color:#D93C65"/>
				</linearGradient>
				<path class="st38" d="M281.2,585.6l0,0.7c0,5.1,4.4,9.3,9.9,9.4l65.5,1.1c5.4,0.1,10-3.8,10.3-8.9l0-0.7
					c0.3-5.3-4.2-9.7-9.9-9.8l-65.6-1.2C285.9,576.3,281.2,580.4,281.2,585.6z"/>
			</g>
			<g>
				<linearGradient id="SVGID_39_" gradientUnits="userSpaceOnUse" x1="888.8244" y1="578.3163" x2="821.5513" y2="730.5664">
					<stop  offset="0" style="stop-color:#FDF53F"/>
					<stop  offset="0.6645" style="stop-color:#E57A58"/>
					<stop  offset="1" style="stop-color:#D93C65"/>
				</linearGradient>
				<path class="st39" d="M865.4,590.7c-2,2.9-9.7,68.2-10.9,92.4c-0.1,1.6,1.2,3,2.9,3l0,0c1.4,0,2.6-1,2.8-2.4l14.2-90.8
					L865.4,590.7z"/>
				<linearGradient id="SVGID_40_" gradientUnits="userSpaceOnUse" x1="944.3529" y1="602.8521" x2="877.0796" y2="755.1025">
					<stop  offset="0" style="stop-color:#FDF53F"/>
					<stop  offset="0.6645" style="stop-color:#E57A58"/>
					<stop  offset="1" style="stop-color:#D93C65"/>
				</linearGradient>
				<path class="st40" d="M927.7,590.7c2,2.9,9.7,68.2,10.9,92.4c0.1,1.6-1.2,3-2.9,3l0,0c-1.4,0-2.6-1-2.8-2.4l-14.2-90.8
					L927.7,590.7z"/>
				<linearGradient id="SVGID_41_" gradientUnits="userSpaceOnUse" x1="879.6223" y1="667.642" x2="891.4246" y2="610.9909">
					<stop  offset="0" style="stop-color:#FDF53F"/>
					<stop  offset="0.6645" style="stop-color:#E57A58"/>
					<stop  offset="1" style="stop-color:#D93C65"/>
				</linearGradient>
				<path class="st41" d="M853.7,585.6l0,0.7c0,5.1,4.4,9.3,9.9,9.4l65.5,1.1c5.4,0.1,10-3.8,10.3-8.9l0-0.7
					c0.3-5.3-4.2-9.7-9.9-9.8l-65.6-1.2C858.3,576.3,853.7,580.4,853.7,585.6z"/>
			</g>
			<g>
				<linearGradient id="SVGID_42_" gradientUnits="userSpaceOnUse" x1="443.9382" y1="530.9399" x2="479.3915" y2="530.9399">
					<stop  offset="0" style="stop-color:#F9B776"/>
					<stop  offset="1" style="stop-color:#F47960"/>
				</linearGradient>
				<path class="st42" d="M443.9,531.3l4.6-1.2l14-3.2c1.7-0.4,3.4-0.1,4.9,0.8l12,7.5l-33.1-0.1L443.9,531.3z"/>
				<g>
					<linearGradient id="SVGID_43_" gradientUnits="userSpaceOnUse" x1="400.1176" y1="680.498" x2="447.6332" y2="680.498">
						<stop  offset="0" style="stop-color:#CB236D"/>
						<stop  offset="1" style="stop-color:#4C246D"/>
					</linearGradient>
					<path class="st43" d="M419.2,680.7c-11.6,0-16.8-1-19.1-1.9c0.4,1.9,2.2,3.4,4.3,3.4h41.2c1.4,0,2.3-1.3,1.9-2.5
						C442.9,680.1,432.9,680.7,419.2,680.7z"/>
					<linearGradient id="SVGID_44_" gradientUnits="userSpaceOnUse" x1="436.7263" y1="589.1319" x2="423.7439" y2="678.8289">
						<stop  offset="0" style="stop-color:#CB236D"/>
						<stop  offset="1" style="stop-color:#4C246D"/>
					</linearGradient>
					<path class="st44" d="M447.6,679.7c-0.1-0.2-0.2-0.5-0.3-0.7c-3.1-4-9.4-10.3-18-10.2c-12.6,0.2-16.9,1.5-26.7,0.1l-2.3,7.6
						c-0.2,0.8-0.2,1.6-0.1,2.3c2.3,0.9,7.5,1.9,19.1,1.9C432.9,680.7,442.9,680.1,447.6,679.7z"/>
				</g>
				<linearGradient id="SVGID_45_" gradientUnits="userSpaceOnUse" x1="402.491" y1="666.1791" x2="415.3473" y2="666.1791">
					<stop  offset="0" style="stop-color:#F9B776"/>
					<stop  offset="1" style="stop-color:#F47960"/>
				</linearGradient>
				<path class="st45" d="M405.3,660.6l-2.8,9.6c0,0,6.3,2.9,11.8,0.6l1.1-8.3L405.3,660.6z"/>
				<g>
					<linearGradient id="SVGID_46_" gradientUnits="userSpaceOnUse" x1="474.6434" y1="671.0817" x2="513.0067" y2="671.0817">
						<stop  offset="0" style="stop-color:#CB236D"/>
						<stop  offset="1" style="stop-color:#4C246D"/>
					</linearGradient>
					<path class="st46" d="M490.7,674.6c-9.1,7.3-13.7,9.7-16.1,10.5c1.5,1.2,3.8,1.3,5.5,0l32.1-25.8c1.1-0.9,0.9-2.4-0.1-3.2
						C508.8,659.3,501.4,666.1,490.7,674.6z"/>
					<linearGradient id="SVGID_47_" gradientUnits="userSpaceOnUse" x1="501.0315" y1="598.4387" x2="488.049" y2="688.1359">
						<stop  offset="0" style="stop-color:#CB236D"/>
						<stop  offset="1" style="stop-color:#4C246D"/>
					</linearGradient>
					<path class="st47" d="M512.2,656.1c-0.2-0.1-0.4-0.3-0.7-0.3c-4.9-1.1-13.8-2.1-20.4,3.4c-9.7,8-12.3,11.8-20.8,16.8l3,7.4
						c0.3,0.8,0.8,1.4,1.4,1.8c2.4-0.7,7-3.2,16.1-10.5C501.4,666.1,508.8,659.3,512.2,656.1z"/>
				</g>
				<linearGradient id="SVGID_48_" gradientUnits="userSpaceOnUse" x1="331.4023" y1="608.1681" x2="433.1742" y2="608.1681">
					<stop  offset="0" style="stop-color:#2B3582"/>
					<stop  offset="1" style="stop-color:#150E42"/>
				</linearGradient>
				<path class="st48" d="M344.8,551.1c0,0,69.7,5.7,84,12.4c14.3,6.7-11.7,101.1-11.7,101.1s-3.9,1.9-12.6-0.8
					c0,0,8.9-69.7,2.3-84.8l-75.5-12.4L344.8,551.1z"/>
				<linearGradient id="SVGID_49_" gradientUnits="userSpaceOnUse" x1="463.3844" y1="667.2612" x2="478.7329" y2="667.2612">
					<stop  offset="0" style="stop-color:#F9B776"/>
					<stop  offset="1" style="stop-color:#F47960"/>
				</linearGradient>
				<path class="st49" d="M463.4,662.7c0.6,0.6,6.9,13.3,6.9,13.3s7-1.5,8.4-5.9l-6.3-11.4L463.4,662.7z"/>
				<linearGradient id="SVGID_50_" gradientUnits="userSpaceOnUse" x1="423.8468" y1="565.7661" x2="312.1181" y2="692.4443">
					<stop  offset="0" style="stop-color:#2B3582"/>
					<stop  offset="1" style="stop-color:#150E42"/>
				</linearGradient>
				<path class="st50" d="M302.8,550.5c0,0-2.3,5.5-2.2,12.7c0.1,10.1,8.2,18.2,18.2,18.7l82.4,3.8c1.7,0.1,3.2,1.3,3.7,3
					c1.9,7.5,11.4,30.5,57.7,76.4c1.2,1.2,3.1,1.4,4.6,0.5l6.6-4.2c0.7-0.4,0.9-1.3,0.5-2l-48-82c-2.5-4.2-6.6-7.2-11.3-8.4
					l-70.3-18L302.8,550.5z"/>
				<linearGradient id="SVGID_51_" gradientUnits="userSpaceOnUse" x1="378.1284" y1="450.9753" x2="385.6954" y2="431.8932">
					<stop  offset="0" style="stop-color:#F9B776"/>
					<stop  offset="1" style="stop-color:#F47960"/>
				</linearGradient>
				<path class="st51" d="M384.1,422.4c0,0-8.8,15.6-17.8,23.2l18.6,10.4c0,0,4.2-16.5,13.8-21.4L384.1,422.4z"/>
				<linearGradient id="SVGID_52_" gradientUnits="userSpaceOnUse" x1="346.8287" y1="494.342" x2="430.1715" y2="631.1632">
					<stop  offset="0" style="stop-color:#FDF53F"/>
					<stop  offset="0.6645" style="stop-color:#E57A58"/>
					<stop  offset="1" style="stop-color:#D93C65"/>
				</linearGradient>
				<path class="st52" d="M301.3,551.1c0,0,22.3,5.4,43.5,0c0,0,29.7-40,41.2-50.8c0,0,18.3,28.9,59.2,33l2.3-5.1
					c0,0-32.5-15-42.5-38c-10-23-14-32.8-23.1-38.9c-5.7-3.7-9.1-6.3-10.8-7.7c-1-0.8-2.3-0.9-3.3-0.2
					C358,449.3,312.6,480.5,301.3,551.1z"/>
				<path class="st53" d="M381.3,494c-0.5,0-1-0.2-1.3-0.6c-5.2-6.8-8.1-14.3-8.2-14.6c-0.3-0.8,0.1-1.8,0.9-2.1
					c0.8-0.3,1.8,0.1,2.1,0.9c0,0.1,2.9,7.4,7.8,13.8c0.5,0.7,0.4,1.7-0.3,2.3C382,493.9,381.6,494,381.3,494z"/>
				<g>
					
						<linearGradient id="SVGID_53_" gradientUnits="userSpaceOnUse" x1="2315.4556" y1="960.626" x2="2277.4622" y2="989.6967" gradientTransform="matrix(0.9914 -0.1306 0.1306 0.9914 -2019.7687 -237.7983)">
						<stop  offset="0" style="stop-color:#F9B776"/>
						<stop  offset="1" style="stop-color:#F47960"/>
					</linearGradient>
					<path class="st54" d="M398.1,399c0,0,8.6,14.3,10.1,22.2c1.5,7.9,3.9,12.8-5.1,15.6c-9,2.8-17.3-0.7-22.6-8.1
						c0,0-8.2-11.3-7.4-16.5C374,407,398.1,399,398.1,399z"/>
					<linearGradient id="SVGID_54_" gradientUnits="userSpaceOnUse" x1="376.1311" y1="388.4119" x2="415.0667" y2="438.5413">
						<stop  offset="0" style="stop-color:#CB236D"/>
						<stop  offset="1" style="stop-color:#4C246D"/>
					</linearGradient>
					<path class="st55" d="M383.6,410c0,0,27.1-9,24.7-21.7c-2.4-12.7-14.4-13.4-20.7-2.7c-6.3,10.8-24,12.4-20.6,22.5
						c1.4,6.1-10.7,11.8,15.4,23.4c-3-9.3-0.7-9.5,0.5-9.5c1.2,0,1.5,0,1.5,0S376.5,410.9,383.6,410z"/>
					
						<linearGradient id="SVGID_55_" gradientUnits="userSpaceOnUse" x1="2310.7429" y1="954.4672" x2="2272.7495" y2="983.538" gradientTransform="matrix(0.9914 -0.1306 0.1306 0.9914 -2019.7687 -237.7983)">
						<stop  offset="0" style="stop-color:#F9B776"/>
						<stop  offset="1" style="stop-color:#F47960"/>
					</linearGradient>
					<path class="st56" d="M383.4,424c0,0-3.8-9.3-7.8-6.1c-4,3.3,3.7,10.5,7.2,10.4L383.4,424z"/>
					<path class="st33" d="M401,397.1c-0.1,0-0.2-0.1-0.2-0.2c-0.1-0.1,0-0.3,0.1-0.3c0.1-0.1,3.1-1.4,3.1-6.8
						c0-5.4-6.3-8.4-6.4-8.4c-0.1-0.1-0.2-0.2-0.1-0.3c0.1-0.1,0.2-0.2,0.3-0.1c0.1,0,6.6,3.1,6.6,8.9
						C404.5,395.7,401.3,397.1,401,397.1C401.1,397.1,401.1,397.1,401,397.1z"/>
				</g>
			</g>
			<g>
				<linearGradient id="SVGID_56_" gradientUnits="userSpaceOnUse" x1="704.1292" y1="677.5766" x2="720.2769" y2="576.0027">
					<stop  offset="0" style="stop-color:#53D8FF"/>
					<stop  offset="1" style="stop-color:#3840F7"/>
				</linearGradient>
				<rect x="706.2" y="600.5" class="st57" width="7.5" height="80.8"/>
				<linearGradient id="SVGID_57_" gradientUnits="userSpaceOnUse" x1="710.6045" y1="678.6058" x2="726.7523" y2="577.0309">
					<stop  offset="0" style="stop-color:#53D8FF"/>
					<stop  offset="1" style="stop-color:#3840F7"/>
				</linearGradient>
				<path class="st58" d="M742.7,682.8h-65.4l0,0c0-2.7,2.2-4.9,4.9-4.9h55.7C740.5,678,742.7,680.2,742.7,682.8L742.7,682.8z"/>
				<linearGradient id="SVGID_58_" gradientUnits="userSpaceOnUse" x1="698.1282" y1="676.6228" x2="714.2759" y2="575.0488">
					<stop  offset="0" style="stop-color:#53D8FF"/>
					<stop  offset="1" style="stop-color:#3840F7"/>
				</linearGradient>
				<path class="st59" d="M752.4,597.7c0,4.4-3.6,8-8,8h-66.2c-4.4,0-8-3.6-8-8v-7.3c0-4.4,3.6-8,8-8h66.2c4.4,0,8,3.6,8,8V597.7z"
					/>
			</g>
			<g>
				<linearGradient id="SVGID_59_" gradientUnits="userSpaceOnUse" x1="628.4285" y1="612.9043" x2="681.5503" y2="612.9043">
					<stop  offset="0" style="stop-color:#F9B776"/>
					<stop  offset="1" style="stop-color:#F47960"/>
				</linearGradient>
				<path class="st60" d="M654.8,546.6c0,0-11.1,1.7-23.6,10.1c-2,1.3-3,3.6-2.7,5.9c1.5,11.8,7.6,50.2,27.9,87.6
					c1.1,2,1.4,4.3,0.9,6.5l-3.5,16.4l-6.5,6.1h16.8l11.2-30.3l-4.8-1.5c-3.7-1.2-6.3-4.6-6.3-8.5l-0.6-32.5
					c0.5-14.5-8.9-24.5-8.9-24.5l26.9-1.3L654.8,546.6z"/>
				<linearGradient id="SVGID_60_" gradientUnits="userSpaceOnUse" x1="660.9316" y1="647.5186" x2="653.1183" y2="767.3235">
					<stop  offset="0" style="stop-color:#CB236D"/>
					<stop  offset="1" style="stop-color:#4C246D"/>
				</linearGradient>
				<path class="st61" d="M640.7,682.1c-1.5,2,16.5,4.6,25.6,0.3c0,0,12.6-22,12.6-33.3c0,0-1-2.3-8.4-1.8c0,0-4.2,26-8.7,28.9
					c-4.5,2.9-12.5,0.3-12.5,0.3S642.9,679.2,640.7,682.1z"/>
				<linearGradient id="SVGID_61_" gradientUnits="userSpaceOnUse" x1="566.0547" y1="616.533" x2="678.1523" y2="616.533">
					<stop  offset="0" style="stop-color:#F9B776"/>
					<stop  offset="1" style="stop-color:#F47960"/>
				</linearGradient>
				<path class="st62" d="M678.2,582.4c-0.1-0.2-28.9-3.5-28.9-3.5s0.9,8.7-2,20.8S602,663.9,602,663.9l4.4,14
					c-13.7,4.8-27.2,5.5-40.4,2.4l27.5-16.5c0,0,25.7-87.6,41.4-103.2l28.8-10L678.2,582.4z"/>
				<linearGradient id="SVGID_62_" gradientUnits="userSpaceOnUse" x1="635.2228" y1="558.0557" x2="760.8044" y2="558.0557">
					<stop  offset="0" style="stop-color:#FDF53F"/>
					<stop  offset="0.6645" style="stop-color:#E57A58"/>
					<stop  offset="1" style="stop-color:#D93C65"/>
				</linearGradient>
				<path class="st63" d="M742.7,531.4c0,0,16.6,24.7,17.9,35.9c1.4,11.2-4.5,15.8-21.9,16.6s-63.8,0.7-63.8,0.7l-39.6-33.9
					c0,0,28.9-10.3,36.4-13.2C679.1,534.7,742.7,531.4,742.7,531.4z"/>
				<linearGradient id="SVGID_63_" gradientUnits="userSpaceOnUse" x1="585.5335" y1="642.6014" x2="577.7202" y2="762.4064">
					<stop  offset="0" style="stop-color:#CB236D"/>
					<stop  offset="1" style="stop-color:#4C246D"/>
				</linearGradient>
				<path class="st64" d="M604.8,673.3c0,0,4.8,4.6,1.5,9.8c0,0-37.8,6.7-48,3.7c0,0,2.1-4.9,13.7-10.4l-0.9,0.7
					c-1.1,0.8-0.4,2.6,0.9,2.5C579.7,679,595.4,677.6,604.8,673.3z"/>
			</g>
			<linearGradient id="SVGID_64_" gradientUnits="userSpaceOnUse" x1="690.5284" y1="454.0723" x2="750.093" y2="583.7126">
				<stop  offset="0" style="stop-color:#FDF53F"/>
				<stop  offset="0.6645" style="stop-color:#E57A58"/>
				<stop  offset="1" style="stop-color:#D93C65"/>
			</linearGradient>
			<path class="st65" d="M697.8,528.2c0,0-19.3-18.4-28.8-30.6c-5.1-6.6-6.7-15.2-4.4-23.2c4.3-14.6,12-29.8,12.8-32.1
				c1.1-3.6,22.7-3.5,22.7-3.5s42.6,27.6,59.3,74.5l-18.8,5.9c0,0-11.1-18.7-22.1-30.5c0,0,19,25.1,19.7,35.4L697.8,528.2z"/>
			<linearGradient id="SVGID_65_" gradientUnits="userSpaceOnUse" x1="693.0807" y1="469.8477" x2="685.5137" y2="421.2935">
				<stop  offset="0" style="stop-color:#F9B776"/>
				<stop  offset="1" style="stop-color:#F47960"/>
			</linearGradient>
			<path class="st66" d="M674.8,422.1c0.2,0.8,5.9,19.5,6.3,19.9c0.4,0.4,12.4,1,18-2.8l-13.9-27.3L674.8,422.1z"/>
			<g>
				
					<linearGradient id="SVGID_66_" gradientUnits="userSpaceOnUse" x1="460.869" y1="1254.317" x2="520.3702" y2="1140.3146" gradientTransform="matrix(-0.9996 -2.650000e-002 -2.650000e-002 0.9996 -386.2947 -4028.5259)">
					<stop  offset="0" style="stop-color:#F9B776"/>
					<stop  offset="1" style="stop-color:#F47960"/>
				</linearGradient>
				<path class="st67" d="M683.5,388.1c0,0,10.1,4.6,16.6,19.5c6.5,14.9,1.2,21.6-5.3,22.3c-6.5,0.8-16.2,0.4-26.3-9.4
					C658.4,410.7,670.4,382.6,683.5,388.1z"/>
				
					<linearGradient id="SVGID_67_" gradientUnits="userSpaceOnUse" x1="463.1563" y1="1255.5624" x2="522.6569" y2="1141.5612" gradientTransform="matrix(-0.9996 -2.650000e-002 -2.650000e-002 0.9996 -386.2947 -4028.5259)">
					<stop  offset="0" style="stop-color:#2B3582"/>
					<stop  offset="1" style="stop-color:#150E42"/>
				</linearGradient>
				<path class="st68" d="M675.6,412.8c0,0-7.1-21.8,12-21.5l4.4,3.3c0,0,7.3-11.8-4-17.8c-11.4-6-25-1.7-30.3,13.7
					c-5.3,15.4-6.4,25.7,1.5,33.4c8,7.6,11.5-0.7,11.5-0.7s-4.3-7.1-2.3-10.7c1.9-3.7,6,0.9,6,0.9L675.6,412.8z"/>
				
					<linearGradient id="SVGID_68_" gradientUnits="userSpaceOnUse" x1="473.223" y1="1260.7695" x2="532.7243" y2="1146.767" gradientTransform="matrix(-0.9996 -2.650000e-002 -2.650000e-002 0.9996 -386.2947 -4028.5259)">
					<stop  offset="0" style="stop-color:#F9B776"/>
					<stop  offset="1" style="stop-color:#F47960"/>
				</linearGradient>
				<path class="st69" d="M673.4,415.2c0,0-3.6-11.2-8.9-6.9c-5.3,4.3,3.9,10.4,7.6,12.4L673.4,415.2z"/>
			</g>
			<linearGradient id="SVGID_69_" gradientUnits="userSpaceOnUse" x1="724.153" y1="524.9773" x2="829.4552" y2="524.9773">
				<stop  offset="0" style="stop-color:#F9B776"/>
				<stop  offset="1" style="stop-color:#F47960"/>
			</linearGradient>
			<path class="st70" d="M658.5,529.5l14.2-13.7l19.6,8.3c0,0,19.5,3,30.7,0c11.2-3,11.2-3,11.2-3l25.3-7.9l4,11.2
				c1,2.8,0,6-2.5,7.8c-2.2,1.6-4.7,3.3-6.4,4c-3.3,1.5-82-1-82-1L658.5,529.5z"/>
			<g>
				<g>
					
						<linearGradient id="SVGID_70_" gradientUnits="userSpaceOnUse" x1="-10019.6406" y1="745.8447" x2="-10018.9902" y2="814.7914" gradientTransform="matrix(-1 0 0 1 -9229.2793 0)">
						<stop  offset="0" style="stop-color:#2B3582"/>
						<stop  offset="1" style="stop-color:#150E42"/>
					</linearGradient>
					<path class="st71" d="M811.3,664.5c0,0,0.8,4.5,1.1,9.8c0.1,2.3-1.5,4.2-3.8,4.5c-7.9,0.8-25.8,2.2-37.3,0.5
						c-1.6-0.2-2.2-2.2-1.1-3.3c4.7-4.4,16.1-13,34.9-14.8L811.3,664.5z"/>
					
						<linearGradient id="SVGID_71_" gradientUnits="userSpaceOnUse" x1="-10036.2598" y1="668.8486" x2="-10039.8379" y2="640.8801" gradientTransform="matrix(-1 0 0 1 -9229.2793 0)">
						<stop  offset="0" style="stop-color:#F9B776"/>
						<stop  offset="1" style="stop-color:#F47960"/>
					</linearGradient>
					<path class="st72" d="M815.2,654.4l-4,9.8c-0.5,1.3-1.9,2.2-3.3,2c-1-0.1-2.1-0.3-3.3-0.6c-2.3-0.7-3.5-3.1-2.8-5.3l3-10.1
						L815.2,654.4z"/>
					
						<linearGradient id="SVGID_72_" gradientUnits="userSpaceOnUse" x1="-10112.792" y1="746.7228" x2="-10112.1416" y2="815.6689" gradientTransform="matrix(-1 0 0 1 -9229.2793 0)">
						<stop  offset="0" style="stop-color:#2B3582"/>
						<stop  offset="1" style="stop-color:#150E42"/>
					</linearGradient>
					<path class="st73" d="M883.4,672.3c0,0-8,6.7-11.1,15.3c-0.9,2.4,1,4.8,3.5,4.8h16.4c2.4,0,4.2-2.2,3.8-4.5
						C895,682,891.9,672.3,883.4,672.3z"/>
					
						<linearGradient id="SVGID_73_" gradientUnits="userSpaceOnUse" x1="-10114.4492" y1="678.4345" x2="-10117.9355" y2="651.1796" gradientTransform="matrix(-1 0 0 1 -9229.2793 0)">
						<stop  offset="0" style="stop-color:#F9B776"/>
						<stop  offset="1" style="stop-color:#F47960"/>
					</linearGradient>
					<path class="st74" d="M893.3,663.6c0,0-1.6,7.1-2.9,11.9c-0.2,0.9-1.1,1.3-2,1c-2.5-0.9-4.5-1.3-6-1.1
						c-0.7,0.1-1.3-0.5-1.3-1.2l-0.2-11.9L893.3,663.6z"/>
					
						<linearGradient id="SVGID_74_" gradientUnits="userSpaceOnUse" x1="-10138.8115" y1="574.8708" x2="-10031.5098" y2="574.8708" gradientTransform="matrix(-1 0 0 1 -9229.2793 0)">
						<stop  offset="0" style="stop-color:#2B3582"/>
						<stop  offset="1" style="stop-color:#150E42"/>
					</linearGradient>
					<path class="st75" d="M850.8,503l-48.6,148.2c0,0,9.3,6.1,13.8,5.8l57.7-119.1c0,0,10.1,73.4,5.2,126l16.5,1.3
						c0,0,26.9-134.6,6.5-180.7L850.8,503z"/>
					
						<linearGradient id="SVGID_75_" gradientUnits="userSpaceOnUse" x1="-10116.5547" y1="558.4081" x2="-10112.6514" y2="550.603" gradientTransform="matrix(-1 0 0 1 -9229.2793 0)">
						<stop  offset="0" style="stop-color:#53D8FF"/>
						<stop  offset="1" style="stop-color:#3840F7"/>
					</linearGradient>
					<path class="st76" d="M873.4,536.6C873.4,536.6,873.4,536.6,873.4,536.6c0.3,0,0.5-0.3,0.5-0.5l-1.9-15c0-0.3-0.3-0.4-0.5-0.4
						c-0.3,0-0.4,0.3-0.4,0.5l1.9,15C872.9,536.5,873.1,536.6,873.4,536.6z"/>
				</g>
				
					<linearGradient id="SVGID_76_" gradientUnits="userSpaceOnUse" x1="-10052.333" y1="394.4582" x2="-10119.3281" y2="593.4913" gradientTransform="matrix(-1 0 0 1 -9229.2793 0)">
					<stop  offset="0" style="stop-color:#CB236D"/>
					<stop  offset="1" style="stop-color:#4C246D"/>
				</linearGradient>
				<path class="st77" d="M841.7,372.6c0,0,39.3,3.5,33.8,31.5c0,0,21.8,40.9,31.9,89.2c0.3,1.6-0.7,3.1-2.3,3.4l-65.5,11.2
					c-1.8,0.3-3.6-0.8-4-2.6l-15.7-60.5l-6.1,28.1l-19.4-5.1l16.3-82.7C810.7,385.2,813,373.1,841.7,372.6z"/>
				
					<linearGradient id="SVGID_77_" gradientUnits="userSpaceOnUse" x1="-10037.1846" y1="438.5793" x2="-10013.4434" y2="463.9464" gradientTransform="matrix(-1 0 0 1 -9229.2793 0)">
					<stop  offset="0" style="stop-color:#CB236D"/>
					<stop  offset="1" style="stop-color:#4C246D"/>
				</linearGradient>
				<path class="st78" d="M819.6,442.1c0,0,0.1,0,0.1,0c0.3-0.1,0.4-0.3,0.4-0.6l-5.5-25.1c-0.1-0.3-0.3-0.4-0.6-0.4
					c-0.3,0.1-0.4,0.3-0.4,0.6l5.5,25.1C819.1,441.9,819.3,442.1,819.6,442.1z"/>
				
					<linearGradient id="SVGID_78_" gradientUnits="userSpaceOnUse" x1="-10088.1016" y1="499.4287" x2="-10039.2422" y2="499.4287" gradientTransform="matrix(-1 0 0 1 -9229.2793 0)">
					<stop  offset="0" style="stop-color:#F9B776"/>
					<stop  offset="1" style="stop-color:#F47960"/>
				</linearGradient>
				<path class="st79" d="M823.5,516.7c2.1-1.1,4.5-1.4,6.8-0.9l4.6,1.1c1,0.2,1.9-0.4,2-1.4l4.7-42c5.9,2.8,14.4,2.5,17.2,2.3
					L848,525.3h-38L823.5,516.7z"/>
				
					<linearGradient id="SVGID_79_" gradientUnits="userSpaceOnUse" x1="-10043.0762" y1="438.1808" x2="-9951.834" y2="438.1808" gradientTransform="matrix(-1 0 0 1 -9229.2793 0)">
					<stop  offset="0" style="stop-color:#F9B776"/>
					<stop  offset="1" style="stop-color:#F47960"/>
				</linearGradient>
				<path class="st80" d="M722.6,425.6l1.1-3.8c0.7-2.2,2.3-4,4.4-4.8l20.8-8.4c0,0,0.3-2.7-4.4-4.5c-4.7-1.8-3.6-7.1-3.6-7.1
					s6.4,2.9,15.8,7.6c5.4,2.7,8.4,7.4,10,10.9l47.1,57.4l-5.5,3.8c-7.3,5-17.3,2.5-21.4-5.2l-25.5-48.9
					C748.6,426.4,735.6,427.1,722.6,425.6z"/>
				<g>
					
						<linearGradient id="SVGID_80_" gradientUnits="userSpaceOnUse" x1="-10075.9248" y1="387.0061" x2="-10044.1709" y2="354.4268" gradientTransform="matrix(-1 0 0 1 -9229.2793 0)">
						<stop  offset="0" style="stop-color:#F9B776"/>
						<stop  offset="1" style="stop-color:#F47960"/>
					</linearGradient>
					<path class="st81" d="M828.9,345.8l12.1,33.9c0,0-10.7,8.4-18.5,5.5l-6.1-19.4C816.4,365.8,821.1,342.1,828.9,345.8z"/>
					<g>
						
							<linearGradient id="SVGID_81_" gradientUnits="userSpaceOnUse" x1="-8390.3232" y1="306.9863" x2="-8432.875" y2="363.2788" gradientTransform="matrix(-0.8174 -0.576 -0.576 0.8174 -5864.9985 -4756.5879)">
							<stop  offset="0" style="stop-color:#F9B776"/>
							<stop  offset="1" style="stop-color:#F47960"/>
						</linearGradient>
						<path class="st82" d="M809.7,322.2c-0.3,0.5-10.2,36.2-10.2,36.2l20.5,5.2l14.4-32.5C834.5,331.1,815.2,314.5,809.7,322.2z"/>
						
							<linearGradient id="SVGID_82_" gradientUnits="userSpaceOnUse" x1="-8422.8213" y1="320.5655" x2="-8371.9922" y2="320.5655" gradientTransform="matrix(-0.8174 -0.576 -0.576 0.8174 -5864.9985 -4756.5879)">
							<stop  offset="0" style="stop-color:#2B3582"/>
							<stop  offset="1" style="stop-color:#150E42"/>
						</linearGradient>
						<path class="st83" d="M826.7,336l-6.2,17.7c-0.1,0.2-0.2,0.4-0.3,0.6c-0.8,1.2-4.1,5.1-7.9,1.6c-3.5-3.2-6.7-6.1-9.6-6.6
							c-1.3-0.2-2.6,0.6-3,1.9c-0.9,3.2-2.8,10.6-3.4,17.2c-0.1,1.3,0.8,2.6,2.1,2.8c4,0.8,12.5,2.1,19.6,1.6c1-0.1,1.8-0.6,2.2-1.5
							c2-4.3,7.9-17.2,10.2-20.6c2.1-3.2,7.2-3.1,9.4-2.9c0.7,0.1,1.4-0.2,1.9-0.6c1.9-1.7,5.5-5.9,0.4-10.9c-1.1-1.1-1-2.8,0.1-3.8
							c2.2-2,4.5-5.6,0.9-10.1c-3.7-4.5-8.5-3.8-11.5-2.7c-1.2,0.4-2.5-0.1-3.2-1.2c-0.4-0.6-1-1.1-2.1-1c-1.5,0.1-2.8-1.1-2.8-2.6
							c0.1-2.9-1-6.6-6.1-8.2c-9-2.8-14.6,5.9-15.1,12.3s9.3,8.9,15.2,8.5c4.4-0.3,7.7,4,9,6.2C826.9,334.4,827,335.3,826.7,336z"/>
						
							<linearGradient id="SVGID_83_" gradientUnits="userSpaceOnUse" x1="-8452.6445" y1="351.5655" x2="-8418.5146" y2="316.5497" gradientTransform="matrix(-0.8174 -0.576 -0.576 0.8174 -5864.9985 -4756.5879)">
							<stop  offset="0" style="stop-color:#F9B776"/>
							<stop  offset="1" style="stop-color:#F47960"/>
						</linearGradient>
						<path class="st84" d="M828,357.2c0,0,1.4-11.2,6.1-11.8c4.7-0.6,9.2,3.3,4.6,9.6C832.9,362.8,828,357.2,828,357.2z"/>
						<path class="st33" d="M811.2,323.5C811.2,323.5,811.2,323.5,811.2,323.5c-1.9-0.1-3.5-1-4.5-2.4c-1-1.4-1.2-3.1-0.7-4.8
							c0.8-2.9,3-5.8,5.9-7.7c0.1-0.1,0.3,0,0.3,0.1c0.1,0.1,0,0.3-0.1,0.3c-2.7,1.8-4.9,4.6-5.7,7.4c-0.4,1.6-0.2,3.1,0.7,4.4
							c0.9,1.3,2.4,2.1,4.1,2.2c0.1,0,0.2,0.1,0.2,0.3C811.4,323.4,811.3,323.5,811.2,323.5z"/>
					</g>
				</g>
				
					<linearGradient id="SVGID_84_" gradientUnits="userSpaceOnUse" x1="-10091.6182" y1="457.6238" x2="-10109.9121" y2="511.5287" gradientTransform="matrix(-1 0 0 1 -9229.2793 0)">
					<stop  offset="0" style="stop-color:#CB236D"/>
					<stop  offset="1" style="stop-color:#4C246D"/>
				</linearGradient>
				<path class="st85" d="M855,476.4c2.7,0,4.6-0.2,4.8-0.2l0.3,0l14.3-66.8c0.1-0.3-0.1-0.5-0.4-0.6c-0.3-0.1-0.5,0.1-0.6,0.4
					l-14.2,66.1c-2.1,0.2-13.5,0.9-19.5-3.3l12.4-58l-2.6-4.9c-0.1-0.2-0.4-0.3-0.7-0.2c-0.2,0.1-0.3,0.4-0.2,0.7l2.4,4.6
					l-12.5,58.3l0.2,0.2C843.3,475.8,850.3,476.4,855,476.4z"/>
			</g>
			<g>
				<linearGradient id="SVGID_85_" gradientUnits="userSpaceOnUse" x1="391.3593" y1="615.4606" x2="452.598" y2="615.4606">
					<stop  offset="0" style="stop-color:#9CFFFB"/>
					<stop  offset="1" style="stop-color:#9BFFFA"/>
				</linearGradient>
				<path class="st86" d="M394,689.3c-0.4,0-0.7-0.1-1.1-0.2c-1.4-0.6-2-2.3-1.4-3.8l55.9-141.9c0.6-1.5,2.1-2.2,3.5-1.5
					c1.4,0.6,2,2.3,1.4,3.8l-55.9,141.9C396,688.6,395.1,689.3,394,689.3z"/>
				<linearGradient id="SVGID_86_" gradientUnits="userSpaceOnUse" x1="398.4312" y1="615.4603" x2="459.6699" y2="615.4603">
					<stop  offset="0" style="stop-color:#9CFFFB"/>
					<stop  offset="1" style="stop-color:#9BFFFA"/>
				</linearGradient>
				<path class="st87" d="M457,689.3c-1,0-2-0.7-2.5-1.8l-55.9-141.9c-0.6-1.5,0-3.2,1.4-3.8c1.4-0.6,2.9,0,3.5,1.5l55.9,141.9
					c0.6,1.5,0,3.2-1.4,3.8C457.7,689.2,457.4,689.3,457,689.3z"/>
				<linearGradient id="SVGID_87_" gradientUnits="userSpaceOnUse" x1="770.7786" y1="615.4606" x2="832.0172" y2="615.4606">
					<stop  offset="0" style="stop-color:#9CFFFB"/>
					<stop  offset="1" style="stop-color:#9BFFFA"/>
				</linearGradient>
				<path class="st88" d="M773.4,689.3c-0.4,0-0.7-0.1-1.1-0.2c-1.4-0.6-2-2.3-1.4-3.8l55.9-141.9c0.6-1.5,2.1-2.2,3.5-1.5
					c1.4,0.6,2,2.3,1.4,3.8l-55.9,141.9C775.5,688.6,774.5,689.3,773.4,689.3z"/>
				<linearGradient id="SVGID_88_" gradientUnits="userSpaceOnUse" x1="777.8501" y1="615.4603" x2="839.0886" y2="615.4603">
					<stop  offset="0" style="stop-color:#9CFFFB"/>
					<stop  offset="1" style="stop-color:#9BFFFA"/>
				</linearGradient>
				<path class="st89" d="M836.4,689.3c-1,0-2-0.7-2.5-1.8l-55.9-141.9c-0.6-1.5,0-3.2,1.4-3.8c1.4-0.6,2.9,0,3.5,1.5l55.9,141.9
					c0.6,1.5,0,3.2-1.4,3.8C837.1,689.2,836.8,689.3,836.4,689.3z"/>
			</g>
			<g>
				
					<linearGradient id="SVGID_89_" gradientUnits="userSpaceOnUse" x1="-10024.3916" y1="522.2482" x2="-10095.1035" y2="568.0866" gradientTransform="matrix(-1 0 0 1 -9229.2793 0)">
					<stop  offset="0" style="stop-color:#53D8FF"/>
					<stop  offset="1" style="stop-color:#3840F7"/>
				</linearGradient>
				<path class="st90" d="M765.3,533.4h81V525h-81C767.1,525,767.1,533.4,765.3,533.4z"/>
				
					<linearGradient id="SVGID_90_" gradientUnits="userSpaceOnUse" x1="-8337.1426" y1="575.2576" x2="-8337.4893" y2="554.4477" gradientTransform="matrix(-1 0 0 1 -7529.2798 0)">
					<stop  offset="0" style="stop-color:#FDF53F"/>
					<stop  offset="0.6645" style="stop-color:#E57A58"/>
					<stop  offset="1" style="stop-color:#D93C65"/>
				</linearGradient>
				<path class="st91" d="M845.3,533.4c0.5,0,1-0.5,1-1V526c0-0.5-0.5-1-1-1h-81.4c-0.6,0-1-0.4-1-0.9s0.4-0.9,1-0.9h87.1
					c1.9,0,3.5,1.6,3.5,3.5v5.3c0,1.8-1.5,3.3-3.3,3.3h-87.3c-0.6,0-1-0.4-1-0.9c0-0.5,0.4-0.9,1-0.9H845.3z"/>
			</g>
			<linearGradient id="SVGID_91_" gradientUnits="userSpaceOnUse" x1="362.6322" y1="543.0026" x2="858.1281" y2="543.0026">
				<stop  offset="0" style="stop-color:#9CFFFB"/>
				<stop  offset="1" style="stop-color:#9BFFFA"/>
			</linearGradient>
			<path class="st92" d="M858,539c0.3-0.9-0.1-1.9-1-2.6c-0.9-0.7-2.3-1.2-3.7-1.2H368.2c-1.9,0-3.6,0.6-4.7,1.7
				c-1,1.1-1.2,2.4-0.4,3.5l5.3,7.5c1.2,1.7,3.8,2.8,6.7,2.8H850c2.7,0,5-1.3,5.5-3L858,539z"/>
			<g>
				<g>
					<linearGradient id="SVGID_92_" gradientUnits="userSpaceOnUse" x1="660.5352" y1="519.4893" x2="676.312" y2="519.4893">
						<stop  offset="0" style="stop-color:#53D8FF"/>
						<stop  offset="1" style="stop-color:#3840F7"/>
					</linearGradient>
					<path class="st93" d="M662.9,531.4c-0.3,0-0.7,0-1,0l0.3-4.3c3.1,0.2,5.7-0.8,7.5-2.7c2-2.2,2.8-5.6,2.2-9.1
						c-0.2-1.1-0.7-2.9-1.7-3.3c-1.5-0.5-4.8,1.7-6.6,3.4l-3-3.1c1-1,6.3-5.9,10.9-4.5c2.4,0.8,4,3,4.6,6.6
						c0.9,4.8-0.3,9.5-3.2,12.7C670.4,529.9,666.9,531.4,662.9,531.4z"/>
				</g>
				<linearGradient id="SVGID_93_" gradientUnits="userSpaceOnUse" x1="634" y1="520.5" x2="663.0739" y2="520.5">
					<stop  offset="0" style="stop-color:#53D8FF"/>
					<stop  offset="1" style="stop-color:#3840F7"/>
				</linearGradient>
				<path class="st94" d="M662.8,506h-27.5c-0.5,0-1.3,0.5-1.3,1v20.9c0,4.1,3.8,7.1,7.9,7.1h14.3c4.1,0,6.8-3,6.8-7.1V507
					C663,506.5,663.3,506,662.8,506z"/>
			</g>
			<g>
				<g>
					
						<linearGradient id="SVGID_94_" gradientUnits="userSpaceOnUse" x1="-1060.2477" y1="519.4893" x2="-1044.4708" y2="519.4893" gradientTransform="matrix(-1 0 0 1 -516.0794 0)">
						<stop  offset="0" style="stop-color:#53D8FF"/>
						<stop  offset="1" style="stop-color:#3840F7"/>
					</linearGradient>
					<path class="st95" d="M541.8,531.4c0.3,0,0.7,0,1,0l-0.3-4.3c-3.1,0.2-5.7-0.8-7.5-2.7c-2-2.2-2.8-5.6-2.2-9.1
						c0.2-1.1,0.7-2.9,1.7-3.3c1.5-0.5,4.8,1.7,6.6,3.4l3-3.1c-1-1-6.3-5.9-10.9-4.5c-2.4,0.8-4,3-4.6,6.6
						c-0.9,4.8,0.3,9.5,3.2,12.7C534.3,529.9,537.8,531.4,541.8,531.4z"/>
				</g>
				
					<linearGradient id="SVGID_95_" gradientUnits="userSpaceOnUse" x1="-1086.0793" y1="520.5" x2="-1057.0793" y2="520.5" gradientTransform="matrix(-1 0 0 1 -516.0794 0)">
					<stop  offset="0" style="stop-color:#53D8FF"/>
					<stop  offset="1" style="stop-color:#3840F7"/>
				</linearGradient>
				<path class="st96" d="M541.9,506h27.5c0.5,0,0.6,0.5,0.6,1v20.9c0,4.1-3,7.1-7.2,7.1h-14.3c-4.1,0-7.5-3-7.5-7.1V507
					C541,506.5,541.4,506,541.9,506z"/>
			</g>
			<g>
				<g>
					<linearGradient id="SVGID_96_" gradientUnits="userSpaceOnUse" x1="793.5352" y1="519.4893" x2="809.312" y2="519.4893">
						<stop  offset="0" style="stop-color:#2B3582"/>
						<stop  offset="1" style="stop-color:#150E42"/>
					</linearGradient>
					<path class="st97" d="M795.9,531.4c-0.3,0-0.7,0-1,0l0.3-4.3c3.1,0.2,5.7-0.8,7.5-2.7c2-2.2,2.8-5.6,2.2-9.1
						c-0.2-1.1-0.7-2.9-1.7-3.3c-1.5-0.5-4.8,1.7-6.6,3.4l-3-3.1c1-1,6.3-5.9,10.9-4.5c2.4,0.8,4,3,4.6,6.6
						c0.9,4.8-0.3,9.5-3.2,12.7C803.4,529.9,799.9,531.4,795.9,531.4z"/>
				</g>
				<linearGradient id="SVGID_97_" gradientUnits="userSpaceOnUse" x1="767" y1="520.5" x2="796.0739" y2="520.5">
					<stop  offset="0" style="stop-color:#2B3582"/>
					<stop  offset="1" style="stop-color:#150E42"/>
				</linearGradient>
				<path class="st98" d="M795.8,506h-27.5c-0.5,0-1.3,0.5-1.3,1v20.9c0,4.1,3.8,7.1,7.9,7.1h14.3c4.1,0,6.8-3,6.8-7.1V507
					C796,506.5,796.3,506,795.8,506z"/>
			</g>
			<g class="st99">
				<path class="st33" d="M643.5,417c-0.1,0-0.2-0.1-0.2-0.2c0-0.1,0-0.3,0.1-0.3c10.8-3.8,16.2-10.6,15.1-19.3
					c-1.2-9.1,4.6-10.6,4.6-10.6c0.1,0,0.3,0,0.3,0.2c0,0.1,0,0.3-0.2,0.3c-0.2,0.1-5.4,1.4-4.3,10.1
					C660.1,406.1,654.6,413.2,643.5,417C643.5,417,643.5,417,643.5,417z"/>
				<path class="st33" d="M620.8,485.1c0,0-0.1,0-0.1,0c-12.4-6.9-19.7-15.2-21.7-24.8c-2.6-12.5,5-22.6,5-22.7
					c0.1-0.1,0.2-0.1,0.3,0c0.1,0.1,0.1,0.2,0,0.3c-0.1,0.1-7.5,10.1-5,22.4c2,9.4,9.2,17.6,21.5,24.5c0.1,0.1,0.2,0.2,0.1,0.3
					C620.9,485.1,620.9,485.1,620.8,485.1z"/>
			</g>
			<g>
				<path class="st33" d="M459.7,503.7c-0.1,0-0.2,0-0.3-0.1c-0.2-0.1-4.3-3.4-4.6-7.1c-0.1-1.5,0.3-2.8,1.3-4
					c0.6-0.8,1.4-1.4,2.1-2c1.9-1.7,3.3-2.9,2.1-5.6c-0.4-1-1-1.9-1.5-2.8c-1.7-3-3.4-5.9,0.6-9.6c0.2-0.2,0.5-0.2,0.7,0
					c0.2,0.2,0.2,0.5,0,0.7c-3.4,3.2-2.2,5.4-0.4,8.4c0.5,0.9,1.1,1.9,1.5,2.9c1.5,3.4-0.5,5.1-2.4,6.8c-0.7,0.6-1.4,1.2-2,1.9
					c-0.8,1-1.2,2-1.1,3.2c0.3,3.3,4.2,6.4,4.3,6.4c0.2,0.2,0.3,0.5,0.1,0.7C460,503.7,459.8,503.7,459.7,503.7z"/>
				<path class="st33" d="M466.7,503.7c-0.1,0-0.2,0-0.3-0.1c-0.2-0.1-4.3-3.4-4.6-7.1c-0.1-1.5,0.3-2.8,1.3-4
					c0.6-0.8,1.4-1.4,2.1-2c1.9-1.7,3.3-2.9,2.1-5.6c-0.4-1-1-1.9-1.5-2.8c-1.7-3-3.4-5.9,0.6-9.6c0.2-0.2,0.5-0.2,0.7,0
					c0.2,0.2,0.2,0.5,0,0.7c-3.4,3.2-2.2,5.4-0.4,8.4c0.5,0.9,1.1,1.9,1.5,2.9c1.5,3.4-0.5,5.1-2.4,6.8c-0.7,0.6-1.4,1.2-2,1.9
					c-0.8,1-1.2,2-1.1,3.2c0.3,3.3,4.2,6.4,4.3,6.4c0.2,0.2,0.3,0.5,0.1,0.7C467,503.7,466.8,503.7,466.7,503.7z"/>
				<path class="st33" d="M473.7,503.7c-0.1,0-0.2,0-0.3-0.1c-0.2-0.1-4.3-3.4-4.6-7.1c-0.1-1.5,0.3-2.8,1.3-4
					c0.6-0.8,1.4-1.4,2.1-2c1.9-1.7,3.3-2.9,2.1-5.6c-0.4-1-1-1.9-1.5-2.8c-1.7-3-3.4-5.9,0.6-9.6c0.2-0.2,0.5-0.2,0.7,0
					c0.2,0.2,0.2,0.5,0,0.7c-3.4,3.2-2.2,5.4-0.4,8.4c0.5,0.9,1.1,1.9,1.5,2.9c1.5,3.4-0.5,5.1-2.4,6.8c-0.7,0.6-1.4,1.2-2,1.9
					c-0.8,1-1.2,2-1.1,3.2c0.3,3.3,4.2,6.4,4.3,6.4c0.2,0.2,0.3,0.5,0.1,0.7C474,503.7,473.8,503.7,473.7,503.7z"/>
			</g>
			<g>
				<path class="st33" d="M548.7,503.7c-0.1,0-0.2,0-0.3-0.1c-0.2-0.1-4.3-3.4-4.6-7.1c-0.1-1.5,0.3-2.8,1.3-4
					c0.6-0.8,1.4-1.4,2.1-2c1.9-1.7,3.3-2.9,2.1-5.6c-0.4-1-1-1.9-1.5-2.8c-1.7-3-3.4-5.9,0.6-9.6c0.2-0.2,0.5-0.2,0.7,0
					c0.2,0.2,0.2,0.5,0,0.7c-3.4,3.2-2.2,5.4-0.4,8.4c0.5,0.9,1.1,1.9,1.5,2.9c1.5,3.4-0.5,5.1-2.4,6.8c-0.7,0.6-1.4,1.2-2,1.9
					c-0.8,1-1.2,2-1.1,3.2c0.3,3.3,4.2,6.4,4.3,6.4c0.2,0.2,0.3,0.5,0.1,0.7C549,503.7,548.8,503.7,548.7,503.7z"/>
				<path class="st33" d="M555.7,503.7c-0.1,0-0.2,0-0.3-0.1c-0.2-0.1-4.3-3.4-4.6-7.1c-0.1-1.5,0.3-2.8,1.3-4
					c0.6-0.8,1.4-1.4,2.1-2c1.9-1.7,3.3-2.9,2.1-5.6c-0.4-1-1-1.9-1.5-2.8c-1.7-3-3.4-5.9,0.6-9.6c0.2-0.2,0.5-0.2,0.7,0
					c0.2,0.2,0.2,0.5,0,0.7c-3.4,3.2-2.2,5.4-0.4,8.4c0.5,0.9,1.1,1.9,1.5,2.9c1.5,3.4-0.5,5.1-2.4,6.8c-0.7,0.6-1.4,1.2-2,1.9
					c-0.8,1-1.2,2-1.1,3.2c0.3,3.3,4.2,6.4,4.3,6.4c0.2,0.2,0.3,0.5,0.1,0.7C556,503.7,555.8,503.7,555.7,503.7z"/>
				<path class="st33" d="M562.7,503.7c-0.1,0-0.2,0-0.3-0.1c-0.2-0.1-4.3-3.4-4.6-7.1c-0.1-1.5,0.3-2.8,1.3-4
					c0.6-0.8,1.4-1.4,2.1-2c1.9-1.7,3.3-2.9,2.1-5.6c-0.4-1-1-1.9-1.5-2.8c-1.7-3-3.4-5.9,0.6-9.6c0.2-0.2,0.5-0.2,0.7,0
					c0.2,0.2,0.2,0.5,0,0.7c-3.4,3.2-2.2,5.4-0.4,8.4c0.5,0.9,1.1,1.9,1.5,2.9c1.5,3.4-0.5,5.1-2.4,6.8c-0.7,0.6-1.4,1.2-2,1.9
					c-0.8,1-1.2,2-1.1,3.2c0.3,3.3,4.2,6.4,4.3,6.4c0.2,0.2,0.3,0.5,0.1,0.7C563,503.7,562.8,503.7,562.7,503.7z"/>
			</g>
			<g>
				<path class="st33" d="M654.7,503.7c-0.1,0-0.3-0.1-0.4-0.2c-0.2-0.2-0.1-0.5,0.1-0.7c0,0,3.9-3.1,4.3-6.4
					c0.1-1.2-0.2-2.2-1.1-3.2c-0.6-0.7-1.3-1.3-2-1.9c-1.9-1.7-3.9-3.4-2.4-6.8c0.5-1.1,1-2,1.5-2.9c1.7-3,3-5.2-0.4-8.4
					c-0.2-0.2-0.2-0.5,0-0.7c0.2-0.2,0.5-0.2,0.7,0c4,3.7,2.4,6.6,0.6,9.6c-0.5,0.9-1,1.8-1.5,2.8c-1.2,2.7,0.2,3.9,2.1,5.6
					c0.7,0.6,1.4,1.2,2.1,2c1,1.2,1.4,2.5,1.3,4c-0.4,3.7-4.5,7-4.6,7.1C654.9,503.7,654.8,503.7,654.7,503.7z"/>
				<path class="st33" d="M647.7,503.7c-0.1,0-0.3-0.1-0.4-0.2c-0.2-0.2-0.1-0.5,0.1-0.7c0,0,3.9-3.1,4.3-6.4
					c0.1-1.2-0.2-2.2-1.1-3.2c-0.6-0.7-1.3-1.3-2-1.9c-1.9-1.7-3.9-3.4-2.4-6.8c0.5-1.1,1-2,1.5-2.9c1.7-3,3-5.2-0.4-8.4
					c-0.2-0.2-0.2-0.5,0-0.7c0.2-0.2,0.5-0.2,0.7,0c4,3.7,2.4,6.6,0.6,9.6c-0.5,0.9-1,1.8-1.5,2.8c-1.2,2.7,0.2,3.9,2.1,5.6
					c0.7,0.6,1.4,1.2,2.1,2c1,1.2,1.4,2.5,1.3,4c-0.4,3.7-4.5,7-4.6,7.1C647.9,503.7,647.8,503.7,647.7,503.7z"/>
				<path class="st33" d="M640.7,503.7c-0.1,0-0.3-0.1-0.4-0.2c-0.2-0.2-0.1-0.5,0.1-0.7c0,0,3.9-3.1,4.3-6.4
					c0.1-1.2-0.2-2.2-1.1-3.2c-0.6-0.7-1.3-1.3-2-1.9c-1.9-1.7-3.9-3.4-2.4-6.8c0.5-1.1,1-2,1.5-2.9c1.7-3,3-5.2-0.4-8.4
					c-0.2-0.2-0.2-0.5,0-0.7c0.2-0.2,0.5-0.2,0.7,0c4,3.7,2.4,6.6,0.6,9.6c-0.5,0.9-1,1.8-1.5,2.8c-1.2,2.7,0.2,3.9,2.1,5.6
					c0.7,0.6,1.4,1.2,2.1,2c1,1.2,1.4,2.5,1.3,4c-0.4,3.7-4.5,7-4.6,7.1C640.9,503.7,640.8,503.7,640.7,503.7z"/>
			</g>
			<g>
				<path class="st33" d="M787.7,503.7c-0.1,0-0.3-0.1-0.4-0.2c-0.2-0.2-0.1-0.5,0.1-0.7c0,0,3.9-3.1,4.3-6.4
					c0.1-1.2-0.2-2.2-1.1-3.2c-0.6-0.7-1.3-1.3-2-1.9c-1.9-1.7-3.9-3.4-2.4-6.8c0.5-1.1,1-2,1.5-2.9c1.7-3,3-5.2-0.4-8.4
					c-0.2-0.2-0.2-0.5,0-0.7c0.2-0.2,0.5-0.2,0.7,0c4,3.7,2.4,6.6,0.6,9.6c-0.5,0.9-1,1.8-1.5,2.8c-1.2,2.7,0.2,3.9,2.1,5.6
					c0.7,0.6,1.4,1.2,2.1,2c1,1.2,1.4,2.5,1.3,4c-0.4,3.7-4.5,7-4.6,7.1C787.9,503.7,787.8,503.7,787.7,503.7z"/>
				<path class="st33" d="M780.7,503.7c-0.1,0-0.3-0.1-0.4-0.2c-0.2-0.2-0.1-0.5,0.1-0.7c0,0,3.9-3.1,4.3-6.4
					c0.1-1.2-0.2-2.2-1.1-3.2c-0.6-0.7-1.3-1.3-2-1.9c-1.9-1.7-3.9-3.4-2.4-6.8c0.5-1.1,1-2,1.5-2.9c1.7-3,3-5.2-0.4-8.4
					c-0.2-0.2-0.2-0.5,0-0.7c0.2-0.2,0.5-0.2,0.7,0c4,3.7,2.4,6.6,0.6,9.6c-0.5,0.9-1,1.8-1.5,2.8c-1.2,2.7,0.2,3.9,2.1,5.6
					c0.7,0.6,1.4,1.2,2.1,2c1,1.2,1.4,2.5,1.3,4c-0.4,3.7-4.5,7-4.6,7.1C780.9,503.7,780.8,503.7,780.7,503.7z"/>
				<path class="st33" d="M773.7,503.7c-0.1,0-0.3-0.1-0.4-0.2c-0.2-0.2-0.1-0.5,0.1-0.7c0,0,3.9-3.1,4.3-6.4
					c0.1-1.2-0.2-2.2-1.1-3.2c-0.6-0.7-1.3-1.3-2-1.9c-1.9-1.7-3.9-3.4-2.4-6.8c0.5-1.1,1-2,1.5-2.9c1.7-3,3-5.2-0.4-8.4
					c-0.2-0.2-0.2-0.5,0-0.7c0.2-0.2,0.5-0.2,0.7,0c4,3.7,2.4,6.6,0.6,9.6c-0.5,0.9-1,1.8-1.5,2.8c-1.2,2.7,0.2,3.9,2.1,5.6
					c0.7,0.6,1.4,1.2,2.1,2c1,1.2,1.4,2.5,1.3,4c-0.4,3.7-4.5,7-4.6,7.1C773.9,503.7,773.8,503.7,773.7,503.7z"/>
			</g>
		</g>
		<g class="st100">
			<linearGradient id="SVGID_98_" gradientUnits="userSpaceOnUse" x1="425.6201" y1="215.9677" x2="585.0226" y2="215.9677">
				<stop  offset="0" style="stop-color:#A737D5"/>
				<stop  offset="1" style="stop-color:#EF497A"/>
			</linearGradient>
			<path class="st101" d="M585,234.2c-3.4-14.6-11.8-9.6-25.8-14.1c-14-4.5-9.9-20.5-18.7-25.5c-11.6-6.6-22.3-0.5-29.5,8.2
				c-12,14.4-20.2,2.7-34.6,8.5c-8.2,3.3-4.7,8-15.8,9.9c-7.8,1.3-16.2-1.8-23.9,0.1c-5.7,1.4-9.8,3.9-11,8.9c1.6,0.7,3.3,1.3,5,1.9
				c21.5,7.1,50.7,4.7,72.4,5.7C510.4,238.2,587.4,244.5,585,234.2z"/>
			<linearGradient id="SVGID_99_" gradientUnits="userSpaceOnUse" x1="566.0748" y1="153.3937" x2="674.6608" y2="153.3937">
				<stop  offset="0" style="stop-color:#A737D5"/>
				<stop  offset="1" style="stop-color:#EF497A"/>
			</linearGradient>
			<path class="st102" d="M641,143.8c-3.7-4.1-9.2-5.8-14.6-4.6c-5.9,1.3-9.2,6.5-14.7,8.5c-9.5,3.6-22.7-3.5-30,5.7
				c-8.9,11.3-15.7,2.8-15.7,10.5c0,7.7,61.2,2,91.4,2.4c4.4,0.1,23.3-0.2,15.2-8.5c-2.5-2.6-6.1-3-9.5-3.6
				c-4.4-0.8-14.8-1.2-18-4.3c-1.7-1.7-2.4-4.1-3.9-5.9C641.1,143.9,641.1,143.9,641,143.8z"/>
		</g>
		<g>
			
				<linearGradient id="SVGID_100_" gradientUnits="userSpaceOnUse" x1="-965.2217" y1="222.2894" x2="-1120.4567" y2="27.5484" gradientTransform="matrix(0.966 0.2585 -0.2585 0.966 1741.5959 303.5395)">
				<stop  offset="0" style="stop-color:#FDF53F"/>
				<stop  offset="1" style="stop-color:#D93C65"/>
			</linearGradient>
			<path class="st103" d="M738.2,199.7c-30.7,2.5-64.6,20.4-69.4,53.4c-4.1,28.1,25,44.5,43.2,52.5c5.1,2.2,9.2,6.2,11.5,11.2
				c5.6,12,18.8,33.1,41,27.4c1.6-0.4,1.6-2.7-0.1-3.1c-5.2-1.2-12.3-3.9-15.9-10c-5-8.4,0.5-19.1,10.2-20.3
				c18.3-2.3,54.4-12.3,61.5-54.8C829.8,198.4,738.2,199.7,738.2,199.7z"/>
			<path class="st104" d="M686.2,233c-0.4,0-0.9-0.1-1.2-0.4c-0.9-0.7-1-1.9-0.3-2.8c17-21.7,44.8-26,65.2-25.7c1.1,0,2,0.9,2,2
				c0,1.1-0.9,2-2,2c-19.5-0.3-46,3.7-62,24.2C687.4,232.7,686.8,233,686.2,233z"/>
			<path class="st104" d="M675.4,256.9c-0.1,0-0.2,0-0.2,0c-1.1-0.1-1.9-1.1-1.8-2.2c0-0.2,0.5-3.8,2.4-9.1c0.4-1,1.5-1.6,2.6-1.2
				c1,0.4,1.6,1.5,1.2,2.6c-1.8,4.8-2.2,8.2-2.2,8.2C677.3,256.1,676.4,256.9,675.4,256.9z"/>
			<path class="st33" d="M803,233.6c0,1.3-1.1,2.4-2.4,2.4h-95.3c-1.3,0-2.4-1.1-2.4-2.4v-0.3c0-1.3,1.1-2.4,2.4-2.4h95.3
				c1.3,0,2.4,1.1,2.4,2.4V233.6z"/>
			<path class="st33" d="M796,282.9c0,1.2-0.2,2.1-1.4,2.1h-89.1c-1.2,0-2.5-0.9-2.5-2.1v-0.3c0-1.2,1.3-2.6,2.5-2.6h89.1
				c1.2,0,1.4,1.4,1.4,2.6V282.9z"/>
			<path class="st33" d="M804,251.3c0,1.4-0.9,1.7-2.3,1.7H696.9c-1.4,0-2.9-0.3-2.9-1.7V251c0-1.4,1.4-3,2.9-3h104.8
				c1.4,0,2.3,1.5,2.3,3V251.3z"/>
			<path class="st33" d="M804,266.3c0,1.4-0.9,1.7-2.3,1.7H696.9c-1.4,0-2.9-0.3-2.9-1.7V266c0-1.4,1.4-3,2.9-3h104.8
				c1.4,0,2.3,1.5,2.3,3V266.3z"/>
		</g>
		<g>
			<g>
				<path class="st33" d="M943.5,585.7l1.7-4.7c0.1-0.3,0.5-0.5,0.8-0.4c0.3,0.1,0.5,0.5,0.4,0.8l0,0l-1.8,4.7
					c-0.1,0.3-0.4,0.5-0.7,0.3C943.6,586.3,943.4,586,943.5,585.7z"/>
				<path class="st33" d="M947.5,573.4l1.1-4.9c0.1-0.4,0.4-0.6,0.8-0.5c0.4,0.1,0.6,0.4,0.5,0.8l0,0l-1.1,4.9
					c-0.1,0.4-0.4,0.6-0.8,0.5C947.6,574.1,947.4,573.7,947.5,573.4z"/>
				<path class="st33" d="M949.5,560.7l0.1-5c0-0.4,0.3-0.7,0.8-0.7c0.4,0,0.7,0.3,0.7,0.8l0,0l-0.1,5c0,0.4-0.3,0.7-0.7,0.7
					C949.8,561.4,949.5,561.1,949.5,560.7z"/>
				<path class="st33" d="M948.6,548c0,0-0.3-1.2-0.6-2.4c-0.4-1.1-0.7-2.3-0.7-2.3l0-0.1c-0.1-0.4,0.1-0.9,0.5-1
					c0.4-0.1,0.9,0.1,1,0.5c0,0,0,0,0,0c0,0,0.4,1.2,0.8,2.5c0.3,1.2,0.6,2.4,0.6,2.4c0.1,0.4-0.2,0.9-0.6,1
					C949.2,548.6,948.7,548.4,948.6,548z"/>
				<path class="st33" d="M943.8,536.3c0,0-0.7-1-1.4-2.1c-0.8-0.9-1.5-1.9-1.5-1.9l0,0c-0.3-0.4-0.2-0.9,0.1-1.3
					c0.4-0.3,0.9-0.2,1.3,0.1c0,0,0,0,0,0c0,0,0.8,1,1.6,2c0.7,1,1.4,2.1,1.4,2.1c0.3,0.4,0.2,0.9-0.2,1.2
					C944.6,536.8,944.1,536.7,943.8,536.3z"/>
				<path class="st33" d="M935.3,526.9l-4.1-2.9c-0.4-0.3-0.5-0.9-0.2-1.3c0.3-0.4,0.9-0.5,1.3-0.2l0,0l4,3c0.4,0.3,0.5,0.9,0.2,1.3
					C936.3,527.2,935.7,527.2,935.3,526.9z"/>
				<path class="st33" d="M924.4,520.3l-4.6-2c-0.5-0.2-0.8-0.8-0.5-1.4c0.2-0.5,0.8-0.8,1.4-0.5l0,0l4.6,2c0.5,0.2,0.7,0.8,0.5,1.3
					C925.5,520.3,924.9,520.5,924.4,520.3z"/>
				<path class="st33" d="M912.4,515.8l-4.8-1.3c-0.6-0.2-0.9-0.8-0.8-1.3c0.2-0.6,0.8-0.9,1.3-0.8l0,0l4.8,1.3
					c0.6,0.2,0.9,0.8,0.7,1.3C913.6,515.6,913,515.9,912.4,515.8z"/>
				<path class="st33" d="M899.9,512.9l-4.9-0.8c-0.6-0.1-1.1-0.7-1-1.3c0.1-0.6,0.7-1.1,1.3-1l0,0l4.9,0.9c0.6,0.1,1,0.7,0.9,1.3
					C901.1,512.5,900.5,513,899.9,512.9z"/>
				<path class="st33" d="M887.1,511.1l-5-0.5c-0.7-0.1-1.2-0.7-1.1-1.4c0.1-0.7,0.7-1.2,1.4-1.1l0,0l5,0.5c0.7,0.1,1.2,0.7,1.1,1.3
					C888.3,510.6,887.7,511.1,887.1,511.1z"/>
				<path class="st33" d="M874.2,510.1l-5-0.2c-0.7,0-1.3-0.6-1.2-1.4c0-0.7,0.6-1.3,1.4-1.2l0,0l5,0.2c0.7,0,1.3,0.6,1.2,1.3
					C875.5,509.6,874.9,510.1,874.2,510.1z"/>
				<path class="st33" d="M861.3,509.8l-5,0c-0.7,0-1.3-0.6-1.3-1.3c0-0.7,0.6-1.3,1.3-1.3h0l5,0c0.7,0,1.3,0.6,1.3,1.3
					C862.6,509.2,862,509.8,861.3,509.8z"/>
				<path class="st33" d="M848.3,509.9l-5,0.2c-0.8,0-1.4-0.6-1.4-1.3c0-0.8,0.6-1.4,1.3-1.4l0,0l5-0.1c0.8,0,1.4,0.6,1.4,1.3
					C849.6,509.3,849.1,509.9,848.3,509.9z"/>
				<path class="st33" d="M835.4,510.5l-5,0.3c-0.8,0.1-1.5-0.5-1.5-1.3c-0.1-0.8,0.5-1.5,1.3-1.5l0,0l5-0.3c0.8,0,1.4,0.5,1.5,1.3
					C836.7,509.8,836.1,510.5,835.4,510.5z"/>
				<path class="st33" d="M822.4,511.4l-5,0.4c-0.8,0.1-1.5-0.5-1.6-1.3c-0.1-0.8,0.5-1.5,1.3-1.6l0,0l5-0.4
					c0.8-0.1,1.5,0.5,1.6,1.3C823.8,510.7,823.2,511.4,822.4,511.4z"/>
				<path class="st33" d="M809.5,512.6l-5,0.5c-0.8,0.1-1.6-0.5-1.7-1.3c-0.1-0.8,0.5-1.6,1.3-1.7l0,0l5-0.5
					c0.8-0.1,1.5,0.5,1.6,1.3C810.9,511.8,810.3,512.5,809.5,512.6z"/>
				<path class="st33" d="M796.6,514.1l-5,0.6c-0.8,0.1-1.6-0.5-1.7-1.3c-0.1-0.8,0.5-1.6,1.3-1.7l0,0l5-0.6
					c0.8-0.1,1.6,0.5,1.7,1.3C798,513.2,797.4,514,796.6,514.1z"/>
				<path class="st33" d="M783.7,515.7l-5,0.6c-0.9,0.1-1.7-0.5-1.8-1.4s0.5-1.7,1.4-1.8l0,0l5-0.6c0.9-0.1,1.6,0.5,1.7,1.4
					C785.2,514.8,784.6,515.6,783.7,515.7z"/>
				<path class="st33" d="M770.8,517.4l-5,0.7c-0.9,0.1-1.7-0.5-1.8-1.4c-0.1-0.9,0.5-1.7,1.4-1.8l0,0l5-0.6
					c0.9-0.1,1.7,0.5,1.8,1.4C772.3,516.5,771.7,517.2,770.8,517.4z"/>
				<path class="st33" d="M757.9,519l-5,0.6c-0.9,0.1-1.7-0.5-1.8-1.5c-0.1-0.9,0.5-1.7,1.5-1.8l0,0l5-0.5c0.9-0.1,1.7,0.6,1.8,1.5
					C759.5,518.1,758.8,518.9,757.9,519z"/>
				<path class="st33" d="M745,520.4l-5,0.5c-0.9,0.1-1.8-0.6-1.9-1.5s0.6-1.8,1.5-1.9l0,0l5-0.5c0.9-0.1,1.7,0.6,1.8,1.5
					C746.6,519.5,745.9,520.4,745,520.4z"/>
				<path class="st33" d="M732,521.7l-5,0.4c-1,0.1-1.8-0.6-1.9-1.6c-0.1-1,0.6-1.8,1.6-1.9l0,0l5-0.4c0.9-0.1,1.8,0.6,1.9,1.6
					C733.6,520.8,732.9,521.6,732,521.7z"/>
				<path class="st33" d="M719,522.8l-5,0.4c-1,0.1-1.8-0.7-1.9-1.6c-0.1-1,0.7-1.8,1.6-1.9l0,0l5-0.3c1-0.1,1.8,0.7,1.9,1.6
					C720.7,521.8,720,522.7,719,522.8z"/>
				<path class="st33" d="M706,523.6l-5,0.3c-1,0.1-1.8-0.7-1.9-1.7c-0.1-1,0.7-1.8,1.7-1.9l0,0l5-0.3c1-0.1,1.8,0.7,1.9,1.7
					C707.8,522.7,707,523.6,706,523.6z"/>
				<path class="st33" d="M693,524.3l-5,0.2c-1,0-1.8-0.7-1.9-1.7c0-1,0.7-1.8,1.7-1.9l0,0l5-0.2c1,0,1.8,0.7,1.9,1.7
					C694.8,523.4,694,524.2,693,524.3z"/>
				<path class="st33" d="M680,524.7l-5,0.1c-1,0-1.8-0.8-1.9-1.8c0-1,0.8-1.8,1.8-1.9l0,0l5-0.1c1,0,1.8,0.8,1.9,1.8
					C681.8,523.9,681,524.7,680,524.7z"/>
				<path class="st33" d="M667,525l-5,0.1c-1,0-1.8-0.8-1.9-1.8c0-1,0.8-1.8,1.8-1.9h0l5-0.1c1,0,1.8,0.8,1.8,1.8
					C668.8,524.2,668,525,667,525z"/>
				<path class="st33" d="M653.9,525.1l-5,0c-1,0-1.8-0.8-1.8-1.8c0-1,0.8-1.8,1.8-1.8h0l5,0c1,0,1.8,0.8,1.8,1.8
					C655.8,524.3,655,525.1,653.9,525.1z"/>
				<path class="st33" d="M640.9,525l-5-0.1c-1,0-1.8-0.9-1.8-1.9c0-1,0.9-1.8,1.9-1.8h0l5,0.1c1,0,1.8,0.9,1.8,1.9
					C642.8,524.2,641.9,525.1,640.9,525z"/>
				<path class="st33" d="M627.9,524.8l-5-0.1c-1,0-1.8-0.9-1.8-1.9c0-1,0.9-1.8,1.9-1.8l0,0l5,0.2c1,0,1.8,0.9,1.8,1.9
					S628.9,524.8,627.9,524.8z"/>
				<path class="st33" d="M614.9,524.3l-5-0.2c-1,0-1.8-0.9-1.8-2c0-1,0.9-1.8,2-1.8l0,0l5,0.2c1,0,1.8,0.9,1.8,2
					C616.8,523.6,615.9,524.4,614.9,524.3z"/>
				<path class="st33" d="M601.9,523.7l-5-0.3c-1-0.1-1.8-1-1.8-2c0.1-1,1-1.8,2-1.8l0,0l5,0.3c1,0.1,1.8,1,1.8,2
					C603.8,523,602.9,523.8,601.9,523.7z"/>
				<path class="st33" d="M588.9,522.9l-5-0.4c-1.1-0.1-1.8-1-1.8-2c0.1-1.1,1-1.8,2-1.8l0,0l5,0.4c1,0.1,1.8,1,1.8,2
					C590.8,522.2,589.9,523,588.9,522.9z"/>
				<path class="st33" d="M575.9,522l-5-0.4c-1.1-0.1-1.8-1-1.8-2.1c0.1-1.1,1-1.8,2.1-1.8l0,0l5,0.4c1.1,0.1,1.8,1,1.7,2.1
					C577.9,521.3,576.9,522.1,575.9,522z"/>
				<path class="st33" d="M562.9,520.8l-5-0.5c-1.1-0.1-1.8-1.1-1.7-2.1c0.1-1.1,1.1-1.8,2.1-1.7l0,0l5,0.5c1.1,0.1,1.8,1.1,1.7,2.1
					C564.9,520.2,564,520.9,562.9,520.8z"/>
				<path class="st33" d="M549.9,519.5l-5-0.6c-1.1-0.1-1.8-1.1-1.7-2.2c0.1-1.1,1.1-1.8,2.2-1.7l0,0l5,0.6c1.1,0.1,1.8,1.1,1.7,2.1
					C552,518.9,551,519.6,549.9,519.5z"/>
				<path class="st33" d="M537,518l-5-0.6c-1.1-0.1-1.8-1.1-1.7-2.2c0.1-1.1,1.1-1.8,2.2-1.7l0,0l5,0.6c1.1,0.1,1.8,1.1,1.7,2.2
					S538.1,518.1,537,518z"/>
				<path class="st33" d="M524.1,516.3l-5-0.7c-1.1-0.1-1.8-1.1-1.7-2.2c0.1-1.1,1.1-1.8,2.2-1.7l0,0l5,0.7c1.1,0.2,1.8,1.1,1.7,2.2
					C526.2,515.7,525.2,516.5,524.1,516.3z"/>
				<path class="st33" d="M511.2,514.5l-4.9-0.8c-1.1-0.2-1.8-1.2-1.7-2.3c0.2-1.1,1.2-1.8,2.3-1.7l0,0l4.9,0.8
					c1.1,0.2,1.8,1.2,1.7,2.3C513.3,513.9,512.3,514.7,511.2,514.5z"/>
				<path class="st33" d="M498.3,512.5l-4.9-0.8c-1.1-0.2-1.8-1.2-1.6-2.3c0.2-1.1,1.2-1.8,2.3-1.6l0,0l4.9,0.8
					c1.1,0.2,1.8,1.2,1.6,2.3C500.4,511.9,499.4,512.7,498.3,512.5z"/>
				<path class="st33" d="M485.5,510.3l-4.9-0.9c-1.1-0.2-1.8-1.2-1.6-2.3c0.2-1.1,1.2-1.8,2.3-1.6l4.9,0.9c1.1,0.2,1.8,1.2,1.6,2.3
					C487.6,509.7,486.6,510.5,485.5,510.3L485.5,510.3z"/>
				<path class="st33" d="M472.7,507.9l-4.9-1c-1.1-0.2-1.8-1.2-1.6-2.3c0.2-1.1,1.2-1.8,2.3-1.6l4.9,1c1.1,0.2,1.8,1.2,1.6,2.3
					C474.8,507.4,473.8,508.1,472.7,507.9L472.7,507.9z"/>
				<path class="st33" d="M459.9,505.3l-4.9-1c-1.1-0.2-1.7-1.3-1.5-2.3c0.2-1.1,1.3-1.7,2.3-1.5l4.9,1c1.1,0.2,1.7,1.3,1.5,2.3
					C462,504.8,461,505.5,459.9,505.3L459.9,505.3z"/>
				<path class="st33" d="M447.2,502.5l-4.9-1.1c-1-0.2-1.7-1.3-1.5-2.3c0.2-1,1.3-1.7,2.3-1.5l4.9,1.1c1.1,0.2,1.7,1.3,1.5,2.3
					C449.3,502.1,448.2,502.8,447.2,502.5L447.2,502.5z"/>
				<path class="st33" d="M434.5,499.6l-4.9-1.2c-1-0.2-1.7-1.3-1.4-2.3c0.2-1,1.3-1.7,2.3-1.4l4.9,1.1c1,0.2,1.7,1.3,1.4,2.3
					C436.6,499.2,435.5,499.8,434.5,499.6L434.5,499.6z"/>
				<path class="st33" d="M421.8,496.6l-4.9-1.2c-1-0.3-1.7-1.3-1.4-2.3c0.3-1,1.3-1.7,2.3-1.4l4.9,1.2c1,0.3,1.7,1.3,1.4,2.3
					C423.9,496.2,422.9,496.8,421.8,496.6L421.8,496.6z"/>
				<path class="st33" d="M409.2,493.4l-4.8-1.2c-1-0.3-1.6-1.3-1.4-2.3c0.3-1,1.3-1.6,2.3-1.4l4.8,1.2c1,0.3,1.6,1.3,1.4,2.3
					S410.2,493.7,409.2,493.4L409.2,493.4z"/>
				<path class="st33" d="M396.6,490.2l-4.8-1.3c-1-0.3-1.6-1.3-1.3-2.3c0.3-1,1.3-1.6,2.3-1.3l4.8,1.3c1,0.3,1.6,1.3,1.4,2.3
					C398.6,489.9,397.6,490.5,396.6,490.2L396.6,490.2z"/>
				<path class="st33" d="M384,486.8l-4.8-1.3c-1-0.3-1.6-1.3-1.3-2.3s1.3-1.6,2.3-1.3l4.8,1.3c1,0.3,1.6,1.3,1.3,2.3
					C386.1,486.5,385,487.1,384,486.8L384,486.8z"/>
				<path class="st33" d="M371.5,483.2l-4.8-1.4c-1-0.3-1.6-1.3-1.3-2.3c0.3-1,1.3-1.6,2.3-1.3l4.8,1.4c1,0.3,1.6,1.3,1.3,2.3
					C373.5,483,372.5,483.5,371.5,483.2L371.5,483.2z"/>
				<path class="st33" d="M359,479.5l-4.8-1.5c-1-0.3-1.5-1.4-1.2-2.3c0.3-1,1.3-1.5,2.3-1.2l4.8,1.5c1,0.3,1.5,1.4,1.2,2.3
					C361,479.2,360,479.8,359,479.5L359,479.5z"/>
				<path class="st33" d="M346.6,475.5l-4.7-1.6c-1-0.3-1.5-1.4-1.2-2.3c0.3-1,1.4-1.5,2.3-1.2l4.7,1.6c1,0.3,1.5,1.4,1.2,2.3
					C348.6,475.3,347.6,475.8,346.6,475.5L346.6,475.5z"/>
				<path class="st33" d="M334.2,471.3l-4.7-1.7c-1-0.3-1.5-1.4-1.1-2.3c0.3-1,1.4-1.5,2.3-1.1l4.7,1.7c1,0.3,1.5,1.4,1.1,2.3
					C336.3,471.2,335.2,471.7,334.2,471.3L334.2,471.3z"/>
				<path class="st33" d="M322,466.9l-4.7-1.8c-0.9-0.4-1.4-1.4-1-2.4c0.4-0.9,1.4-1.4,2.3-1.1l4.7,1.8c0.9,0.4,1.4,1.4,1.1,2.4
					C324,466.7,322.9,467.2,322,466.9L322,466.9z"/>
				<path class="st33" d="M309.8,462.1l-4.6-1.9c-0.9-0.4-1.4-1.4-1-2.4c0.4-0.9,1.4-1.4,2.4-1l4.6,1.9c0.9,0.4,1.4,1.4,1,2.4
					C311.8,462,310.8,462.5,309.8,462.1L309.8,462.1z"/>
				<path class="st33" d="M297.8,457l-4.6-2c-0.9-0.4-1.3-1.5-0.9-2.4c0.4-0.9,1.5-1.3,2.4-0.9l4.6,2c0.9,0.4,1.3,1.5,0.9,2.4
					C299.8,457,298.7,457.4,297.8,457L297.8,457z"/>
				<path class="st33" d="M285.9,451.6l-4.5-2.2c-0.9-0.4-1.3-1.5-0.8-2.4c0.4-0.9,1.5-1.3,2.4-0.8l4.5,2.2c0.9,0.4,1.3,1.5,0.8,2.4
					S286.8,452.1,285.9,451.6L285.9,451.6z"/>
				<path class="st33" d="M274.2,445.9l-4.4-2.3c-0.9-0.4-1.2-1.5-0.7-2.4c0.4-0.9,1.5-1.2,2.4-0.7l4.4,2.3c0.9,0.4,1.2,1.5,0.8,2.4
					C276.2,446,275.1,446.3,274.2,445.9L274.2,445.9z"/>
				<path class="st33" d="M262.7,439.7l-4.4-2.5c-0.8-0.5-1.1-1.5-0.6-2.3c0.5-0.8,1.5-1.1,2.3-0.7l4.4,2.4c0.8,0.5,1.1,1.5,0.7,2.4
					C264.6,439.9,263.5,440.2,262.7,439.7L262.7,439.7z"/>
				<path class="st33" d="M251.4,433.1l-4.2-2.8c-0.8-0.5-1-1.5-0.5-2.3c0.5-0.8,1.5-1,2.3-0.5l4.2,2.7c0.8,0.5,1,1.6,0.5,2.3
					C253.2,433.4,252.2,433.6,251.4,433.1L251.4,433.1z"/>
				<path class="st33" d="M240.6,425.4l-3.8-3.2c-0.7-0.6-0.8-1.6-0.2-2.3c0.6-0.7,1.6-0.8,2.3-0.2l3.9,3.2c0.7,0.6,0.8,1.6,0.2,2.3
					C242.4,425.9,241.3,426,240.6,425.4L240.6,425.4z"/>
				<path class="st33" d="M230.8,416.6l-3.3-3.7c-0.6-0.7-0.5-1.7,0.1-2.3c0.7-0.6,1.7-0.5,2.3,0.1l3.4,3.7c0.6,0.7,0.6,1.7-0.1,2.3
					C232.5,417.3,231.4,417.2,230.8,416.6L230.8,416.6z"/>
				<path class="st33" d="M222.5,406.2l-2.6-4.3c-0.4-0.7-0.2-1.7,0.5-2.1c0.7-0.4,1.7-0.2,2.1,0.5l2.6,4.2c0.5,0.7,0.2,1.7-0.5,2.2
					C223.9,407.2,222.9,407,222.5,406.2L222.5,406.2z"/>
				<path class="st33" d="M216.3,394.4l-1.6-4.7c-0.3-0.8,0.2-1.7,1-1.9c0.8-0.3,1.7,0.2,1.9,0.9l1.6,4.7c0.3,0.8-0.1,1.7-0.9,2
					C217.5,395.7,216.6,395.2,216.3,394.4L216.3,394.4z"/>
				<path class="st33" d="M213,381.5l-0.5-5c-0.1-0.8,0.5-1.5,1.3-1.6c0.8-0.1,1.5,0.5,1.6,1.3l0.5,5c0.1,0.8-0.5,1.6-1.3,1.6
					C213.8,383,213.1,382.4,213,381.5L213,381.5z"/>
				<path class="st33" d="M212.7,368.2l0.6-5c0.1-0.8,0.8-1.4,1.6-1.3c0.8,0.1,1.3,0.8,1.3,1.6l-0.6,5c-0.1,0.8-0.8,1.4-1.6,1.3
					C213.2,369.8,212.6,369.1,212.7,368.2L212.7,368.2z"/>
				<path class="st33" d="M215.1,355.2l1.5-4.8c0.2-0.7,1-1.2,1.8-0.9c0.7,0.2,1.2,1,0.9,1.8l-1.5,4.8c-0.2,0.8-1,1.2-1.8,0.9
					C215.3,356.8,214.9,356,215.1,355.2L215.1,355.2z"/>
				<path class="st33" d="M219.6,342.8l2.1-4.5c0.3-0.7,1.1-1,1.8-0.7c0.7,0.3,1,1.1,0.7,1.8l-2.1,4.5c-0.3,0.7-1.1,1-1.8,0.7
					C219.6,344.4,219.3,343.5,219.6,342.8L219.6,342.8z"/>
				<path class="st33" d="M225.6,331.1l2.6-4.3c0.4-0.6,1.2-0.8,1.8-0.4c0.6,0.4,0.8,1.2,0.5,1.8l-2.6,4.3c-0.4,0.6-1.2,0.8-1.8,0.5
					C225.4,332.6,225.2,331.8,225.6,331.1L225.6,331.1z"/>
				<path class="st33" d="M232.7,320.1l2.9-4c0.4-0.6,1.2-0.7,1.8-0.3c0.6,0.4,0.7,1.2,0.3,1.8l-2.9,4.1c-0.4,0.6-1.2,0.7-1.8,0.3
					C232.4,321.5,232.3,320.7,232.7,320.1L232.7,320.1z"/>
				<path class="st33" d="M240.6,309.7l3.2-3.8c0.4-0.5,1.2-0.6,1.7-0.2c0.5,0.4,0.6,1.2,0.2,1.7l-3.2,3.9c-0.4,0.5-1.2,0.6-1.8,0.2
					C240.2,311.1,240.2,310.3,240.6,309.7L240.6,309.7z"/>
				<path class="st33" d="M249.2,299.9l3.4-3.6c0.4-0.5,1.2-0.5,1.6-0.1c0.5,0.4,0.5,1.2,0.1,1.6l-3.4,3.7c-0.4,0.5-1.2,0.5-1.7,0.1
					C248.8,301.1,248.7,300.4,249.2,299.9L249.2,299.9z"/>
				<path class="st33" d="M258.2,290.5l3.6-3.5c0.4-0.4,1.1-0.4,1.5,0c0.4,0.4,0.4,1.1,0,1.5l-3.5,3.5c-0.4,0.4-1.1,0.4-1.6,0
					C257.8,291.6,257.8,290.9,258.2,290.5L258.2,290.5z"/>
				<path class="st33" d="M267.7,281.5l3.7-3.3c0.4-0.4,1.1-0.3,1.4,0.1c0.4,0.4,0.3,1-0.1,1.4l-3.7,3.4c-0.4,0.4-1.1,0.4-1.5-0.1
					C267.2,282.6,267.3,281.9,267.7,281.5L267.7,281.5z"/>
				<path class="st33" d="M277.5,272.9l3.8-3.2c0.4-0.3,1-0.3,1.3,0.1c0.3,0.4,0.3,1-0.1,1.3l-3.8,3.2c-0.4,0.3-1,0.3-1.4-0.1
					C277,273.9,277.1,273.3,277.5,272.9L277.5,272.9z"/>
				<path class="st33" d="M287.6,264.7l3.9-3.1c0.4-0.3,0.9-0.2,1.2,0.2c0.3,0.4,0.2,0.9-0.1,1.2l-3.9,3.1c-0.4,0.3-1,0.2-1.3-0.1
					C287.1,265.6,287.2,265,287.6,264.7L287.6,264.7z"/>
				<path class="st33" d="M298,256.8l4-3c0.4-0.3,0.9-0.2,1.1,0.2c0.3,0.4,0.2,0.9-0.2,1.1l-4,3c-0.4,0.3-0.9,0.2-1.2-0.2
					C297.5,257.6,297.6,257,298,256.8L298,256.8z"/>
				<path class="st33" d="M308.5,249.2l4.1-2.8c0.3-0.2,0.8-0.1,1,0.2c0.2,0.3,0.1,0.8-0.2,1l-4.1,2.9c-0.3,0.2-0.8,0.2-1.1-0.2
					C308.1,249.9,308.2,249.4,308.5,249.2L308.5,249.2z"/>
				<path class="st33" d="M319.3,241.9l4.2-2.7c0.3-0.2,0.7-0.1,0.9,0.2c0.2,0.3,0.1,0.7-0.2,0.9l-4.2,2.8c-0.3,0.2-0.8,0.1-1-0.2
					C318.9,242.5,319,242.1,319.3,241.9L319.3,241.9z"/>
				<path class="st33" d="M330.4,234.9l4.3-2.6c0.3-0.2,0.7-0.1,0.8,0.2c0.2,0.3,0.1,0.6-0.2,0.8L331,236c-0.3,0.2-0.7,0.1-0.9-0.2
					C330,235.5,330.1,235.1,330.4,234.9L330.4,234.9z"/>
			</g>
			<g>
				
					<linearGradient id="SVGID_101_" gradientUnits="userSpaceOnUse" x1="6654.915" y1="-3453.9409" x2="6583.5156" y2="-3497.2134" gradientTransform="matrix(-0.9944 -0.1059 8.120000e-002 0.9244 7202.3408 4136.0615)">
					<stop  offset="0" style="stop-color:#53D8FF"/>
					<stop  offset="1" style="stop-color:#3840F7"/>
				</linearGradient>
				<polygon class="st105" points="350.1,208.1 351.1,224.3 361.6,216.7 				"/>
				
					<linearGradient id="SVGID_102_" gradientUnits="userSpaceOnUse" x1="6615.2881" y1="-3469.9397" x2="6533.582" y2="-3556.3342" gradientTransform="matrix(-0.9944 -0.1059 8.120000e-002 0.9244 7202.3408 4136.0615)">
					<stop  offset="0" style="stop-color:#53D8FF"/>
					<stop  offset="1" style="stop-color:#3840F7"/>
				</linearGradient>
				<path class="st106" d="M422.1,194.8l-41.4,40.6c-0.8,0.8-1.9,1.2-3,1.2s-2.2-0.5-2.9-1.3l-39.2-43.1c-0.4-0.5-0.6-1.2-0.3-1.8
					c0.3-0.6,0.9-1,1.6-0.9L422.1,194.8z"/>
				
					<linearGradient id="SVGID_103_" gradientUnits="userSpaceOnUse" x1="6649.7026" y1="-3454.6619" x2="6583.0049" y2="-3495.0845" gradientTransform="matrix(-0.9944 -0.1059 8.120000e-002 0.9244 7202.3408 4136.0615)">
					<stop  offset="0" style="stop-color:#53D8FF"/>
					<stop  offset="1" style="stop-color:#3840F7"/>
				</linearGradient>
				<polygon class="st107" points="350.1,208.1 422.1,194.8 356.5,215.1 356.5,219.6 				"/>
				
					<linearGradient id="SVGID_104_" gradientUnits="userSpaceOnUse" x1="-9610.8672" y1="-3078.9192" x2="-9580.3887" y2="-3087.7471" gradientTransform="matrix(0.9944 0.1059 -0.1059 0.9944 9571.2031 4301.5562)">
					<stop  offset="0" style="stop-color:#53D8FF"/>
					<stop  offset="1" style="stop-color:#3840F7"/>
				</linearGradient>
				<polygon class="st108" points="360.2,219.2 351.1,224.3 356.5,215.1 				"/>
			</g>
		</g>
	</g>
</g>
</svg>
