<?xml version="1.0" encoding="utf-8"?>
<!-- Generator: Adobe Illustrator 19.0.0, SVG Export Plug-In . SVG Version: 6.00 Build 0)  -->
<svg version="1.1" id="Illustration" xmlns="http://www.w3.org/2000/svg" xmlns:xlink="http://www.w3.org/1999/xlink" x="0px"
	 y="0px" viewBox="0 0 1200 800" style="enable-background:new 0 0 1200 800;" xml:space="preserve">
<style type="text/css">
	.st0{clip-path:url(#SVGID_2_);}
	.st1{opacity:0.5;fill:url(#SVGID_3_);}
	.st2{opacity:0.5;fill:url(#SVGID_4_);}
	.st3{fill:url(#SVGID_5_);}
	.st4{fill:url(#SVGID_6_);}
	.st5{fill:url(#SVGID_7_);}
	.st6{fill:url(#SVGID_8_);}
	.st7{fill:#FFFFFF;}
	.st8{fill:url(#SVGID_9_);}
	.st9{opacity:0.6;fill:#FFFFFF;}
	.st10{fill:url(#SVGID_10_);}
	.st11{opacity:0.26;fill:url(#SVGID_11_);}
	.st12{fill:url(#SVGID_12_);}
	.st13{opacity:0.76;fill:#FFFFFF;}
	.st14{fill:url(#SVGID_13_);}
	.st15{fill:url(#SVGID_14_);}
	.st16{fill:url(#SVGID_15_);}
	.st17{fill:url(#SVGID_16_);}
	.st18{fill:url(#SVGID_17_);}
	.st19{fill:url(#SVGID_18_);}
	.st20{fill:url(#SVGID_19_);}
	.st21{fill:url(#SVGID_20_);}
	.st22{fill:url(#SVGID_21_);}
	.st23{fill:url(#SVGID_22_);}
	.st24{fill:url(#SVGID_23_);}
	.st25{fill:url(#SVGID_24_);}
	.st26{fill:url(#SVGID_25_);}
	.st27{fill:url(#SVGID_26_);}
	.st28{fill:url(#SVGID_27_);}
	.st29{fill:url(#SVGID_28_);}
	.st30{fill:url(#SVGID_29_);}
	.st31{fill:url(#SVGID_30_);}
	.st32{fill:url(#SVGID_31_);}
	.st33{fill:url(#SVGID_32_);}
	.st34{fill:url(#SVGID_33_);}
	.st35{fill:url(#SVGID_34_);}
	.st36{fill:url(#SVGID_35_);}
	.st37{fill:url(#SVGID_36_);}
	.st38{fill:url(#SVGID_37_);}
	.st39{fill:url(#SVGID_38_);}
	.st40{fill:url(#SVGID_39_);}
	.st41{fill:url(#SVGID_40_);}
	.st42{fill:url(#SVGID_41_);}
	.st43{fill:url(#SVGID_42_);}
	.st44{opacity:0.6;}
	.st45{fill:url(#SVGID_43_);}
	.st46{fill:url(#SVGID_44_);}
	.st47{fill:url(#SVGID_45_);}
	.st48{fill:url(#SVGID_46_);}
	.st49{fill:url(#SVGID_47_);}
	.st50{fill:url(#SVGID_48_);}
	.st51{fill:url(#SVGID_49_);}
	.st52{fill:url(#SVGID_50_);}
	.st53{fill:url(#SVGID_51_);}
	.st54{fill:url(#SVGID_52_);}
	.st55{fill:url(#SVGID_53_);}
	.st56{fill:url(#SVGID_54_);}
	.st57{fill:url(#SVGID_55_);}
	.st58{fill:url(#SVGID_56_);}
	.st59{fill:url(#SVGID_57_);}
	.st60{fill:url(#SVGID_58_);}
	.st61{fill:url(#SVGID_59_);}
	.st62{fill:url(#SVGID_60_);}
	.st63{fill:url(#SVGID_61_);}
	.st64{fill:url(#SVGID_62_);}
	.st65{fill:url(#SVGID_63_);}
	.st66{fill:url(#SVGID_64_);}
	.st67{fill:url(#SVGID_65_);}
	.st68{fill:url(#SVGID_66_);}
	.st69{fill:url(#SVGID_67_);}
	.st70{fill:url(#SVGID_68_);}
	.st71{fill:url(#SVGID_69_);}
	.st72{fill:url(#SVGID_70_);}
	.st73{fill:url(#SVGID_71_);}
	.st74{fill:url(#SVGID_72_);}
	.st75{fill:url(#SVGID_73_);}
	.st76{fill:url(#SVGID_74_);}
	.st77{fill:url(#SVGID_75_);}
	.st78{fill:url(#SVGID_76_);}
	.st79{fill:url(#SVGID_77_);}
	.st80{fill:url(#SVGID_78_);}
	.st81{fill:url(#SVGID_79_);}
	.st82{fill:url(#SVGID_80_);}
	.st83{fill:url(#SVGID_81_);}
	.st84{fill:url(#SVGID_82_);}
	.st85{fill:url(#SVGID_83_);}
	.st86{fill:url(#SVGID_84_);}
	.st87{fill:url(#SVGID_85_);}
	.st88{fill:url(#SVGID_86_);}
	.st89{fill:url(#SVGID_87_);}
	.st90{fill:url(#SVGID_88_);}
	.st91{fill:url(#SVGID_89_);}
	.st92{fill:url(#SVGID_90_);}
	.st93{fill:url(#SVGID_91_);}
	.st94{fill:url(#SVGID_92_);}
	.st95{fill:url(#SVGID_93_);}
	.st96{fill:#CE41A4;}
</style>
<g>
	<defs>
		<rect id="SVGID_1_" width="1200" height="800"/>
	</defs>
	<clipPath id="SVGID_2_">
		<use xlink:href="#SVGID_1_"  style="overflow:visible;"/>
	</clipPath>
	<g class="st0">
		<g>
			<linearGradient id="SVGID_3_" gradientUnits="userSpaceOnUse" x1="83.4124" y1="380.7156" x2="1083.6724" y2="380.7156">
				<stop  offset="0" style="stop-color:#B37CFF"/>
				<stop  offset="1" style="stop-color:#F895E7"/>
			</linearGradient>
			<path class="st1" d="M1044.9,394.9c-19.8-37.4-21.4-69.5-11.1-110.3c11.3-45.1,22.2-102.7-4.8-143.7
				c-23.8-36.2-61.2-61.8-101.4-71.2c-50.9-12-93.5,7.4-134.4,39.6c-56,44.2-152.9,80.2-222,60.7c-60.3-17.1-104.9-74-168.5-85
				c-43.8-7.6-109.2,4.5-123.3,57.7c-3.7,14-3.6,29.2-9.5,42.2c-13.9,30.1-49,27.2-75.3,29.9c-28.4,2.9-58.2,17.5-80.2,36.9
				c-14.6,12.9-26.5,30.3-30,50.3c-4.2,23.4,5.1,49.9,25.1,61.6c29.6,17.3,61.7,11.5,69.8,54.2c8.7,45.5,4.7,91.3,18.5,136.6
				c35.4,115.6,149.7,157.4,255,135.4c82.7-17.3,153.7-73.4,237.8-85.5c34.5-5,71.3-1.8,102.9,14.7c30.3,15.7,55,44.1,88.2,53.1
				c20.4,5.6,41.8,3,62.6-0.3c37-5.7,76.3-14.8,102.2-43.8c18.6-20.9,27.8-49.5,33.4-77.8C1092.2,487.3,1073,448.1,1044.9,394.9z"/>
			<linearGradient id="SVGID_4_" gradientUnits="userSpaceOnUse" x1="116.3276" y1="388.1689" x2="1116.5875" y2="388.1689">
				<stop  offset="0" style="stop-color:#B37CFF"/>
				<stop  offset="1" style="stop-color:#F895E7"/>
			</linearGradient>
			<path class="st2" d="M1090.5,404.6c-27.8-15.1-57.2-10.2-69.3-45c-20.7-59.8-4.1-124.8-39.9-181.4
				c-46.4-73.6-154.9-92.3-234.3-76.9c-82.7,16.1-153.7,68.2-237.8,79.5c-34.5,4.6-71.3,1.7-102.9-13.6
				c-42.3-20.4-76.1-51.3-125.8-49.5C200.5,120.7,138,147,120.2,231.1c-12.4,58.4,6.8,94.9,34.9,144.3
				c19.8,34.8,21.4,64.6,11.1,102.6c-11.3,41.9-22.2,95.5,4.8,133.6c23.8,33.6,61.2,57.4,101.4,66.2
				c50.9,11.1,461.2-24.4,524.8-14.2c43.8,7.1,109.2-4.2,123.3-53.7c3.7-13,3.6-27.1,9.5-39.2c13.9-28,49-25.3,75.3-27.8
				c28.4-2.7,58.2-16.3,80.2-34.3c14.6-12,26.5-28.2,30-46.7C1119.8,440.1,1110.5,415.5,1090.5,404.6z"/>
		</g>
		<g>
			
				<linearGradient id="SVGID_5_" gradientUnits="userSpaceOnUse" x1="451.5257" y1="91.059" x2="236.6364" y2="720.908" gradientTransform="matrix(0.975 0.2223 -0.2223 0.975 684.1687 50.004)">
				<stop  offset="0" style="stop-color:#FDF53F"/>
				<stop  offset="1" style="stop-color:#D93C65"/>
			</linearGradient>
			<path class="st3" d="M905.3,443.2c14.4-10.9,21.9-28.5,19.7-46.4c-2.3-19.1-0.3-40.7,6.8-62.3c18.6-56.8,65-92.5,103.7-79.8
				c38.7,12.7,54.9,68.9,36.3,125.7c-3.6,11-8.3,21.2-13.7,30.5c-8.3,14-9.3,31.1-2.5,45.9c6.4,14,7.8,30.4,2.6,46.3
				c-7.1,21.6-24.7,36.9-45.2,41.9c-12.2,3-22.8,10.4-29.7,20.9c-19.7,29.7-50.7,45.3-78.2,36.3c-35.2-11.5-51.3-59.1-35.8-106.3
				C876.5,473.3,889.7,454.9,905.3,443.2z"/>
			
				<linearGradient id="SVGID_6_" gradientUnits="userSpaceOnUse" x1="-1149.8934" y1="512.8768" x2="-1063.8733" y2="253.5231" gradientTransform="matrix(-0.9503 -0.3113 -0.3113 0.9503 -2.0163 -178.5535)">
				<stop  offset="0" style="stop-color:#53D8FF"/>
				<stop  offset="1" style="stop-color:#3840F7"/>
			</linearGradient>
			<path class="st4" d="M874.4,666.9c0.9,0.2,1.9-0.1,2.5-0.9c29.8-38.9,58.6-110.1,77.4-163.1c20.4-57.3,34-106,34.1-106.5
				c0.4-1.3-0.4-2.7-1.7-3c-1.3-0.4-2.7,0.4-3,1.7c-0.5,1.9-54.3,194.4-110.7,267.9c-0.8,1.1-0.6,2.6,0.5,3.4
				C873.8,666.7,874.1,666.9,874.4,666.9z"/>
		</g>
		<g>
			<g>
				<g>
					
						<linearGradient id="SVGID_7_" gradientUnits="userSpaceOnUse" x1="7827.1289" y1="-1555.2891" x2="7837.1289" y2="-1517.2891" gradientTransform="matrix(-1 0 0 1 9352.3076 0)">
						<stop  offset="0" style="stop-color:#53D8FF"/>
						<stop  offset="1" style="stop-color:#3840F7"/>
					</linearGradient>
					<path class="st5" d="M810.9,686.6l262.6,0V634l-262.6,0C816.5,634,816.5,686.6,810.9,686.6z"/>
					<linearGradient id="SVGID_8_" gradientUnits="userSpaceOnUse" x1="1060.5458" y1="533.7827" x2="847.845" y2="764.8193">
						<stop  offset="0" style="stop-color:#FDF53F"/>
						<stop  offset="1" style="stop-color:#D93C65"/>
					</linearGradient>
					<path class="st6" d="M1073.4,673.4v-24c0-8.5-5.2-15.4-11.6-15.4H812c-5,0-9.1-4.1-9.1-9.1l0,0c0-1.5,1.2-2.8,2.8-2.8h273.1
						c6.3,0,16.2,9.8,16.2,22v33.6c0,11.5-9.7,20.7-15.6,20.7H807.1c-2.3,0-4.2-1.9-4.2-4.2l0,0c0-4.2,3.4-7.7,7.7-7.7h253
						C1069,686.6,1073.4,680.7,1073.4,673.4z"/>
				</g>
				<path class="st7" d="M1066.1,645.8H819.9c-0.6,0-1-0.4-1-1c0-0.6,0.4-1,1-1h246.2c0.6,0,1,0.4,1,1
					C1067.1,645.3,1066.7,645.8,1066.1,645.8z"/>
				<path class="st7" d="M1066.1,653.6H819.9c-0.6,0-1-0.4-1-1c0-0.6,0.4-1,1-1h246.2c0.6,0,1,0.4,1,1
					C1067.1,653.1,1066.7,653.6,1066.1,653.6z"/>
				<path class="st7" d="M1066.1,661.4H819.9c-0.6,0-1-0.4-1-1c0-0.6,0.4-1,1-1h246.2c0.6,0,1,0.4,1,1
					C1067.1,660.9,1066.7,661.4,1066.1,661.4z"/>
				<path class="st7" d="M1066.1,669.2H819.9c-0.6,0-1-0.4-1-1c0-0.6,0.4-1,1-1h246.2c0.6,0,1,0.4,1,1
					C1067.1,668.7,1066.7,669.2,1066.1,669.2z"/>
				<path class="st7" d="M1066.1,677H819.9c-0.6,0-1-0.4-1-1c0-0.6,0.4-1,1-1h246.2c0.6,0,1,0.4,1,1
					C1067.1,676.5,1066.7,677,1066.1,677z"/>
			</g>
			<g>
				<linearGradient id="SVGID_9_" gradientUnits="userSpaceOnUse" x1="956.4995" y1="529.2003" x2="953.7529" y2="640.4411">
					<stop  offset="0" style="stop-color:#2B3582"/>
					<stop  offset="1" style="stop-color:#150E42"/>
				</linearGradient>
				<path class="st8" d="M856.9,621.9h196.1c11.1,0,20.1-9,20.1-20.1v-16.8c0-11.1-9-20.1-20.1-20.1H856.9c-11.1,0-20.1,9-20.1,20.1
					v16.8C836.8,612.9,845.8,621.9,856.9,621.9z"/>
				<path class="st9" d="M1025.8,615.3h13.3c4,0,7.2-3.2,7.2-7.2v-29.4c0-4-3.2-7.2-7.2-7.2h-13.3c-4,0-7.2,3.2-7.2,7.2v29.4
					C1018.6,612.1,1021.8,615.3,1025.8,615.3z"/>
				<path class="st9" d="M1007.8,615.3h3.1c2,0,3.7-1.6,3.7-3.7v-36.6c0-2-1.6-3.7-3.7-3.7h-3.1c-2,0-3.7,1.6-3.7,3.7v36.6
					C1004.1,613.7,1005.7,615.3,1007.8,615.3z"/>
			</g>
		</g>
		<g>
			<linearGradient id="SVGID_10_" gradientUnits="userSpaceOnUse" x1="889.2405" y1="54.1087" x2="744.7419" y2="643.2181">
				<stop  offset="0" style="stop-color:#CE1567"/>
				<stop  offset="1" style="stop-color:#7A1DBC"/>
			</linearGradient>
			<path class="st10" d="M907.8,112.1l47.1,85.9c12.5,22.8,13.8,50,3.7,73.9l-60.9,143.4c-6.9,16.3-8.6,34.3-4.7,51.5l16.7,75.2
				c6.3,28.2-2.2,57.6-22.6,78.1l0,0c-32.3,32.5-84.5,33.5-118,2.3L716,572.8c-24.9-23.2-33.5-59.1-21.8-91.1l38.5-105.5
				c4.9-13.5,6.3-28,4.1-42.2L714,188c-5.3-33.7,10.2-67.2,39.2-85.2l35.7-22.1C830.1,55.2,884.4,69.5,907.8,112.1z"/>
			<linearGradient id="SVGID_11_" gradientUnits="userSpaceOnUse" x1="807.1481" y1="423.9765" x2="845.7811" y2="423.9765">
				<stop  offset="0" style="stop-color:#B37CFF"/>
				<stop  offset="1" style="stop-color:#F895E7"/>
			</linearGradient>
			<path class="st11" d="M820.9,661c-19.5-117.2-14.6-238.7-7.2-320c4.5-48.7,10.2-86.8,14.2-110.3c2.7-15.6,4.8-26,6.1-31.9
				c2.8-12.9,3.6-13.5,4.8-14.4c1.9-1.5,4.6-1.2,6.1,0.7c1.2,1.5,1.2,3.6,0.2,5.1c-4.8,12.2-52.1,250.3-15.7,469.5
				c0.4,2.4-1.2,4.6-3.6,5c-0.2,0-0.5,0.1-0.7,0.1C823,664.6,821.2,663.1,820.9,661z M844.2,191.1
				C844.2,191.1,844.2,191.1,844.2,191.1C844.2,191.1,844.2,191.1,844.2,191.1z M844.2,191.1C844.2,191.1,844.2,191.1,844.2,191.1
				C844.2,191.1,844.2,191.1,844.2,191.1z"/>
		</g>
		<g>
			<g>
				<linearGradient id="SVGID_12_" gradientUnits="userSpaceOnUse" x1="919.5776" y1="510.7022" x2="447.8442" y2="560.5606">
					<stop  offset="0" style="stop-color:#53D8FF"/>
					<stop  offset="1" style="stop-color:#3840F7"/>
				</linearGradient>
				<path class="st12" d="M708.3,346.9h206.5l-14.5,337.6c-0.4,9-7.8,16.1-16.8,16.1H701.5L708.3,346.9z"/>
				<polygon class="st13" points="706,468.7 909.5,468.7 913.3,380.7 707.6,380.7 				"/>
				<linearGradient id="SVGID_13_" gradientUnits="userSpaceOnUse" x1="693.0528" y1="340.9422" x2="923.0596" y2="340.9422">
					<stop  offset="0" style="stop-color:#9CFFFB"/>
					<stop  offset="1" style="stop-color:#9BFFFA"/>
				</linearGradient>
				<path class="st14" d="M916.9,353.6H693.1v-25.4h220.3c2.8,0,5.3,1.9,6,4.6l3.5,13C923.9,349.8,920.9,353.6,916.9,353.6z"/>
				<linearGradient id="SVGID_14_" gradientUnits="userSpaceOnUse" x1="745.52" y1="424.7204" x2="753.9824" y2="424.7204">
					<stop  offset="0" style="stop-color:#9CFFFB"/>
					<stop  offset="1" style="stop-color:#9BFFFA"/>
				</linearGradient>
				<rect x="745.5" y="380.7" class="st15" width="8.5" height="88"/>
				<linearGradient id="SVGID_15_" gradientUnits="userSpaceOnUse" x1="809.8346" y1="424.7204" x2="818.297" y2="424.7204">
					<stop  offset="0" style="stop-color:#9CFFFB"/>
					<stop  offset="1" style="stop-color:#9BFFFA"/>
				</linearGradient>
				<rect x="809.8" y="380.7" class="st16" width="8.5" height="88"/>
				<linearGradient id="SVGID_16_" gradientUnits="userSpaceOnUse" x1="863.9943" y1="424.7204" x2="877.5342" y2="424.7204">
					<stop  offset="0" style="stop-color:#9CFFFB"/>
					<stop  offset="1" style="stop-color:#9BFFFA"/>
				</linearGradient>
				<polygon class="st17" points="872.5,468.7 864,468.7 869.1,380.7 877.5,380.7 				"/>
				<g>
					<path class="st13" d="M778.8,594h-25.9c-1.3,0-2.3-1-2.3-2.3V510c0-1.3,1-2.3,2.3-2.3h25.9c1.3,0,2.3,1,2.3,2.3v81.7
						C781.1,592.9,780,594,778.8,594z"/>
				</g>
				<g>
					<path class="st13" d="M851.5,594h-25.9c-1.3,0-2.3-1-2.3-2.3V510c0-1.3,1-2.3,2.3-2.3h25.9c1.3,0,2.3,1,2.3,2.3v81.7
						C853.8,592.9,852.8,594,851.5,594z"/>
				</g>
			</g>
			<linearGradient id="SVGID_17_" gradientUnits="userSpaceOnUse" x1="673.3821" y1="47.1679" x2="388.2934" y2="599.5268">
				<stop  offset="0" style="stop-color:#53D8FF"/>
				<stop  offset="1" style="stop-color:#3840F7"/>
			</linearGradient>
			<polygon class="st18" points="215.8,199.6 244.1,700.6 715.1,700.6 735.4,199.6 			"/>
			<linearGradient id="SVGID_18_" gradientUnits="userSpaceOnUse" x1="204.2819" y1="198.773" x2="744.5598" y2="198.773">
				<stop  offset="0" style="stop-color:#9CFFFB"/>
				<stop  offset="1" style="stop-color:#9BFFFA"/>
			</linearGradient>
			<path class="st19" d="M737.2,209.8H213.3c-2.5,0-4.8-1.7-5.5-4.1l-3.2-10.4c-1.1-3.7,1.6-7.5,5.5-7.5h528.7
				c3.6,0,6.3,3.2,5.7,6.7l-1.6,10.4C742.5,207.7,740,209.8,737.2,209.8z"/>
			<polygon class="st13" points="730.8,311.3 733.7,240.2 218.1,240.2 222.1,311.3 			"/>
			<linearGradient id="SVGID_19_" gradientUnits="userSpaceOnUse" x1="243.479" y1="738.3553" x2="346.0538" y2="-528.5355">
				<stop  offset="0" style="stop-color:#53D8FF"/>
				<stop  offset="1" style="stop-color:#3840F7"/>
			</linearGradient>
			<rect x="275" y="240.2" class="st20" width="11.8" height="71.1"/>
			<linearGradient id="SVGID_20_" gradientUnits="userSpaceOnUse" x1="324.1893" y1="744.89" x2="426.7641" y2="-522.0006">
				<stop  offset="0" style="stop-color:#53D8FF"/>
				<stop  offset="1" style="stop-color:#3840F7"/>
			</linearGradient>
			<rect x="356.2" y="240.2" class="st21" width="11.8" height="71.1"/>
			<linearGradient id="SVGID_21_" gradientUnits="userSpaceOnUse" x1="404.8998" y1="751.4248" x2="507.4746" y2="-515.4659">
				<stop  offset="0" style="stop-color:#53D8FF"/>
				<stop  offset="1" style="stop-color:#3840F7"/>
			</linearGradient>
			<rect x="437.5" y="240.2" class="st22" width="11.8" height="71.1"/>
			<linearGradient id="SVGID_22_" gradientUnits="userSpaceOnUse" x1="485.6101" y1="757.9595" x2="588.1849" y2="-508.9311">
				<stop  offset="0" style="stop-color:#53D8FF"/>
				<stop  offset="1" style="stop-color:#3840F7"/>
			</linearGradient>
			<rect x="518.7" y="240.2" class="st23" width="11.8" height="71.1"/>
			<linearGradient id="SVGID_23_" gradientUnits="userSpaceOnUse" x1="566.3206" y1="764.4943" x2="668.8954" y2="-502.3965">
				<stop  offset="0" style="stop-color:#53D8FF"/>
				<stop  offset="1" style="stop-color:#3840F7"/>
			</linearGradient>
			<rect x="600" y="240.2" class="st24" width="11.8" height="71.1"/>
			<linearGradient id="SVGID_24_" gradientUnits="userSpaceOnUse" x1="647.0309" y1="771.0291" x2="749.6058" y2="-495.8616">
				<stop  offset="0" style="stop-color:#53D8FF"/>
				<stop  offset="1" style="stop-color:#3840F7"/>
			</linearGradient>
			<rect x="681.2" y="240.2" class="st25" width="11.8" height="71.1"/>
			<g>
				<linearGradient id="SVGID_25_" gradientUnits="userSpaceOnUse" x1="280.0855" y1="366.3294" x2="402.0332" y2="366.3294">
					<stop  offset="0" style="stop-color:#9CFFFB"/>
					<stop  offset="1" style="stop-color:#9BFFFA"/>
				</linearGradient>
				<rect x="280.1" y="340.1" class="st26" width="121.9" height="52.5"/>
				<rect x="284.6" y="345.2" class="st13" width="112.9" height="44"/>
			</g>
			<g>
				<linearGradient id="SVGID_26_" gradientUnits="userSpaceOnUse" x1="413.3247" y1="366.3294" x2="535.2724" y2="366.3294">
					<stop  offset="0" style="stop-color:#9CFFFB"/>
					<stop  offset="1" style="stop-color:#9BFFFA"/>
				</linearGradient>
				<rect x="413.3" y="340.1" class="st27" width="121.9" height="52.5"/>
				<rect x="417.8" y="345.2" class="st13" width="112.9" height="44"/>
			</g>
			<g>
				<linearGradient id="SVGID_27_" gradientUnits="userSpaceOnUse" x1="546.5639" y1="366.3294" x2="668.5117" y2="366.3294">
					<stop  offset="0" style="stop-color:#9CFFFB"/>
					<stop  offset="1" style="stop-color:#9BFFFA"/>
				</linearGradient>
				<rect x="546.6" y="340.1" class="st28" width="121.9" height="52.5"/>
				<rect x="551.1" y="345.2" class="st13" width="112.9" height="44"/>
			</g>
			<linearGradient id="SVGID_28_" gradientUnits="userSpaceOnUse" x1="383.102" y1="826.2743" x2="406.1404" y2="695.374">
				<stop  offset="0" style="stop-color:#53D8FF"/>
				<stop  offset="1" style="stop-color:#3840F7"/>
			</linearGradient>
			<rect x="305.5" y="514.4" class="st29" width="230.2" height="198"/>
			<linearGradient id="SVGID_29_" gradientUnits="userSpaceOnUse" x1="307.3258" y1="735.1906" x2="309.4193" y2="353.0851">
				<stop  offset="0" style="stop-color:#53D8FF"/>
				<stop  offset="1" style="stop-color:#3840F7"/>
			</linearGradient>
			<path class="st30" d="M329.2,712.4H299c-6.7,0-12.2-5.5-12.2-12.2V507.7h42.3V712.4z"/>
			<linearGradient id="SVGID_30_" gradientUnits="userSpaceOnUse" x1="346.0925" y1="643.8978" x2="495.0315" y2="643.8978">
				<stop  offset="0" style="stop-color:#2B3582"/>
				<stop  offset="1" style="stop-color:#150E42"/>
			</linearGradient>
			<rect x="346.1" y="575.4" class="st31" width="148.9" height="137.1"/>
			<linearGradient id="SVGID_31_" gradientUnits="userSpaceOnUse" x1="268.9199" y1="563.5755" x2="692.5991" y2="563.5755">
				<stop  offset="0" style="stop-color:#9CFFFB"/>
				<stop  offset="1" style="stop-color:#9BFFFA"/>
			</linearGradient>
			<path class="st32" d="M268.9,426.5l6.1,103.2H512v182.8h154.3c8.3,0,15.2-6.6,15.5-14.9l10.8-266.5c0.3-6.3-4.7-11.5-11-11.6
				l-401.4-4.8C273.7,414.6,268.6,420,268.9,426.5z"/>
			<linearGradient id="SVGID_32_" gradientUnits="userSpaceOnUse" x1="552.9743" y1="437.7369" x2="345.9398" y2="491.0963">
				<stop  offset="0" style="stop-color:#53D8FF"/>
				<stop  offset="1" style="stop-color:#3840F7"/>
			</linearGradient>
			<polygon class="st33" points="273,495.8 535.7,495.8 535.7,456.9 270.7,456.9 			"/>
			<linearGradient id="SVGID_33_" gradientUnits="userSpaceOnUse" x1="312.2427" y1="476.3413" x2="322.3976" y2="476.3413">
				<stop  offset="0" style="stop-color:#9CFFFB"/>
				<stop  offset="1" style="stop-color:#9BFFFA"/>
			</linearGradient>
			<rect x="312.2" y="456.9" class="st34" width="10.2" height="38.9"/>
			<linearGradient id="SVGID_34_" gradientUnits="userSpaceOnUse" x1="357.9398" y1="476.3413" x2="368.0948" y2="476.3413">
				<stop  offset="0" style="stop-color:#9CFFFB"/>
				<stop  offset="1" style="stop-color:#9BFFFA"/>
			</linearGradient>
			<rect x="357.9" y="456.9" class="st35" width="10.2" height="38.9"/>
			<linearGradient id="SVGID_35_" gradientUnits="userSpaceOnUse" x1="403.6371" y1="476.3413" x2="413.792" y2="476.3413">
				<stop  offset="0" style="stop-color:#9CFFFB"/>
				<stop  offset="1" style="stop-color:#9BFFFA"/>
			</linearGradient>
			<rect x="403.6" y="456.9" class="st36" width="10.2" height="38.9"/>
			<linearGradient id="SVGID_36_" gradientUnits="userSpaceOnUse" x1="449.3344" y1="476.3413" x2="459.4893" y2="476.3413">
				<stop  offset="0" style="stop-color:#9CFFFB"/>
				<stop  offset="1" style="stop-color:#9BFFFA"/>
			</linearGradient>
			<rect x="449.3" y="456.9" class="st37" width="10.2" height="38.9"/>
			<linearGradient id="SVGID_37_" gradientUnits="userSpaceOnUse" x1="495.0315" y1="476.3413" x2="505.1866" y2="476.3413">
				<stop  offset="0" style="stop-color:#9CFFFB"/>
				<stop  offset="1" style="stop-color:#9BFFFA"/>
			</linearGradient>
			<rect x="495" y="456.9" class="st38" width="10.2" height="38.9"/>
		</g>
		<g>
			<g>
				<g>
					
						<linearGradient id="SVGID_38_" gradientUnits="userSpaceOnUse" x1="-801.2475" y1="930.0121" x2="-852.5157" y2="1108.2301" gradientTransform="matrix(-0.9237 0.3833 0.3833 0.9237 -883.5536 -25.9843)">
						<stop  offset="0" style="stop-color:#A737D5"/>
						<stop  offset="1" style="stop-color:#EF497A"/>
					</linearGradient>
					<path class="st39" d="M249.9,581.8c0.4-6.6-0.1-13.1-2.3-19.5c-5.4-16.2-20.6-26.9-33-37.7c-11.4-9.9-23.7-26.6-2.1-33.6
						c17.2-5.6,43.6,2.9,53,19.2c11.1,19.3,11.9,49.3,31.4,62.9c27.3,19.1,36.7,8.2,54.9,52.1c7.8,18.7,1.7,33.4-7.8,44
						c-15,16.8-38.9,22.4-59.8,14.2c-18.5-7.3-34-22.4-39-42C240.1,621.7,248.8,601.5,249.9,581.8z"/>
					
						<linearGradient id="SVGID_39_" gradientUnits="userSpaceOnUse" x1="-848.5945" y1="1027.0848" x2="-810.9189" y2="1027.0848" gradientTransform="matrix(-0.9237 0.3833 0.3833 0.9237 -883.5536 -25.9843)">
						<stop  offset="0" style="stop-color:#2B3582"/>
						<stop  offset="1" style="stop-color:#150E42"/>
					</linearGradient>
					<path class="st40" d="M322.1,717.9c-0.7,0-1.4-0.5-1.5-1.3c-15.3-102.4-43.5-155.5-64.5-182c-22.7-28.6-41.9-33.1-42.1-33.2
						c-0.8-0.2-1.3-1-1.1-1.8c0.2-0.8,1-1.3,1.8-1.1c0.8,0.2,20.3,4.7,43.6,33.9c21.3,26.8,49.9,80.4,65.3,183.8
						c0.1,0.8-0.4,1.6-1.3,1.7C322.2,717.9,322.2,717.9,322.1,717.9z"/>
				</g>
				
					<linearGradient id="SVGID_40_" gradientUnits="userSpaceOnUse" x1="-793.0565" y1="932.3676" x2="-844.3249" y2="1110.5864" gradientTransform="matrix(-0.9237 0.3833 0.3833 0.9237 -883.5536 -25.9843)">
					<stop  offset="0" style="stop-color:#A737D5"/>
					<stop  offset="1" style="stop-color:#EF497A"/>
				</linearGradient>
				<path class="st41" d="M214.2,542.5c0.7-0.6,1.6-1,2.6-1.3c5.4-1.6,9.9,3,13.2,6.7c2.8,3.1,6.2,6.9,7.1,11.2
					c0.9,4.6-2.2,10-7.3,7.1c-5.8-3.4-14.6-8.7-17.4-15.2C210.9,547.7,211.7,544.4,214.2,542.5z"/>
			</g>
			<g>
				<linearGradient id="SVGID_41_" gradientUnits="userSpaceOnUse" x1="255.4265" y1="576.6322" x2="84.5608" y2="864.86">
					<stop  offset="0" style="stop-color:#FDF53F"/>
					<stop  offset="1" style="stop-color:#D93C65"/>
				</linearGradient>
				<path class="st42" d="M206.5,674.8c-13-8.1-9.5-31.3-13.1-47.2c-1.9-8.4-4.5-16.4-9-23.8c-4.5-7.3-11.7-14.3-11.6-23.5
					c0.3-18.6,19.6-18.2,33.8-10.2c16.5,9.3,28.8,30.5,40.1,46.1c6.8,9.4,15,18.6,20.7,28.7c9.5,16.7,10.6,30.6,5.6,42.4
					c-4.8,11.3-19.2,24.5-28.6,16.6C237.3,698,226.6,687.3,206.5,674.8z"/>
				
					<linearGradient id="SVGID_42_" gradientUnits="userSpaceOnUse" x1="-355.999" y1="1193.8344" x2="-326.7012" y2="1193.8344" gradientTransform="matrix(-0.8114 0.5844 0.5844 0.8114 -741.7019 -120.0314)">
					<stop  offset="0" style="stop-color:#2B3582"/>
					<stop  offset="1" style="stop-color:#150E42"/>
				</linearGradient>
				<path class="st43" d="M270.5,725.3c-0.7,0-1.3-0.5-1.5-1.2c-0.2-0.9-21.5-90.9-76.8-147.2c-0.6-0.6-0.6-1.5,0-2.1
					c0.6-0.6,1.5-0.6,2.1,0c56,56.8,77.4,147.7,77.6,148.6c0.2,0.8-0.3,1.6-1.1,1.8C270.7,725.3,270.6,725.3,270.5,725.3z"/>
			</g>
		</g>
		<g class="st44">
			<path class="st7" d="M299.9,191.1c-3.8-18.1-13.3-11.9-29.3-17.5c-15.9-5.6-11.3-25.5-21.1-31.6c-13.2-8.2-25.3-0.6-33.5,10.2
				c-13.6,17.9-22.9,3.3-39.2,10.6c-9.3,4.1-5.3,10-18,12.3c-8.8,1.6-18.4-2.2-27,0.1c-6.4,1.7-11.1,4.8-12.5,11
				c1.8,0.9,3.7,1.6,5.6,2.3c24.3,8.8,57.5,5.8,82.1,7.1C215.4,196.1,302.6,203.9,299.9,191.1z"/>
			<path class="st7" d="M392.6,119.5c-4.2-5.1-10.4-7.2-16.5-5.7c-6.7,1.7-10.4,8-16.6,10.6c-10.8,4.4-25.8-4.3-34,7.1
				c-10,14-17.8,3.5-17.8,13s69.4,2.5,103.6,3c4.9,0.1,26.4-0.3,17.2-10.6c-2.9-3.2-7-3.7-10.8-4.5c-5-1-16.8-1.5-20.4-5.4
				c-1.9-2.1-2.7-5.1-4.4-7.3C392.8,119.7,392.7,119.6,392.6,119.5z"/>
		</g>
		<g>
			<g>
				<linearGradient id="SVGID_43_" gradientUnits="userSpaceOnUse" x1="864.4913" y1="413.7673" x2="896.9354" y2="449.7379">
					<stop  offset="0" style="stop-color:#2B3582"/>
					<stop  offset="1" style="stop-color:#150E42"/>
				</linearGradient>
				<path class="st45" d="M869.2,434.5c0,0-2.9-11,12.6-12.8c15.6-1.8,19.9,24.9,7.5,28.5C877.1,453.8,869.2,434.5,869.2,434.5z"/>
				<linearGradient id="SVGID_44_" gradientUnits="userSpaceOnUse" x1="906.5209" y1="687.5762" x2="911.8541" y2="399.5764">
					<stop  offset="0" style="stop-color:#C32B78"/>
					<stop  offset="1" style="stop-color:#593092"/>
				</linearGradient>
				<path class="st46" d="M975.2,492.7c-4.8-5.2-11.6-8.2-18.7-8.2l-93-0.7c-7.6-0.1-14.8,3.2-19.7,9c-4.9,5.8-7.1,13.4-5.8,20.9
					L856.6,627h117.1l8.2-115.1C982.5,504.9,980,497.9,975.2,492.7z"/>
				<linearGradient id="SVGID_45_" gradientUnits="userSpaceOnUse" x1="849" y1="553.0667" x2="888.6406" y2="553.0667">
					<stop  offset="0" style="stop-color:#F9B776"/>
					<stop  offset="1" style="stop-color:#F47960"/>
				</linearGradient>
				<polygon class="st47" points="849,547.8 881.4,546.5 888.6,559.7 849,556.7 				"/>
				<linearGradient id="SVGID_46_" gradientUnits="userSpaceOnUse" x1="853.7693" y1="711.1403" x2="979.9029" y2="632.1787">
					<stop  offset="0" style="stop-color:#2B3582"/>
					<stop  offset="1" style="stop-color:#150E42"/>
				</linearGradient>
				<rect x="870" y="671" class="st48" width="83" height="8"/>
				<g>
					<linearGradient id="SVGID_47_" gradientUnits="userSpaceOnUse" x1="868.22" y1="769.0589" x2="871.8057" y2="575.4282">
						<stop  offset="0" style="stop-color:#2B3582"/>
						<stop  offset="1" style="stop-color:#150E42"/>
					</linearGradient>
					<path class="st49" d="M863.7,632l5.9,96c0,0.6,0.5,1,1.1,1h3.9c0.6,0,1.3-0.2,1.3-0.9V632H863.7z"/>
					
						<linearGradient id="SVGID_48_" gradientUnits="userSpaceOnUse" x1="-263.5159" y1="769.05" x2="-259.9306" y2="575.4388" gradientTransform="matrix(-1 0 0 1 694 0)">
						<stop  offset="0" style="stop-color:#2B3582"/>
						<stop  offset="1" style="stop-color:#150E42"/>
					</linearGradient>
					<path class="st50" d="M961.7,632l-5.9,96c0,0.6-0.5,1-1.1,1h-3.9c-0.6,0-0.8-0.2-0.8-0.9V632H961.7z"/>
				</g>
				<linearGradient id="SVGID_49_" gradientUnits="userSpaceOnUse" x1="599.7166" y1="625.7913" x2="761.7169" y2="625.1246">
					<stop  offset="0" style="stop-color:#C32B78"/>
					<stop  offset="1" style="stop-color:#593092"/>
				</linearGradient>
				<path class="st51" d="M985,624.6c0,7.4-6,13.4-13.4,13.4H855.4c-7.4,0-13.4-6-13.4-13.4v-0.2c0-7.4,6-13.4,13.4-13.4h116.2
					c7.4,0,13.4,6,13.4,13.4V624.6z"/>
				<g>
					
						<linearGradient id="SVGID_50_" gradientUnits="userSpaceOnUse" x1="4825.7168" y1="1085.1184" x2="4733.0903" y2="1137.9884" gradientTransform="matrix(-0.9155 0.4023 0.4023 0.9155 4732.0547 -2296.0918)">
						<stop  offset="0" style="stop-color:#F9B776"/>
						<stop  offset="1" style="stop-color:#F47960"/>
					</linearGradient>
					<path class="st52" d="M798,713.6c0.1-0.1,12.8-120.8,16.2-133.2c0.6-2.1,2.2-3.7,4.2-4.3l16.2-4.9l34.9,20.5l-37.5,6.3
						c12,19.3-13.2,66.9-21.5,83.9c-0.8,1.7-0.1,3.8,1.7,4.5l7.7,3.2c-4.8,12.6-12.4,22.7-22.5,30.3L798,713.6z"/>
					
						<linearGradient id="SVGID_51_" gradientUnits="userSpaceOnUse" x1="1448.7185" y1="355.2963" x2="1441.4313" y2="467.0345" gradientTransform="matrix(0.6441 -0.765 0.765 0.6441 -422.4711 1562.6077)">
						<stop  offset="0" style="stop-color:#CB236D"/>
						<stop  offset="1" style="stop-color:#4C246D"/>
					</linearGradient>
					<path class="st53" d="M815.7,688.1c0,0,3.9-0.4,6.3,2.1c1.2,1.2,1.3,3.1,0.4,4.5c-3.8,6.4-16.5,27.4-23.9,33.6
						c-0.6,0.5-1.5,0.2-1.7-0.6c-0.4-2.2-0.8-6.7,1.3-14.5l0,1c-0.1,1.3,1.6,1.9,2.3,0.8C804.7,709.4,813.1,697.4,815.7,688.1z"/>
				</g>
				
					<linearGradient id="SVGID_52_" gradientUnits="userSpaceOnUse" x1="5174.7822" y1="873.3418" x2="5499.5859" y2="670.0096" gradientTransform="matrix(-0.9615 0.2748 0.2748 0.9615 5502.0654 -1631.6833)">
					<stop  offset="0" style="stop-color:#F9B776"/>
					<stop  offset="1" style="stop-color:#F47960"/>
				</linearGradient>
				<path class="st54" d="M821.8,719c0.1-0.1,2.8-23.5,2.9-23.6c-5.9-50.8,1.7-97.8,4.3-110.4c0.4-2.1,1.9-3.8,3.9-4.6l15.8-6
					l37.3,28.7l-38-1.7c13.3,18.4-8.6,67.7-15.8,85.2c-0.7,1.8,0.2,3.8,2,4.4l7.9,2.7c-4,12.9-10.8,23.5-20.4,31.8L821.8,719z"/>
				
					<linearGradient id="SVGID_53_" gradientUnits="userSpaceOnUse" x1="1497.3406" y1="-322.5398" x2="1490.0533" y2="-210.8013" gradientTransform="matrix(0.5905 -0.807 0.807 0.5905 180.2546 2088.491)">
					<stop  offset="0" style="stop-color:#CB236D"/>
					<stop  offset="1" style="stop-color:#4C246D"/>
				</linearGradient>
				<path class="st55" d="M837.6,692.3c0,0,3.8-0.7,6.5,1.7c1.3,1.1,1.5,3,0.8,4.5c-3.4,6.7-14.6,28.4-21.5,35.2
					c-0.6,0.6-1.5,0.3-1.7-0.5c-0.6-2.1-1.2-6.6,0.3-14.5l0,1c0,1.3,1.7,1.7,2.4,0.7C828.1,714.4,835.7,701.7,837.6,692.3z"/>
				<linearGradient id="SVGID_54_" gradientUnits="userSpaceOnUse" x1="911.5406" y1="547.677" x2="827.241" y2="700.0649">
					<stop  offset="0" style="stop-color:#50E7B7"/>
					<stop  offset="0.9964" style="stop-color:#323992"/>
				</linearGradient>
				<path class="st56" d="M948.2,602.6c-1.3-10.4-16.5-33-16.5-33s-59.2-1.9-66.1,0.8c-5.4,2.1-27.2,0.9-36.8,0.3
					c-0.4,0-0.7,0.2-0.8,0.6c-0.1,0.4,0.1,0.7,0.4,0.9c23.3,10.1,25.5,15.9,28.6,35.5c0,0,23.4,14.2,70.9,10.3
					C944,616.6,949.4,613,948.2,602.6z"/>
				
					<linearGradient id="SVGID_55_" gradientUnits="userSpaceOnUse" x1="5917.6143" y1="491.2008" x2="5693.8276" y2="707.066" gradientTransform="matrix(-1 0 0 1 6775.3369 0)">
					<stop  offset="0" style="stop-color:#FDF53F"/>
					<stop  offset="1" style="stop-color:#D93C65"/>
				</linearGradient>
				<path class="st57" d="M890.4,566.2c0,0-17.8-16.9-26.5-28.1c-4.7-6.1-6.2-14-4-21.4c4-13.5,11.1-27.4,11.7-29.6
					c1-3.3,20.9-3.2,20.9-3.2s39.2,25.4,54.6,68.5l-17.3,5.4c0,0-10.2-17.2-20.3-28.1c0,0,17.5,23.1,18.1,32.6L890.4,566.2z"/>
				
					<linearGradient id="SVGID_56_" gradientUnits="userSpaceOnUse" x1="-3.1234" y1="510.6772" x2="-9.5733" y2="469.2907" gradientTransform="matrix(1 0 0 1 888.874 0)">
					<stop  offset="0" style="stop-color:#F9B776"/>
					<stop  offset="1" style="stop-color:#F47960"/>
				</linearGradient>
				<path class="st58" d="M869.2,468.6c0.2,0.7,5.4,17.9,5.8,18.3c0.4,0.4,11.4,0.9,16.6-2.6L881,460.9L869.2,468.6z"/>
				
					<linearGradient id="SVGID_57_" gradientUnits="userSpaceOnUse" x1="1143.2289" y1="-1447.6713" x2="1184.9075" y2="-1419.3613" gradientTransform="matrix(0.723 -0.6909 0.6909 0.723 1025.6676 2302.6511)">
					<stop  offset="0" style="stop-color:#F9B776"/>
					<stop  offset="1" style="stop-color:#F47960"/>
				</linearGradient>
				<path class="st59" d="M854.9,449.2c0,0-3.7,8.5,0.6,21.5c4.3,13,11.5,14.1,16,10.9s10.3-9,11.1-20.7
					C883.3,449.2,860,438.4,854.9,449.2z"/>
				<linearGradient id="SVGID_58_" gradientUnits="userSpaceOnUse" x1="929.1957" y1="384.6655" x2="758.4034" y2="574.0223">
					<stop  offset="0" style="stop-color:#2B3582"/>
					<stop  offset="1" style="stop-color:#150E42"/>
				</linearGradient>
				<path class="st60" d="M874.8,434.8c-4.2-2.3-8.7-3-12.8-2.4c-3.1,0.4-6,1.6-8.6,3.3c-2.6,1.7-4.6,3.9-6.2,6.5
					c-0.5,1-0.8,2.1-1.1,3.3c-0.8,4.3,0.3,8.8,3.1,12.1c2.1,2.5,4.2,4.6,4.2,4.6l0.4-2.6c0-3.3,2.6-6.9,5.8-7.9
					c3.2-1,6.6-0.2,9.1,2.1c3.2,3,4.9,7.1,4.9,7.1l1.1-0.3c0,0-0.1-5.1,3.2-3.9c3.3,1.2,4.6,8,4.6,8s6.9,3.2,7.6-6.1
					C890.9,449.2,886.8,441.4,874.8,434.8z"/>
				
					<linearGradient id="SVGID_59_" gradientUnits="userSpaceOnUse" x1="1145.7267" y1="-1451.3488" x2="1187.4056" y2="-1423.0386" gradientTransform="matrix(0.723 -0.6909 0.6909 0.723 1025.6676 2302.6511)">
					<stop  offset="0" style="stop-color:#F9B776"/>
					<stop  offset="1" style="stop-color:#F47960"/>
				</linearGradient>
				<path class="st61" d="M876.5,460.4c0,0-4.1-9,1.6-9.3c5.7-0.3,3.4,8.7,2.3,12L876.5,460.4z"/>
				
					<linearGradient id="SVGID_60_" gradientUnits="userSpaceOnUse" x1="26.6477" y1="563.4437" x2="121.2122" y2="563.4437" gradientTransform="matrix(1 0 0 1 888.874 0)">
					<stop  offset="0" style="stop-color:#F9B776"/>
					<stop  offset="1" style="stop-color:#F47960"/>
				</linearGradient>
				<path class="st62" d="M856.6,572.9l13.3-14.5l15.4,4.2c0,0,18,2.8,28.3,0c10.3-2.8,10.3-2.8,10.3-2.8l23.2-7.2l3.7,10.3
					c0.9,2.6,0,5.5-2.3,7.1c-2,1.4-4.4,3-5.9,3.7c-3.1,1.3-70.5,0.4-70.5,0.4L856.6,572.9z"/>
				<g>
					<linearGradient id="SVGID_61_" gradientUnits="userSpaceOnUse" x1="822.9601" y1="546.4666" x2="873.8622" y2="546.4666">
						<stop  offset="0" style="stop-color:#2B3582"/>
						<stop  offset="1" style="stop-color:#150E42"/>
					</linearGradient>
					<path class="st63" d="M873.7,573l-25.6-56.7c-0.3-0.6-0.9-0.9-1.5-0.7l-22.8,6.9c-0.3,0.1-0.6,0.3-0.8,0.6
						c-0.2,0.3-0.2,0.7-0.1,1l19.4,52.3c0.2,0.5,0.7,0.9,1.3,0.8l29-2.5c0.4,0,0.8-0.3,1-0.6C873.9,573.8,873.9,573.4,873.7,573z"/>
					<linearGradient id="SVGID_62_" gradientUnits="userSpaceOnUse" x1="826.7275" y1="520.0264" x2="841.4641" y2="520.0264">
						<stop  offset="0" style="stop-color:#53D8FF"/>
						<stop  offset="1" style="stop-color:#3840F7"/>
					</linearGradient>
					<path class="st64" d="M841.4,518.3l-0.7-1.6c-0.2-0.5-0.8-0.8-1.4-0.6l-3.4,1.2c-0.1,0.1-0.3,0-0.4-0.1l-0.6-0.8
						c-0.5-0.6-1.3-0.9-2-0.5l-3,1.4c-0.6,0.3-0.9,0.9-0.9,1.5v1c0,0.2-0.2,0.3-0.4,0.3l-1.1,0.3c-0.3,0.1-0.6,0.3-0.7,0.6
						c-0.1,0.3-0.2,0.6,0,0.9l0.7,1.8c0.2,0.5,0.8,0.8,1.4,0.6l11.8-4.4c0.3-0.1,0.5-0.3,0.6-0.6
						C841.5,518.9,841.5,518.6,841.4,518.3z"/>
				</g>
				<linearGradient id="SVGID_63_" gradientUnits="userSpaceOnUse" x1="827.5795" y1="548.761" x2="836.4306" y2="548.761">
					<stop  offset="0" style="stop-color:#F9B776"/>
					<stop  offset="1" style="stop-color:#F47960"/>
				</linearGradient>
				<path class="st65" d="M827.6,544.4c0,0,4.9-6.6,5.1-4.6s0,6.3,0,6.3s0.9,0.8,2.3,3.8s2.1,7.7,0.6,8.1S827,549.3,827.6,544.4z"/>
				<linearGradient id="SVGID_64_" gradientUnits="userSpaceOnUse" x1="872.1738" y1="551.9895" x2="878.5057" y2="551.9895">
					<stop  offset="0" style="stop-color:#2B3582"/>
					<stop  offset="1" style="stop-color:#150E42"/>
				</linearGradient>
				<path class="st66" d="M878.3,544.3c-0.1-0.2-0.4-0.3-0.6-0.3c-0.5,0-1,0.3-1.1,0.8l-4.4,14.5l2.3,0.7l4-15
					C878.5,544.7,878.5,544.5,878.3,544.3z"/>
				<path class="st7" d="M851,456.8c-0.1,0-0.1,0-0.2-0.1c-0.1-0.1-7.7-9.6,0-16.7c0.1-0.1,0.3-0.1,0.4,0c0.1,0.1,0.1,0.3,0,0.4
					c-7.4,6.8-0.1,15.9,0,16c0.1,0.1,0.1,0.3,0,0.4C851.1,456.8,851,456.8,851,456.8z"/>
			</g>
			<g>
				<g>
					<linearGradient id="SVGID_65_" gradientUnits="userSpaceOnUse" x1="499" y1="661.5" x2="710" y2="661.5">
						<stop  offset="0" style="stop-color:#2B3582"/>
						<stop  offset="1" style="stop-color:#150E42"/>
					</linearGradient>
					<rect x="499" y="652" class="st67" width="211" height="19"/>
					<g>
						<linearGradient id="SVGID_66_" gradientUnits="userSpaceOnUse" x1="494.4863" y1="690.5" x2="513.4029" y2="690.5">
							<stop  offset="0" style="stop-color:#2B3582"/>
							<stop  offset="1" style="stop-color:#150E42"/>
						</linearGradient>
						<path class="st68" d="M494.5,650l7.5,75.5c0.3,3.2,1.6,5.5,3.1,5.5h3c1.7,0,3.1-2.8,3.2-6.5l2.2-74.5H494.5z"/>
						
							<linearGradient id="SVGID_67_" gradientUnits="userSpaceOnUse" x1="-2256.9861" y1="690.5" x2="-2238.0696" y2="690.5" gradientTransform="matrix(-1 0 0 1 -1537.5833 0)">
							<stop  offset="0" style="stop-color:#2B3582"/>
							<stop  offset="1" style="stop-color:#150E42"/>
						</linearGradient>
						<path class="st69" d="M719.4,650l-7.5,75.5c-0.3,3.2-1.6,5.5-3.1,5.5h-3c-1.7,0-3.1-2.8-3.2-6.5l-2.2-74.5H719.4z"/>
					</g>
					<linearGradient id="SVGID_68_" gradientUnits="userSpaceOnUse" x1="415.2645" y1="571.8282" x2="743" y2="571.8282">
						<stop  offset="0" style="stop-color:#C32B78"/>
						<stop  offset="1" style="stop-color:#593092"/>
					</linearGradient>
					<path class="st70" d="M739,624.6c-2.5-2.5-6-3.9-9.5-3.9l-197.1,1.1c-5.6,0-10.7-3-13.3-7.9l-66.6-124
						c-4.3-8.1-13.8-11.8-22.5-9l-1.8,0.6c-5,1.7-9,5.3-11.2,10.1c-2.2,4.8-2.2,10.3-0.2,15.1l55.7,131
						c5.2,12.3,17.2,20.5,30.6,20.8l219,5c5.4,0.1,10.8-1.9,14.7-5.7c3.9-3.8,6.2-9,6.2-14.4V634C743,630.5,741.5,627.1,739,624.6z"
						/>
				</g>
				<g>
					
						<linearGradient id="SVGID_69_" gradientUnits="userSpaceOnUse" x1="-600.257" y1="799.9144" x2="-611.3269" y2="832.4729" gradientTransform="matrix(0.8649 -0.502 0.502 0.8649 752.302 -500.6909)">
						<stop  offset="0" style="stop-color:#F9B776"/>
						<stop  offset="1" style="stop-color:#F47960"/>
					</linearGradient>
					<path class="st71" d="M650.6,487.4l-1.4-2.3c-0.8-1.3-2.2-2.2-3.7-2.4l-14.9-1.8c0,0-0.7-1.7,2.1-3.6c2.7-2,1.1-5.2,1.1-5.2
						s-3.7,3-8.9,7.6c-3,2.6-4.2,6.2-4.6,8.7l-2.4,5.2c1.3,1.6,3.4,2.8,6.5,2.4l0.5-4C634,492.4,642.5,490.7,650.6,487.4z"/>
					<linearGradient id="SVGID_70_" gradientUnits="userSpaceOnUse" x1="623.2525" y1="482.8741" x2="586.9948" y2="530.1818">
						<stop  offset="0" style="stop-color:#CE1567"/>
						<stop  offset="1" style="stop-color:#7A1DBC"/>
					</linearGradient>
					<path class="st72" d="M618,493.3c-1.6,3.5-3.2,7-4.8,10.5c-2.1,4.5-3.8,10.3-7.1,14c-3.9,4.4-10.3,3.7-14.3-0.2
						c-4.4-4.3-9.1-8.2-13.6-12.3c-1.2-1.1-2.4-2.1-3.6-3.2l-0.3,27.6c11,5,23.2,13.5,35.8,9.2c3.5-1.2,7-3.4,8.9-6.6
						c1.2-1.9,2.2-4.5,2.4-6.8c0,0,3-29.8,3-29.8C620.9,496.2,619.5,495.1,618,493.3z"/>
				</g>
				<g>
					<g>
						
							<linearGradient id="SVGID_71_" gradientUnits="userSpaceOnUse" x1="1988.9072" y1="721.5798" x2="2033.49" y2="721.5798" gradientTransform="matrix(1 0 0 1 -1375.1613 0)">
							<stop  offset="0" style="stop-color:#CB236D"/>
							<stop  offset="1" style="stop-color:#4C246D"/>
						</linearGradient>
						<path class="st73" d="M631.7,721.8c-10.9,0-15.8-0.9-17.9-1.8c0.4,1.8,2,3.2,4,3.2h38.7c1.3,0,2.1-1.2,1.8-2.4
							C653.9,721.2,644.5,721.8,631.7,721.8z"/>
						
							<linearGradient id="SVGID_72_" gradientUnits="userSpaceOnUse" x1="2023.2565" y1="635.8525" x2="2011.0752" y2="720.0137" gradientTransform="matrix(1 0 0 1 -1375.1613 0)">
							<stop  offset="0" style="stop-color:#CB236D"/>
							<stop  offset="1" style="stop-color:#4C246D"/>
						</linearGradient>
						<path class="st74" d="M658.3,720.8c-0.1-0.2-0.2-0.5-0.3-0.7c-2.9-3.8-8.9-9.7-16.9-9.6c-11.8,0.2-15.9,1.4-25.1,0.1l-2.2,7.2
							c-0.2,0.7-0.2,1.5-0.1,2.1c2.2,0.9,7,1.8,17.9,1.8C644.5,721.8,653.9,721.2,658.3,720.8z"/>
					</g>
					
						<linearGradient id="SVGID_73_" gradientUnits="userSpaceOnUse" x1="1991.1343" y1="708.1447" x2="2003.1969" y2="708.1447" gradientTransform="matrix(1 0 0 1 -1375.1613 0)">
						<stop  offset="0" style="stop-color:#F9B776"/>
						<stop  offset="1" style="stop-color:#F47960"/>
					</linearGradient>
					<path class="st75" d="M618.6,703l-2.7,9c0,0,5.9,2.7,11,0.5l1-7.8L618.6,703z"/>
					<g>
						
							<linearGradient id="SVGID_74_" gradientUnits="userSpaceOnUse" x1="2058.8328" y1="712.7446" x2="2094.8284" y2="712.7446" gradientTransform="matrix(1 0 0 1 -1375.1613 0)">
							<stop  offset="0" style="stop-color:#CB236D"/>
							<stop  offset="1" style="stop-color:#4C246D"/>
						</linearGradient>
						<path class="st76" d="M698.8,716.1c-8.5,6.8-12.9,9.1-15.1,9.8c1.4,1.1,3.6,1.2,5.2,0l30.1-24.2c1-0.8,0.9-2.3-0.1-3
							C715.7,701.7,708.8,708.1,698.8,716.1z"/>
						
							<linearGradient id="SVGID_75_" gradientUnits="userSpaceOnUse" x1="2083.5923" y1="644.585" x2="2071.4111" y2="728.7463" gradientTransform="matrix(1 0 0 1 -1375.1613 0)">
							<stop  offset="0" style="stop-color:#CB236D"/>
							<stop  offset="1" style="stop-color:#4C246D"/>
						</linearGradient>
						<path class="st77" d="M718.9,698.7c-0.2-0.1-0.4-0.3-0.7-0.3c-4.6-1.1-12.9-1.9-19.1,3.2c-9.1,7.5-11.5,11.1-19.5,15.8
							l2.8,6.9c0.3,0.7,0.7,1.3,1.3,1.7c2.2-0.7,6.6-3,15.1-9.8C708.8,708.1,715.7,701.7,718.9,698.7z"/>
					</g>
					
						<linearGradient id="SVGID_76_" gradientUnits="userSpaceOnUse" x1="1924.4332" y1="653.7143" x2="2019.9233" y2="653.7143" gradientTransform="matrix(1 0 0 1 -1375.1613 0)">
						<stop  offset="0" style="stop-color:#2B3582"/>
						<stop  offset="1" style="stop-color:#150E42"/>
					</linearGradient>
					<path class="st78" d="M561.9,600.1c0,0,65.4,5.3,78.9,11.7c13.4,6.3-11,94.9-11,94.9s-3.7,1.8-11.8-0.8c0,0,8.3-65.4,2.1-79.5
						l-70.8-11.6L561.9,600.1z"/>
					
						<linearGradient id="SVGID_77_" gradientUnits="userSpaceOnUse" x1="3778.3096" y1="1617.4108" x2="3767.6609" y2="1611.796" gradientTransform="matrix(1 0 0 1 -1375.1613 0)">
						<stop  offset="0" style="stop-color:#F9B776"/>
						<stop  offset="1" style="stop-color:#F47960"/>
					</linearGradient>
					<path class="st79" d="M673.1,704.9c0.6,0.6,6.5,12.4,6.5,12.4s6.6-1.4,7.9-5.6l-5.9-10.7L673.1,704.9z"/>
					
						<linearGradient id="SVGID_78_" gradientUnits="userSpaceOnUse" x1="2011.1718" y1="613.9295" x2="1906.3394" y2="732.7887" gradientTransform="matrix(1 0 0 1 -1375.1613 0)">
						<stop  offset="0" style="stop-color:#2B3582"/>
						<stop  offset="1" style="stop-color:#150E42"/>
					</linearGradient>
					<path class="st80" d="M522.5,599.6c0,0-2.1,5.1-2,11.9c0.1,9.4,7.7,17.1,17.1,17.6l77.4,3.5c1.6,0.1,3,1.2,3.4,2.8
						c1.8,7,10.7,28.6,54.1,71.7c1.2,1.1,3,1.3,4.3,0.5l6.2-3.9c0.6-0.4,0.9-1.3,0.5-1.9l-45-76.9c-2.4-3.9-6.2-6.7-10.6-7.9
						l-65.9-16.9L522.5,599.6z"/>
					
						<linearGradient id="SVGID_79_" gradientUnits="userSpaceOnUse" x1="1955.9435" y1="504.6407" x2="1861.9823" y2="662.0259" gradientTransform="matrix(1 0 0 1 -1375.1613 0)">
						<stop  offset="0" style="stop-color:#CE1567"/>
						<stop  offset="1" style="stop-color:#7A1DBC"/>
					</linearGradient>
					<path class="st81" d="M522.2,599.4c0,0-0.8-38.3,6.9-74.4c2.8-13.3,10.2-25.3,20.9-33.7l3.6-2.8l17.9,7.3l9.2,15.9
						c5.1,10.1,3.8,32.2,0,42.8c-6.4,17.9-11.5,36.3-13.7,45.4C567.1,599.9,537.4,603.9,522.2,599.4z"/>
					
						<linearGradient id="SVGID_80_" gradientUnits="userSpaceOnUse" x1="1927.103" y1="479.6527" x2="1952.8737" y2="479.6527" gradientTransform="matrix(1 0 0 1 -1375.1613 0)">
						<stop  offset="0" style="stop-color:#F9B776"/>
						<stop  offset="1" style="stop-color:#F47960"/>
					</linearGradient>
					<path class="st82" d="M565.9,459.9l-14,32.5c0,0,4.5,10.1,20.2,6.2l5.6-22.4L565.9,459.9z"/>
					<g>
						
							<linearGradient id="SVGID_81_" gradientUnits="userSpaceOnUse" x1="994.3078" y1="2791.3486" x2="957.5786" y2="2839.9382" gradientTransform="matrix(0.9372 -0.3487 0.3487 0.9372 -1318.1862 -1821.5718)">
							<stop  offset="0" style="stop-color:#F9B776"/>
							<stop  offset="1" style="stop-color:#F47960"/>
						</linearGradient>
						<path class="st83" d="M593.7,445.1c0.2,0.5,0.5,32.5,0.5,32.5l-18.3-0.2l-4.9-30.3C571.1,447.1,590.9,437.5,593.7,445.1z"/>
						
							<linearGradient id="SVGID_82_" gradientUnits="userSpaceOnUse" x1="966.2572" y1="2803.0696" x2="1010.1307" y2="2803.0696" gradientTransform="matrix(0.9372 -0.3487 0.3487 0.9372 -1318.1862 -1821.5718)">
							<stop  offset="0" style="stop-color:#2B3582"/>
							<stop  offset="1" style="stop-color:#150E42"/>
						</linearGradient>
						<path class="st84" d="M576.5,452.9l1.3,16.1c0,0.2,0.1,0.4,0.1,0.6c0.4,1.2,2.3,5.2,6.2,3.1c3.6-1.9,6.9-3.6,9.5-3.4
							c1.2,0.1,2.1,1.1,2.1,2.2c0,2.9,0,9.5-0.9,15.2c-0.2,1.2-1.2,2-2.4,1.9c-3.5-0.2-10.9-1-16.7-3c-0.8-0.3-1.4-0.9-1.5-1.8
							c-0.7-4-2.8-16.1-3.9-19.4c-1.1-3.1-5.4-4.1-7.2-4.5c-0.6-0.1-1.1-0.4-1.5-1c-1.2-1.8-3.3-6.1,2.1-9.2
							c1.1-0.6,1.5-2.1,0.8-3.2c-1.4-2.2-2.5-5.7,1.5-8.6c4.1-3,7.9-1.3,10.2,0.2c0.9,0.6,2.1,0.5,2.9-0.3c0.4-0.4,1.1-0.7,2-0.4
							c1.2,0.4,2.6-0.3,2.9-1.6c0.6-2.4,2.3-5.3,6.8-5.5c8.1-0.4,10.9,8.1,9.9,13.6c-1,5.5-9.8,5.4-14.5,3.8
							c-3.6-1.3-7.3,1.7-8.9,3.2C576.7,451.5,576.4,452.2,576.5,452.9z"/>
						
							<linearGradient id="SVGID_83_" gradientUnits="userSpaceOnUse" x1="940.5141" y1="2829.8276" x2="969.9737" y2="2799.6028" gradientTransform="matrix(0.9372 -0.3487 0.3487 0.9372 -1318.1862 -1821.5718)">
							<stop  offset="0" style="stop-color:#F9B776"/>
							<stop  offset="1" style="stop-color:#F47960"/>
						</linearGradient>
						<path class="st85" d="M570.8,470.3c0,0,1.3-9.7-2.5-11.2c-3.8-1.5-8.4,0.7-5.9,7C565.4,473.9,570.8,470.3,570.8,470.3z"/>
					</g>
					
						<linearGradient id="SVGID_84_" gradientUnits="userSpaceOnUse" x1="1150.3344" y1="56.264" x2="1056.3781" y2="213.641" gradientTransform="matrix(0.9551 0.2964 -0.2964 0.9551 -483.4267 130.8051)">
						<stop  offset="0" style="stop-color:#CE1567"/>
						<stop  offset="1" style="stop-color:#7A1DBC"/>
					</linearGradient>
					<path class="st86" d="M609.1,568.6c-46.2,14.5-43.7-50.5-44-50.9c-18.3-28-28.6,9.3-26.8,14.6c16.2,58.8,57.2,55.9,73.1,44.3
						C609.4,573.4,608.9,570.7,609.1,568.6z"/>
					
						<linearGradient id="SVGID_85_" gradientUnits="userSpaceOnUse" x1="1147.9143" y1="211.017" x2="1126.9144" y2="80.017" gradientTransform="matrix(0.9551 0.2964 -0.2964 0.9551 -483.4267 130.8051)">
						<stop  offset="0" style="stop-color:#CE1567"/>
						<stop  offset="1" style="stop-color:#7A1DBC"/>
					</linearGradient>
					<path class="st87" d="M573.7,558.6c-0.3-0.1-0.5-0.2-0.6-0.5c-7-10.9-9-26.1-9.4-36.8c0-0.6,0.5-1.2,1.1-1.2
						c0.6,0,1.2,0.5,1.2,1.1c0.3,8.6,2,24.7,9,35.7c0.4,0.5,0.2,1.3-0.4,1.6C574.4,558.6,574,558.7,573.7,558.6z"/>
					
						<linearGradient id="SVGID_86_" gradientUnits="userSpaceOnUse" x1="1130.1998" y1="213.8565" x2="1109.2" y2="82.8565" gradientTransform="matrix(0.9551 0.2964 -0.2964 0.9551 -483.4267 130.8051)">
						<stop  offset="0" style="stop-color:#CE1567"/>
						<stop  offset="1" style="stop-color:#7A1DBC"/>
					</linearGradient>
					<path class="st88" d="M560.8,573.3c-0.1,0-0.3-0.1-0.4-0.2c-10.6-8.8-18.5-22.7-23.6-41.3c-0.2-0.6,0.2-1.3,0.8-1.4
						c0.6-0.2,1.3,0.2,1.4,0.8c5,18.1,12.7,31.6,22.9,40.1c0.5,0.4,0.6,1.2,0.1,1.7C561.7,573.3,561.3,573.5,560.8,573.3z"/>
					
						<linearGradient id="SVGID_87_" gradientUnits="userSpaceOnUse" x1="1189.0481" y1="81.7112" x2="1150.9126" y2="143.5914" gradientTransform="matrix(0.9551 0.2964 -0.2964 0.9551 -483.4267 130.8051)">
						<stop  offset="0" style="stop-color:#F9B776"/>
						<stop  offset="1" style="stop-color:#F47960"/>
					</linearGradient>
					<path class="st89" d="M636.3,555c0,0-0.7,1.2-6.2,5.4c-5.4,4.2-10.8,6.6-6.7,0.8s2.1-8.7-2.6-2.5c-4.7,6.2-8.1,8.6-8.1,8.6
						c-1.2,0.5-2.4,0.9-3.6,1.3c-0.2,2.1,0.3,4.8,2.3,7.9c1.9-0.6,2.9-1.1,2.9-1.1s14.3-2.6,17.4-8.7
						C634.7,560.7,636.3,555,636.3,555z"/>
				</g>
			</g>
			<g>
				<linearGradient id="SVGID_88_" gradientUnits="userSpaceOnUse" x1="693.1469" y1="392.1448" x2="690.9738" y2="614.8811">
					<stop  offset="0" style="stop-color:#FDF53F"/>
					<stop  offset="1" style="stop-color:#D93C65"/>
				</linearGradient>
				<path class="st90" d="M612.6,460.7c-1.7-0.6-1.5-3.1,0.3-3.4c8.3-1.1,20.4-4.3,24.3-14c6.2-15.2-6.7-73.8,52.5-84.3
					c54.6-9.7,85,7.6,84.3,58C773.3,466,694.8,488.9,612.6,460.7z"/>
				<linearGradient id="SVGID_89_" gradientUnits="userSpaceOnUse" x1="705.9709" y1="377.5499" x2="705.1647" y2="460.1739">
					<stop  offset="0" style="stop-color:#2B3582"/>
					<stop  offset="1" style="stop-color:#150E42"/>
				</linearGradient>
				<path class="st91" d="M707.1,460.2c-0.1,0-0.3-0.1-0.4-0.2c-0.1-0.1-3.3-3.5-2.9-7.6c0.1-1.1,0.4-2.1,1-3
					c-0.2-0.2-0.4-0.3-0.6-0.5c-1.4-1.2-3.2-3.9-0.4-8.5c1.6-2.6,4.1-4.7,7.9-6.8c1.3-0.7,2.8-1.5,4.4-2.2c3.5-1.6,7.2-3.4,9.9-5.9
					c-4.5-2.4-9.8-3.7-15.2-3.5c-1.3,0-2.9,0.2-4.7,0.4c1.7,3.8,2,8.2,0.7,12.4c-1.9,5.9-6.8,9.6-13.1,9.7c-3.1,0.1-7.6-0.7-9.9-3.3
					c-1.2-1.4-1.7-3.1-1.3-5.1c0.2-1.2,0.6-2.4,1.2-3.4c-1.2-0.9-2.2-2.1-2.9-3.6c-0.1-0.3-0.2-0.5-0.3-0.8
					c-5.7-1.1-10.5-5.6-12.1-11.8c-1.8-7,0.4-13.6,6-17.7c0.2-0.2,0.5-0.3,0.7-0.5c0.6-2.2,1.5-4.2,2.2-5.5
					c4.3-7.8,12.1-13.3,20.9-14.8c10.2-1.8,24.3,0.7,30.1,7.9c3,3.7,3.7,8.2,2,13.4c0,0,0,0,0,0.1c0.9-0.5,1.9-0.7,2.9-0.6
					c1.9,0.2,4,1.5,5.2,3.3c2,2.9,2.1,6.2,0.5,9.5c-0.8,1.6-2,2.9-3.4,4c1.5,0.8,3.2,1.3,4.7,1.8c0.2,0.1,0.4,0.3,0.4,0.5
					c0,0.2-0.2,0.4-0.5,0.4c-3,0.2-5.5,1.9-6.4,4.4c-0.7,1.7-0.6,3.6,0.1,5.3c2.3-0.6,6.1-1,8,0.4c0.8,0.6,1.2,1.6,1.1,2.7
					c-0.2,1.5-1.1,2.1-1.8,2.4c-2.1,0.7-5.3-1.2-6.4-2.3c-0.6-0.6-1-1.2-1.4-1.9c-0.1,0-0.2,0.1-0.3,0.1c-0.3,0.1-0.6,0.3-0.9,0.5
					c0.7,1.1,1.2,2.3,1.3,3.4c0.1,1.5-0.4,2.8-1.6,3.9c-1.5,1.4-2.7,0.8-3.1,0.5c-1.2-0.9-1.7-3-1-4.6c0.6-1.4,1.8-2.5,3-3.4
					c-1.1-1.4-2.5-2.7-3.6-3.4c-0.1-0.1-0.2-0.1-0.4-0.2c-2.8,2.7-6.7,4.6-10.4,6.3c-1.6,0.7-3,1.4-4.4,2.2c-3.6,2-6,4.1-7.5,6.5
					c-1.9,3-1.8,5.4,0.2,7.2c0.2,0.1,0.3,0.3,0.5,0.4c0.6-0.8,1.5-1.6,2.5-2.3c5-3.5,8.8-3,10.3-1c1.1,1.4,0.7,3.4-0.9,4.7
					c-2.2,1.8-7.9,1.9-11.5-0.1c-0.5,0.8-0.8,1.7-0.9,2.6c-0.4,3.6,2.6,6.7,2.6,6.8c0.2,0.2,0.2,0.5,0,0.7
					C707.3,460.1,707.2,460.2,707.1,460.2z M706.3,449.2c3.3,1.7,8.4,1.7,10.3,0.1c1.2-1,1.5-2.3,0.8-3.3c-1-1.3-4.2-2.1-8.9,1.2
					C707.6,447.8,706.8,448.5,706.3,449.2z M684.7,433.2c-0.5,1-0.9,2-1.1,3.1c-0.3,1.7,0.1,3.1,1.1,4.3c2,2.3,6.1,3,9.1,3
					c5.8-0.2,10.4-3.5,12.1-9c1.3-4,0.9-8.3-0.8-11.9c-0.3,0.1-0.7,0.1-1,0.2c-2.6,6.3-9.1,13-16.9,11.4
					C686.3,434,685.5,433.7,684.7,433.2z M731.5,430.5c-1.1,0.8-2.2,1.9-2.7,3c-0.5,1.2-0.2,2.8,0.7,3.4c0.6,0.5,1.4,0,1.9-0.4
					c0.9-0.8,1.4-1.9,1.3-3C732.6,432.5,732.1,431.4,731.5,430.5z M685.2,432.4c0.7,0.4,1.4,0.7,2.3,0.8c7,1.5,12.9-4.4,15.5-10.2
					C696.3,424.5,688.6,427.4,685.2,432.4z M734.5,429c0.3,0.5,0.7,1,1.1,1.5c0.9,1,3.7,2.6,5.4,2.1c0.6-0.2,1-0.7,1.1-1.5
					c0.1-0.8-0.1-1.4-0.7-1.8C740,428.2,736.6,428.5,734.5,429z M681.8,428.5c0,0.1,0.1,0.1,0.1,0.2c0.6,1.3,1.4,2.3,2.5,3.1
					c1-1.5,2.4-2.8,4-4c-0.9,0.3-1.7,0.5-2.6,0.6C684.4,428.6,683.1,428.7,681.8,428.5z M727.6,425.3c0.1,0,0.1,0.1,0.2,0.1
					c1.2,0.7,2.7,2.1,4,3.7c0.4-0.2,0.8-0.4,1.1-0.6c0.1,0,0.2-0.1,0.2-0.1c-0.8-1.9-0.9-4.1-0.1-6c0.9-2.3,2.8-3.9,5.2-4.6
					c-1.2-0.4-2.3-0.9-3.4-1.5c-1.3,0.9-2.8,1.5-4.3,1.8c0,0,0,0,0,0.1C730.4,421.1,729.3,423.4,727.6,425.3z M681.4,427.5
					c1.4,0.2,2.8,0.2,4.2,0c5.3-0.8,10.3-4.3,15.1-10.3c0,0-0.1-0.1-0.1-0.1c-3.2-2.4-7.4-3.4-11-2.7c-3.1,0.6-5.5,2.4-7.1,5.1
					c-0.5,0.8-0.8,1.7-1.1,2.6c0.5,0.4,1.1,0.7,1.8,0.9c0.3,0.1,0.4,0.4,0.3,0.6c-0.1,0.3-0.4,0.4-0.6,0.3c-0.6-0.2-1.2-0.5-1.7-0.8
					C681,424.6,681,426.1,681.4,427.5z M675,399.8c-5.1,3.8-7.1,10-5.4,16.5c1.5,5.6,5.7,9.7,10.8,10.9c-0.4-1.6-0.4-3.2-0.1-4.8
					c-3-2.7-4.1-8-3.8-11.7c0-0.6,0.2-1.7,0.6-3.1c-0.7-0.5-1.3-1.2-1.7-2.1C674.6,403.9,674.6,401.9,675,399.8z M711.7,421
					c5.4,0,10.6,1.3,15,3.8c1.6-1.7,2.6-4,2.8-6.7c-0.3,0-0.7-0.1-1-0.1c0,0-0.1,0-0.1,0c-3.5,0-7-1.1-10.3-3.7
					c-2.7,1.5-5.7,2.5-8.8,2.6c-1.3,0-2.6-0.1-3.9-0.4c-0.1,1.3-0.2,2.5-0.5,3.8c0.3,0.4,0.5,0.8,0.7,1.3c1.9-0.3,3.7-0.4,5.1-0.5
					C711.1,421,711.4,421,711.7,421z M701.5,417.8c-2.1,2.7-4.3,4.9-6.6,6.6c2.8-1.1,5.7-1.9,8.5-2.4c0.2-0.5,0.3-1,0.5-1.5
					C703.2,419.5,702.4,418.6,701.5,417.8z M677.9,408.2c-0.3,1.2-0.4,2.1-0.5,2.6c-0.2,3.3,0.7,7.9,3.1,10.5c0.3-0.8,0.6-1.6,1-2.4
					c1.7-3,4.4-4.9,7.7-5.6c4-0.8,8.4,0.3,11.8,2.9c0.1,0,0.1,0.1,0.2,0.1c0.2-0.3,0.5-0.7,0.7-1c-4.1-1.9-7.8-5.5-10.4-10.3
					c-0.2-0.4-0.5-0.9-0.8-1.5c-2.8,3.5-7.1,6.1-11.3,5.3C679,408.6,678.4,408.4,677.9,408.2z M702.1,417c0.7,0.7,1.4,1.4,2,2.2
					c0.2-1,0.3-1.9,0.3-2.9c-0.5-0.1-1-0.3-1.4-0.5C702.7,416.2,702.4,416.6,702.1,417z M719,414c3.1,2.3,6.1,3.4,9.5,3.4
					c0.3,0,0.7,0,1-0.1c0-1.6-0.2-3.2-0.3-4.7c-0.1-0.9-0.2-1.8-0.3-2.7c-0.6-1.4-1-3.2-1.1-5C725.7,408.5,722.7,411.8,719,414z
					 M730.1,412.2c0,0.1,0,0.2,0,0.3c0.2,1.5,0.3,3,0.3,4.6c1.2-0.3,2.3-0.7,3.4-1.4C732.5,414.9,731.2,413.7,730.1,412.2z
					 M705.5,415.5c1.3,0.3,2.5,0.5,3.8,0.4c2.8,0,5.5-0.8,8-2.1c-1.8-1.5-3.5-3.4-5.2-5.6c-0.9-1.2-1.9-2.6-2.8-4.1
					c-1.1,3-2.6,5.9-4.2,8.4C705.4,413.5,705.4,414.5,705.5,415.5z M703.6,414.9c0.3,0.1,0.6,0.2,0.8,0.3c0-0.5,0-0.9-0.1-1.4
					C704.1,414.2,703.9,414.6,703.6,414.9z M729.9,409.7c0.1,0.2,0.2,0.4,0.3,0.6c1.1,2.2,2.7,3.7,4.6,4.8c1.4-1,2.6-2.4,3.4-4
					c1.5-2.9,1.4-5.9-0.4-8.4c-1.1-1.6-2.9-2.7-4.5-2.9c-1.1-0.1-2,0.2-2.8,0.8c0,1.4-0.2,2.8-0.4,4.2
					C729.8,406.6,729.8,408.1,729.9,409.7z M691.5,402.6c0.3,0.8,0.7,1.4,1,2c2.6,4.7,6.2,8.2,10.2,10c0,0,0,0,0,0
					c0.5-0.7,1-1.4,1.5-2.2c-0.9-5.2-4-10-8.6-12.9c-0.6-0.4-1.3-0.8-1.9-1.1c-0.2,0.7-0.5,1.4-0.8,2.1
					C692.5,401.1,692,401.8,691.5,402.6z M709.8,402.8c0.8,1.8,2.1,3.5,3.1,4.8c1.7,2.3,3.5,4.2,5.3,5.7c5-2.9,8.9-7.9,10.8-12.7
					c0.2-0.4,0.3-0.9,0.5-1.3c-0.3-2.7-1.6-4.9-4.6-6.4c-4.1-2-10-1.7-13.5,1.2C711.4,396.8,710.8,399.8,709.8,402.8z M693.8,397.2
					c0.8,0.4,1.5,0.8,2.3,1.2c4.5,2.9,7.6,7.5,8.8,12.5c1.5-2.5,2.9-5.3,3.9-8.2c-1-2.2-1.3-4.6,0-7c0.4-0.8,1-1.5,1.7-2.2
					c0-0.9-0.2-1.7-0.4-2.5c-0.8-2.9-2.6-5.2-5.5-6.6c-4.4-2.2-10-0.4-12.9,4c-0.1,0.2-0.3,0.4-0.4,0.6
					C693.5,391.2,694.4,394.1,693.8,397.2z M678.2,407.2c0.5,0.2,1,0.4,1.6,0.5c3.9,0.8,8.1-1.9,10.6-5.3c-0.7-1.6-1.3-3.6-1.5-5.7
					c-2.3-0.4-4.7-0.4-7,0.1C680.2,400.3,678.9,404.3,678.2,407.2z M676.1,399c-0.5,2.2-0.7,4.5,0.1,6.2c0.3,0.6,0.6,1,1,1.4
					c0.7-2.7,1.8-6.3,3.2-9.6C679,397.5,677.5,398.1,676.1,399z M729.5,402c-0.6,1.2-0.7,2.6-0.5,4c0-0.4,0.1-0.9,0.2-1.3
					C729.3,403.8,729.4,402.9,729.5,402z M689.9,396.9c0.2,1.7,0.7,3.2,1.2,4.5c0.3-0.5,0.6-1,0.8-1.5c0.2-0.5,0.5-1.2,0.8-2.1
					C691.7,397.4,690.8,397.1,689.9,396.9z M710.4,395.1c-0.3,0.4-0.6,0.8-0.8,1.2c-0.9,1.7-0.8,3.4-0.3,5
					C709.9,399.2,710.3,397.1,710.4,395.1z M705.1,378.5c-2.3,0-4.5,0.2-6.6,0.5c-8.5,1.5-16,6.8-20.2,14.3c-0.6,1-1.3,2.5-1.8,4.2
					c1.4-0.8,3-1.4,4.5-1.7c1.7-3.6,3.7-6.6,5.9-7.6c1.2-0.5,2.3-0.4,3.4,0.2c0.1-0.2,0.2-0.4,0.3-0.5c3.2-4.8,9.4-6.8,14.2-4.4
					c3.2,1.6,5.2,4,6,7.3c0.2,0.6,0.3,1.3,0.3,2c3.8-2.7,9.8-2.9,14-0.9c2.7,1.3,4.1,3.1,4.8,5.2c0.8-4,0-7.6-2.3-10.5
					C723.2,381.2,713.7,378.5,705.1,378.5z M689.8,395.9c1.1,0.2,2.1,0.6,3.1,1c0.3-2.1,0.1-4.7-2.2-6.7
					C689.9,392,689.6,394,689.8,395.9z M685.5,395.4c1.1,0,2.2,0.1,3.3,0.3c-0.1-2,0.2-4.2,1.2-6.2c-0.8-0.5-1.7-0.6-2.5-0.2
					c-1.8,0.8-3.6,3.3-5.1,6.4C683.4,395.5,684.4,395.4,685.5,395.4z"/>
			</g>
		</g>
		<g>
			<g>
				
					<linearGradient id="SVGID_90_" gradientUnits="userSpaceOnUse" x1="-5624.667" y1="-2096.7612" x2="-5716.1636" y2="-2152.2139" gradientTransform="matrix(-0.963 -0.2696 -7.340000e-002 0.9251 -5193.6978 590.0477)">
					<stop  offset="0" style="stop-color:#53D8FF"/>
					<stop  offset="1" style="stop-color:#3840F7"/>
				</linearGradient>
				<polygon class="st92" points="441.2,138.2 438.9,158.7 453.9,151.4 				"/>
				
					<linearGradient id="SVGID_91_" gradientUnits="userSpaceOnUse" x1="-5675.4487" y1="-2117.2634" x2="-5780.1519" y2="-2227.9744" gradientTransform="matrix(-0.963 -0.2696 -7.340000e-002 0.9251 -5193.6978 590.0477)">
					<stop  offset="0" style="stop-color:#53D8FF"/>
					<stop  offset="1" style="stop-color:#3840F7"/>
				</linearGradient>
				<path class="st93" d="M535,136.6l-60.9,42.5c-1.2,0.8-2.6,1.1-4,0.8c-1.4-0.3-2.6-1.1-3.4-2.3l-40.4-62.8
					c-0.5-0.7-0.4-1.6,0-2.3c0.5-0.7,1.4-1,2.2-0.8L535,136.6z"/>
				
					<linearGradient id="SVGID_92_" gradientUnits="userSpaceOnUse" x1="-5631.3481" y1="-2097.6848" x2="-5716.8184" y2="-2149.4849" gradientTransform="matrix(-0.963 -0.2696 -7.340000e-002 0.9251 -5193.6978 590.0477)">
					<stop  offset="0" style="stop-color:#53D8FF"/>
					<stop  offset="1" style="stop-color:#3840F7"/>
				</linearGradient>
				<polygon class="st94" points="441.2,138.2 535,136.6 447.7,148.3 446.9,154 				"/>
				
					<linearGradient id="SVGID_93_" gradientUnits="userSpaceOnUse" x1="2921.1685" y1="-1848.76" x2="2960.2249" y2="-1860.0721" gradientTransform="matrix(0.963 0.2696 -0.2696 0.963 -2885.7954 1146.4915)">
					<stop  offset="0" style="stop-color:#53D8FF"/>
					<stop  offset="1" style="stop-color:#3840F7"/>
				</linearGradient>
				<polygon class="st95" points="451.6,154.3 438.9,158.7 447.7,148.3 				"/>
			</g>
			<g>
				<path class="st96" d="M424.7,165.1c0,0-0.4,0.1-0.8,0.4c-0.4,0.3-0.8,0.9-1.4,1.3c-1,0.8-1.9,1.7-1.9,1.7l0,0
					c-0.3,0.3-0.6,0.6-0.3,0.9c0.3,0.4,0.7,0.4,1,0.1c0,0,1-0.8,2-1.6c0.3-0.2,0.5-0.4,0.7-0.6c0.3-0.2,0.4-0.3,0.5-0.4
					c0.1-0.1,0.2-0.2,0.4-0.3c0.1-0.1,0.2-0.1,0.2-0.1l0.3-0.2c0.3-0.2,0.5-0.6,0.2-1S425,164.8,424.7,165.1L424.7,165.1z"/>
				<path class="st96" d="M416.1,170.9l-4.3,2.8c-0.4,0.2-0.4,0.7-0.2,1.1c0.3,0.4,0.8,0.5,1.1,0.3l4.3-2.8c0.4-0.2,0.4-0.7,0.2-1.1
					C417,170.8,416.5,170.7,416.1,170.9L416.1,170.9z"/>
				<path class="st96" d="M407.6,176.8l-4.6,2.1c-0.4,0.2-0.5,0.6-0.3,0.9c0.2,0.4,0.7,0.5,1.1,0.3l4.5-2.4c0.4-0.2,0.6-0.4,0.3-0.8
					C408.4,176.5,408,176.8,407.6,176.8L407.6,176.8z"/>
				<path class="st96" d="M398.6,182l-4.9,1.4c-0.4,0.2-0.6,0.3-0.4,0.7c0.2,0.4,0.6,0.5,1,0.3l4.7-2.1c0.4-0.2,0.7-0.1,0.5-0.5
					C399.3,181.5,399,182,398.6,182L398.6,182z"/>
				<path class="st96" d="M388.6,183l-4.8,2.3c-0.4,0.1-0.5,1-0.4,1.4c0.2,0.4,0.6,0.9,1,0.7l5-1.4c0.4-0.1,0.5-1.3,0.3-1.7
					C389.5,183.9,388.9,183,388.6,183L388.6,183z"/>
				<path class="st96" d="M378.8,188l-5.1,0.5c-0.4,0.1-0.6,0.3-0.5,0.7c0.1,0.4,0.5,0.6,1,0.5l5.1-1c0.4-0.1,0.6-0.1,0.5-0.6
					C379.7,187.9,379.2,188,378.8,188L378.8,188z"/>
				<path class="st96" d="M368.2,188l-5,0.6c-0.4,0-0.6,0.6-0.5,1c0.1,0.4,0.5,0.9,0.9,0.8l5.3-0.2c0.4,0,0.5-0.7,0.4-1.2
					C369.2,188.7,369.2,189,368.2,188L368.2,188z"/>
				<path class="st96" d="M358.3,189l-5.3-0.6c-0.4,0-0.8,0.2-0.8,0.7c0,0.4,0.3,0.8,0.7,0.8l5.3,0.5c0.4,0,0.8-0.2,0.8-0.6
					C359.1,189.3,358.8,189,358.3,189L358.3,189z"/>
				<path class="st96" d="M347.9,188l-5.4-0.8c-0.4-0.1-0.8,0.2-0.8,0.6c0,0.4,0.3,0.8,0.7,0.8l5.3,0.7c0.4,0.1,0.9-0.2,0.9-0.6
					C348.6,188.3,348.1,187.8,347.9,188L347.9,188z"/>
				<path class="st96" d="M337.3,187l-5.3-1.4c-0.4-0.1-0.8,0-0.9,0.4s0.2,0.7,0.6,0.8l5.2,1c0.4,0.1,0.8,0.2,0.9-0.3
					C338,187.1,337.7,187,337.3,187L337.3,187z"/>
				<path class="st96" d="M326.8,184l-5.2-1.5c-0.4-0.1-0.8,0.1-0.9,0.5c-0.1,0.4,0.2,0.8,0.6,0.9l5.2,1.5c0.4,0.1,0.8-0.1,0.9-0.5
					C327.5,184.6,327.2,184,326.8,184L326.8,184z"/>
				<path class="st96" d="M316.7,181c0,0-1.2-0.7-2.5-1.3c-1.2-0.6-2.4-1.3-2.4-1.3l0-0.1c-0.4-0.2-0.8-0.1-1,0.3
					c-0.2,0.4,0,0.8,0.4,1c0,0,1.2,0.6,2.5,1.3c1.2,0.6,2.5,1.1,2.5,1.1c0.4,0.2,0.8,0.2,1-0.2C317.3,181.5,317.1,181,316.7,181
					L316.7,181z"/>
				<path class="st96" d="M307,175.4c0,0,0-0.3-0.4-0.6c-0.2-0.2-0.3-0.4-0.5-0.6c-0.2-0.2-0.4-0.5-0.6-0.7c-0.4-0.5-0.9-1-1.1-1.4
					c-0.3-0.4-0.5-0.7-0.5-0.7l0-0.1c-0.3-0.3-0.7-0.4-1-0.2c-0.3,0.2-0.4,0.7-0.1,1c0,0,0.2,0.3,0.5,0.7c0.3,0.5,0.8,1,1.3,1.5
					c0.3,0.3,0.5,0.5,0.8,0.8c0.2,0.3,0.5,0.4,0.7,0.6c0.4,0.3,0.6,0.6,0.6,0.6c0.3,0.3,0.6,0.3,0.8,0
					C307.6,176.1,307,175.8,307,175.4L307,175.4z"/>
				<path class="st96" d="M301,167.1c0,0,0.3-0.5,0.3-1c-0.1-0.3,0.1-0.6,0.1-0.9c0-0.1,0.1-0.3,0.1-0.5c0-0.1,0-0.2,0-0.2l0-0.3
					c0-0.2,0-0.3,0-0.5c0-0.1,0.1-0.3,0.1-0.4c0-0.2,0.1-0.5,0.2-0.7c0.2-0.4,0.3-0.7,0.3-0.7l0,0c0.2-0.4,0-0.8-0.4-1
					c-0.4-0.2-0.8,0-0.9,0.3c0,0-0.1,0.3-0.3,0.8c-0.1,0.3-0.2,0.5-0.2,0.9c0,0.2-0.1,0.4-0.1,0.6c0,0.2,0,0.3,0,0.5l0,0.2
					c0,0.2,0,0.2,0,0.3c0,0.2,0,0.4,0,0.5c0,0.3,0.1,0.7,0.1,0.9c0.1,0.5,0.1,0.8,0.1,0.8c0.1,0.4,0,0.8,0.4,0.8
					C301.2,167.7,301,167.4,301,167.1L301,167.1z"/>
				<path class="st96" d="M305.3,158.5c0,0,0.9-0.9,1.9-1.7c1-0.6,2-1.3,2-1.3l0-0.1c0.3-0.2,0.3-0.6,0.1-1
					c-0.2-0.4-0.2-0.8-1.1-0.2l0,0c0,0-1.1,0.6-2.2,1.3c-1,0.8-2,1.5-2,1.5c-0.3,0.2-0.2,0.8,0.1,1.2
					C304.4,158.5,305,158.7,305.3,158.5L305.3,158.5z"/>
				<path class="st96" d="M313.7,153c0,0,0.3,0.2,0.8,0.2c0.2,0,0.5,0,0.8,0c0.3,0,0.6,0,0.9,0c0.3,0,0.6,0.1,0.9,0.1
					c0.3,0,0.6,0.1,0.8,0.1c0.4,0.1,0.7,0.2,0.7,0.2l0.1,0c0.4,0.1,0.7-0.2,0.8-0.5c0.1-0.4-0.2-0.8-0.6-0.9c0,0-0.4-0.1-0.9-0.2
					c-0.3-0.1-0.6-0.1-0.9-0.1c-0.3,0-0.7-0.1-1,0c-0.4,0-0.7,0-1,0.1c-0.3,0-0.6,0.1-0.8,0.1c-0.5,0.1-0.8,0.1-0.8,0.1
					c-0.4,0.1-0.6,0.1-0.5,0.5S313.3,153,313.7,153L313.7,153z"/>
				<path class="st96" d="M321,156.6c0,0,1,0.2,1.2,0.7c0.1,0.1,0.5,0.2,0.6,0.3c0.1,0.1,0.3,0.2,0.4,0.4c0.1,0.3,0.3,0.5,0.5,0.8
					c0.1,0.3,0.2,0.6,0.3,0.9c0.1,0.3,0.3,0.5,0.3,0.8c0.1,0.5,0.3,0.8,0.3,0.8l0,0.1c0.1,0.4,0.4,0.7,0.7,0.6
					c0.4-0.1,0.6-0.4,0.5-0.8c0,0-0.1-0.3-0.2-0.9c-0.1-0.3-0.1-0.6-0.2-0.9c-0.1-0.3-0.2-0.7-0.3-1c-0.1-0.4-0.3-0.7-0.5-1
					c-0.1-0.3-0.3-0.6-0.4-0.8c-0.3-0.4-0.5-0.7-0.5-0.7c-0.2-0.3-1.4-0.4-1.8-0.2C321.7,155.7,321,156.2,321,156.6L321,156.6z"/>
				<path class="st96" d="M324,166.4c0,0,0.1,1.3,0,2.6c-0.2,1.3-0.3,2.5-0.3,2.5l0.1,0c-0.1,0.4,0.2,0.8,0.6,0.9
					c0.4,0.1,0.8-0.1,0.8-0.5c0,0,0.3-1.3,0.5-2.7c0.1-1.3,0.3-2.6,0.3-2.6c0-0.4-0.5-0.8-0.9-0.8C324.7,165.7,324,166,324,166.4
					L324,166.4z"/>
				<path class="st96" d="M322,176c0,0-0.3,1.4-0.8,2.6c-0.5,1.1-1,2.4-1,2.4l0,0.1c-0.2,0.3,0,0.8,0.4,1c0.3,0.2,0.8,0.1,0.9-0.3
					c0,0,0.6-1.2,1.1-2.4c0.5-1.2,1-2.4,1-2.4c0.1-0.4-0.2-1-0.6-1.2C322.7,175.7,322.3,176,322,176L322,176z"/>
				<path class="st96" d="M318,185l-3.1,4.5c-0.2,0.3-0.2,0.9,0.1,1.1c0.3,0.2,0.7,0.3,0.9,0l3-4.2c0.2-0.3,0.2-1-0.1-1.2
					C318.5,184.9,317.9,184,318,185L318,185z"/>
				<path class="st96" d="M311.5,194l-3.5,3.5c-0.3,0.3-0.2,0.6,0.1,0.9c0.3,0.3,0.7,0.2,1,0l3.5-3.7c0.3-0.3,0.2-0.5-0.1-0.8
					C312.2,193.5,311.8,194,311.5,194L311.5,194z"/>
				<path class="st96" d="M304.4,200.8c0,0-0.2,0.2-0.6,0.5c-0.4,0.3-0.8,0.7-1.3,1.2c-1,0.8-1.9,1.7-1.9,1.7c-0.3,0.2-0.3,0.7,0,1
					c0.3,0.3,0.7,0.3,1,0.1c0,0,1-0.8,1.9-1.7c0.5-0.4,1-0.8,1.3-1.2c0.4-0.3,0.6-0.5,0.6-0.5c0.3-0.2,0.3-0.7,0-1
					C305.1,200.6,304.6,200.6,304.4,200.8L304.4,200.8z"/>
				<path class="st96" d="M296.6,207.4l-4,3.1c-0.3,0.2-0.3,0.6-0.1,0.9c0.2,0.3,0.7,0.4,0.9,0.2l4-3.1c0.3-0.2,0.3-0.6,0.1-1
					C297.3,207.2,296.9,207.2,296.6,207.4L296.6,207.4z"/>
				<path class="st96" d="M288.5,213.5l-4.2,2.9c-0.3,0.2-0.4,0.6-0.1,0.9c0.2,0.3,0.6,0.4,0.9,0.2l4.2-2.9c0.3-0.2,0.4-0.6,0.1-0.9
					C289.2,213.4,288.8,213.3,288.5,213.5L288.5,213.5z"/>
				<path class="st96" d="M280,219.1l-4.4,2.6c-0.3,0.2-0.4,0.6-0.2,0.9c0.2,0.3,0.6,0.4,0.9,0.3l4.4-2.6c0.3-0.2,0.4-0.6,0.2-0.9
					C280.7,219.1,280.3,218.9,280,219.1L280,219.1z"/>
				<path class="st96" d="M270.9,223.9l-4.6,2.2c-0.3,0.1-0.4,0.6-0.2,0.9c0.2,0.3,0.6,0.5,0.9,0.4l4.7-2.2c0.3-0.1,0.4-0.6,0.2-0.9
					S271.2,223.7,270.9,223.9L270.9,223.9z"/>
				<path class="st96" d="M261.7,228.3l-4.6,2.2c-0.3,0.1-0.4,0.5-0.3,0.9c0.2,0.3,0.6,0.5,0.9,0.3l4.6-2.2c0.3-0.1,0.4-0.5,0.3-0.9
					C262.4,228.3,262,228.2,261.7,228.3L261.7,228.3z"/>
				<path class="st96" d="M252.5,232.9l-4.5,2.4c-0.3,0.2-0.4,0.5-0.2,0.9c0.2,0.3,0.6,0.5,0.9,0.3l4.5-2.4c0.3-0.2,0.4-0.6,0.2-0.9
					C253.2,232.8,252.8,232.7,252.5,232.9L252.5,232.9z"/>
				<path class="st96" d="M243.4,237.8l-4.4,2.6c-0.3,0.2-0.4,0.6-0.2,0.9c0.2,0.3,0.6,0.4,0.9,0.3l4.4-2.6c0.3-0.2,0.4-0.6,0.2-0.9
					C244.1,237.7,243.7,237.6,243.4,237.8L243.4,237.8z"/>
				<path class="st96" d="M234.6,243.1l-4.3,2.8c-0.3,0.2-0.3,0.6-0.1,0.9c0.2,0.3,0.6,0.4,0.9,0.2l4.3-2.8c0.3-0.2,0.3-0.6,0.1-0.9
					C235.3,243,234.9,242.9,234.6,243.1L234.6,243.1z"/>
				<path class="st96" d="M226.1,248.8l-4.2,3c-0.3,0.2-0.3,0.6-0.1,0.9c0.2,0.3,0.6,0.4,0.9,0.2l4.2-3c0.3-0.2,0.3-0.6,0.1-0.9
					C226.8,248.7,226.4,248.6,226.1,248.8L226.1,248.8z"/>
				<path class="st96" d="M217.8,254.8l-4,3.2c-0.3,0.2-0.3,0.6-0.1,0.9c0.2,0.3,0.6,0.3,0.9,0.1l4-3.2c0.3-0.2,0.3-0.6,0.1-0.9
					C218.5,254.7,218.1,254.6,217.8,254.8L217.8,254.8z"/>
				<path class="st96" d="M209.9,261.3l-3.8,3.4c-0.2,0.2-0.3,0.6,0,0.9c0.2,0.3,0.6,0.3,0.9,0.1l3.8-3.4c0.2-0.2,0.3-0.6,0-0.9
					C210.5,261.1,210.1,261.1,209.9,261.3L209.9,261.3z"/>
				<path class="st96" d="M202.3,268.2l-3.7,3.6c-0.2,0.2-0.2,0.6,0,0.9c0.2,0.3,0.6,0.3,0.9,0l3.7-3.6c0.2-0.2,0.2-0.6,0-0.9
					C202.9,268,202.5,268,202.3,268.2L202.3,268.2z"/>
				<path class="st96" d="M195,275.5l-3.5,3.8c-0.2,0.2-0.2,0.6,0.1,0.9c0.2,0.2,0.6,0.2,0.8,0l3.5-3.8c0.2-0.2,0.2-0.6-0.1-0.9
					C195.6,275.2,195.2,275.2,195,275.5L195,275.5z"/>
				<path class="st96" d="M188.2,283.1l-3.3,4c-0.2,0.2-0.2,0.6,0.1,0.8c0.3,0.2,0.6,0.2,0.8,0l3.3-4c0.2-0.2,0.2-0.6-0.1-0.9
					C188.7,282.9,188.4,282.9,188.2,283.1L188.2,283.1z"/>
				<path class="st96" d="M181.7,291.2l-3,4.2c-0.2,0.3-0.1,0.6,0.1,0.8c0.3,0.2,0.6,0.2,0.8-0.1l3-4.1c0.2-0.3,0.1-0.6-0.1-0.8
					C182.3,290.9,181.9,290.9,181.7,291.2L181.7,291.2z"/>
				<path class="st96" d="M175.8,299.6l-2.8,4.3c-0.2,0.3-0.1,0.6,0.2,0.8c0.3,0.2,0.6,0.1,0.8-0.1l2.8-4.3c0.2-0.3,0.1-0.6-0.2-0.8
					C176.3,299.3,176,299.3,175.8,299.6L175.8,299.6z"/>
				<path class="st96" d="M170.3,308.4c0,0-0.6,1.1-1.3,2.3c-0.3,0.6-0.6,1.1-0.9,1.6c-0.2,0.4-0.4,0.7-0.4,0.7
					c-0.1,0.3,0,0.6,0.2,0.8c0.3,0.2,0.6,0.1,0.8-0.2c0,0,0.2-0.3,0.4-0.7c0.2-0.4,0.5-1,0.9-1.5c0.6-1.1,1.3-2.2,1.3-2.2
					c0.2-0.3,0.1-0.6-0.2-0.8C170.8,308,170.5,308.1,170.3,308.4L170.3,308.4z"/>
				<path class="st96" d="M165.4,317.5l-2.2,4.7c-0.1,0.3,0,0.6,0.3,0.8c0.3,0.2,0.6,0.1,0.7-0.2l2.2-4.7c0.1-0.3,0-0.6-0.3-0.8
					C165.9,317.1,165.6,317.2,165.4,317.5L165.4,317.5z"/>
				<path class="st96" d="M161.2,327l-1.9,4.9c-0.1,0.3,0,0.6,0.3,0.8c0.3,0.1,0.6,0,0.7-0.3l1.9-4.8c0.1-0.3,0-0.6-0.3-0.8
					C161.6,326.6,161.3,326.7,161.2,327L161.2,327z"/>
				<path class="st96" d="M157.6,336.8l-1.5,5c-0.1,0.3,0.1,0.6,0.4,0.7c0.3,0.1,0.6,0,0.7-0.3l1.5-5c0.1-0.3-0.1-0.6-0.4-0.7
					C158,336.4,157.6,336.5,157.6,336.8L157.6,336.8z"/>
				<path class="st96" d="M154.7,347l-1.1,5.1c-0.1,0.3,0.1,0.6,0.4,0.7c0.3,0.1,0.6-0.1,0.7-0.4l1.1-5.1c0.1-0.3-0.1-0.6-0.4-0.7
					C155,346.5,154.7,346.7,154.7,347L154.7,347z"/>
				<path class="st96" d="M152.6,357.3l-0.7,5.3c0,0.3,0.2,0.6,0.5,0.7c0.3,0.1,0.6-0.1,0.6-0.4l0.7-5.3c0-0.3-0.2-0.6-0.5-0.7
					C152.9,356.9,152.7,357,152.6,357.3L152.6,357.3z"/>
				<path class="st96" d="M151.5,367.9l-0.2,5.3c0,0.3,0.2,0.6,0.5,0.6c0.3,0,0.5-0.2,0.6-0.5l0.2-5.3c0-0.3-0.2-0.6-0.5-0.6
					C151.7,367.4,151.5,367.6,151.5,367.9L151.5,367.9z"/>
				<path class="st96" d="M151.3,378.7l0.2,4.4c0,0.3,0.3,0.5,0.6,0.6c0.3,0,0.5-0.2,0.5-0.5l-0.2-4.4c0-0.3-0.3-0.5-0.6-0.6
					C151.5,378.1,151.2,378.4,151.3,378.7L151.3,378.7z"/>
			</g>
		</g>
	</g>
</g>
</svg>
